<?xml version="1.0" encoding="UTF-8"?>
<svg id="Presente_der" data-name="Presente der" xmlns="http://www.w3.org/2000/svg" viewBox="0 0 160 160">
  <defs>
    <style>
      .cls-1 {
        fill: #f8f2b6;
      }

      .cls-2 {
        fill: #f6f6f6;
      }

      .cls-3 {
        fill: #575756;
      }

      .cls-4 {
        fill: #f9dfc6;
      }

      .cls-5 {
        fill: #3c2e48;
      }

      .cls-6 {
        fill: #9894de;
      }
    </style>
  </defs>
  <rect class="cls-2" x="122.85" y="85.21" width="9.41" height="9.41"/>
  <rect class="cls-2" x="132.26" y="75.79" width="9.42" height="9.42"/>
  <rect class="cls-2" x="132.26" y="66.38" width="9.42" height="9.41"/>
  <rect class="cls-2" x="132.26" y="56.97" width="9.42" height="9.41"/>
  <rect class="cls-2" x="122.85" y="104.03" width="9.41" height="9.41"/>
  <rect class="cls-2" x="122.85" y="47.56" width="9.41" height="9.41"/>
  <rect class="cls-2" x="113.44" y="75.79" width="9.41" height="9.42"/>
  <rect class="cls-2" x="113.44" y="94.62" width="9.41" height="9.41"/>
  <rect class="cls-2" x="113.44" y="85.21" width="9.41" height="9.41"/>
  <rect class="cls-2" x="122.85" y="113.44" width="9.41" height="9.41"/>
  <rect class="cls-2" x="122.85" y="94.62" width="9.41" height="9.41"/>
  <rect class="cls-2" x="113.44" y="104.03" width="9.41" height="9.41"/>
  <rect class="cls-2" x="122.85" y="66.38" width="9.41" height="9.41"/>
  <rect class="cls-2" x="122.85" y="56.97" width="9.41" height="9.41"/>
  <rect class="cls-2" x="113.44" y="56.97" width="9.41" height="9.41"/>
  <rect class="cls-2" x="122.85" y="75.79" width="9.41" height="9.42"/>
  <rect class="cls-2" x="104.03" y="47.56" width="9.41" height="9.41"/>
  <rect class="cls-2" x="94.62" y="94.62" width="9.41" height="9.41"/>
  <rect class="cls-2" x="104.03" y="94.62" width="9.41" height="9.41"/>
  <rect class="cls-2" x="104.03" y="113.44" width="9.41" height="9.41"/>
  <rect class="cls-2" x="104.03" y="56.97" width="9.41" height="9.41"/>
  <rect class="cls-2" x="104.03" y="75.79" width="9.41" height="9.42"/>
  <rect class="cls-2" x="104.03" y="104.03" width="9.41" height="9.41"/>
  <rect class="cls-2" x="104.03" y="85.21" width="9.41" height="9.41"/>
  <rect class="cls-2" x="104.03" y="66.38" width="9.41" height="9.41"/>
  <rect class="cls-2" x="85.21" y="85.21" width="9.41" height="9.41"/>
  <rect class="cls-2" x="85.21" y="104.03" width="9.41" height="9.41"/>
  <rect class="cls-2" x="94.62" y="56.97" width="9.41" height="9.41"/>
  <rect class="cls-2" x="85.21" y="94.62" width="9.41" height="9.41"/>
  <rect class="cls-2" x="94.62" y="85.21" width="9.41" height="9.41"/>
  <rect class="cls-2" x="94.62" y="75.79" width="9.41" height="9.42"/>
  <rect class="cls-2" x="94.62" y="66.38" width="9.41" height="9.41"/>
  <rect class="cls-2" x="75.79" y="104.03" width="9.42" height="9.41"/>
  <rect class="cls-2" x="75.79" y="94.62" width="9.42" height="9.41"/>
  <rect class="cls-2" x="75.79" y="85.21" width="9.42" height="9.41"/>
  <rect class="cls-2" x="66.38" y="104.03" width="9.41" height="9.41"/>
  <rect class="cls-2" x="66.38" y="94.62" width="9.41" height="9.41"/>
  <rect class="cls-2" x="47.56" y="104.03" width="9.41" height="9.41"/>
  <rect class="cls-2" x="56.97" y="104.03" width="9.41" height="9.41"/>
  <rect class="cls-2" x="28.74" y="113.44" width="9.41" height="9.41"/>
  <rect class="cls-2" x="38.15" y="104.03" width="9.41" height="9.41"/>
  <rect class="cls-2" x="9.91" y="113.44" width="9.41" height="9.41"/>
  <rect class="cls-2" x="9.91" y="104.03" width="9.41" height="9.41"/>
  <rect class="cls-2" x="28.74" y="104.03" width="9.41" height="9.41"/>
  <rect class="cls-2" x="19.32" y="104.03" width="9.42" height="9.41"/>
  <rect class="cls-4" x="113.44" y="66.38" width="9.41" height="9.41"/>
  <rect class="cls-3" x="151.09" y="56.97" width="9.41" height="9.41"/>
  <rect class="cls-3" x="151.09" y="47.56" width="9.41" height="9.41"/>
  <rect class="cls-3" x="151.09" y="38.15" width="9.41" height="9.41"/>
  <rect class="cls-3" x="151.09" y="28.74" width="9.41" height="9.41"/>
  <rect class="cls-3" x="141.68" y="151.09" width="9.41" height="9.41"/>
  <rect class="cls-3" x="141.68" y="141.68" width="9.41" height="9.41"/>
  <rect class="cls-3" x="141.68" y="75.79" width="9.41" height="9.42"/>
  <rect class="cls-3" x="141.68" y="66.38" width="9.41" height="9.41"/>
  <rect class="cls-1" x="141.68" y="56.97" width="9.41" height="9.41"/>
  <rect class="cls-1" x="141.68" y="47.56" width="9.41" height="9.41"/>
  <rect class="cls-1" x="141.68" y="38.15" width="9.41" height="9.41"/>
  <rect class="cls-1" x="141.68" y="28.74" width="9.41" height="9.41"/>
  <rect class="cls-3" x="141.68" y="19.32" width="9.41" height="9.42"/>
  <rect class="cls-3" x="141.68" y="9.91" width="9.41" height="9.41"/>
  <rect class="cls-3" x="132.26" y="151.09" width="9.42" height="9.41"/>
  <rect class="cls-3" x="132.26" y="141.68" width="9.42" height="9.41"/>
  <rect class="cls-3" x="132.26" y="132.26" width="9.42" height="9.42"/>
  <rect class="cls-3" x="132.26" y="122.85" width="9.42" height="9.41"/>
  <rect class="cls-3" x="132.26" y="113.44" width="9.42" height="9.41"/>
  <rect class="cls-3" x="132.26" y="104.03" width="9.42" height="9.41"/>
  <rect class="cls-3" x="132.26" y="94.62" width="9.42" height="9.41"/>
  <rect class="cls-3" x="132.26" y="85.21" width="9.42" height="9.41"/>
  <rect class="cls-5" x="132.26" y="47.56" width="9.42" height="9.41"/>
  <rect class="cls-6" x="132.26" y="38.15" width="9.42" height="9.41"/>
  <rect class="cls-6" x="132.26" y="28.74" width="9.42" height="9.41"/>
  <rect class="cls-6" x="132.26" y="19.32" width="9.42" height="9.42"/>
  <rect class="cls-6" x="132.26" y="9.91" width="9.42" height="9.41"/>
  <rect class="cls-3" x="132.26" y=".5" width="9.42" height="9.41"/>
  <rect class="cls-3" x="122.85" y="132.26" width="9.41" height="9.42"/>
  <rect class="cls-3" x="122.85" y="122.85" width="9.41" height="9.41"/>
  <rect class="cls-6" x="122.85" y="38.15" width="9.41" height="9.41"/>
  <rect class="cls-6" x="122.85" y="28.74" width="9.41" height="9.41"/>
  <rect class="cls-3" x="122.85" y="19.32" width="9.41" height="9.42"/>
  <rect class="cls-3" x="122.85" y="9.91" width="9.41" height="9.41"/>
  <rect class="cls-3" x="113.44" y="151.09" width="9.41" height="9.41"/>
  <rect class="cls-3" x="113.44" y="141.68" width="9.41" height="9.41"/>
  <rect class="cls-3" x="113.44" y="113.44" width="9.41" height="9.41"/>
  <rect class="cls-6" x="113.44" y="47.56" width="9.41" height="9.41"/>
  <rect class="cls-6" x="113.44" y="38.15" width="9.41" height="9.41"/>
  <rect class="cls-3" x="113.44" y="28.74" width="9.41" height="9.41"/>
  <rect class="cls-3" x="104.03" y="151.09" width="9.41" height="9.41"/>
  <rect class="cls-3" x="104.03" y="141.68" width="9.41" height="9.41"/>
  <rect class="cls-3" x="104.03" y="132.26" width="9.41" height="9.42"/>
  <rect class="cls-3" x="104.03" y="122.85" width="9.41" height="9.41"/>
  <rect class="cls-6" x="104.03" y="38.15" width="9.41" height="9.41"/>
  <rect class="cls-6" x="104.03" y="28.74" width="9.41" height="9.41"/>
  <rect class="cls-3" x="104.03" y="19.32" width="9.41" height="9.42"/>
  <rect class="cls-3" x="104.03" y="9.91" width="9.41" height="9.41"/>
  <rect class="cls-3" x="94.62" y="132.26" width="9.41" height="9.42"/>
  <rect class="cls-3" x="94.62" y="122.85" width="9.41" height="9.41"/>
  <rect class="cls-3" x="94.62" y="113.44" width="9.41" height="9.41"/>
  <rect class="cls-3" x="94.62" y="104.03" width="9.41" height="9.41"/>
  <rect class="cls-5" x="94.62" y="47.56" width="9.41" height="9.41"/>
  <rect class="cls-6" x="94.62" y="38.15" width="9.41" height="9.41"/>
  <rect class="cls-6" x="94.62" y="28.74" width="9.41" height="9.41"/>
  <rect class="cls-6" x="94.62" y="19.32" width="9.41" height="9.42"/>
  <rect class="cls-6" x="94.62" y="9.91" width="9.41" height="9.41"/>
  <rect class="cls-3" x="94.62" y=".5" width="9.41" height="9.41"/>
  <rect class="cls-3" x="85.21" y="113.44" width="9.41" height="9.41"/>
  <rect class="cls-3" x="85.21" y="75.79" width="9.41" height="9.42"/>
  <rect class="cls-3" x="85.21" y="66.38" width="9.41" height="9.41"/>
  <rect class="cls-1" x="85.21" y="56.97" width="9.41" height="9.41"/>
  <rect class="cls-1" x="85.21" y="47.56" width="9.41" height="9.41"/>
  <rect class="cls-1" x="85.21" y="38.15" width="9.41" height="9.41"/>
  <rect class="cls-1" x="85.21" y="28.74" width="9.41" height="9.41"/>
  <rect class="cls-3" x="85.21" y="19.32" width="9.41" height="9.42"/>
  <rect class="cls-3" x="85.21" y="9.91" width="9.41" height="9.41"/>
  <rect class="cls-3" x="75.79" y="113.44" width="9.42" height="9.41"/>
  <rect class="cls-6" x="75.79" y="75.79" width="9.42" height="9.42"/>
  <rect class="cls-3" x="75.79" y="66.38" width="9.42" height="9.41"/>
  <rect class="cls-3" x="75.79" y="56.97" width="9.42" height="9.41"/>
  <rect class="cls-3" x="75.79" y="47.56" width="9.42" height="9.41"/>
  <rect class="cls-3" x="75.79" y="38.15" width="9.42" height="9.41"/>
  <rect class="cls-3" x="75.79" y="28.74" width="9.42" height="9.41"/>
  <rect class="cls-3" x="66.38" y="113.44" width="9.41" height="9.41"/>
  <rect class="cls-6" x="66.38" y="85.21" width="9.41" height="9.41"/>
  <rect class="cls-6" x="66.38" y="75.79" width="9.41" height="9.42"/>
  <rect class="cls-3" x="66.38" y="66.38" width="9.41" height="9.41"/>
  <rect class="cls-3" x="56.97" y="113.44" width="9.41" height="9.41"/>
  <rect class="cls-1" x="56.97" y="94.62" width="9.41" height="9.41"/>
  <rect class="cls-6" x="56.97" y="85.21" width="9.41" height="9.41"/>
  <rect class="cls-6" x="56.97" y="75.79" width="9.41" height="9.42"/>
  <rect class="cls-3" x="56.97" y="66.38" width="9.41" height="9.41"/>
  <rect class="cls-3" x="47.56" y="151.09" width="9.41" height="9.41"/>
  <rect class="cls-3" x="47.56" y="141.68" width="9.41" height="9.41"/>
  <rect class="cls-3" x="47.56" y="113.44" width="9.41" height="9.41"/>
  <rect class="cls-1" x="47.56" y="94.62" width="9.41" height="9.41"/>
  <rect class="cls-6" x="47.56" y="85.21" width="9.41" height="9.41"/>
  <rect class="cls-6" x="47.56" y="75.79" width="9.41" height="9.42"/>
  <rect class="cls-3" x="47.56" y="66.38" width="9.41" height="9.41"/>
  <rect class="cls-3" x="47.56" y="28.74" width="9.41" height="9.41"/>
  <rect class="cls-3" x="47.56" y="19.32" width="9.41" height="9.42"/>
  <rect class="cls-3" x="38.15" y="151.09" width="9.41" height="9.41"/>
  <rect class="cls-3" x="38.15" y="141.68" width="9.41" height="9.41"/>
  <rect class="cls-3" x="38.15" y="132.26" width="9.41" height="9.42"/>
  <rect class="cls-3" x="38.15" y="122.85" width="9.41" height="9.41"/>
  <rect class="cls-3" x="38.15" y="113.44" width="9.41" height="9.41"/>
  <rect class="cls-1" x="38.15" y="94.62" width="9.41" height="9.41"/>
  <rect class="cls-6" x="38.15" y="85.21" width="9.41" height="9.41"/>
  <rect class="cls-6" x="38.15" y="75.79" width="9.41" height="9.42"/>
  <rect class="cls-3" x="38.15" y="66.38" width="9.41" height="9.41"/>
  <rect class="cls-3" x="38.15" y="38.15" width="9.41" height="9.41"/>
  <rect class="cls-6" x="38.15" y="28.74" width="9.41" height="9.41"/>
  <rect class="cls-6" x="38.15" y="19.32" width="9.41" height="9.42"/>
  <rect class="cls-3" x="38.15" y="9.91" width="9.41" height="9.41"/>
  <rect class="cls-3" x="28.74" y="132.26" width="9.41" height="9.42"/>
  <rect class="cls-3" x="28.74" y="122.85" width="9.41" height="9.41"/>
  <rect class="cls-1" x="28.74" y="94.62" width="9.41" height="9.41"/>
  <rect class="cls-6" x="28.74" y="85.21" width="9.41" height="9.41"/>
  <rect class="cls-6" x="28.74" y="75.79" width="9.41" height="9.42"/>
  <rect class="cls-3" x="28.74" y="66.38" width="9.41" height="9.41"/>
  <rect class="cls-3" x="28.74" y="47.56" width="9.41" height="9.41"/>
  <rect class="cls-6" x="28.74" y="38.15" width="9.41" height="9.41"/>
  <rect class="cls-6" x="28.74" y="28.74" width="9.41" height="9.41"/>
  <rect class="cls-3" x="28.74" y="19.32" width="9.41" height="9.42"/>
  <rect class="cls-3" x="19.32" y="151.09" width="9.42" height="9.41"/>
  <rect class="cls-3" x="19.32" y="141.68" width="9.42" height="9.41"/>
  <rect class="cls-3" x="19.32" y="113.44" width="9.42" height="9.41"/>
  <rect class="cls-1" x="19.32" y="94.62" width="9.42" height="9.41"/>
  <rect class="cls-6" x="19.32" y="85.21" width="9.42" height="9.41"/>
  <rect class="cls-6" x="19.32" y="75.79" width="9.42" height="9.42"/>
  <rect class="cls-3" x="19.32" y="66.38" width="9.42" height="9.41"/>
  <rect class="cls-3" x="19.32" y="47.56" width="9.42" height="9.41"/>
  <rect class="cls-6" x="19.32" y="38.15" width="9.42" height="9.41"/>
  <rect class="cls-3" x="19.32" y="28.74" width="9.42" height="9.41"/>
  <rect class="cls-3" x="9.91" y="151.09" width="9.41" height="9.41"/>
  <rect class="cls-3" x="9.91" y="141.68" width="9.41" height="9.41"/>
  <rect class="cls-3" x="9.91" y="132.26" width="9.41" height="9.42"/>
  <rect class="cls-3" x="9.91" y="122.85" width="9.41" height="9.41"/>
  <rect class="cls-1" x="9.91" y="94.62" width="9.41" height="9.41"/>
  <rect class="cls-6" x="9.91" y="85.21" width="9.41" height="9.41"/>
  <rect class="cls-6" x="9.91" y="75.79" width="9.41" height="9.42"/>
  <rect class="cls-3" x="9.91" y="66.38" width="9.41" height="9.41"/>
  <rect class="cls-3" x="9.91" y="47.56" width="9.41" height="9.41"/>
  <rect class="cls-6" x="9.91" y="38.15" width="9.41" height="9.41"/>
  <rect class="cls-3" x="9.91" y="28.74" width="9.41" height="9.41"/>
  <rect class="cls-3" x=".5" y="132.26" width="9.41" height="9.42"/>
  <rect class="cls-3" x=".5" y="122.85" width="9.41" height="9.41"/>
  <rect class="cls-3" x=".5" y="113.44" width="9.41" height="9.41"/>
  <rect class="cls-3" x=".5" y="104.03" width="9.41" height="9.41"/>
  <rect class="cls-3" x=".5" y="94.62" width="9.41" height="9.41"/>
  <rect class="cls-3" x=".5" y="85.21" width="9.41" height="9.41"/>
  <rect class="cls-3" x=".5" y="75.79" width="9.41" height="9.42"/>
  <rect class="cls-3" x=".5" y="66.38" width="9.41" height="9.41"/>
  <rect class="cls-3" x=".5" y="56.97" width="9.41" height="9.41"/>
  <rect class="cls-3" x=".5" y="47.56" width="9.41" height="9.41"/>
  <rect class="cls-3" x=".5" y="38.15" width="9.41" height="9.41"/>
</svg>