<?xml version="1.0" encoding="UTF-8"?>
<svg xmlns="http://www.w3.org/2000/svg" viewBox="0 0 160 160">
  <defs>
    <style>
      .cls-1 {
        fill: #f8f2b6;
      }

      .cls-2 {
        fill: #f6f6f6;
        font-family: MyriadPro-Regular, 'Myriad Pro';
        font-size: 14px;
      }

      .cls-3 {
        fill: #fff;
      }

      .cls-4 {
        fill: #575756;
      }

      .cls-5 {
        fill: #f9dfc6;
      }

      .cls-6 {
        fill: #3c2e48;
      }

      .cls-7 {
        letter-spacing: -.03em;
      }

      .cls-8 {
        fill: #9894de;
      }

      .cls-9 {
        fill: #3c3c3b;
      }

      .cls-10 {
        letter-spacing: -.01em;
      }

      .cls-11 {
        letter-spacing: 0em;
      }

      .cls-12 {
        letter-spacing: 0em;
      }
    </style>
  </defs>
  <g id="Capa_3" data-name="Capa 3">
    <g id="Categorías">
      <text class="cls-2" transform="translate(-50.38 10.44)"><tspan class="cls-7" x="0" y="0">F</tspan><tspan class="cls-10" x="6.45" y="0">r</tspan><tspan x="10.89" y="0">e</tspan><tspan class="cls-12" x="17.91" y="0">n</tspan><tspan class="cls-11" x="25.62" y="0">t</tspan><tspan x="30.17" y="0">e</tspan></text>
    </g>
  </g>
  <g id="Presente_frente" data-name="Presente frente">
    <g>
      <rect class="cls-4" x="112.74" y="112.74" width="9.35" height="9.35"/>
      <rect class="cls-4" x="112.74" y="103.38" width="9.35" height="9.36"/>
      <rect class="cls-4" x="112.74" y="94.03" width="9.35" height="9.35"/>
      <rect class="cls-4" x="112.74" y="84.68" width="9.35" height="9.35"/>
      <rect class="cls-4" x="112.74" y="56.62" width="9.35" height="9.35"/>
      <rect class="cls-4" x="112.74" y="47.26" width="9.35" height="9.36"/>
      <rect class="cls-4" x="112.74" y="37.91" width="9.35" height="9.35"/>
      <rect class="cls-4" x="112.74" y="28.56" width="9.35" height="9.35"/>
      <rect class="cls-9" x="103.38" y="150.15" width="9.36" height="9.35"/>
      <rect class="cls-9" x="103.38" y="140.79" width="9.36" height="9.36"/>
      <rect class="cls-9" x="103.38" y="131.44" width="9.36" height="9.35"/>
      <rect class="cls-4" x="103.38" y="122.09" width="9.36" height="9.35"/>
      <rect class="cls-1" x="103.38" y="112.74" width="9.36" height="9.35"/>
      <rect class="cls-1" x="103.38" y="103.38" width="9.36" height="9.36"/>
      <rect class="cls-8" x="103.38" y="94.03" width="9.36" height="9.35"/>
      <rect class="cls-8" x="103.38" y="84.68" width="9.36" height="9.35"/>
      <rect class="cls-4" x="103.38" y="75.32" width="9.36" height="9.36"/>
      <rect class="cls-4" x="103.38" y="65.97" width="9.36" height="9.35"/>
      <rect class="cls-1" x="103.38" y="56.62" width="9.36" height="9.35"/>
      <rect class="cls-1" x="103.38" y="47.26" width="9.36" height="9.36"/>
      <rect class="cls-1" x="103.38" y="37.91" width="9.36" height="9.35"/>
      <rect class="cls-1" x="103.38" y="28.56" width="9.36" height="9.35"/>
      <rect class="cls-4" x="103.38" y="19.21" width="9.36" height="9.35"/>
      <rect class="cls-4" x="103.38" y="9.85" width="9.36" height="9.36"/>
      <rect class="cls-4" x="94.03" y="150.15" width="9.35" height="9.35"/>
      <rect class="cls-4" x="94.03" y="140.79" width="9.35" height="9.36"/>
      <rect class="cls-4" x="94.03" y="131.44" width="9.35" height="9.35"/>
      <rect class="cls-3" x="94.03" y="122.09" width="9.35" height="9.35"/>
      <rect class="cls-3" x="94.03" y="112.74" width="9.35" height="9.35"/>
      <rect class="cls-3" x="94.03" y="103.38" width="9.35" height="9.36"/>
      <rect class="cls-3" x="94.03" y="94.03" width="9.35" height="9.35"/>
      <rect class="cls-4" x="94.03" y="84.68" width="9.35" height="9.35"/>
      <rect class="cls-3" x="94.03" y="75.32" width="9.35" height="9.36"/>
      <rect class="cls-3" x="94.03" y="65.97" width="9.35" height="9.35"/>
      <rect class="cls-3" x="94.03" y="56.62" width="9.35" height="9.35"/>
      <rect class="cls-6" x="94.03" y="47.26" width="9.35" height="9.36"/>
      <rect class="cls-8" x="94.03" y="37.91" width="9.35" height="9.35"/>
      <rect class="cls-8" x="94.03" y="28.56" width="9.35" height="9.35"/>
      <rect class="cls-8" x="94.03" y="19.21" width="9.35" height="9.35"/>
      <rect class="cls-8" x="94.03" y="9.85" width="9.35" height="9.36"/>
      <rect class="cls-4" x="94.03" y=".5" width="9.35" height="9.35"/>
      <rect class="cls-4" x="84.68" y="150.15" width="9.35" height="9.35"/>
      <rect class="cls-4" x="84.68" y="140.79" width="9.35" height="9.36"/>
      <rect class="cls-4" x="84.68" y="131.44" width="9.35" height="9.35"/>
      <rect class="cls-3" x="84.68" y="122.09" width="9.35" height="9.35"/>
      <rect class="cls-3" x="84.68" y="112.74" width="9.35" height="9.35"/>
      <rect class="cls-3" x="84.68" y="103.38" width="9.35" height="9.36"/>
      <rect class="cls-3" x="84.68" y="94.03" width="9.35" height="9.35"/>
      <rect class="cls-3" x="84.68" y="84.68" width="9.35" height="9.35"/>
      <rect class="cls-3" x="84.68" y="75.32" width="9.35" height="9.36"/>
      <rect class="cls-3" x="84.68" y="65.97" width="9.35" height="9.35"/>
      <rect class="cls-3" x="84.68" y="56.62" width="9.35" height="9.35"/>
      <rect class="cls-3" x="84.68" y="47.26" width="9.35" height="9.36"/>
      <rect class="cls-8" x="84.68" y="37.91" width="9.35" height="9.35"/>
      <rect class="cls-8" x="84.68" y="28.56" width="9.35" height="9.35"/>
      <rect class="cls-4" x="84.68" y="19.21" width="9.35" height="9.35"/>
      <rect class="cls-4" x="84.68" y="9.85" width="9.35" height="9.36"/>
      <rect class="cls-4" x="75.32" y="122.09" width="9.36" height="9.35"/>
      <rect class="cls-3" x="75.32" y="112.74" width="9.36" height="9.35"/>
      <rect class="cls-3" x="75.32" y="103.38" width="9.36" height="9.36"/>
      <rect class="cls-3" x="75.32" y="94.03" width="9.36" height="9.35"/>
      <rect class="cls-3" x="75.32" y="84.68" width="9.36" height="9.35"/>
      <rect class="cls-3" x="75.32" y="75.32" width="9.36" height="9.36"/>
      <rect class="cls-5" x="75.32" y="65.97" width="9.36" height="9.35"/>
      <rect class="cls-3" x="75.32" y="56.62" width="9.36" height="9.35"/>
      <rect class="cls-8" x="75.32" y="47.26" width="9.36" height="9.36"/>
      <rect class="cls-8" x="75.32" y="37.91" width="9.36" height="9.35"/>
      <rect class="cls-4" x="75.32" y="28.56" width="9.36" height="9.35"/>
      <rect class="cls-4" x="65.97" y="150.15" width="9.35" height="9.35"/>
      <rect class="cls-4" x="65.97" y="140.79" width="9.35" height="9.36"/>
      <rect class="cls-4" x="65.97" y="131.44" width="9.35" height="9.35"/>
      <rect class="cls-3" x="65.97" y="122.09" width="9.35" height="9.35"/>
      <rect class="cls-3" x="65.97" y="112.74" width="9.35" height="9.35"/>
      <rect class="cls-3" x="65.97" y="103.38" width="9.35" height="9.36"/>
      <rect class="cls-3" x="65.97" y="94.03" width="9.35" height="9.35"/>
      <rect class="cls-3" x="65.97" y="84.68" width="9.35" height="9.35"/>
      <rect class="cls-3" x="65.97" y="75.32" width="9.35" height="9.36"/>
      <rect class="cls-3" x="65.97" y="65.97" width="9.35" height="9.35"/>
      <rect class="cls-3" x="65.97" y="56.62" width="9.35" height="9.35"/>
      <rect class="cls-3" x="65.97" y="47.26" width="9.35" height="9.36"/>
      <rect class="cls-8" x="65.97" y="37.91" width="9.35" height="9.35"/>
      <rect class="cls-8" x="65.97" y="28.56" width="9.35" height="9.35"/>
      <rect class="cls-4" x="65.97" y="19.21" width="9.35" height="9.35"/>
      <rect class="cls-4" x="65.97" y="9.85" width="9.35" height="9.36"/>
      <rect class="cls-4" x="56.62" y="150.15" width="9.35" height="9.35"/>
      <rect class="cls-4" x="56.62" y="140.79" width="9.35" height="9.36"/>
      <rect class="cls-4" x="56.62" y="131.44" width="9.35" height="9.35"/>
      <rect class="cls-3" x="56.62" y="122.09" width="9.35" height="9.35"/>
      <rect class="cls-3" x="56.62" y="112.74" width="9.35" height="9.35"/>
      <rect class="cls-3" x="56.62" y="103.38" width="9.35" height="9.36"/>
      <rect class="cls-3" x="56.62" y="94.03" width="9.35" height="9.35"/>
      <rect class="cls-4" x="56.62" y="84.68" width="9.35" height="9.35"/>
      <rect class="cls-3" x="56.62" y="75.32" width="9.35" height="9.36"/>
      <rect class="cls-3" x="56.62" y="65.97" width="9.35" height="9.35"/>
      <rect class="cls-3" x="56.62" y="56.62" width="9.35" height="9.35"/>
      <rect class="cls-6" x="56.62" y="47.26" width="9.35" height="9.36"/>
      <rect class="cls-8" x="56.62" y="37.91" width="9.35" height="9.35"/>
      <rect class="cls-8" x="56.62" y="28.56" width="9.35" height="9.35"/>
      <rect class="cls-8" x="56.62" y="19.21" width="9.35" height="9.35"/>
      <rect class="cls-8" x="56.62" y="9.85" width="9.35" height="9.36"/>
      <rect class="cls-4" x="56.62" y=".5" width="9.35" height="9.35"/>
      <rect class="cls-9" x="47.26" y="150.15" width="9.36" height="9.35"/>
      <rect class="cls-9" x="47.26" y="140.79" width="9.36" height="9.36"/>
      <rect class="cls-9" x="47.26" y="131.44" width="9.36" height="9.35"/>
      <rect class="cls-4" x="47.26" y="122.09" width="9.36" height="9.35"/>
      <rect class="cls-1" x="47.26" y="112.74" width="9.36" height="9.35"/>
      <rect class="cls-1" x="47.26" y="103.38" width="9.36" height="9.36"/>
      <rect class="cls-8" x="47.26" y="94.03" width="9.36" height="9.35"/>
      <rect class="cls-8" x="47.26" y="84.68" width="9.36" height="9.35"/>
      <rect class="cls-4" x="47.26" y="75.32" width="9.36" height="9.36"/>
      <rect class="cls-4" x="47.26" y="65.97" width="9.36" height="9.35"/>
      <rect class="cls-1" x="47.26" y="56.62" width="9.36" height="9.35"/>
      <rect class="cls-1" x="47.26" y="47.26" width="9.36" height="9.36"/>
      <rect class="cls-1" x="47.26" y="37.91" width="9.36" height="9.35"/>
      <rect class="cls-1" x="47.26" y="28.56" width="9.36" height="9.35"/>
      <rect class="cls-4" x="47.26" y="19.21" width="9.36" height="9.35"/>
      <rect class="cls-4" x="47.26" y="9.85" width="9.36" height="9.36"/>
      <rect class="cls-4" x="37.91" y="112.74" width="9.35" height="9.35"/>
      <rect class="cls-4" x="37.91" y="103.38" width="9.35" height="9.36"/>
      <rect class="cls-4" x="37.91" y="94.03" width="9.35" height="9.35"/>
      <rect class="cls-4" x="37.91" y="84.68" width="9.35" height="9.35"/>
      <rect class="cls-4" x="37.91" y="56.62" width="9.35" height="9.35"/>
      <rect class="cls-4" x="37.91" y="47.26" width="9.35" height="9.36"/>
      <rect class="cls-4" x="37.91" y="37.91" width="9.35" height="9.35"/>
      <rect class="cls-4" x="37.91" y="28.56" width="9.35" height="9.35"/>
    </g>
  </g>
</svg>