<?xml version="1.0" encoding="UTF-8"?>
<svg id="Presente_izq" data-name="Presente izq" xmlns="http://www.w3.org/2000/svg" viewBox="0 0 160 160">
  <defs>
    <style>
      .cls-1 {
        fill: #f8f2b6;
      }

      .cls-2 {
        fill: #fff;
      }

      .cls-3 {
        fill: #575756;
      }

      .cls-4 {
        fill: #f9dfc6;
      }

      .cls-5 {
        fill: #3c2e48;
      }

      .cls-6 {
        fill: #9894de;
      }
    </style>
  </defs>
  <rect class="cls-3" x="149.59" y="150.59" width="9.41" height="9.41"/>
  <rect class="cls-3" x="149.59" y="141.18" width="9.41" height="9.41"/>
  <rect class="cls-3" x="149.59" y="131.76" width="9.41" height="9.42"/>
  <rect class="cls-3" x="149.59" y="122.35" width="9.41" height="9.41"/>
  <rect class="cls-3" x="149.59" y="112.94" width="9.41" height="9.41"/>
  <rect class="cls-3" x="149.59" y="103.53" width="9.41" height="9.41"/>
  <rect class="cls-3" x="149.59" y="94.12" width="9.41" height="9.41"/>
  <rect class="cls-3" x="149.59" y="84.71" width="9.41" height="9.41"/>
  <rect class="cls-3" x="149.59" y="75.29" width="9.41" height="9.42"/>
  <rect class="cls-3" x="149.59" y="65.88" width="9.41" height="9.41"/>
  <rect class="cls-3" x="149.59" y="56.47" width="9.41" height="9.41"/>
  <rect class="cls-3" x="149.59" y="47.06" width="9.41" height="9.41"/>
  <rect class="cls-3" x="149.59" y="37.65" width="9.41" height="9.41"/>
  <rect class="cls-3" x="149.59" y="28.24" width="9.41" height="9.41"/>
  <rect class="cls-3" x="149.59" y="18.82" width="9.41" height="9.42"/>
  <rect class="cls-3" x="140.18" y="150.59" width="9.41" height="9.41"/>
  <rect class="cls-3" x="140.18" y="141.18" width="9.41" height="9.41"/>
  <rect class="cls-3" x="140.18" y="131.76" width="9.41" height="9.42"/>
  <rect class="cls-3" x="140.18" y="122.35" width="9.41" height="9.41"/>
  <rect class="cls-2" x="140.18" y="112.94" width="9.41" height="9.41"/>
  <rect class="cls-2" x="140.18" y="103.53" width="9.41" height="9.41"/>
  <rect class="cls-1" x="140.18" y="94.12" width="9.41" height="9.41"/>
  <rect class="cls-6" x="140.18" y="84.71" width="9.41" height="9.41"/>
  <rect class="cls-6" x="140.18" y="75.29" width="9.41" height="9.42"/>
  <rect class="cls-3" x="140.18" y="65.88" width="9.41" height="9.41"/>
  <rect class="cls-3" x="140.18" y="28.24" width="9.41" height="9.41"/>
  <rect class="cls-6" x="140.18" y="18.82" width="9.41" height="9.42"/>
  <rect class="cls-3" x="140.18" y="9.41" width="9.41" height="9.41"/>
  <rect class="cls-3" x="130.76" y="112.94" width="9.42" height="9.41"/>
  <rect class="cls-2" x="130.76" y="103.53" width="9.42" height="9.41"/>
  <rect class="cls-1" x="130.76" y="94.12" width="9.42" height="9.41"/>
  <rect class="cls-6" x="130.76" y="84.71" width="9.42" height="9.41"/>
  <rect class="cls-6" x="130.76" y="75.29" width="9.42" height="9.42"/>
  <rect class="cls-3" x="130.76" y="65.88" width="9.42" height="9.41"/>
  <rect class="cls-3" x="130.76" y="28.24" width="9.42" height="9.41"/>
  <rect class="cls-6" x="130.76" y="18.82" width="9.42" height="9.42"/>
  <rect class="cls-3" x="130.76" y="9.41" width="9.42" height="9.41"/>
  <rect class="cls-3" x="121.35" y="150.59" width="9.41" height="9.41"/>
  <rect class="cls-3" x="121.35" y="141.18" width="9.41" height="9.41"/>
  <rect class="cls-3" x="121.35" y="131.76" width="9.41" height="9.42"/>
  <rect class="cls-3" x="121.35" y="122.35" width="9.41" height="9.41"/>
  <rect class="cls-2" x="121.35" y="112.94" width="9.41" height="9.41"/>
  <rect class="cls-2" x="121.35" y="103.53" width="9.41" height="9.41"/>
  <rect class="cls-1" x="121.35" y="94.12" width="9.41" height="9.41"/>
  <rect class="cls-6" x="121.35" y="84.71" width="9.41" height="9.41"/>
  <rect class="cls-6" x="121.35" y="75.29" width="9.41" height="9.42"/>
  <rect class="cls-3" x="121.35" y="65.88" width="9.41" height="9.41"/>
  <rect class="cls-3" x="121.35" y="37.65" width="9.41" height="9.41"/>
  <rect class="cls-6" x="121.35" y="28.24" width="9.41" height="9.41"/>
  <rect class="cls-6" x="121.35" y="18.82" width="9.41" height="9.42"/>
  <rect class="cls-3" x="121.35" y="9.41" width="9.41" height="9.41"/>
  <rect class="cls-3" x="111.94" y="150.59" width="9.41" height="9.41"/>
  <rect class="cls-3" x="111.94" y="141.18" width="9.41" height="9.41"/>
  <rect class="cls-3" x="111.94" y="131.76" width="9.41" height="9.42"/>
  <rect class="cls-3" x="111.94" y="122.35" width="9.41" height="9.41"/>
  <rect class="cls-3" x="111.94" y="112.94" width="9.41" height="9.41"/>
  <rect class="cls-2" x="111.94" y="103.53" width="9.41" height="9.41"/>
  <rect class="cls-1" x="111.94" y="94.12" width="9.41" height="9.41"/>
  <rect class="cls-6" x="111.94" y="84.71" width="9.41" height="9.41"/>
  <rect class="cls-6" x="111.94" y="75.29" width="9.41" height="9.42"/>
  <rect class="cls-3" x="111.94" y="65.88" width="9.41" height="9.41"/>
  <rect class="cls-3" x="111.94" y="47.06" width="9.41" height="9.41"/>
  <rect class="cls-6" x="111.94" y="37.65" width="9.41" height="9.41"/>
  <rect class="cls-6" x="111.94" y="28.24" width="9.41" height="9.41"/>
  <rect class="cls-3" x="111.94" y="18.82" width="9.41" height="9.42"/>
  <rect class="cls-3" x="102.53" y="112.94" width="9.41" height="9.41"/>
  <rect class="cls-2" x="102.53" y="103.53" width="9.41" height="9.41"/>
  <rect class="cls-1" x="102.53" y="94.12" width="9.41" height="9.41"/>
  <rect class="cls-6" x="102.53" y="84.71" width="9.41" height="9.41"/>
  <rect class="cls-6" x="102.53" y="75.29" width="9.41" height="9.42"/>
  <rect class="cls-3" x="102.53" y="65.88" width="9.41" height="9.41"/>
  <rect class="cls-3" x="102.53" y="37.65" width="9.41" height="9.41"/>
  <rect class="cls-3" x="102.53" y="28.24" width="9.41" height="9.41"/>
  <rect class="cls-3" x="93.12" y="112.94" width="9.41" height="9.41"/>
  <rect class="cls-2" x="93.12" y="103.53" width="9.41" height="9.41"/>
  <rect class="cls-1" x="93.12" y="94.12" width="9.41" height="9.41"/>
  <rect class="cls-6" x="93.12" y="84.71" width="9.41" height="9.41"/>
  <rect class="cls-6" x="93.12" y="75.29" width="9.41" height="9.42"/>
  <rect class="cls-3" x="93.12" y="65.88" width="9.41" height="9.41"/>
  <rect class="cls-3" x="83.71" y="112.94" width="9.41" height="9.41"/>
  <rect class="cls-2" x="83.71" y="103.53" width="9.41" height="9.41"/>
  <rect class="cls-2" x="83.71" y="94.12" width="9.41" height="9.41"/>
  <rect class="cls-6" x="83.71" y="84.71" width="9.41" height="9.41"/>
  <rect class="cls-6" x="83.71" y="75.29" width="9.41" height="9.42"/>
  <rect class="cls-3" x="83.71" y="65.88" width="9.41" height="9.41"/>
  <rect class="cls-3" x="74.29" y="112.94" width="9.42" height="9.41"/>
  <rect class="cls-2" x="74.29" y="103.53" width="9.42" height="9.41"/>
  <rect class="cls-2" x="74.29" y="94.12" width="9.42" height="9.41"/>
  <rect class="cls-2" x="74.29" y="84.71" width="9.42" height="9.41"/>
  <rect class="cls-6" x="74.29" y="75.29" width="9.42" height="9.42"/>
  <rect class="cls-3" x="74.29" y="65.88" width="9.42" height="9.41"/>
  <rect class="cls-3" x="74.29" y="56.47" width="9.42" height="9.41"/>
  <rect class="cls-3" x="74.29" y="47.06" width="9.42" height="9.41"/>
  <rect class="cls-3" x="74.29" y="37.65" width="9.42" height="9.41"/>
  <rect class="cls-3" x="74.29" y="28.24" width="9.42" height="9.41"/>
  <rect class="cls-3" x="64.88" y="112.94" width="9.41" height="9.41"/>
  <rect class="cls-2" x="64.88" y="103.53" width="9.41" height="9.41"/>
  <rect class="cls-2" x="64.88" y="94.12" width="9.41" height="9.41"/>
  <rect class="cls-2" x="64.88" y="84.71" width="9.41" height="9.41"/>
  <rect class="cls-3" x="64.88" y="75.29" width="9.41" height="9.42"/>
  <rect class="cls-3" x="64.88" y="65.88" width="9.41" height="9.41"/>
  <rect class="cls-1" x="64.88" y="56.47" width="9.41" height="9.41"/>
  <rect class="cls-1" x="64.88" y="47.06" width="9.41" height="9.41"/>
  <rect class="cls-1" x="64.88" y="37.65" width="9.41" height="9.41"/>
  <rect class="cls-1" x="64.88" y="28.24" width="9.41" height="9.41"/>
  <rect class="cls-3" x="64.88" y="18.82" width="9.41" height="9.42"/>
  <rect class="cls-3" x="64.88" y="9.41" width="9.41" height="9.41"/>
  <rect class="cls-3" x="55.47" y="150.59" width="9.41" height="9.41"/>
  <rect class="cls-3" x="55.47" y="141.18" width="9.41" height="9.41"/>
  <rect class="cls-3" x="55.47" y="131.76" width="9.41" height="9.42"/>
  <rect class="cls-3" x="55.47" y="122.35" width="9.41" height="9.41"/>
  <rect class="cls-3" x="55.47" y="112.94" width="9.41" height="9.41"/>
  <rect class="cls-3" x="55.47" y="103.53" width="9.41" height="9.41"/>
  <rect class="cls-2" x="55.47" y="94.12" width="9.41" height="9.41"/>
  <rect class="cls-2" x="55.47" y="84.71" width="9.41" height="9.41"/>
  <rect class="cls-2" x="55.47" y="75.29" width="9.41" height="9.42"/>
  <rect class="cls-2" x="55.47" y="65.88" width="9.41" height="9.41"/>
  <rect class="cls-2" x="55.47" y="56.47" width="9.41" height="9.41"/>
  <rect class="cls-5" x="55.47" y="47.06" width="9.41" height="9.41"/>
  <rect class="cls-6" x="55.47" y="37.65" width="9.41" height="9.41"/>
  <rect class="cls-6" x="55.47" y="28.24" width="9.41" height="9.41"/>
  <rect class="cls-6" x="55.47" y="18.82" width="9.41" height="9.42"/>
  <rect class="cls-6" x="55.47" y="9.41" width="9.41" height="9.41"/>
  <rect class="cls-3" x="55.47" width="9.41" height="9.41"/>
  <rect class="cls-3" x="46.06" y="150.59" width="9.41" height="9.41"/>
  <rect class="cls-3" x="46.06" y="141.18" width="9.41" height="9.41"/>
  <rect class="cls-3" x="46.06" y="131.76" width="9.41" height="9.42"/>
  <rect class="cls-3" x="46.06" y="122.35" width="9.41" height="9.41"/>
  <rect class="cls-2" x="46.06" y="112.94" width="9.41" height="9.41"/>
  <rect class="cls-2" x="46.06" y="103.53" width="9.41" height="9.41"/>
  <rect class="cls-2" x="46.06" y="94.12" width="9.41" height="9.41"/>
  <rect class="cls-2" x="46.06" y="84.71" width="9.41" height="9.41"/>
  <rect class="cls-2" x="46.06" y="75.29" width="9.41" height="9.42"/>
  <rect class="cls-2" x="46.06" y="65.88" width="9.41" height="9.41"/>
  <rect class="cls-2" x="46.06" y="56.47" width="9.41" height="9.41"/>
  <rect class="cls-2" x="46.06" y="47.06" width="9.41" height="9.41"/>
  <rect class="cls-6" x="46.06" y="37.65" width="9.41" height="9.41"/>
  <rect class="cls-6" x="46.06" y="28.24" width="9.41" height="9.41"/>
  <rect class="cls-3" x="46.06" y="18.82" width="9.41" height="9.42"/>
  <rect class="cls-3" x="46.06" y="9.41" width="9.41" height="9.41"/>
  <rect class="cls-3" x="36.65" y="112.94" width="9.41" height="9.41"/>
  <rect class="cls-2" x="36.65" y="103.53" width="9.41" height="9.41"/>
  <rect class="cls-2" x="36.65" y="94.12" width="9.41" height="9.41"/>
  <rect class="cls-2" x="36.65" y="84.71" width="9.41" height="9.41"/>
  <rect class="cls-2" x="36.65" y="75.29" width="9.41" height="9.42"/>
  <rect class="cls-4" x="36.65" y="65.88" width="9.41" height="9.41"/>
  <rect class="cls-2" x="36.65" y="56.47" width="9.41" height="9.41"/>
  <rect class="cls-6" x="36.65" y="47.06" width="9.41" height="9.41"/>
  <rect class="cls-6" x="36.65" y="37.65" width="9.41" height="9.41"/>
  <rect class="cls-3" x="36.65" y="28.24" width="9.41" height="9.41"/>
  <rect class="cls-3" x="27.24" y="150.59" width="9.41" height="9.41"/>
  <rect class="cls-3" x="27.24" y="141.18" width="9.41" height="9.41"/>
  <rect class="cls-3" x="27.24" y="131.76" width="9.41" height="9.42"/>
  <rect class="cls-3" x="27.24" y="122.35" width="9.41" height="9.41"/>
  <rect class="cls-2" x="27.24" y="112.94" width="9.41" height="9.41"/>
  <rect class="cls-2" x="27.24" y="103.53" width="9.41" height="9.41"/>
  <rect class="cls-2" x="27.24" y="94.12" width="9.41" height="9.41"/>
  <rect class="cls-2" x="27.24" y="84.71" width="9.41" height="9.41"/>
  <rect class="cls-2" x="27.24" y="75.29" width="9.41" height="9.42"/>
  <rect class="cls-2" x="27.24" y="65.88" width="9.41" height="9.41"/>
  <rect class="cls-2" x="27.24" y="56.47" width="9.41" height="9.41"/>
  <rect class="cls-2" x="27.24" y="47.06" width="9.41" height="9.41"/>
  <rect class="cls-6" x="27.24" y="37.65" width="9.41" height="9.41"/>
  <rect class="cls-6" x="27.24" y="28.24" width="9.41" height="9.41"/>
  <rect class="cls-3" x="27.24" y="18.82" width="9.41" height="9.42"/>
  <rect class="cls-3" x="27.24" y="9.41" width="9.41" height="9.41"/>
  <rect class="cls-3" x="17.82" y="150.59" width="9.42" height="9.41"/>
  <rect class="cls-3" x="17.82" y="141.18" width="9.42" height="9.41"/>
  <rect class="cls-3" x="17.82" y="131.76" width="9.42" height="9.42"/>
  <rect class="cls-3" x="17.82" y="122.35" width="9.42" height="9.41"/>
  <rect class="cls-3" x="17.82" y="112.94" width="9.42" height="9.41"/>
  <rect class="cls-3" x="17.82" y="103.53" width="9.42" height="9.41"/>
  <rect class="cls-3" x="17.82" y="94.12" width="9.42" height="9.41"/>
  <rect class="cls-3" x="17.82" y="84.71" width="9.42" height="9.41"/>
  <rect class="cls-2" x="17.82" y="75.29" width="9.42" height="9.42"/>
  <rect class="cls-2" x="17.82" y="65.88" width="9.42" height="9.41"/>
  <rect class="cls-2" x="17.82" y="56.47" width="9.42" height="9.41"/>
  <rect class="cls-5" x="17.82" y="47.06" width="9.42" height="9.41"/>
  <rect class="cls-6" x="17.82" y="37.65" width="9.42" height="9.41"/>
  <rect class="cls-6" x="17.82" y="28.24" width="9.42" height="9.41"/>
  <rect class="cls-6" x="17.82" y="18.82" width="9.42" height="9.42"/>
  <rect class="cls-6" x="17.82" y="9.41" width="9.42" height="9.41"/>
  <rect class="cls-3" x="17.82" width="9.42" height="9.41"/>
  <rect class="cls-3" x="8.41" y="75.29" width="9.41" height="9.42"/>
  <rect class="cls-3" x="8.41" y="65.88" width="9.41" height="9.41"/>
  <rect class="cls-1" x="8.41" y="56.47" width="9.41" height="9.41"/>
  <rect class="cls-1" x="8.41" y="47.06" width="9.41" height="9.41"/>
  <rect class="cls-1" x="8.41" y="37.65" width="9.41" height="9.41"/>
  <rect class="cls-1" x="8.41" y="28.24" width="9.41" height="9.41"/>
  <rect class="cls-3" x="8.41" y="18.82" width="9.41" height="9.42"/>
  <rect class="cls-3" x="8.41" y="9.41" width="9.41" height="9.41"/>
  <rect class="cls-3" x="-1" y="56.47" width="9.41" height="9.41"/>
  <rect class="cls-3" x="-1" y="47.06" width="9.41" height="9.41"/>
  <rect class="cls-3" x="-1" y="37.65" width="9.41" height="9.41"/>
  <rect class="cls-3" x="-1" y="28.24" width="9.41" height="9.41"/>
</svg>