<?xml version="1.0" encoding="UTF-8" ?>
<svg version="1.1" width="400" height="400" xmlns="http://www.w3.org/2000/svg" shape-rendering="crispEdges">
<rect x="200" y="140" width="10" height="10" fill="#A1B3AC" />
<rect x="190" y="150" width="10" height="10" fill="#A1B3AC" />
<rect x="200" y="150" width="10" height="20" fill="#BEC9C5" />
<rect x="210" y="150" width="10" height="10" fill="#A1B3AC" />
<rect x="180" y="160" width="10" height="10" fill="#A1B3AC" />
<rect x="190" y="160" width="10" height="10" fill="#BEC9C5" />
<rect x="210" y="160" width="10" height="20" fill="#BEC9C5" />
<rect x="220" y="160" width="10" height="10" fill="#A1B3AC" />
<rect x="170" y="170" width="10" height="10" fill="#A1B3AC" />
<rect x="180" y="170" width="10" height="20" fill="#BEC9C5" />
<rect x="190" y="170" width="20" height="10" fill="#374448" />
<rect x="220" y="170" width="10" height="20" fill="#BEC9C5" />
<rect x="230" y="170" width="10" height="10" fill="#A1B3AC" />
<rect x="160" y="180" width="10" height="10" fill="#A1B3AC" />
<rect x="170" y="180" width="10" height="20" fill="#BEC9C5" />
<rect x="190" y="180" width="10" height="20" fill="#BEC9C5" />
<rect x="200" y="180" width="20" height="10" fill="#374448" />
<rect x="230" y="180" width="10" height="30" fill="#BEC9C5" />
<rect x="240" y="180" width="10" height="10" fill="#A1B3AC" />
<rect x="150" y="190" width="10" height="10" fill="#A1B3AC" />
<rect x="160" y="190" width="10" height="30" fill="#BEC9C5" />
<rect x="180" y="190" width="10" height="20" fill="#374448" />
<rect x="200" y="190" width="20" height="20" fill="#BEC9C5" />
<rect x="220" y="190" width="10" height="20" fill="#374448" />
<rect x="240" y="190" width="10" height="10" fill="#BEC9C5" />
<rect x="250" y="190" width="10" height="10" fill="#A1B3AC" />
<rect x="140" y="200" width="10" height="10" fill="#A1B3AC" />
<rect x="150" y="200" width="10" height="10" fill="#BEC9C5" />
<rect x="170" y="200" width="10" height="10" fill="#374448" />
<rect x="190" y="200" width="10" height="20" fill="#374448" />
<rect x="240" y="200" width="10" height="10" fill="#A1B3AC" />
<rect x="150" y="210" width="10" height="10" fill="#A1B3AC" />
<rect x="170" y="210" width="20" height="20" fill="#BEC9C5" />
<rect x="200" y="210" width="10" height="20" fill="#374448" />
<rect x="210" y="210" width="20" height="10" fill="#BEC9C5" />
<rect x="230" y="210" width="10" height="10" fill="#A1B3AC" />
<rect x="240" y="210" width="10" height="10" fill="#62746D" />
<rect x="150" y="220" width="10" height="10" fill="#62746D" />
<rect x="160" y="220" width="10" height="10" fill="#A1B3AC" />
<rect x="190" y="220" width="10" height="30" fill="#BEC9C5" />
<rect x="210" y="220" width="10" height="10" fill="#BEC9C5" />
<rect x="220" y="220" width="10" height="10" fill="#A1B3AC" />
<rect x="230" y="220" width="10" height="10" fill="#62746D" />
<rect x="160" y="230" width="10" height="10" fill="#62746D" />
<rect x="170" y="230" width="10" height="10" fill="#A1B3AC" />
<rect x="180" y="230" width="10" height="10" fill="#BEC9C5" />
<rect x="200" y="230" width="10" height="10" fill="#BEC9C5" />
<rect x="210" y="230" width="10" height="10" fill="#A1B3AC" />
<rect x="220" y="230" width="10" height="10" fill="#62746D" />
<rect x="170" y="240" width="10" height="10" fill="#62746D" />
<rect x="180" y="240" width="10" height="10" fill="#A1B3AC" />
<rect x="200" y="240" width="10" height="10" fill="#A1B3AC" />
<rect x="210" y="240" width="10" height="10" fill="#62746D" />
<rect x="180" y="250" width="10" height="10" fill="#62746D" />
<rect x="190" y="250" width="10" height="10" fill="#A1B3AC" />
<rect x="200" y="250" width="10" height="10" fill="#62746D" />
<rect x="190" y="260" width="10" height="10" fill="#62746D" />
</svg>