<?xml version="1.0" encoding="UTF-8"?>
<svg id="Presente_der" data-name="Presente der" xmlns="http://www.w3.org/2000/svg" viewBox="0 0 160 160">
  <defs>
    <style>
      .cls-1 {
        fill: #f8f2b6;
      }

      .cls-2 {
        fill: #fff;
      }

      .cls-3 {
        fill: #575756;
      }

      .cls-4 {
        fill: #f9dfc6;
      }

      .cls-5 {
        fill: #3c2e48;
      }

      .cls-6 {
        fill: #9894de;
      }
    </style>
  </defs>
  <rect class="cls-3" x="-.5" y="141.18" width="9.47" height="9.41"/>
  <rect class="cls-3" x="-.5" y="131.76" width="9.47" height="9.42"/>
  <rect class="cls-3" x="8.97" y="150.59" width="9.47" height="9.41"/>
  <rect class="cls-6" x="8.97" y="141.18" width="9.47" height="9.41"/>
  <rect class="cls-6" x="8.97" y="131.76" width="9.47" height="9.42"/>
  <rect class="cls-3" x="8.97" y="122.35" width="9.47" height="9.41"/>
  <rect class="cls-3" x="18.44" y="150.59" width="9.48" height="9.41"/>
  <rect class="cls-6" x="18.44" y="141.18" width="9.48" height="9.41"/>
  <rect class="cls-6" x="18.44" y="131.76" width="9.48" height="9.42"/>
  <rect class="cls-6" x="18.44" y="122.35" width="9.48" height="9.41"/>
  <rect class="cls-3" x="18.44" y="112.94" width="9.48" height="9.41"/>
  <rect class="cls-3" x="27.92" y="141.18" width="9.47" height="9.41"/>
  <rect class="cls-6" x="27.92" y="131.76" width="9.47" height="9.42"/>
  <rect class="cls-6" x="27.92" y="122.35" width="9.47" height="9.41"/>
  <rect class="cls-3" x="27.92" y="112.94" width="9.47" height="9.41"/>
  <rect class="cls-3" x="37.39" y="131.76" width="9.47" height="9.42"/>
  <rect class="cls-3" x="37.39" y="122.35" width="9.47" height="9.41"/>
  <rect class="cls-3" x="37.39" y="112.94" width="9.47" height="9.41"/>
  <rect class="cls-3" x="37.39" y="103.53" width="9.47" height="9.41"/>
  <rect class="cls-3" x="37.39" y="94.12" width="9.47" height="9.41"/>
  <rect class="cls-3" x="37.39" y="84.71" width="9.47" height="9.41"/>
  <rect class="cls-3" x="46.85" y="150.59" width="9.47" height="9.41"/>
  <rect class="cls-3" x="46.85" y="141.18" width="9.47" height="9.41"/>
  <rect class="cls-2" x="46.85" y="131.76" width="9.47" height="9.42"/>
  <rect class="cls-2" x="46.85" y="122.35" width="9.47" height="9.41"/>
  <rect class="cls-2" x="46.85" y="112.94" width="9.47" height="9.41"/>
  <rect class="cls-1" x="46.85" y="103.53" width="9.47" height="9.41"/>
  <rect class="cls-1" x="46.85" y="94.12" width="9.47" height="9.41"/>
  <rect class="cls-6" x="46.85" y="84.71" width="9.47" height="9.41"/>
  <rect class="cls-3" x="46.85" y="75.29" width="9.47" height="9.42"/>
  <rect class="cls-3" x="56.32" y="150.59" width="9.47" height="9.41"/>
  <rect class="cls-2" x="56.32" y="141.18" width="9.47" height="9.41"/>
  <rect class="cls-2" x="56.32" y="131.76" width="9.47" height="9.42"/>
  <rect class="cls-2" x="56.32" y="122.35" width="9.47" height="9.41"/>
  <rect class="cls-2" x="56.32" y="112.94" width="9.47" height="9.41"/>
  <rect class="cls-2" x="56.32" y="103.53" width="9.47" height="9.41"/>
  <rect class="cls-1" x="56.32" y="94.12" width="9.47" height="9.41"/>
  <rect class="cls-6" x="56.32" y="84.71" width="9.47" height="9.41"/>
  <rect class="cls-6" x="56.32" y="75.29" width="9.47" height="9.42"/>
  <rect class="cls-3" x="56.32" y="65.88" width="9.47" height="9.41"/>
  <rect class="cls-3" x="65.79" y="150.59" width="9.47" height="9.41"/>
  <rect class="cls-2" x="65.79" y="141.18" width="9.47" height="9.41"/>
  <rect class="cls-2" x="65.79" y="131.76" width="9.47" height="9.42"/>
  <rect class="cls-2" x="65.79" y="122.35" width="9.47" height="9.41"/>
  <rect class="cls-3" x="65.79" y="112.94" width="9.47" height="9.41"/>
  <rect class="cls-2" x="65.79" y="103.53" width="9.47" height="9.41"/>
  <rect class="cls-2" x="65.79" y="94.12" width="9.47" height="9.41"/>
  <rect class="cls-6" x="65.79" y="84.71" width="9.47" height="9.41"/>
  <rect class="cls-6" x="65.79" y="75.29" width="9.47" height="9.42"/>
  <rect class="cls-3" x="65.79" y="65.88" width="9.47" height="9.41"/>
  <rect class="cls-3" x="75.26" y="150.59" width="9.48" height="9.41"/>
  <rect class="cls-2" x="75.26" y="141.18" width="9.48" height="9.41"/>
  <rect class="cls-2" x="75.26" y="131.76" width="9.48" height="9.42"/>
  <rect class="cls-2" x="75.26" y="122.35" width="9.48" height="9.41"/>
  <rect class="cls-3" x="75.26" y="112.94" width="9.48" height="9.41"/>
  <rect class="cls-2" x="75.26" y="103.53" width="9.48" height="9.41"/>
  <rect class="cls-2" x="75.26" y="94.12" width="9.48" height="9.41"/>
  <rect class="cls-2" x="75.26" y="84.71" width="9.48" height="9.41"/>
  <rect class="cls-6" x="75.26" y="75.29" width="9.48" height="9.42"/>
  <rect class="cls-3" x="75.26" y="65.88" width="9.48" height="9.41"/>
  <rect class="cls-3" x="75.26" y="56.47" width="9.48" height="9.41"/>
  <rect class="cls-3" x="75.26" y="47.06" width="9.48" height="9.41"/>
  <rect class="cls-3" x="75.26" y="37.65" width="9.48" height="9.41"/>
  <rect class="cls-3" x="75.26" y="28.24" width="9.48" height="9.41"/>
  <rect class="cls-3" x="84.74" y="150.59" width="9.47" height="9.41"/>
  <rect class="cls-2" x="84.74" y="141.18" width="9.47" height="9.41"/>
  <rect class="cls-2" x="84.74" y="131.76" width="9.47" height="9.42"/>
  <rect class="cls-3" x="84.74" y="122.35" width="9.47" height="9.41"/>
  <rect class="cls-2" x="84.74" y="112.94" width="9.47" height="9.41"/>
  <rect class="cls-2" x="84.74" y="103.53" width="9.47" height="9.41"/>
  <rect class="cls-2" x="84.74" y="94.12" width="9.47" height="9.41"/>
  <rect class="cls-2" x="84.74" y="84.71" width="9.47" height="9.41"/>
  <rect class="cls-3" x="84.74" y="75.29" width="9.47" height="9.42"/>
  <rect class="cls-3" x="84.74" y="65.88" width="9.47" height="9.41"/>
  <rect class="cls-1" x="84.74" y="56.47" width="9.47" height="9.41"/>
  <rect class="cls-1" x="84.74" y="47.06" width="9.47" height="9.41"/>
  <rect class="cls-1" x="84.74" y="37.65" width="9.47" height="9.41"/>
  <rect class="cls-1" x="84.74" y="28.24" width="9.47" height="9.41"/>
  <rect class="cls-3" x="84.74" y="18.82" width="9.47" height="9.42"/>
  <rect class="cls-3" x="84.74" y="9.41" width="9.47" height="9.41"/>
  <rect class="cls-3" x="94.21" y="150.59" width="9.47" height="9.41"/>
  <rect class="cls-3" x="94.21" y="141.18" width="9.47" height="9.41"/>
  <rect class="cls-3" x="94.21" y="131.76" width="9.47" height="9.42"/>
  <rect class="cls-3" x="94.21" y="122.35" width="9.47" height="9.41"/>
  <rect class="cls-3" x="94.21" y="112.94" width="9.47" height="9.41"/>
  <rect class="cls-3" x="94.21" y="103.53" width="9.47" height="9.41"/>
  <rect class="cls-2" x="94.21" y="94.12" width="9.47" height="9.41"/>
  <rect class="cls-2" x="94.21" y="84.71" width="9.47" height="9.41"/>
  <rect class="cls-2" x="94.21" y="75.29" width="9.47" height="9.42"/>
  <rect class="cls-2" x="94.21" y="65.88" width="9.47" height="9.41"/>
  <rect class="cls-2" x="94.21" y="56.47" width="9.47" height="9.41"/>
  <rect class="cls-5" x="94.21" y="47.06" width="9.47" height="9.41"/>
  <rect class="cls-6" x="94.21" y="37.65" width="9.47" height="9.41"/>
  <rect class="cls-6" x="94.21" y="28.24" width="9.47" height="9.41"/>
  <rect class="cls-6" x="94.21" y="18.82" width="9.47" height="9.42"/>
  <rect class="cls-6" x="94.21" y="9.41" width="9.47" height="9.41"/>
  <rect class="cls-3" x="94.21" width="9.47" height="9.41"/>
  <rect class="cls-3" x="103.68" y="150.59" width="9.47" height="9.41"/>
  <rect class="cls-3" x="103.68" y="141.18" width="9.47" height="9.41"/>
  <rect class="cls-3" x="103.68" y="131.76" width="9.47" height="9.42"/>
  <rect class="cls-3" x="103.68" y="122.35" width="9.47" height="9.41"/>
  <rect class="cls-2" x="103.68" y="112.94" width="9.47" height="9.41"/>
  <rect class="cls-2" x="103.68" y="103.53" width="9.47" height="9.41"/>
  <rect class="cls-2" x="103.68" y="94.12" width="9.47" height="9.41"/>
  <rect class="cls-2" x="103.68" y="84.71" width="9.47" height="9.41"/>
  <rect class="cls-2" x="103.68" y="75.29" width="9.47" height="9.42"/>
  <rect class="cls-2" x="103.68" y="65.88" width="9.47" height="9.41"/>
  <rect class="cls-2" x="103.68" y="56.47" width="9.47" height="9.41"/>
  <rect class="cls-2" x="103.68" y="47.06" width="9.47" height="9.41"/>
  <rect class="cls-6" x="103.68" y="37.65" width="9.47" height="9.41"/>
  <rect class="cls-6" x="103.68" y="28.24" width="9.47" height="9.41"/>
  <rect class="cls-3" x="103.68" y="18.82" width="9.47" height="9.42"/>
  <rect class="cls-3" x="103.68" y="9.41" width="9.47" height="9.41"/>
  <rect class="cls-3" x="113.15" y="112.94" width="9.47" height="9.41"/>
  <rect class="cls-2" x="113.15" y="103.53" width="9.47" height="9.41"/>
  <rect class="cls-2" x="113.15" y="94.12" width="9.47" height="9.41"/>
  <rect class="cls-2" x="113.15" y="84.71" width="9.47" height="9.41"/>
  <rect class="cls-2" x="113.15" y="75.29" width="9.47" height="9.42"/>
  <rect class="cls-4" x="113.15" y="65.88" width="9.47" height="9.41"/>
  <rect class="cls-2" x="113.15" y="56.47" width="9.47" height="9.41"/>
  <rect class="cls-6" x="113.15" y="47.06" width="9.47" height="9.41"/>
  <rect class="cls-6" x="113.15" y="37.65" width="9.47" height="9.41"/>
  <rect class="cls-3" x="113.15" y="28.24" width="9.47" height="9.41"/>
  <rect class="cls-3" x="122.61" y="150.59" width="9.47" height="9.41"/>
  <rect class="cls-3" x="122.61" y="141.18" width="9.47" height="9.41"/>
  <rect class="cls-3" x="122.61" y="131.76" width="9.47" height="9.42"/>
  <rect class="cls-3" x="122.61" y="122.35" width="9.47" height="9.41"/>
  <rect class="cls-2" x="122.61" y="112.94" width="9.47" height="9.41"/>
  <rect class="cls-2" x="122.61" y="103.53" width="9.47" height="9.41"/>
  <rect class="cls-2" x="122.61" y="94.12" width="9.47" height="9.41"/>
  <rect class="cls-2" x="122.61" y="84.71" width="9.47" height="9.41"/>
  <rect class="cls-2" x="122.61" y="75.29" width="9.47" height="9.42"/>
  <rect class="cls-2" x="122.61" y="65.88" width="9.47" height="9.41"/>
  <rect class="cls-2" x="122.61" y="56.47" width="9.47" height="9.41"/>
  <rect class="cls-2" x="122.61" y="47.06" width="9.47" height="9.41"/>
  <rect class="cls-6" x="122.61" y="37.65" width="9.47" height="9.41"/>
  <rect class="cls-6" x="122.61" y="28.24" width="9.47" height="9.41"/>
  <rect class="cls-3" x="122.61" y="18.82" width="9.47" height="9.42"/>
  <rect class="cls-3" x="122.61" y="9.41" width="9.47" height="9.41"/>
  <rect class="cls-3" x="132.08" y="150.59" width="9.48" height="9.41"/>
  <rect class="cls-3" x="132.08" y="141.18" width="9.48" height="9.41"/>
  <rect class="cls-3" x="132.08" y="131.76" width="9.48" height="9.42"/>
  <rect class="cls-3" x="132.08" y="122.35" width="9.48" height="9.41"/>
  <rect class="cls-3" x="132.08" y="112.94" width="9.48" height="9.41"/>
  <rect class="cls-3" x="132.08" y="103.53" width="9.48" height="9.41"/>
  <rect class="cls-3" x="132.08" y="94.12" width="9.48" height="9.41"/>
  <rect class="cls-3" x="132.08" y="84.71" width="9.48" height="9.41"/>
  <rect class="cls-2" x="132.08" y="75.29" width="9.48" height="9.42"/>
  <rect class="cls-2" x="132.08" y="65.88" width="9.48" height="9.41"/>
  <rect class="cls-2" x="132.08" y="56.47" width="9.48" height="9.41"/>
  <rect class="cls-5" x="132.08" y="47.06" width="9.48" height="9.41"/>
  <rect class="cls-6" x="132.08" y="37.65" width="9.48" height="9.41"/>
  <rect class="cls-6" x="132.08" y="28.24" width="9.48" height="9.41"/>
  <rect class="cls-6" x="132.08" y="18.82" width="9.48" height="9.42"/>
  <rect class="cls-6" x="132.08" y="9.41" width="9.48" height="9.41"/>
  <rect class="cls-3" x="132.08" width="9.48" height="9.41"/>
  <rect class="cls-3" x="141.56" y="75.29" width="9.47" height="9.42"/>
  <rect class="cls-3" x="141.56" y="65.88" width="9.47" height="9.41"/>
  <rect class="cls-1" x="141.56" y="56.47" width="9.47" height="9.41"/>
  <rect class="cls-1" x="141.56" y="47.06" width="9.47" height="9.41"/>
  <rect class="cls-1" x="141.56" y="37.65" width="9.47" height="9.41"/>
  <rect class="cls-1" x="141.56" y="28.24" width="9.47" height="9.41"/>
  <rect class="cls-3" x="141.56" y="18.82" width="9.47" height="9.42"/>
  <rect class="cls-3" x="141.56" y="9.41" width="9.47" height="9.41"/>
  <rect class="cls-3" x="151.03" y="56.47" width="9.47" height="9.41"/>
  <rect class="cls-3" x="151.03" y="47.06" width="9.47" height="9.41"/>
  <rect class="cls-3" x="151.03" y="37.65" width="9.47" height="9.41"/>
  <rect class="cls-3" x="151.03" y="28.24" width="9.47" height="9.41"/>
</svg>