<?xml version="1.0" encoding="UTF-8"?>
<svg xmlns="http://www.w3.org/2000/svg" viewBox="0 0 160 160">
  <defs>
    <style>
      .cls-1 {
        fill: #f8f2b6;
      }

      .cls-2, .cls-3 {
        fill: #f6f6f6;
      }

      .cls-3 {
        font-family: MyriadPro-Regular, 'Myriad Pro';
        font-size: 14px;
      }

      .cls-4 {
        letter-spacing: 0em;
      }

      .cls-5 {
        fill: #575756;
      }

      .cls-6 {
        fill: #f9dfc6;
      }

      .cls-7 {
        fill: #3c2e48;
      }

      .cls-8 {
        fill: #9894de;
      }

      .cls-9 {
        letter-spacing: -.01em;
      }
    </style>
  </defs>
  <g id="Capa_3" data-name="Capa 3">
    <g id="Categorías">
      <text class="cls-3" transform="translate(-82.38 18.44)"><tspan class="cls-4" x="0" y="0">D</tspan><tspan x="9.38" y="0">e</tspan><tspan class="cls-9" x="16.39" y="0">r</tspan><tspan x="20.83" y="0">echa</tspan></text>
    </g>
  </g>
  <g id="Presente_der" data-name="Presente der">
    <g>
      <rect class="cls-2" x="94.62" y="55.97" width="9.41" height="9.41"/>
      <rect class="cls-2" x="47.56" y="103.03" width="9.41" height="9.41"/>
      <rect class="cls-2" x="38.15" y="103.03" width="9.41" height="9.41"/>
      <rect class="cls-2" x="85.21" y="103.03" width="9.41" height="9.41"/>
      <rect class="cls-2" x="75.79" y="103.03" width="9.42" height="9.41"/>
      <rect class="cls-2" x="75.79" y="93.62" width="9.42" height="9.41"/>
      <rect class="cls-2" x="66.38" y="93.62" width="9.41" height="9.41"/>
      <rect class="cls-2" x="66.38" y="103.03" width="9.41" height="9.41"/>
      <rect class="cls-2" x="56.97" y="103.03" width="9.41" height="9.41"/>
      <rect class="cls-2" x="28.74" y="112.44" width="9.41" height="9.41"/>
      <rect class="cls-2" x="28.74" y="103.03" width="9.41" height="9.41"/>
      <rect class="cls-2" x="19.32" y="103.03" width="9.42" height="9.41"/>
      <rect class="cls-2" x="9.91" y="112.44" width="9.41" height="9.41"/>
      <rect class="cls-2" x="9.91" y="103.03" width="9.41" height="9.41"/>
      <rect class="cls-5" x="151.09" y="55.97" width="9.41" height="9.41"/>
      <rect class="cls-5" x="151.09" y="46.56" width="9.41" height="9.41"/>
      <rect class="cls-5" x="151.09" y="37.15" width="9.41" height="9.41"/>
      <rect class="cls-5" x="151.09" y="27.74" width="9.41" height="9.41"/>
      <rect class="cls-5" x="141.68" y="74.79" width="9.41" height="9.42"/>
      <rect class="cls-5" x="141.68" y="65.38" width="9.41" height="9.41"/>
      <rect class="cls-1" x="141.68" y="55.97" width="9.41" height="9.41"/>
      <rect class="cls-1" x="141.68" y="46.56" width="9.41" height="9.41"/>
      <rect class="cls-1" x="141.68" y="37.15" width="9.41" height="9.41"/>
      <rect class="cls-1" x="141.68" y="27.74" width="9.41" height="9.41"/>
      <rect class="cls-5" x="141.68" y="18.32" width="9.41" height="9.42"/>
      <rect class="cls-5" x="141.68" y="8.91" width="9.41" height="9.41"/>
      <rect class="cls-5" x="132.26" y="150.09" width="9.42" height="9.41"/>
      <rect class="cls-5" x="132.26" y="140.68" width="9.42" height="9.41"/>
      <rect class="cls-5" x="132.26" y="131.26" width="9.42" height="9.42"/>
      <rect class="cls-5" x="132.26" y="121.85" width="9.42" height="9.41"/>
      <rect class="cls-5" x="132.26" y="112.44" width="9.42" height="9.41"/>
      <rect class="cls-5" x="132.26" y="103.03" width="9.42" height="9.41"/>
      <rect class="cls-5" x="132.26" y="93.62" width="9.42" height="9.41"/>
      <rect class="cls-5" x="132.26" y="84.21" width="9.42" height="9.41"/>
      <rect class="cls-2" x="132.26" y="74.79" width="9.42" height="9.42"/>
      <rect class="cls-2" x="132.26" y="65.38" width="9.42" height="9.41"/>
      <rect class="cls-2" x="132.26" y="55.97" width="9.42" height="9.41"/>
      <rect class="cls-7" x="132.26" y="46.56" width="9.42" height="9.41"/>
      <rect class="cls-8" x="132.26" y="37.15" width="9.42" height="9.41"/>
      <rect class="cls-8" x="132.26" y="27.74" width="9.42" height="9.41"/>
      <rect class="cls-8" x="132.26" y="18.32" width="9.42" height="9.42"/>
      <rect class="cls-8" x="132.26" y="8.91" width="9.42" height="9.41"/>
      <rect class="cls-5" x="132.26" y="-.5" width="9.42" height="9.41"/>
      <rect class="cls-5" x="122.85" y="150.09" width="9.41" height="9.41"/>
      <rect class="cls-5" x="122.85" y="140.68" width="9.41" height="9.41"/>
      <rect class="cls-5" x="122.85" y="131.26" width="9.41" height="9.42"/>
      <rect class="cls-5" x="122.85" y="121.85" width="9.41" height="9.41"/>
      <rect class="cls-2" x="122.85" y="112.44" width="9.41" height="9.41"/>
      <rect class="cls-2" x="122.85" y="103.03" width="9.41" height="9.41"/>
      <rect class="cls-2" x="122.85" y="93.62" width="9.41" height="9.41"/>
      <rect class="cls-2" x="122.85" y="84.21" width="9.41" height="9.41"/>
      <rect class="cls-2" x="122.85" y="74.79" width="9.41" height="9.42"/>
      <rect class="cls-2" x="122.85" y="65.38" width="9.41" height="9.41"/>
      <rect class="cls-2" x="122.85" y="55.97" width="9.41" height="9.41"/>
      <rect class="cls-2" x="122.85" y="46.56" width="9.41" height="9.41"/>
      <rect class="cls-8" x="122.85" y="37.15" width="9.41" height="9.41"/>
      <rect class="cls-8" x="122.85" y="27.74" width="9.41" height="9.41"/>
      <rect class="cls-5" x="122.85" y="18.32" width="9.41" height="9.42"/>
      <rect class="cls-5" x="122.85" y="8.91" width="9.41" height="9.41"/>
      <rect class="cls-5" x="113.44" y="112.44" width="9.41" height="9.41"/>
      <rect class="cls-2" x="113.44" y="103.03" width="9.41" height="9.41"/>
      <rect class="cls-2" x="113.44" y="93.62" width="9.41" height="9.41"/>
      <rect class="cls-2" x="113.44" y="84.21" width="9.41" height="9.41"/>
      <rect class="cls-2" x="113.44" y="74.79" width="9.41" height="9.42"/>
      <rect class="cls-6" x="113.44" y="65.38" width="9.41" height="9.41"/>
      <rect class="cls-2" x="113.44" y="55.97" width="9.41" height="9.41"/>
      <rect class="cls-8" x="113.44" y="46.56" width="9.41" height="9.41"/>
      <rect class="cls-8" x="113.44" y="37.15" width="9.41" height="9.41"/>
      <rect class="cls-5" x="113.44" y="27.74" width="9.41" height="9.41"/>
      <rect class="cls-5" x="104.03" y="150.09" width="9.41" height="9.41"/>
      <rect class="cls-5" x="104.03" y="140.68" width="9.41" height="9.41"/>
      <rect class="cls-5" x="104.03" y="131.26" width="9.41" height="9.42"/>
      <rect class="cls-5" x="104.03" y="121.85" width="9.41" height="9.41"/>
      <rect class="cls-2" x="104.03" y="112.44" width="9.41" height="9.41"/>
      <rect class="cls-2" x="104.03" y="103.03" width="9.41" height="9.41"/>
      <rect class="cls-2" x="104.03" y="93.62" width="9.41" height="9.41"/>
      <rect class="cls-2" x="104.03" y="84.21" width="9.41" height="9.41"/>
      <rect class="cls-2" x="104.03" y="74.79" width="9.41" height="9.42"/>
      <rect class="cls-2" x="104.03" y="65.38" width="9.41" height="9.41"/>
      <rect class="cls-2" x="104.03" y="55.97" width="9.41" height="9.41"/>
      <rect class="cls-2" x="104.03" y="46.56" width="9.41" height="9.41"/>
      <rect class="cls-8" x="104.03" y="37.15" width="9.41" height="9.41"/>
      <rect class="cls-8" x="104.03" y="27.74" width="9.41" height="9.41"/>
      <rect class="cls-5" x="104.03" y="18.32" width="9.41" height="9.42"/>
      <rect class="cls-5" x="104.03" y="8.91" width="9.41" height="9.41"/>
      <rect class="cls-5" x="94.62" y="150.09" width="9.41" height="9.41"/>
      <rect class="cls-5" x="94.62" y="140.68" width="9.41" height="9.41"/>
      <rect class="cls-5" x="94.62" y="131.26" width="9.41" height="9.42"/>
      <rect class="cls-5" x="94.62" y="121.85" width="9.41" height="9.41"/>
      <rect class="cls-5" x="94.62" y="112.44" width="9.41" height="9.41"/>
      <rect class="cls-5" x="94.62" y="103.03" width="9.41" height="9.41"/>
      <rect class="cls-2" x="94.62" y="93.62" width="9.41" height="9.41"/>
      <rect class="cls-2" x="94.62" y="84.21" width="9.41" height="9.41"/>
      <rect class="cls-2" x="94.62" y="74.79" width="9.41" height="9.42"/>
      <rect class="cls-2" x="94.62" y="65.38" width="9.41" height="9.41"/>
      <rect class="cls-7" x="94.62" y="46.56" width="9.41" height="9.41"/>
      <rect class="cls-8" x="94.62" y="37.15" width="9.41" height="9.41"/>
      <rect class="cls-8" x="94.62" y="27.74" width="9.41" height="9.41"/>
      <rect class="cls-8" x="94.62" y="18.32" width="9.41" height="9.42"/>
      <rect class="cls-8" x="94.62" y="8.91" width="9.41" height="9.41"/>
      <rect class="cls-5" x="94.62" y="-.5" width="9.41" height="9.41"/>
      <rect class="cls-5" x="85.21" y="112.44" width="9.41" height="9.41"/>
      <rect class="cls-2" x="85.21" y="93.62" width="9.41" height="9.41"/>
      <rect class="cls-2" x="85.21" y="84.21" width="9.41" height="9.41"/>
      <rect class="cls-5" x="85.21" y="74.79" width="9.41" height="9.42"/>
      <rect class="cls-5" x="85.21" y="65.38" width="9.41" height="9.41"/>
      <rect class="cls-1" x="85.21" y="55.97" width="9.41" height="9.41"/>
      <rect class="cls-1" x="85.21" y="46.56" width="9.41" height="9.41"/>
      <rect class="cls-1" x="85.21" y="37.15" width="9.41" height="9.41"/>
      <rect class="cls-1" x="85.21" y="27.74" width="9.41" height="9.41"/>
      <rect class="cls-5" x="85.21" y="18.32" width="9.41" height="9.42"/>
      <rect class="cls-5" x="85.21" y="8.91" width="9.41" height="9.41"/>
      <rect class="cls-5" x="75.79" y="112.44" width="9.42" height="9.41"/>
      <rect class="cls-2" x="75.79" y="84.21" width="9.42" height="9.41"/>
      <rect class="cls-8" x="75.79" y="74.79" width="9.42" height="9.42"/>
      <rect class="cls-5" x="75.79" y="65.38" width="9.42" height="9.41"/>
      <rect class="cls-5" x="75.79" y="55.97" width="9.42" height="9.41"/>
      <rect class="cls-5" x="75.79" y="46.56" width="9.42" height="9.41"/>
      <rect class="cls-5" x="75.79" y="37.15" width="9.42" height="9.41"/>
      <rect class="cls-5" x="75.79" y="27.74" width="9.42" height="9.41"/>
      <rect class="cls-5" x="66.38" y="112.44" width="9.41" height="9.41"/>
      <rect class="cls-8" x="66.38" y="84.21" width="9.41" height="9.41"/>
      <rect class="cls-8" x="66.38" y="74.79" width="9.41" height="9.42"/>
      <rect class="cls-5" x="66.38" y="65.38" width="9.41" height="9.41"/>
      <rect class="cls-5" x="56.97" y="112.44" width="9.41" height="9.41"/>
      <rect class="cls-1" x="56.97" y="93.62" width="9.41" height="9.41"/>
      <rect class="cls-8" x="56.97" y="84.21" width="9.41" height="9.41"/>
      <rect class="cls-8" x="56.97" y="74.79" width="9.41" height="9.42"/>
      <rect class="cls-5" x="56.97" y="65.38" width="9.41" height="9.41"/>
      <rect class="cls-5" x="47.56" y="112.44" width="9.41" height="9.41"/>
      <rect class="cls-1" x="47.56" y="93.62" width="9.41" height="9.41"/>
      <rect class="cls-8" x="47.56" y="84.21" width="9.41" height="9.41"/>
      <rect class="cls-8" x="47.56" y="74.79" width="9.41" height="9.42"/>
      <rect class="cls-5" x="47.56" y="65.38" width="9.41" height="9.41"/>
      <rect class="cls-5" x="47.56" y="37.15" width="9.41" height="9.41"/>
      <rect class="cls-5" x="47.56" y="27.74" width="9.41" height="9.41"/>
      <rect class="cls-5" x="38.15" y="150.09" width="9.41" height="9.41"/>
      <rect class="cls-5" x="38.15" y="140.68" width="9.41" height="9.41"/>
      <rect class="cls-5" x="38.15" y="131.26" width="9.41" height="9.42"/>
      <rect class="cls-5" x="38.15" y="121.85" width="9.41" height="9.41"/>
      <rect class="cls-5" x="38.15" y="112.44" width="9.41" height="9.41"/>
      <rect class="cls-1" x="38.15" y="93.62" width="9.41" height="9.41"/>
      <rect class="cls-8" x="38.15" y="84.21" width="9.41" height="9.41"/>
      <rect class="cls-8" x="38.15" y="74.79" width="9.41" height="9.42"/>
      <rect class="cls-5" x="38.15" y="65.38" width="9.41" height="9.41"/>
      <rect class="cls-5" x="38.15" y="46.56" width="9.41" height="9.41"/>
      <rect class="cls-8" x="38.15" y="37.15" width="9.41" height="9.41"/>
      <rect class="cls-8" x="38.15" y="27.74" width="9.41" height="9.41"/>
      <rect class="cls-5" x="38.15" y="18.32" width="9.41" height="9.42"/>
      <rect class="cls-5" x="28.74" y="150.09" width="9.41" height="9.41"/>
      <rect class="cls-5" x="28.74" y="140.68" width="9.41" height="9.41"/>
      <rect class="cls-5" x="28.74" y="131.26" width="9.41" height="9.42"/>
      <rect class="cls-5" x="28.74" y="121.85" width="9.41" height="9.41"/>
      <rect class="cls-1" x="28.74" y="93.62" width="9.41" height="9.41"/>
      <rect class="cls-8" x="28.74" y="84.21" width="9.41" height="9.41"/>
      <rect class="cls-8" x="28.74" y="74.79" width="9.41" height="9.42"/>
      <rect class="cls-5" x="28.74" y="65.38" width="9.41" height="9.41"/>
      <rect class="cls-5" x="28.74" y="37.15" width="9.41" height="9.41"/>
      <rect class="cls-8" x="28.74" y="27.74" width="9.41" height="9.41"/>
      <rect class="cls-8" x="28.74" y="18.32" width="9.41" height="9.42"/>
      <rect class="cls-5" x="28.74" y="8.91" width="9.41" height="9.41"/>
      <rect class="cls-5" x="19.32" y="112.44" width="9.42" height="9.41"/>
      <rect class="cls-1" x="19.32" y="93.62" width="9.42" height="9.41"/>
      <rect class="cls-8" x="19.32" y="84.21" width="9.42" height="9.41"/>
      <rect class="cls-8" x="19.32" y="74.79" width="9.42" height="9.42"/>
      <rect class="cls-5" x="19.32" y="65.38" width="9.42" height="9.41"/>
      <rect class="cls-5" x="19.32" y="27.74" width="9.42" height="9.41"/>
      <rect class="cls-8" x="19.32" y="18.32" width="9.42" height="9.42"/>
      <rect class="cls-5" x="19.32" y="8.91" width="9.42" height="9.41"/>
      <rect class="cls-5" x="9.91" y="150.09" width="9.41" height="9.41"/>
      <rect class="cls-5" x="9.91" y="140.68" width="9.41" height="9.41"/>
      <rect class="cls-5" x="9.91" y="131.26" width="9.41" height="9.42"/>
      <rect class="cls-5" x="9.91" y="121.85" width="9.41" height="9.41"/>
      <rect class="cls-1" x="9.91" y="93.62" width="9.41" height="9.41"/>
      <rect class="cls-8" x="9.91" y="84.21" width="9.41" height="9.41"/>
      <rect class="cls-8" x="9.91" y="74.79" width="9.41" height="9.42"/>
      <rect class="cls-5" x="9.91" y="65.38" width="9.41" height="9.41"/>
      <rect class="cls-5" x="9.91" y="27.74" width="9.41" height="9.41"/>
      <rect class="cls-8" x="9.91" y="18.32" width="9.41" height="9.42"/>
      <rect class="cls-5" x="9.91" y="8.91" width="9.41" height="9.41"/>
      <rect class="cls-5" x=".5" y="150.09" width="9.41" height="9.41"/>
      <rect class="cls-5" x=".5" y="140.68" width="9.41" height="9.41"/>
      <rect class="cls-5" x=".5" y="131.26" width="9.41" height="9.42"/>
      <rect class="cls-5" x=".5" y="121.85" width="9.41" height="9.41"/>
      <rect class="cls-5" x=".5" y="112.44" width="9.41" height="9.41"/>
      <rect class="cls-5" x=".5" y="103.03" width="9.41" height="9.41"/>
      <rect class="cls-5" x=".5" y="93.62" width="9.41" height="9.41"/>
      <rect class="cls-5" x=".5" y="84.21" width="9.41" height="9.41"/>
      <rect class="cls-5" x=".5" y="74.79" width="9.41" height="9.42"/>
      <rect class="cls-5" x=".5" y="65.38" width="9.41" height="9.41"/>
      <rect class="cls-5" x=".5" y="55.97" width="9.41" height="9.41"/>
      <rect class="cls-5" x=".5" y="46.56" width="9.41" height="9.41"/>
      <rect class="cls-5" x=".5" y="37.15" width="9.41" height="9.41"/>
      <rect class="cls-5" x=".5" y="27.74" width="9.41" height="9.41"/>
      <rect class="cls-5" x=".5" y="18.32" width="9.41" height="9.42"/>
    </g>
  </g>
</svg>