<?xml version="1.0" encoding="UTF-8"?>
<svg id="Presente_frente" data-name="Presente frente" xmlns="http://www.w3.org/2000/svg" viewBox="0 0 160 160">
  <defs>
    <style>
      .cls-1 {
        fill: #f8f2b6;
      }

      .cls-2 {
        fill: #fff;
      }

      .cls-3 {
        fill: #575756;
      }

      .cls-4 {
        fill: #f9dfc6;
      }

      .cls-5 {
        fill: #3c2e48;
      }

      .cls-6 {
        fill: #9894de;
      }

      .cls-7 {
        fill: #3c3c3b;
      }
    </style>
  </defs>
  <rect class="cls-3" x="149.65" y="65.97" width="9.35" height="9.35"/>
  <rect class="cls-3" x="149.65" y="56.62" width="9.35" height="9.35"/>
  <rect class="cls-3" x="140.29" y="75.32" width="9.36" height="9.36"/>
  <rect class="cls-6" x="140.29" y="65.97" width="9.36" height="9.35"/>
  <rect class="cls-6" x="140.29" y="56.62" width="9.36" height="9.35"/>
  <rect class="cls-3" x="140.29" y="47.26" width="9.36" height="9.36"/>
  <rect class="cls-3" x="130.94" y="65.97" width="9.35" height="9.35"/>
  <rect class="cls-6" x="130.94" y="56.62" width="9.35" height="9.35"/>
  <rect class="cls-6" x="130.94" y="47.26" width="9.35" height="9.36"/>
  <rect class="cls-3" x="130.94" y="37.91" width="9.35" height="9.35"/>
  <rect class="cls-3" x="121.59" y="56.62" width="9.35" height="9.35"/>
  <rect class="cls-6" x="121.59" y="47.26" width="9.35" height="9.36"/>
  <rect class="cls-3" x="121.59" y="37.91" width="9.35" height="9.35"/>
  <rect class="cls-3" x="112.24" y="112.74" width="9.35" height="9.35"/>
  <rect class="cls-3" x="112.24" y="103.38" width="9.35" height="9.36"/>
  <rect class="cls-3" x="112.24" y="94.03" width="9.35" height="9.35"/>
  <rect class="cls-3" x="112.24" y="84.68" width="9.35" height="9.35"/>
  <rect class="cls-3" x="112.24" y="56.62" width="9.35" height="9.35"/>
  <rect class="cls-3" x="112.24" y="47.26" width="9.35" height="9.36"/>
  <rect class="cls-3" x="112.24" y="37.91" width="9.35" height="9.35"/>
  <rect class="cls-3" x="112.24" y="28.56" width="9.35" height="9.35"/>
  <rect class="cls-7" x="102.88" y="150.15" width="9.36" height="9.35"/>
  <rect class="cls-7" x="102.88" y="140.79" width="9.36" height="9.36"/>
  <rect class="cls-7" x="102.88" y="131.44" width="9.36" height="9.35"/>
  <rect class="cls-3" x="102.88" y="122.09" width="9.36" height="9.35"/>
  <rect class="cls-1" x="102.88" y="112.74" width="9.36" height="9.35"/>
  <rect class="cls-1" x="102.88" y="103.38" width="9.36" height="9.36"/>
  <rect class="cls-6" x="102.88" y="94.03" width="9.36" height="9.35"/>
  <rect class="cls-6" x="102.88" y="84.68" width="9.36" height="9.35"/>
  <rect class="cls-3" x="102.88" y="75.32" width="9.36" height="9.36"/>
  <rect class="cls-3" x="102.88" y="65.97" width="9.36" height="9.35"/>
  <rect class="cls-1" x="102.88" y="56.62" width="9.36" height="9.35"/>
  <rect class="cls-1" x="102.88" y="47.26" width="9.36" height="9.36"/>
  <rect class="cls-1" x="102.88" y="37.91" width="9.36" height="9.35"/>
  <rect class="cls-1" x="102.88" y="28.56" width="9.36" height="9.35"/>
  <rect class="cls-3" x="102.88" y="19.21" width="9.36" height="9.35"/>
  <rect class="cls-3" x="102.88" y="9.85" width="9.36" height="9.36"/>
  <rect class="cls-7" x="93.53" y="150.15" width="9.35" height="9.35"/>
  <rect class="cls-3" x="93.53" y="140.79" width="9.35" height="9.36"/>
  <rect class="cls-3" x="93.53" y="131.44" width="9.35" height="9.35"/>
  <rect class="cls-2" x="93.53" y="122.09" width="9.35" height="9.35"/>
  <rect class="cls-2" x="93.53" y="112.74" width="9.35" height="9.35"/>
  <rect class="cls-2" x="93.53" y="103.38" width="9.35" height="9.36"/>
  <rect class="cls-2" x="93.53" y="94.03" width="9.35" height="9.35"/>
  <rect class="cls-3" x="93.53" y="84.68" width="9.35" height="9.35"/>
  <rect class="cls-2" x="93.53" y="75.32" width="9.35" height="9.36"/>
  <rect class="cls-2" x="93.53" y="65.97" width="9.35" height="9.35"/>
  <rect class="cls-2" x="93.53" y="56.62" width="9.35" height="9.35"/>
  <rect class="cls-5" x="93.53" y="47.26" width="9.35" height="9.36"/>
  <rect class="cls-6" x="93.53" y="37.91" width="9.35" height="9.35"/>
  <rect class="cls-6" x="93.53" y="28.56" width="9.35" height="9.35"/>
  <rect class="cls-6" x="93.53" y="19.21" width="9.35" height="9.35"/>
  <rect class="cls-6" x="93.53" y="9.85" width="9.35" height="9.36"/>
  <rect class="cls-3" x="93.53" y=".5" width="9.35" height="9.35"/>
  <rect class="cls-3" x="84.18" y="140.79" width="9.35" height="9.36"/>
  <rect class="cls-3" x="84.18" y="131.44" width="9.35" height="9.35"/>
  <rect class="cls-2" x="84.18" y="122.09" width="9.35" height="9.35"/>
  <rect class="cls-2" x="84.18" y="112.74" width="9.35" height="9.35"/>
  <rect class="cls-2" x="84.18" y="103.38" width="9.35" height="9.36"/>
  <rect class="cls-2" x="84.18" y="94.03" width="9.35" height="9.35"/>
  <rect class="cls-2" x="84.18" y="84.68" width="9.35" height="9.35"/>
  <rect class="cls-2" x="84.18" y="75.32" width="9.35" height="9.36"/>
  <rect class="cls-2" x="84.18" y="65.97" width="9.35" height="9.35"/>
  <rect class="cls-2" x="84.18" y="56.62" width="9.35" height="9.35"/>
  <rect class="cls-2" x="84.18" y="47.26" width="9.35" height="9.36"/>
  <rect class="cls-6" x="84.18" y="37.91" width="9.35" height="9.35"/>
  <rect class="cls-6" x="84.18" y="28.56" width="9.35" height="9.35"/>
  <rect class="cls-3" x="84.18" y="19.21" width="9.35" height="9.35"/>
  <rect class="cls-3" x="84.18" y="9.85" width="9.35" height="9.36"/>
  <rect class="cls-3" x="74.82" y="122.09" width="9.36" height="9.35"/>
  <rect class="cls-2" x="74.82" y="112.74" width="9.36" height="9.35"/>
  <rect class="cls-2" x="74.82" y="103.38" width="9.36" height="9.36"/>
  <rect class="cls-2" x="74.82" y="94.03" width="9.36" height="9.35"/>
  <rect class="cls-2" x="74.82" y="84.68" width="9.36" height="9.35"/>
  <rect class="cls-2" x="74.82" y="75.32" width="9.36" height="9.36"/>
  <rect class="cls-4" x="74.82" y="65.97" width="9.36" height="9.35"/>
  <rect class="cls-2" x="74.82" y="56.62" width="9.36" height="9.35"/>
  <rect class="cls-6" x="74.82" y="47.26" width="9.36" height="9.36"/>
  <rect class="cls-6" x="74.82" y="37.91" width="9.36" height="9.35"/>
  <rect class="cls-3" x="74.82" y="28.56" width="9.36" height="9.35"/>
  <rect class="cls-3" x="65.47" y="150.15" width="9.35" height="9.35"/>
  <rect class="cls-3" x="65.47" y="140.79" width="9.35" height="9.36"/>
  <rect class="cls-3" x="65.47" y="131.44" width="9.35" height="9.35"/>
  <rect class="cls-2" x="65.47" y="122.09" width="9.35" height="9.35"/>
  <rect class="cls-2" x="65.47" y="112.74" width="9.35" height="9.35"/>
  <rect class="cls-2" x="65.47" y="103.38" width="9.35" height="9.36"/>
  <rect class="cls-2" x="65.47" y="94.03" width="9.35" height="9.35"/>
  <rect class="cls-2" x="65.47" y="84.68" width="9.35" height="9.35"/>
  <rect class="cls-2" x="65.47" y="75.32" width="9.35" height="9.36"/>
  <rect class="cls-2" x="65.47" y="65.97" width="9.35" height="9.35"/>
  <rect class="cls-2" x="65.47" y="56.62" width="9.35" height="9.35"/>
  <rect class="cls-2" x="65.47" y="47.26" width="9.35" height="9.36"/>
  <rect class="cls-6" x="65.47" y="37.91" width="9.35" height="9.35"/>
  <rect class="cls-6" x="65.47" y="28.56" width="9.35" height="9.35"/>
  <rect class="cls-3" x="65.47" y="19.21" width="9.35" height="9.35"/>
  <rect class="cls-3" x="65.47" y="9.85" width="9.35" height="9.36"/>
  <rect class="cls-3" x="56.12" y="150.15" width="9.35" height="9.35"/>
  <rect class="cls-3" x="56.12" y="140.79" width="9.35" height="9.36"/>
  <rect class="cls-3" x="56.12" y="131.44" width="9.35" height="9.35"/>
  <rect class="cls-2" x="56.12" y="122.09" width="9.35" height="9.35"/>
  <rect class="cls-2" x="56.12" y="112.74" width="9.35" height="9.35"/>
  <rect class="cls-2" x="56.12" y="103.38" width="9.35" height="9.36"/>
  <rect class="cls-2" x="56.12" y="94.03" width="9.35" height="9.35"/>
  <rect class="cls-3" x="56.12" y="84.68" width="9.35" height="9.35"/>
  <rect class="cls-2" x="56.12" y="75.32" width="9.35" height="9.36"/>
  <rect class="cls-2" x="56.12" y="65.97" width="9.35" height="9.35"/>
  <rect class="cls-2" x="56.12" y="56.62" width="9.35" height="9.35"/>
  <rect class="cls-5" x="56.12" y="47.26" width="9.35" height="9.36"/>
  <rect class="cls-6" x="56.12" y="37.91" width="9.35" height="9.35"/>
  <rect class="cls-6" x="56.12" y="28.56" width="9.35" height="9.35"/>
  <rect class="cls-6" x="56.12" y="19.21" width="9.35" height="9.35"/>
  <rect class="cls-6" x="56.12" y="9.85" width="9.35" height="9.36"/>
  <rect class="cls-3" x="56.12" y=".5" width="9.35" height="9.35"/>
  <rect class="cls-7" x="46.76" y="140.79" width="9.36" height="9.36"/>
  <rect class="cls-7" x="46.76" y="131.44" width="9.36" height="9.35"/>
  <rect class="cls-3" x="46.76" y="122.09" width="9.36" height="9.35"/>
  <rect class="cls-1" x="46.76" y="112.74" width="9.36" height="9.35"/>
  <rect class="cls-1" x="46.76" y="103.38" width="9.36" height="9.36"/>
  <rect class="cls-6" x="46.76" y="94.03" width="9.36" height="9.35"/>
  <rect class="cls-6" x="46.76" y="84.68" width="9.36" height="9.35"/>
  <rect class="cls-3" x="46.76" y="75.32" width="9.36" height="9.36"/>
  <rect class="cls-3" x="46.76" y="65.97" width="9.36" height="9.35"/>
  <rect class="cls-1" x="46.76" y="56.62" width="9.36" height="9.35"/>
  <rect class="cls-1" x="46.76" y="47.26" width="9.36" height="9.36"/>
  <rect class="cls-1" x="46.76" y="37.91" width="9.36" height="9.35"/>
  <rect class="cls-1" x="46.76" y="28.56" width="9.36" height="9.35"/>
  <rect class="cls-3" x="46.76" y="19.21" width="9.36" height="9.35"/>
  <rect class="cls-3" x="46.76" y="9.85" width="9.36" height="9.36"/>
  <rect class="cls-3" x="37.41" y="112.74" width="9.35" height="9.35"/>
  <rect class="cls-3" x="37.41" y="103.38" width="9.35" height="9.36"/>
  <rect class="cls-3" x="37.41" y="94.03" width="9.35" height="9.35"/>
  <rect class="cls-3" x="37.41" y="84.68" width="9.35" height="9.35"/>
  <rect class="cls-3" x="37.41" y="56.62" width="9.35" height="9.35"/>
  <rect class="cls-3" x="37.41" y="47.26" width="9.35" height="9.36"/>
  <rect class="cls-3" x="37.41" y="37.91" width="9.35" height="9.35"/>
  <rect class="cls-3" x="37.41" y="28.56" width="9.35" height="9.35"/>
</svg>