<?xml version="1.0" encoding="UTF-8" ?>
<svg version="1.1" width="400" height="400" xmlns="http://www.w3.org/2000/svg" shape-rendering="crispEdges">
<rect x="100" y="0" width="200" height="10" fill="#7B501D" />
<rect x="90" y="10" width="20" height="10" fill="#7B501D" />
<rect x="110" y="10" width="180" height="20" fill="#CE772A" />
<rect x="290" y="10" width="20" height="10" fill="#7B501D" />
<rect x="90" y="20" width="10" height="320" fill="#7B501D" />
<rect x="100" y="20" width="10" height="290" fill="#CE772A" />
<rect x="290" y="20" width="10" height="290" fill="#CE772A" />
<rect x="300" y="20" width="10" height="320" fill="#7B501D" />
<rect x="110" y="30" width="60" height="10" fill="#CE772A" />
<rect x="170" y="30" width="50" height="40" fill="#FFF0DF" />
<rect x="220" y="30" width="70" height="60" fill="#CE772A" />
<rect x="110" y="40" width="40" height="10" fill="#CE772A" />
<rect x="150" y="40" width="10" height="10" fill="#F9DFC6" />
<rect x="160" y="40" width="10" height="100" fill="#CE772A" />
<rect x="110" y="50" width="30" height="10" fill="#CE772A" />
<rect x="140" y="50" width="10" height="10" fill="#064D9D" />
<rect x="150" y="50" width="10" height="120" fill="#CE772A" />
<rect x="110" y="60" width="20" height="10" fill="#CE772A" />
<rect x="130" y="60" width="10" height="10" fill="#064D9D" />
<rect x="140" y="60" width="10" height="100" fill="#CE772A" />
<rect x="110" y="70" width="10" height="250" fill="#CE772A" />
<rect x="120" y="70" width="10" height="10" fill="#064D9D" />
<rect x="130" y="70" width="10" height="100" fill="#CE772A" />
<rect x="170" y="70" width="50" height="50" fill="#CE772A" />
<rect x="120" y="80" width="10" height="250" fill="#CE772A" />
<rect x="220" y="90" width="30" height="10" fill="#CE772A" />
<rect x="250" y="90" width="20" height="10" fill="#FFFFFF" />
<rect x="270" y="90" width="20" height="10" fill="#CE772A" />
<rect x="220" y="100" width="20" height="30" fill="#CE772A" />
<rect x="240" y="100" width="10" height="20" fill="#FFFFFF" />
<rect x="250" y="100" width="20" height="20" fill="#9DC7D2" />
<rect x="270" y="100" width="10" height="20" fill="#FFFFFF" />
<rect x="280" y="100" width="10" height="220" fill="#CE772A" />
<rect x="170" y="120" width="30" height="10" fill="#E4C9C4" />
<rect x="200" y="120" width="20" height="10" fill="#FFFFFF" />
<rect x="240" y="120" width="10" height="10" fill="#CEC9C8" />
<rect x="250" y="120" width="20" height="10" fill="#FFFFFF" />
<rect x="270" y="120" width="10" height="10" fill="#CEC9C8" />
<rect x="170" y="130" width="20" height="10" fill="#E4C9C4" />
<rect x="190" y="130" width="10" height="20" fill="#FFFFFF" />
<rect x="200" y="130" width="20" height="20" fill="#9DC7D2" />
<rect x="220" y="130" width="10" height="20" fill="#FFFFFF" />
<rect x="230" y="130" width="20" height="130" fill="#CE772A" />
<rect x="250" y="130" width="20" height="10" fill="#CEC9C8" />
<rect x="270" y="130" width="10" height="200" fill="#CE772A" />
<rect x="160" y="140" width="30" height="40" fill="#FFF0DF" />
<rect x="250" y="140" width="20" height="190" fill="#CE772A" />
<rect x="190" y="150" width="10" height="10" fill="#CEC9C8" />
<rect x="200" y="150" width="20" height="10" fill="#FFFFFF" />
<rect x="220" y="150" width="10" height="10" fill="#CEC9C8" />
<rect x="140" y="160" width="10" height="10" fill="#F9DFC6" />
<rect x="190" y="160" width="10" height="30" fill="#FFF0DF" />
<rect x="200" y="160" width="20" height="10" fill="#CEC9C8" />
<rect x="220" y="160" width="10" height="100" fill="#CE772A" />
<rect x="130" y="170" width="10" height="10" fill="#F9DFC6" />
<rect x="140" y="170" width="10" height="10" fill="#CE772A" />
<rect x="150" y="170" width="10" height="10" fill="#F0D806" />
<rect x="200" y="170" width="20" height="10" fill="#E4C9C4" />
<rect x="130" y="180" width="10" height="150" fill="#CE772A" />
<rect x="140" y="180" width="10" height="10" fill="#6E6AB6" />
<rect x="150" y="180" width="10" height="10" fill="#CE772A" />
<rect x="160" y="180" width="10" height="10" fill="#F0D806" />
<rect x="170" y="180" width="20" height="10" fill="#FFF0DF" />
<rect x="200" y="180" width="20" height="50" fill="#CE772A" />
<rect x="140" y="190" width="10" height="140" fill="#CE772A" />
<rect x="150" y="190" width="10" height="10" fill="#6E6AB6" />
<rect x="160" y="190" width="10" height="10" fill="#CE772A" />
<rect x="170" y="190" width="10" height="10" fill="#F0D806" />
<rect x="180" y="190" width="20" height="40" fill="#CE772A" />
<rect x="150" y="200" width="10" height="130" fill="#CE772A" />
<rect x="160" y="200" width="10" height="10" fill="#6E6AB6" />
<rect x="170" y="200" width="10" height="30" fill="#CE772A" />
<rect x="160" y="210" width="10" height="120" fill="#CE772A" />
<rect x="170" y="230" width="50" height="10" fill="#E4C9C4" />
<rect x="170" y="240" width="10" height="30" fill="#E4C9C4" />
<rect x="180" y="240" width="10" height="10" fill="#F9DFC6" />
<rect x="190" y="240" width="30" height="20" fill="#E4C9C4" />
<rect x="180" y="250" width="10" height="40" fill="#C03326" />
<rect x="190" y="260" width="10" height="10" fill="#E4C9C4" />
<rect x="200" y="260" width="40" height="50" fill="#FFF0DF" />
<rect x="240" y="260" width="10" height="70" fill="#CE772A" />
<rect x="170" y="270" width="10" height="60" fill="#CE772A" />
<rect x="190" y="270" width="10" height="60" fill="#CE772A" />
<rect x="180" y="290" width="10" height="40" fill="#CE772A" />
<rect x="100" y="310" width="10" height="40" fill="#7B501D" />
<rect x="200" y="310" width="40" height="20" fill="#CE772A" />
<rect x="290" y="310" width="10" height="40" fill="#7B501D" />
<rect x="110" y="320" width="10" height="30" fill="#7B501D" />
<rect x="280" y="320" width="10" height="30" fill="#7B501D" />
<rect x="120" y="330" width="160" height="20" fill="#7B501D" />
<rect x="120" y="350" width="40" height="40" fill="#7B501D" />
<rect x="240" y="350" width="40" height="39" fill="#7B501D" />
<rect x="240" y="389" width="10" height="1" fill="#7B501D" />
<rect x="250" y="389" width="1" height="1" fill="#CE772A" />
<rect x="251" y="389" width="29" height="1" fill="#7B501D" />
<rect x="130" y="390" width="20" height="10" fill="#7B501D" />
<rect x="250" y="390" width="20" height="10" fill="#7B501D" />
</svg>