<?xml version="1.0" encoding="UTF-8" ?>
<svg version="1.1" width="400" height="400" xmlns="http://www.w3.org/2000/svg" shape-rendering="crispEdges">
<rect x="160" y="90" width="20" height="10" fill="#F2C058" />
<rect x="160" y="100" width="20" height="60" fill="#59372B" />
<rect x="180" y="120" width="40" height="10" fill="#7B501D" />
<rect x="130" y="130" width="20" height="10" fill="#7B501D" />
<rect x="150" y="130" width="10" height="20" fill="#59372B" />
<rect x="180" y="130" width="10" height="20" fill="#59372B" />
<rect x="190" y="130" width="30" height="20" fill="#CE772A" />
<rect x="220" y="130" width="30" height="10" fill="#7B501D" />
<rect x="100" y="140" width="30" height="10" fill="#7B501D" />
<rect x="130" y="140" width="20" height="60" fill="#CE772A" />
<rect x="220" y="140" width="30" height="20" fill="#CE772A" />
<rect x="250" y="140" width="30" height="10" fill="#7B501D" />
<rect x="80" y="150" width="20" height="10" fill="#7B501D" />
<rect x="100" y="150" width="30" height="40" fill="#CE772A" />
<rect x="150" y="150" width="10" height="20" fill="#F2C058" />
<rect x="180" y="150" width="10" height="20" fill="#F2C058" />
<rect x="190" y="150" width="10" height="40" fill="#CE772A" />
<rect x="200" y="150" width="20" height="10" fill="#C03326" />
<rect x="250" y="150" width="30" height="10" fill="#CE772A" />
<rect x="280" y="150" width="20" height="10" fill="#7B501D" />
<rect x="70" y="160" width="10" height="10" fill="#7B501D" />
<rect x="80" y="160" width="20" height="90" fill="#CE772A" />
<rect x="160" y="160" width="20" height="20" fill="#F2C058" />
<rect x="200" y="160" width="20" height="60" fill="#59372B" />
<rect x="220" y="160" width="1" height="10" fill="#7B501D" />
<rect x="221" y="160" width="29" height="10" fill="#CE772A" />
<rect x="250" y="160" width="20" height="10" fill="#FFFFFF" />
<rect x="270" y="160" width="30" height="10" fill="#CE772A" />
<rect x="300" y="160" width="10" height="10" fill="#7B501D" />
<rect x="60" y="170" width="10" height="10" fill="#7B501D" />
<rect x="70" y="170" width="10" height="70" fill="#CE772A" />
<rect x="150" y="170" width="10" height="20" fill="#59372B" />
<rect x="180" y="170" width="10" height="20" fill="#59372B" />
<rect x="220" y="170" width="20" height="20" fill="#CE772A" />
<rect x="240" y="170" width="10" height="20" fill="#FFFFFF" />
<rect x="250" y="170" width="20" height="20" fill="#59372B" />
<rect x="270" y="170" width="10" height="20" fill="#FFFFFF" />
<rect x="280" y="170" width="30" height="70" fill="#CE772A" />
<rect x="310" y="170" width="10" height="10" fill="#7B501D" />
<rect x="50" y="180" width="10" height="20" fill="#7B501D" />
<rect x="60" y="180" width="10" height="50" fill="#CE772A" />
<rect x="160" y="180" width="20" height="20" fill="#59372B" />
<rect x="310" y="180" width="10" height="50" fill="#CE772A" />
<rect x="320" y="180" width="10" height="20" fill="#7B501D" />
<rect x="100" y="190" width="10" height="10" fill="#CE772A" />
<rect x="110" y="190" width="20" height="10" fill="#FFFFFF" />
<rect x="150" y="190" width="10" height="80" fill="#CE772A" />
<rect x="180" y="190" width="10" height="90" fill="#CE772A" />
<rect x="190" y="190" width="10" height="20" fill="#59372B" />
<rect x="220" y="190" width="10" height="20" fill="#59372B" />
<rect x="230" y="190" width="10" height="80" fill="#CE772A" />
<rect x="240" y="190" width="10" height="10" fill="#CEC9C8" />
<rect x="250" y="190" width="20" height="10" fill="#FFFFFF" />
<rect x="270" y="190" width="10" height="10" fill="#CEC9C8" />
<rect x="40" y="200" width="10" height="30" fill="#7B501D" />
<rect x="50" y="200" width="10" height="20" fill="#CE772A" />
<rect x="100" y="200" width="10" height="20" fill="#FFFFFF" />
<rect x="110" y="200" width="20" height="20" fill="#F2C058" />
<rect x="130" y="200" width="10" height="20" fill="#FFFFFF" />
<rect x="140" y="200" width="10" height="70" fill="#CE772A" />
<rect x="160" y="200" width="20" height="80" fill="#CE772A" />
<rect x="240" y="200" width="10" height="70" fill="#CE772A" />
<rect x="250" y="200" width="20" height="10" fill="#CEC9C8" />
<rect x="270" y="200" width="10" height="60" fill="#CE772A" />
<rect x="320" y="200" width="10" height="20" fill="#CE772A" />
<rect x="330" y="200" width="10" height="30" fill="#7B501D" />
<rect x="190" y="210" width="10" height="20" fill="#C03326" />
<rect x="220" y="210" width="10" height="20" fill="#C03326" />
<rect x="250" y="210" width="20" height="50" fill="#CE772A" />
<rect x="50" y="220" width="10" height="20" fill="#7B501D" />
<rect x="100" y="220" width="10" height="10" fill="#CEC9C8" />
<rect x="110" y="220" width="20" height="10" fill="#FFFFFF" />
<rect x="130" y="220" width="10" height="10" fill="#CEC9C8" />
<rect x="200" y="220" width="20" height="20" fill="#C03326" />
<rect x="320" y="220" width="10" height="20" fill="#7B501D" />
<rect x="40" y="230" width="10" height="10" fill="#51300A" />
<rect x="60" y="230" width="10" height="20" fill="#7B501D" />
<rect x="100" y="230" width="10" height="30" fill="#CE772A" />
<rect x="110" y="230" width="20" height="10" fill="#CEC9C8" />
<rect x="130" y="230" width="10" height="40" fill="#CE772A" />
<rect x="190" y="230" width="10" height="20" fill="#59372B" />
<rect x="220" y="230" width="10" height="20" fill="#59372B" />
<rect x="310" y="230" width="10" height="20" fill="#7B501D" />
<rect x="330" y="230" width="10" height="10" fill="#51300A" />
<rect x="50" y="240" width="10" height="10" fill="#51300A" />
<rect x="70" y="240" width="10" height="20" fill="#7B501D" />
<rect x="110" y="240" width="20" height="20" fill="#CE772A" />
<rect x="200" y="240" width="20" height="20" fill="#59372B" />
<rect x="280" y="240" width="20" height="10" fill="#CE772A" />
<rect x="300" y="240" width="10" height="20" fill="#7B501D" />
<rect x="320" y="240" width="10" height="10" fill="#51300A" />
<rect x="60" y="250" width="10" height="10" fill="#51300A" />
<rect x="80" y="250" width="20" height="20" fill="#7B501D" />
<rect x="190" y="250" width="10" height="30" fill="#CE772A" />
<rect x="220" y="250" width="10" height="20" fill="#CE772A" />
<rect x="280" y="250" width="20" height="20" fill="#7B501D" />
<rect x="310" y="250" width="10" height="10" fill="#51300A" />
<rect x="70" y="260" width="10" height="10" fill="#51300A" />
<rect x="100" y="260" width="30" height="20" fill="#7B501D" />
<rect x="200" y="260" width="20" height="20" fill="#CE772A" />
<rect x="250" y="260" width="30" height="20" fill="#7B501D" />
<rect x="300" y="260" width="10" height="10" fill="#51300A" />
<rect x="80" y="270" width="20" height="10" fill="#51300A" />
<rect x="130" y="270" width="30" height="20" fill="#7B501D" />
<rect x="220" y="270" width="30" height="20" fill="#7B501D" />
<rect x="280" y="270" width="20" height="10" fill="#51300A" />
<rect x="100" y="280" width="30" height="10" fill="#51300A" />
<rect x="160" y="280" width="60" height="20" fill="#7B501D" />
<rect x="250" y="280" width="30" height="10" fill="#51300A" />
<rect x="130" y="290" width="30" height="10" fill="#51300A" />
<rect x="220" y="290" width="30" height="10" fill="#51300A" />
<rect x="160" y="300" width="60" height="10" fill="#51300A" />
<rect x="170" y="310" width="10" height="40" fill="#51300A" />
<rect x="180" y="310" width="20" height="40" fill="#7B501D" />
<rect x="200" y="310" width="10" height="40" fill="#51300A" />
<rect x="160" y="330" width="10" height="10" fill="#51300A" />
<rect x="210" y="330" width="10" height="10" fill="#51300A" />
<rect x="150" y="340" width="10" height="20" fill="#51300A" />
<rect x="160" y="340" width="10" height="20" fill="#7B501D" />
<rect x="210" y="340" width="10" height="20" fill="#7B501D" />
<rect x="220" y="340" width="10" height="20" fill="#51300A" />
<rect x="170" y="350" width="10" height="20" fill="#7B501D" />
<rect x="180" y="350" width="20" height="10" fill="#51300A" />
<rect x="200" y="350" width="10" height="20" fill="#7B501D" />
<rect x="160" y="360" width="10" height="10" fill="#51300A" />
<rect x="180" y="360" width="20" height="10" fill="#7B501D" />
<rect x="210" y="360" width="10" height="10" fill="#51300A" />
<rect x="170" y="370" width="40" height="10" fill="#51300A" />
</svg>