<?xml version="1.0" encoding="UTF-8" ?>
<svg version="1.1" width="400" height="400" xmlns="http://www.w3.org/2000/svg" shape-rendering="crispEdges">
<rect x="131" y="80" width="20" height="10" fill="#CE772A" />
<rect x="131" y="90" width="10" height="10" fill="#CE772A" />
<rect x="141" y="90" width="10" height="10" fill="#7B501D" />
<rect x="131" y="100" width="10" height="120" fill="#7B501D" />
<rect x="141" y="100" width="10" height="10" fill="#CE772A" />
<rect x="141" y="110" width="10" height="100" fill="#7B501D" />
<rect x="151" y="110" width="10" height="10" fill="#CE772A" />
<rect x="181" y="110" width="20" height="10" fill="#CE772A" />
<rect x="151" y="120" width="10" height="30" fill="#7B501D" />
<rect x="161" y="120" width="10" height="10" fill="#CE772A" />
<rect x="181" y="120" width="10" height="10" fill="#CE772A" />
<rect x="191" y="120" width="10" height="140" fill="#7B501D" />
<rect x="161" y="130" width="10" height="30" fill="#7B501D" />
<rect x="171" y="130" width="10" height="10" fill="#CE772A" />
<rect x="181" y="130" width="10" height="140" fill="#7B501D" />
<rect x="171" y="140" width="10" height="30" fill="#7B501D" />
<rect x="201" y="150" width="10" height="10" fill="#7B501D" />
<rect x="151" y="160" width="10" height="10" fill="#7B501D" />
<rect x="161" y="160" width="10" height="30" fill="#CE772A" />
<rect x="201" y="160" width="10" height="40" fill="#CE772A" />
<rect x="211" y="160" width="10" height="10" fill="#7B501D" />
<rect x="151" y="170" width="10" height="10" fill="#CE772A" />
<rect x="171" y="170" width="10" height="30" fill="#CE772A" />
<rect x="211" y="170" width="10" height="20" fill="#CE772A" />
<rect x="221" y="170" width="10" height="60" fill="#7B501D" />
<rect x="151" y="180" width="10" height="10" fill="#7B501D" />
<rect x="231" y="180" width="10" height="60" fill="#7B501D" />
<rect x="161" y="190" width="10" height="10" fill="#7B501D" />
<rect x="211" y="190" width="10" height="10" fill="#7B501D" />
<rect x="171" y="200" width="10" height="10" fill="#7B501D" />
<rect x="201" y="200" width="10" height="10" fill="#7B501D" />
</svg>