<?xml version="1.0" encoding="UTF-8" ?>
<svg version="1.1" width="400" height="400" xmlns="http://www.w3.org/2000/svg" shape-rendering="crispEdges">
<rect x="50" y="90" width="10" height="10" fill="#4E675B" />
<rect x="80" y="90" width="20" height="10" fill="#304243" />
<rect x="150" y="90" width="10" height="10" fill="#304243" />
<rect x="20" y="100" width="20" height="10" fill="#4E675B" />
<rect x="70" y="100" width="10" height="10" fill="#304243" />
<rect x="100" y="100" width="30" height="10" fill="#304243" />
<rect x="160" y="100" width="10" height="10" fill="#304243" />
<rect x="190" y="100" width="10" height="10" fill="#4E675B" />
<rect x="20" y="110" width="20" height="10" fill="#304243" />
<rect x="60" y="110" width="10" height="20" fill="#304243" />
<rect x="130" y="110" width="10" height="10" fill="#304243" />
<rect x="230" y="110" width="10" height="10" fill="#304243" />
<rect x="250" y="110" width="20" height="10" fill="#4E675B" />
<rect x="320" y="110" width="10" height="10" fill="#304243" />
<rect x="40" y="120" width="20" height="10" fill="#304243" />
<rect x="70" y="120" width="30" height="10" fill="#304243" />
<rect x="150" y="120" width="10" height="20" fill="#304243" />
<rect x="180" y="120" width="30" height="10" fill="#304243" />
<rect x="250" y="120" width="20" height="10" fill="#304243" />
<rect x="350" y="120" width="10" height="10" fill="#4E675B" />
<rect x="360" y="120" width="10" height="10" fill="#304243" />
<rect x="20" y="130" width="20" height="10" fill="#304243" />
<rect x="40" y="130" width="30" height="10" fill="#4E675B" />
<rect x="70" y="130" width="20" height="10" fill="#304243" />
<rect x="100" y="130" width="10" height="10" fill="#304243" />
<rect x="140" y="130" width="10" height="10" fill="#304243" />
<rect x="160" y="130" width="20" height="10" fill="#304243" />
<rect x="180" y="130" width="30" height="10" fill="#4E675B" />
<rect x="210" y="130" width="10" height="10" fill="#304243" />
<rect x="230" y="130" width="20" height="10" fill="#304243" />
<rect x="280" y="130" width="40" height="10" fill="#304243" />
<rect x="10" y="140" width="10" height="30" fill="#304243" />
<rect x="20" y="140" width="20" height="10" fill="#4E675B" />
<rect x="40" y="140" width="30" height="10" fill="#5E6C79" />
<rect x="70" y="140" width="10" height="10" fill="#4E675B" />
<rect x="80" y="140" width="10" height="10" fill="#304243" />
<rect x="120" y="140" width="20" height="10" fill="#304243" />
<rect x="140" y="140" width="30" height="10" fill="#4E675B" />
<rect x="170" y="140" width="20" height="10" fill="#304243" />
<rect x="190" y="140" width="10" height="10" fill="#4E675B" />
<rect x="200" y="140" width="10" height="10" fill="#5E6C79" />
<rect x="210" y="140" width="10" height="10" fill="#4E675B" />
<rect x="220" y="140" width="10" height="10" fill="#304243" />
<rect x="230" y="140" width="20" height="10" fill="#4E675B" />
<rect x="250" y="140" width="10" height="10" fill="#304243" />
<rect x="270" y="140" width="20" height="10" fill="#304243" />
<rect x="290" y="140" width="30" height="10" fill="#4E675B" />
<rect x="320" y="140" width="10" height="10" fill="#304243" />
<rect x="340" y="140" width="10" height="20" fill="#304243" />
<rect x="20" y="150" width="10" height="10" fill="#4E675B" />
<rect x="30" y="150" width="20" height="10" fill="#5E6C79" />
<rect x="50" y="150" width="10" height="10" fill="#4E675B" />
<rect x="60" y="150" width="20" height="10" fill="#5E6C79" />
<rect x="80" y="150" width="10" height="10" fill="#4E675B" />
<rect x="90" y="150" width="10" height="20" fill="#304243" />
<rect x="110" y="150" width="10" height="20" fill="#304243" />
<rect x="120" y="150" width="10" height="10" fill="#4E675B" />
<rect x="130" y="150" width="10" height="10" fill="#5E6C79" />
<rect x="140" y="150" width="10" height="20" fill="#304243" />
<rect x="150" y="150" width="20" height="10" fill="#5E6C79" />
<rect x="170" y="150" width="20" height="10" fill="#4E675B" />
<rect x="190" y="150" width="10" height="20" fill="#304243" />
<rect x="200" y="150" width="10" height="20" fill="#4E675B" />
<rect x="210" y="150" width="10" height="40" fill="#5E6C79" />
<rect x="220" y="150" width="10" height="10" fill="#4E675B" />
<rect x="230" y="150" width="20" height="10" fill="#5E6C79" />
<rect x="250" y="150" width="10" height="10" fill="#4E675B" />
<rect x="260" y="150" width="10" height="40" fill="#304243" />
<rect x="270" y="150" width="10" height="20" fill="#4E675B" />
<rect x="280" y="150" width="10" height="10" fill="#5E6C79" />
<rect x="290" y="150" width="10" height="10" fill="#304243" />
<rect x="300" y="150" width="20" height="10" fill="#5E6C79" />
<rect x="320" y="150" width="10" height="10" fill="#4E675B" />
<rect x="330" y="150" width="10" height="40" fill="#304243" />
<rect x="350" y="150" width="40" height="10" fill="#304243" />
<rect x="20" y="160" width="10" height="30" fill="#304243" />
<rect x="30" y="160" width="20" height="10" fill="#4E675B" />
<rect x="50" y="160" width="10" height="20" fill="#304243" />
<rect x="60" y="160" width="20" height="10" fill="#4E675B" />
<rect x="80" y="160" width="10" height="20" fill="#304243" />
<rect x="100" y="160" width="10" height="20" fill="#304243" />
<rect x="120" y="160" width="10" height="40" fill="#304243" />
<rect x="130" y="160" width="10" height="10" fill="#4E675B" />
<rect x="150" y="160" width="10" height="10" fill="#5E6C79" />
<rect x="160" y="160" width="20" height="10" fill="#4E675B" />
<rect x="180" y="160" width="10" height="30" fill="#304243" />
<rect x="220" y="160" width="20" height="10" fill="#5E6C79" />
<rect x="240" y="160" width="10" height="10" fill="#4E675B" />
<rect x="250" y="160" width="10" height="10" fill="#304243" />
<rect x="280" y="160" width="10" height="10" fill="#304243" />
<rect x="290" y="160" width="20" height="10" fill="#5E6C79" />
<rect x="310" y="160" width="10" height="20" fill="#4E675B" />
<rect x="320" y="160" width="10" height="20" fill="#304243" />
<rect x="340" y="160" width="40" height="10" fill="#4E675B" />
<rect x="380" y="160" width="10" height="70" fill="#304243" />
<rect x="30" y="170" width="10" height="10" fill="#304243" />
<rect x="40" y="170" width="10" height="10" fill="#4E675B" />
<rect x="60" y="170" width="20" height="10" fill="#304243" />
<rect x="90" y="170" width="10" height="10" fill="#4E675B" />
<rect x="110" y="170" width="10" height="10" fill="#4E675B" />
<rect x="130" y="170" width="10" height="10" fill="#304243" />
<rect x="140" y="170" width="20" height="10" fill="#4E675B" />
<rect x="160" y="170" width="20" height="10" fill="#304243" />
<rect x="190" y="170" width="10" height="30" fill="#4E675B" />
<rect x="200" y="170" width="10" height="20" fill="#5E6C79" />
<rect x="220" y="170" width="10" height="10" fill="#304243" />
<rect x="230" y="170" width="10" height="10" fill="#4E675B" />
<rect x="240" y="170" width="10" height="10" fill="#304243" />
<rect x="250" y="170" width="10" height="20" fill="#405051" />
<rect x="270" y="170" width="10" height="10" fill="#304243" />
<rect x="280" y="170" width="30" height="10" fill="#4E675B" />
<rect x="340" y="170" width="10" height="20" fill="#4E675B" />
<rect x="350" y="170" width="20" height="10" fill="#5E6C79" />
<rect x="370" y="170" width="10" height="10" fill="#304243" />
<rect x="30" y="180" width="10" height="10" fill="#405051" />
<rect x="40" y="180" width="10" height="10" fill="#304243" />
<rect x="50" y="180" width="20" height="10" fill="#405051" />
<rect x="70" y="180" width="10" height="20" fill="#304243" />
<rect x="80" y="180" width="10" height="20" fill="#4E675B" />
<rect x="90" y="180" width="10" height="10" fill="#5E6C79" />
<rect x="100" y="180" width="10" height="10" fill="#4E675B" />
<rect x="110" y="180" width="10" height="10" fill="#304243" />
<rect x="130" y="180" width="10" height="10" fill="#405051" />
<rect x="140" y="180" width="20" height="10" fill="#304243" />
<rect x="160" y="180" width="10" height="10" fill="#405051" />
<rect x="170" y="180" width="10" height="40" fill="#304243" />
<rect x="220" y="180" width="10" height="10" fill="#4E675B" />
<rect x="230" y="180" width="10" height="10" fill="#304243" />
<rect x="240" y="180" width="10" height="20" fill="#405051" />
<rect x="270" y="180" width="10" height="10" fill="#405051" />
<rect x="280" y="180" width="40" height="10" fill="#304243" />
<rect x="320" y="180" width="10" height="10" fill="#405051" />
<rect x="350" y="180" width="10" height="20" fill="#5E6C79" />
<rect x="360" y="180" width="10" height="20" fill="#304243" />
<rect x="370" y="180" width="10" height="20" fill="#5E6C79" />
<rect x="30" y="190" width="10" height="10" fill="#304243" />
<rect x="40" y="190" width="10" height="10" fill="#405051" />
<rect x="50" y="190" width="20" height="10" fill="#304243" />
<rect x="90" y="190" width="10" height="10" fill="#4E675B" />
<rect x="100" y="190" width="10" height="10" fill="#304243" />
<rect x="110" y="190" width="10" height="10" fill="#405051" />
<rect x="130" y="190" width="10" height="20" fill="#304243" />
<rect x="140" y="190" width="20" height="10" fill="#405051" />
<rect x="160" y="190" width="10" height="10" fill="#304243" />
<rect x="180" y="190" width="10" height="10" fill="#4E675B" />
<rect x="200" y="190" width="20" height="10" fill="#4E675B" />
<rect x="220" y="190" width="10" height="10" fill="#304243" />
<rect x="230" y="190" width="10" height="10" fill="#405051" />
<rect x="250" y="190" width="10" height="10" fill="#304243" />
<rect x="270" y="190" width="10" height="10" fill="#304243" />
<rect x="280" y="190" width="40" height="10" fill="#405051" />
<rect x="320" y="190" width="10" height="10" fill="#304243" />
<rect x="330" y="190" width="10" height="20" fill="#4E675B" />
<rect x="340" y="190" width="10" height="10" fill="#5E6C79" />
<rect x="10" y="200" width="10" height="10" fill="#4E675B" />
<rect x="40" y="200" width="10" height="30" fill="#304243" />
<rect x="60" y="200" width="10" height="10" fill="#304243" />
<rect x="70" y="200" width="10" height="10" fill="#405051" />
<rect x="80" y="200" width="20" height="10" fill="#304243" />
<rect x="100" y="200" width="10" height="10" fill="#405051" />
<rect x="110" y="200" width="10" height="10" fill="#304243" />
<rect x="140" y="200" width="20" height="10" fill="#304243" />
<rect x="180" y="200" width="40" height="10" fill="#304243" />
<rect x="220" y="200" width="10" height="10" fill="#405051" />
<rect x="230" y="200" width="20" height="10" fill="#304243" />
<rect x="280" y="200" width="40" height="10" fill="#304243" />
<rect x="320" y="200" width="10" height="10" fill="#4E675B" />
<rect x="340" y="200" width="10" height="10" fill="#4E675B" />
<rect x="350" y="200" width="10" height="40" fill="#304243" />
<rect x="360" y="200" width="20" height="10" fill="#4E675B" />
<rect x="10" y="210" width="10" height="10" fill="#304243" />
<rect x="50" y="210" width="20" height="10" fill="#4E675B" />
<rect x="70" y="210" width="20" height="10" fill="#304243" />
<rect x="90" y="210" width="10" height="10" fill="#405051" />
<rect x="100" y="210" width="10" height="10" fill="#304243" />
<rect x="120" y="210" width="10" height="10" fill="#304243" />
<rect x="180" y="210" width="40" height="10" fill="#405051" />
<rect x="220" y="210" width="10" height="10" fill="#304243" />
<rect x="240" y="210" width="30" height="10" fill="#4E675B" />
<rect x="300" y="210" width="10" height="20" fill="#304243" />
<rect x="310" y="210" width="10" height="20" fill="#405051" />
<rect x="320" y="210" width="30" height="10" fill="#304243" />
<rect x="360" y="210" width="20" height="10" fill="#304243" />
<rect x="20" y="220" width="10" height="10" fill="#4E675B" />
<rect x="50" y="220" width="10" height="10" fill="#4E675B" />
<rect x="60" y="220" width="10" height="10" fill="#304243" />
<rect x="90" y="220" width="10" height="10" fill="#304243" />
<rect x="130" y="220" width="10" height="10" fill="#304243" />
<rect x="150" y="220" width="20" height="10" fill="#4E675B" />
<rect x="180" y="220" width="40" height="10" fill="#304243" />
<rect x="240" y="220" width="10" height="10" fill="#304243" />
<rect x="250" y="220" width="10" height="10" fill="#4E675B" />
<rect x="260" y="220" width="10" height="10" fill="#304243" />
<rect x="280" y="220" width="10" height="10" fill="#304243" />
<rect x="320" y="220" width="10" height="10" fill="#405051" />
<rect x="330" y="220" width="10" height="30" fill="#304243" />
<rect x="340" y="220" width="10" height="10" fill="#405051" />
<rect x="360" y="220" width="20" height="10" fill="#405051" />
<rect x="50" y="230" width="10" height="10" fill="#304243" />
<rect x="110" y="230" width="10" height="10" fill="#304243" />
<rect x="150" y="230" width="20" height="10" fill="#304243" />
<rect x="230" y="230" width="10" height="10" fill="#304243" />
<rect x="250" y="230" width="10" height="10" fill="#304243" />
<rect x="270" y="230" width="10" height="10" fill="#304243" />
<rect x="310" y="230" width="20" height="10" fill="#304243" />
<rect x="340" y="230" width="10" height="10" fill="#304243" />
<rect x="360" y="230" width="20" height="10" fill="#304243" />
<rect x="260" y="240" width="10" height="10" fill="#304243" />
<rect x="290" y="240" width="20" height="10" fill="#304243" />
<rect x="320" y="240" width="10" height="30" fill="#304243" />
<rect x="270" y="250" width="20" height="10" fill="#304243" />
<rect x="310" y="260" width="10" height="10" fill="#304243" />
</svg>