<?xml version="1.0" encoding="UTF-8" ?>
<svg version="1.1" width="400" height="400" xmlns="http://www.w3.org/2000/svg" shape-rendering="crispEdges">
<rect x="180" y="70" width="10" height="10" fill="#14414C" />
<rect x="280" y="70" width="10" height="20" fill="#62746D" />
<rect x="310" y="70" width="10" height="10" fill="#14414C" />
<rect x="190" y="80" width="20" height="10" fill="#254648" />
<rect x="270" y="80" width="10" height="20" fill="#62746D" />
<rect x="290" y="80" width="20" height="10" fill="#254648" />
<rect x="170" y="90" width="10" height="10" fill="#62746D" />
<rect x="200" y="90" width="20" height="10" fill="#254648" />
<rect x="260" y="90" width="10" height="20" fill="#62746D" />
<rect x="280" y="90" width="20" height="10" fill="#254648" />
<rect x="180" y="100" width="30" height="10" fill="#62746D" />
<rect x="210" y="100" width="30" height="20" fill="#254648" />
<rect x="240" y="100" width="20" height="10" fill="#62746D" />
<rect x="270" y="100" width="20" height="20" fill="#254648" />
<rect x="180" y="110" width="30" height="10" fill="#254648" />
<rect x="240" y="110" width="30" height="10" fill="#254648" />
<rect x="290" y="110" width="30" height="10" fill="#254648" />
<rect x="160" y="120" width="30" height="10" fill="#62746D" />
<rect x="190" y="120" width="10" height="10" fill="#254648" />
<rect x="200" y="120" width="20" height="10" fill="#467972" />
<rect x="220" y="120" width="10" height="10" fill="#254648" />
<rect x="230" y="120" width="50" height="10" fill="#6F8279" />
<rect x="280" y="120" width="10" height="10" fill="#254648" />
<rect x="290" y="120" width="10" height="10" fill="#395A62" />
<rect x="300" y="120" width="10" height="10" fill="#254648" />
<rect x="170" y="130" width="30" height="10" fill="#62746D" />
<rect x="200" y="130" width="10" height="10" fill="#254648" />
<rect x="210" y="130" width="10" height="10" fill="#6F8279" />
<rect x="220" y="130" width="10" height="10" fill="#467972" />
<rect x="230" y="130" width="20" height="10" fill="#50888B" />
<rect x="250" y="130" width="30" height="10" fill="#849D97" />
<rect x="280" y="130" width="10" height="10" fill="#6F8279" />
<rect x="290" y="130" width="10" height="10" fill="#254648" />
<rect x="180" y="140" width="30" height="10" fill="#62746D" />
<rect x="210" y="140" width="20" height="10" fill="#254648" />
<rect x="230" y="140" width="10" height="10" fill="#467972" />
<rect x="240" y="140" width="10" height="30" fill="#50888B" />
<rect x="250" y="140" width="20" height="10" fill="#254648" />
<rect x="270" y="140" width="20" height="10" fill="#849D97" />
<rect x="290" y="140" width="10" height="10" fill="#6F8279" />
<rect x="300" y="140" width="10" height="10" fill="#254648" />
<rect x="190" y="150" width="20" height="10" fill="#62746D" />
<rect x="210" y="150" width="10" height="40" fill="#254648" />
<rect x="220" y="150" width="10" height="40" fill="#467972" />
<rect x="230" y="150" width="10" height="70" fill="#50888B" />
<rect x="250" y="150" width="40" height="20" fill="#50888B" />
<rect x="290" y="150" width="10" height="10" fill="#849D97" />
<rect x="300" y="150" width="10" height="10" fill="#6F8279" />
<rect x="310" y="150" width="10" height="30" fill="#254648" />
<rect x="200" y="160" width="10" height="30" fill="#62746D" />
<rect x="290" y="160" width="10" height="10" fill="#50888B" />
<rect x="300" y="160" width="10" height="20" fill="#254648" />
<rect x="320" y="160" width="10" height="30" fill="#254648" />
<rect x="240" y="170" width="10" height="20" fill="#467972" />
<rect x="250" y="170" width="10" height="10" fill="#6F8279" />
<rect x="260" y="170" width="10" height="10" fill="#50888B" />
<rect x="270" y="170" width="30" height="10" fill="#254648" />
<rect x="190" y="180" width="10" height="50" fill="#62746D" />
<rect x="250" y="180" width="10" height="10" fill="#254648" />
<rect x="260" y="180" width="60" height="10" fill="#6F8279" />
<rect x="180" y="190" width="10" height="30" fill="#62746D" />
<rect x="200" y="190" width="10" height="20" fill="#254648" />
<rect x="210" y="190" width="10" height="20" fill="#467972" />
<rect x="220" y="190" width="10" height="20" fill="#50888B" />
<rect x="240" y="190" width="10" height="50" fill="#50888B" />
<rect x="250" y="190" width="10" height="10" fill="#467972" />
<rect x="260" y="190" width="60" height="10" fill="#254648" />
<rect x="250" y="200" width="10" height="50" fill="#50888B" />
<rect x="260" y="200" width="10" height="60" fill="#467972" />
<rect x="270" y="200" width="10" height="60" fill="#254648" />
<rect x="200" y="210" width="10" height="40" fill="#62746D" />
<rect x="210" y="210" width="10" height="10" fill="#254648" />
<rect x="220" y="210" width="10" height="10" fill="#467972" />
<rect x="210" y="220" width="10" height="40" fill="#62746D" />
<rect x="220" y="220" width="10" height="20" fill="#254648" />
<rect x="230" y="220" width="10" height="20" fill="#467972" />
<rect x="220" y="240" width="10" height="40" fill="#62746D" />
<rect x="230" y="240" width="10" height="10" fill="#254648" />
<rect x="240" y="240" width="10" height="10" fill="#467972" />
<rect x="230" y="250" width="10" height="40" fill="#62746D" />
<rect x="240" y="250" width="10" height="20" fill="#254648" />
<rect x="250" y="250" width="10" height="20" fill="#467972" />
<rect x="260" y="260" width="10" height="10" fill="#254648" />
<rect x="240" y="270" width="10" height="10" fill="#62746D" />
<rect x="250" y="270" width="10" height="10" fill="#254648" />
</svg>