<?xml version="1.0" encoding="UTF-8" ?>
<svg version="1.1" width="400" height="400" xmlns="http://www.w3.org/2000/svg" shape-rendering="crispEdges">
<rect x="100" y="60" width="190" height="10" fill="#254648" />
<rect x="40" y="70" width="10" height="40" fill="#254648" />
<rect x="80" y="70" width="20" height="10" fill="#254648" />
<rect x="100" y="70" width="190" height="10" fill="#467972" />
<rect x="290" y="70" width="30" height="10" fill="#254648" />
<rect x="30" y="80" width="10" height="40" fill="#62746D" />
<rect x="50" y="80" width="30" height="10" fill="#254648" />
<rect x="80" y="80" width="20" height="10" fill="#467972" />
<rect x="100" y="80" width="40" height="20" fill="#50888B" />
<rect x="140" y="80" width="10" height="10" fill="#849D97" />
<rect x="150" y="80" width="30" height="20" fill="#50888B" />
<rect x="180" y="80" width="10" height="10" fill="#849D97" />
<rect x="190" y="80" width="70" height="10" fill="#50888B" />
<rect x="260" y="80" width="10" height="10" fill="#849D97" />
<rect x="270" y="80" width="20" height="30" fill="#50888B" />
<rect x="290" y="80" width="30" height="10" fill="#467972" />
<rect x="320" y="80" width="10" height="10" fill="#254648" />
<rect x="50" y="90" width="30" height="10" fill="#467972" />
<rect x="80" y="90" width="20" height="30" fill="#50888B" />
<rect x="140" y="90" width="10" height="30" fill="#50888B" />
<rect x="180" y="90" width="30" height="20" fill="#50888B" />
<rect x="210" y="90" width="10" height="10" fill="#849D97" />
<rect x="220" y="90" width="50" height="10" fill="#50888B" />
<rect x="290" y="90" width="10" height="10" fill="#849D97" />
<rect x="300" y="90" width="20" height="30" fill="#50888B" />
<rect x="320" y="90" width="10" height="10" fill="#467972" />
<rect x="330" y="90" width="40" height="10" fill="#254648" />
<rect x="50" y="100" width="10" height="10" fill="#6F8279" />
<rect x="60" y="100" width="20" height="10" fill="#50888B" />
<rect x="100" y="100" width="20" height="20" fill="#50888B" />
<rect x="120" y="100" width="10" height="10" fill="#849D97" />
<rect x="130" y="100" width="10" height="90" fill="#50888B" />
<rect x="150" y="100" width="10" height="50" fill="#50888B" />
<rect x="160" y="100" width="10" height="10" fill="#849D97" />
<rect x="170" y="100" width="10" height="30" fill="#50888B" />
<rect x="210" y="100" width="30" height="20" fill="#50888B" />
<rect x="240" y="100" width="10" height="10" fill="#849D97" />
<rect x="250" y="100" width="20" height="30" fill="#50888B" />
<rect x="290" y="100" width="10" height="80" fill="#50888B" />
<rect x="320" y="100" width="10" height="30" fill="#50888B" />
<rect x="330" y="100" width="10" height="10" fill="#467972" />
<rect x="340" y="100" width="20" height="10" fill="#6F8279" />
<rect x="360" y="100" width="10" height="30" fill="#254648" />
<rect x="40" y="110" width="10" height="30" fill="#62746D" />
<rect x="50" y="110" width="10" height="10" fill="#254648" />
<rect x="60" y="110" width="10" height="10" fill="#6F8279" />
<rect x="70" y="110" width="10" height="10" fill="#849D97" />
<rect x="120" y="110" width="10" height="30" fill="#50888B" />
<rect x="160" y="110" width="10" height="40" fill="#50888B" />
<rect x="180" y="110" width="10" height="40" fill="#50888B" />
<rect x="190" y="110" width="10" height="10" fill="#849D97" />
<rect x="200" y="110" width="10" height="30" fill="#50888B" />
<rect x="240" y="110" width="10" height="40" fill="#50888B" />
<rect x="270" y="110" width="10" height="10" fill="#849D97" />
<rect x="280" y="110" width="10" height="30" fill="#50888B" />
<rect x="330" y="110" width="20" height="20" fill="#849D97" />
<rect x="350" y="110" width="10" height="20" fill="#6F8279" />
<rect x="50" y="120" width="10" height="30" fill="#62746D" />
<rect x="60" y="120" width="10" height="20" fill="#254648" />
<rect x="70" y="120" width="10" height="20" fill="#6F8279" />
<rect x="80" y="120" width="10" height="10" fill="#849D97" />
<rect x="90" y="120" width="10" height="10" fill="#50888B" />
<rect x="100" y="120" width="10" height="10" fill="#849D97" />
<rect x="110" y="120" width="10" height="90" fill="#50888B" />
<rect x="140" y="120" width="10" height="10" fill="#849D97" />
<rect x="190" y="120" width="10" height="30" fill="#50888B" />
<rect x="210" y="120" width="10" height="30" fill="#50888B" />
<rect x="220" y="120" width="10" height="10" fill="#849D97" />
<rect x="230" y="120" width="10" height="30" fill="#50888B" />
<rect x="270" y="120" width="10" height="40" fill="#50888B" />
<rect x="300" y="120" width="10" height="10" fill="#849D97" />
<rect x="310" y="120" width="10" height="50" fill="#50888B" />
<rect x="80" y="130" width="10" height="10" fill="#6F8279" />
<rect x="90" y="130" width="10" height="70" fill="#467972" />
<rect x="100" y="130" width="10" height="80" fill="#50888B" />
<rect x="140" y="130" width="10" height="60" fill="#50888B" />
<rect x="170" y="130" width="10" height="10" fill="#849D97" />
<rect x="220" y="130" width="10" height="20" fill="#50888B" />
<rect x="250" y="130" width="10" height="10" fill="#849D97" />
<rect x="260" y="130" width="10" height="30" fill="#50888B" />
<rect x="300" y="130" width="10" height="60" fill="#50888B" />
<rect x="320" y="130" width="20" height="20" fill="#849D97" />
<rect x="340" y="130" width="10" height="20" fill="#6F8279" />
<rect x="350" y="130" width="10" height="20" fill="#14414C" />
<rect x="60" y="140" width="10" height="20" fill="#62746D" />
<rect x="70" y="140" width="20" height="10" fill="#254648" />
<rect x="120" y="140" width="10" height="10" fill="#849D97" />
<rect x="170" y="140" width="10" height="10" fill="#467972" />
<rect x="200" y="140" width="10" height="40" fill="#849D97" />
<rect x="250" y="140" width="10" height="10" fill="#50888B" />
<rect x="280" y="140" width="10" height="10" fill="#849D97" />
<rect x="70" y="150" width="10" height="40" fill="#62746D" />
<rect x="80" y="150" width="10" height="50" fill="#254648" />
<rect x="120" y="150" width="10" height="50" fill="#50888B" />
<rect x="150" y="150" width="10" height="10" fill="#849D97" />
<rect x="160" y="150" width="10" height="20" fill="#467972" />
<rect x="170" y="150" width="10" height="20" fill="#254648" />
<rect x="180" y="150" width="10" height="40" fill="#6F8279" />
<rect x="190" y="150" width="10" height="20" fill="#849D97" />
<rect x="210" y="150" width="50" height="30" fill="#849D97" />
<rect x="280" y="150" width="10" height="10" fill="#50888B" />
<rect x="320" y="150" width="10" height="10" fill="#849D97" />
<rect x="330" y="150" width="10" height="10" fill="#6F8279" />
<rect x="340" y="150" width="10" height="10" fill="#254648" />
<rect x="350" y="150" width="10" height="10" fill="#62746D" />
<rect x="150" y="160" width="10" height="10" fill="#50888B" />
<rect x="260" y="160" width="10" height="30" fill="#6F8279" />
<rect x="270" y="160" width="10" height="20" fill="#254648" />
<rect x="280" y="160" width="10" height="20" fill="#467972" />
<rect x="320" y="160" width="10" height="10" fill="#6F8279" />
<rect x="330" y="160" width="10" height="10" fill="#254648" />
<rect x="340" y="160" width="10" height="10" fill="#62746D" />
<rect x="150" y="170" width="10" height="20" fill="#467972" />
<rect x="160" y="170" width="10" height="20" fill="#254648" />
<rect x="170" y="170" width="10" height="10" fill="#6F8279" />
<rect x="190" y="170" width="10" height="20" fill="#6F8279" />
<rect x="310" y="170" width="10" height="20" fill="#467972" />
<rect x="320" y="170" width="10" height="20" fill="#14414C" />
<rect x="330" y="170" width="10" height="20" fill="#62746D" />
<rect x="60" y="180" width="10" height="20" fill="#62746D" />
<rect x="170" y="180" width="10" height="30" fill="#254648" />
<rect x="200" y="180" width="60" height="10" fill="#6F8279" />
<rect x="270" y="180" width="10" height="10" fill="#6F8279" />
<rect x="280" y="180" width="10" height="20" fill="#254648" />
<rect x="290" y="180" width="10" height="20" fill="#467972" />
<rect x="50" y="190" width="10" height="20" fill="#62746D" />
<rect x="70" y="190" width="10" height="20" fill="#254648" />
<rect x="130" y="190" width="20" height="10" fill="#467972" />
<rect x="150" y="190" width="10" height="10" fill="#254648" />
<rect x="160" y="190" width="10" height="20" fill="#395A62" />
<rect x="180" y="190" width="100" height="10" fill="#254648" />
<rect x="300" y="190" width="10" height="10" fill="#467972" />
<rect x="310" y="190" width="10" height="10" fill="#50888B" />
<rect x="320" y="190" width="10" height="10" fill="#467972" />
<rect x="330" y="190" width="10" height="10" fill="#14414C" />
<rect x="40" y="200" width="10" height="130" fill="#62746D" />
<rect x="60" y="200" width="10" height="20" fill="#254648" />
<rect x="80" y="200" width="10" height="10" fill="#467972" />
<rect x="90" y="200" width="10" height="10" fill="#50888B" />
<rect x="120" y="200" width="10" height="10" fill="#467972" />
<rect x="130" y="200" width="20" height="10" fill="#254648" />
<rect x="150" y="200" width="10" height="20" fill="#395A62" />
<rect x="180" y="200" width="80" height="10" fill="#62746D" />
<rect x="260" y="200" width="10" height="20" fill="#254648" />
<rect x="270" y="200" width="20" height="20" fill="#395A62" />
<rect x="290" y="200" width="20" height="20" fill="#254648" />
<rect x="310" y="200" width="10" height="10" fill="#467972" />
<rect x="320" y="200" width="10" height="10" fill="#50888B" />
<rect x="330" y="200" width="10" height="10" fill="#467972" />
<rect x="340" y="200" width="10" height="10" fill="#14414C" />
<rect x="30" y="210" width="10" height="120" fill="#62746D" />
<rect x="50" y="210" width="10" height="110" fill="#254648" />
<rect x="70" y="210" width="10" height="20" fill="#467972" />
<rect x="80" y="210" width="10" height="10" fill="#50888B" />
<rect x="90" y="210" width="30" height="10" fill="#467972" />
<rect x="120" y="210" width="10" height="10" fill="#254648" />
<rect x="130" y="210" width="20" height="20" fill="#395A62" />
<rect x="160" y="210" width="10" height="10" fill="#254648" />
<rect x="250" y="210" width="10" height="20" fill="#62746D" />
<rect x="310" y="210" width="10" height="10" fill="#254648" />
<rect x="320" y="210" width="10" height="10" fill="#467972" />
<rect x="330" y="210" width="10" height="10" fill="#50888B" />
<rect x="340" y="210" width="10" height="30" fill="#467972" />
<rect x="350" y="210" width="10" height="20" fill="#254648" />
<rect x="60" y="220" width="10" height="80" fill="#467972" />
<rect x="80" y="220" width="10" height="10" fill="#467972" />
<rect x="90" y="220" width="30" height="10" fill="#254648" />
<rect x="120" y="220" width="10" height="70" fill="#395A62" />
<rect x="150" y="220" width="10" height="10" fill="#14414C" />
<rect x="260" y="220" width="10" height="100" fill="#62746D" />
<rect x="270" y="220" width="10" height="90" fill="#254648" />
<rect x="280" y="220" width="10" height="70" fill="#395A62" />
<rect x="290" y="220" width="10" height="90" fill="#254648" />
<rect x="300" y="220" width="20" height="100" fill="#62746D" />
<rect x="320" y="220" width="10" height="10" fill="#254648" />
<rect x="330" y="220" width="10" height="10" fill="#467972" />
<rect x="70" y="230" width="20" height="10" fill="#254648" />
<rect x="90" y="230" width="20" height="10" fill="#62746D" />
<rect x="110" y="230" width="10" height="80" fill="#254648" />
<rect x="130" y="230" width="10" height="10" fill="#395A62" />
<rect x="140" y="230" width="10" height="10" fill="#254648" />
<rect x="320" y="230" width="10" height="10" fill="#7D8B87" />
<rect x="330" y="230" width="10" height="10" fill="#254648" />
<rect x="350" y="230" width="10" height="60" fill="#467972" />
<rect x="360" y="230" width="10" height="80" fill="#254648" />
<rect x="70" y="240" width="10" height="80" fill="#254648" />
<rect x="80" y="240" width="10" height="10" fill="#62746D" />
<rect x="100" y="240" width="10" height="80" fill="#62746D" />
<rect x="130" y="240" width="10" height="70" fill="#254648" />
<rect x="320" y="240" width="10" height="80" fill="#62746D" />
<rect x="340" y="240" width="10" height="70" fill="#254648" />
<rect x="120" y="290" width="10" height="20" fill="#254648" />
<rect x="280" y="290" width="10" height="20" fill="#254648" />
<rect x="350" y="290" width="10" height="20" fill="#254648" />
<rect x="60" y="300" width="10" height="20" fill="#254648" />
<rect x="110" y="310" width="20" height="10" fill="#62746D" />
<rect x="270" y="310" width="30" height="10" fill="#62746D" />
<rect x="50" y="320" width="10" height="10" fill="#62746D" />
</svg>