<?xml version="1.0" encoding="UTF-8" ?>
<svg version="1.1" width="400" height="400" xmlns="http://www.w3.org/2000/svg" shape-rendering="crispEdges">
<rect x="130" y="140" width="40" height="10" fill="#3A370B" />
<rect x="200" y="140" width="100" height="10" fill="#3A370B" />
<rect x="120" y="150" width="10" height="20" fill="#3A370B" />
<rect x="130" y="150" width="10" height="20" fill="#5E4E1A" />
<rect x="140" y="150" width="10" height="10" fill="#5D7471" />
<rect x="150" y="150" width="20" height="20" fill="#5E4E1A" />
<rect x="170" y="150" width="30" height="10" fill="#3A370B" />
<rect x="200" y="150" width="60" height="10" fill="#5E4E1A" />
<rect x="260" y="150" width="20" height="10" fill="#3A370B" />
<rect x="280" y="150" width="10" height="10" fill="#706458" />
<rect x="290" y="150" width="20" height="10" fill="#2D270A" />
<rect x="110" y="160" width="10" height="20" fill="#62746D" />
<rect x="140" y="160" width="10" height="10" fill="#5E4E1A" />
<rect x="170" y="160" width="30" height="20" fill="#5E4E1A" />
<rect x="200" y="160" width="10" height="10" fill="#2D270A" />
<rect x="210" y="160" width="20" height="20" fill="#3A370B" />
<rect x="230" y="160" width="10" height="10" fill="#2D270A" />
<rect x="240" y="160" width="60" height="10" fill="#5E4E1A" />
<rect x="300" y="160" width="10" height="10" fill="#3A370B" />
<rect x="90" y="170" width="20" height="10" fill="#62746D" />
<rect x="120" y="170" width="20" height="10" fill="#2D270A" />
<rect x="140" y="170" width="20" height="10" fill="#3A370B" />
<rect x="160" y="170" width="10" height="10" fill="#5E4E1A" />
<rect x="200" y="170" width="10" height="10" fill="#5E4E1A" />
<rect x="230" y="170" width="60" height="10" fill="#3A370B" />
<rect x="290" y="170" width="20" height="10" fill="#2D270A" />
<rect x="90" y="180" width="10" height="10" fill="#62746D" />
<rect x="100" y="180" width="30" height="10" fill="#2D270A" />
<rect x="130" y="180" width="10" height="10" fill="#5E4E1A" />
<rect x="140" y="180" width="10" height="10" fill="#5D7471" />
<rect x="150" y="180" width="10" height="10" fill="#2D270A" />
<rect x="160" y="180" width="60" height="10" fill="#3A370B" />
<rect x="220" y="180" width="10" height="10" fill="#2D270A" />
<rect x="230" y="180" width="50" height="10" fill="#5E4E1A" />
<rect x="280" y="180" width="10" height="10" fill="#5D7471" />
<rect x="290" y="180" width="10" height="10" fill="#5E4E1A" />
<rect x="300" y="180" width="10" height="10" fill="#3A370B" />
<rect x="80" y="190" width="10" height="70" fill="#62746D" />
<rect x="90" y="190" width="10" height="60" fill="#2D270A" />
<rect x="100" y="190" width="20" height="20" fill="#3A370B" />
<rect x="120" y="190" width="20" height="30" fill="#2D270A" />
<rect x="140" y="190" width="10" height="10" fill="#5E4E1A" />
<rect x="150" y="190" width="30" height="10" fill="#3A370B" />
<rect x="180" y="190" width="50" height="10" fill="#5E4E1A" />
<rect x="230" y="190" width="10" height="30" fill="#2D270A" />
<rect x="240" y="190" width="40" height="10" fill="#3A370B" />
<rect x="280" y="190" width="10" height="10" fill="#5E4E1A" />
<rect x="290" y="190" width="20" height="20" fill="#2D270A" />
<rect x="140" y="200" width="60" height="20" fill="#2D270A" />
<rect x="200" y="200" width="10" height="10" fill="#5D7471" />
<rect x="210" y="200" width="20" height="10" fill="#2D270A" />
<rect x="240" y="200" width="50" height="20" fill="#2D270A" />
<rect x="100" y="210" width="20" height="10" fill="#2D270A" />
<rect x="200" y="210" width="10" height="10" fill="#2D270A" />
<rect x="210" y="210" width="10" height="10" fill="#778F8C" />
<rect x="220" y="210" width="10" height="10" fill="#2D270A" />
<rect x="290" y="210" width="10" height="10" fill="#2D270A" />
<rect x="300" y="210" width="10" height="10" fill="#62746D" />
<rect x="100" y="220" width="40" height="10" fill="#3A370B" />
<rect x="140" y="220" width="30" height="10" fill="#2D270A" />
<rect x="170" y="220" width="20" height="10" fill="#3A370B" />
<rect x="190" y="220" width="10" height="10" fill="#778F8C" />
<rect x="200" y="220" width="20" height="10" fill="#3A370B" />
<rect x="220" y="220" width="10" height="10" fill="#5D7471" />
<rect x="230" y="220" width="30" height="10" fill="#3A370B" />
<rect x="260" y="220" width="10" height="30" fill="#2D270A" />
<rect x="270" y="220" width="30" height="10" fill="#62746D" />
<rect x="100" y="230" width="30" height="10" fill="#2D270A" />
<rect x="130" y="230" width="50" height="10" fill="#3A370B" />
<rect x="180" y="230" width="20" height="30" fill="#2D270A" />
<rect x="200" y="230" width="10" height="10" fill="#5D7471" />
<rect x="210" y="230" width="50" height="10" fill="#2D270A" />
<rect x="270" y="230" width="10" height="20" fill="#62746D" />
<rect x="100" y="240" width="20" height="10" fill="#2D270A" />
<rect x="120" y="240" width="10" height="10" fill="#5D7471" />
<rect x="130" y="240" width="50" height="20" fill="#2D270A" />
<rect x="200" y="240" width="10" height="20" fill="#2D270A" />
<rect x="210" y="240" width="10" height="10" fill="#5D7471" />
<rect x="220" y="240" width="40" height="20" fill="#2D270A" />
<rect x="90" y="250" width="10" height="20" fill="#62746D" />
<rect x="100" y="250" width="10" height="10" fill="#2D270A" />
<rect x="110" y="250" width="10" height="10" fill="#778F8C" />
<rect x="120" y="250" width="10" height="10" fill="#2D270A" />
<rect x="210" y="250" width="10" height="10" fill="#2D270A" />
<rect x="260" y="250" width="10" height="20" fill="#62746D" />
<rect x="100" y="260" width="10" height="10" fill="#778F8C" />
<rect x="110" y="260" width="150" height="10" fill="#62746D" />
</svg>