<?xml version="1.0" encoding="UTF-8" ?>
<svg version="1.1" width="400" height="400" xmlns="http://www.w3.org/2000/svg" shape-rendering="crispEdges">
<rect x="210" y="200" width="10" height="20" fill="#66717D" />
<rect x="200" y="210" width="10" height="20" fill="#66717D" />
<rect x="220" y="210" width="10" height="20" fill="#66717D" />
<rect x="190" y="220" width="10" height="20" fill="#66717D" />
<rect x="210" y="220" width="10" height="120" fill="#879098" />
<rect x="230" y="220" width="10" height="20" fill="#66717D" />
<rect x="180" y="230" width="10" height="20" fill="#66717D" />
<rect x="200" y="230" width="10" height="120" fill="#879098" />
<rect x="220" y="230" width="10" height="100" fill="#879098" />
<rect x="240" y="230" width="10" height="20" fill="#66717D" />
<rect x="170" y="240" width="10" height="20" fill="#66717D" />
<rect x="190" y="240" width="10" height="110" fill="#879098" />
<rect x="230" y="240" width="10" height="80" fill="#879098" />
<rect x="250" y="240" width="10" height="20" fill="#66717D" />
<rect x="160" y="250" width="10" height="20" fill="#66717D" />
<rect x="180" y="250" width="10" height="100" fill="#879098" />
<rect x="240" y="250" width="10" height="60" fill="#879098" />
<rect x="260" y="250" width="10" height="20" fill="#66717D" />
<rect x="150" y="260" width="10" height="20" fill="#66717D" />
<rect x="170" y="260" width="10" height="80" fill="#879098" />
<rect x="250" y="260" width="10" height="40" fill="#879098" />
<rect x="270" y="260" width="10" height="20" fill="#66717D" />
<rect x="140" y="270" width="10" height="20" fill="#66717D" />
<rect x="160" y="270" width="10" height="60" fill="#879098" />
<rect x="260" y="270" width="10" height="10" fill="#879098" />
<rect x="280" y="270" width="10" height="30" fill="#66717D" />
<rect x="130" y="280" width="10" height="20" fill="#66717D" />
<rect x="150" y="280" width="10" height="40" fill="#879098" />
<rect x="260" y="280" width="10" height="10" fill="#66717D" />
<rect x="270" y="280" width="10" height="10" fill="#9CA5AA" />
<rect x="290" y="280" width="10" height="10" fill="#66717D" />
<rect x="120" y="290" width="10" height="30" fill="#66717D" />
<rect x="140" y="290" width="10" height="20" fill="#879098" />
<rect x="260" y="290" width="10" height="10" fill="#9CA5AA" />
<rect x="270" y="290" width="10" height="20" fill="#66717D" />
<rect x="110" y="300" width="10" height="10" fill="#66717D" />
<rect x="130" y="300" width="10" height="10" fill="#9CA5AA" />
<rect x="250" y="300" width="10" height="10" fill="#9CA5AA" />
<rect x="260" y="300" width="10" height="20" fill="#66717D" />
<rect x="130" y="310" width="10" height="20" fill="#66717D" />
<rect x="140" y="310" width="10" height="10" fill="#9CA5AA" />
<rect x="240" y="310" width="10" height="10" fill="#9CA5AA" />
<rect x="250" y="310" width="10" height="20" fill="#66717D" />
<rect x="140" y="320" width="10" height="20" fill="#66717D" />
<rect x="150" y="320" width="10" height="10" fill="#9CA5AA" />
<rect x="230" y="320" width="10" height="10" fill="#9CA5AA" />
<rect x="240" y="320" width="10" height="20" fill="#66717D" />
<rect x="150" y="330" width="10" height="20" fill="#66717D" />
<rect x="160" y="330" width="10" height="10" fill="#9CA5AA" />
<rect x="220" y="330" width="10" height="10" fill="#9CA5AA" />
<rect x="230" y="330" width="10" height="20" fill="#66717D" />
<rect x="160" y="340" width="10" height="20" fill="#66717D" />
<rect x="170" y="340" width="10" height="10" fill="#9CA5AA" />
<rect x="210" y="340" width="10" height="10" fill="#9CA5AA" />
<rect x="220" y="340" width="10" height="20" fill="#66717D" />
<rect x="170" y="350" width="10" height="20" fill="#66717D" />
<rect x="180" y="350" width="10" height="10" fill="#9CA5AA" />
<rect x="190" y="350" width="10" height="10" fill="#66717D" />
<rect x="200" y="350" width="10" height="10" fill="#9CA5AA" />
<rect x="210" y="350" width="10" height="20" fill="#66717D" />
<rect x="180" y="360" width="10" height="20" fill="#66717D" />
<rect x="190" y="360" width="10" height="10" fill="#9CA5AA" />
<rect x="200" y="360" width="10" height="20" fill="#66717D" />
<rect x="190" y="370" width="10" height="20" fill="#66717D" />
</svg>