<?xml version="1.0" encoding="UTF-8" ?>
<svg version="1.1" width="400" height="400" xmlns="http://www.w3.org/2000/svg" shape-rendering="crispEdges">
<rect x="190" y="60" width="10" height="10" fill="#B8C9C9" />
<rect x="180" y="70" width="10" height="10" fill="#B0BEC0" />
<rect x="190" y="70" width="10" height="120" fill="#66717D" />
<rect x="170" y="80" width="10" height="10" fill="#9CA5AA" />
<rect x="180" y="80" width="10" height="10" fill="#66717D" />
<rect x="160" y="90" width="10" height="10" fill="#9CA5AA" />
<rect x="170" y="90" width="10" height="10" fill="#66717D" />
<rect x="180" y="90" width="10" height="80" fill="#9CA5AA" />
<rect x="150" y="100" width="10" height="10" fill="#9CA5AA" />
<rect x="160" y="100" width="10" height="10" fill="#66717D" />
<rect x="170" y="100" width="10" height="80" fill="#879098" />
<rect x="140" y="110" width="10" height="10" fill="#9CA5AA" />
<rect x="150" y="110" width="10" height="10" fill="#66717D" />
<rect x="160" y="110" width="10" height="20" fill="#879098" />
<rect x="130" y="120" width="10" height="10" fill="#9CA5AA" />
<rect x="140" y="120" width="10" height="10" fill="#66717D" />
<rect x="150" y="120" width="10" height="20" fill="#879098" />
<rect x="120" y="130" width="10" height="10" fill="#9CA5AA" />
<rect x="130" y="130" width="10" height="10" fill="#66717D" />
<rect x="140" y="130" width="10" height="20" fill="#879098" />
<rect x="160" y="130" width="10" height="10" fill="#66717D" />
<rect x="110" y="140" width="10" height="10" fill="#9CA5AA" />
<rect x="120" y="140" width="10" height="10" fill="#66717D" />
<rect x="130" y="140" width="10" height="20" fill="#879098" />
<rect x="150" y="140" width="10" height="10" fill="#66717D" />
<rect x="160" y="140" width="10" height="20" fill="#879098" />
<rect x="100" y="150" width="10" height="10" fill="#B0BEC0" />
<rect x="110" y="150" width="10" height="10" fill="#66717D" />
<rect x="120" y="150" width="10" height="20" fill="#879098" />
<rect x="140" y="150" width="10" height="10" fill="#66717D" />
<rect x="150" y="150" width="10" height="50" fill="#879098" />
<rect x="90" y="160" width="10" height="10" fill="#B8C9C9" />
<rect x="100" y="160" width="10" height="120" fill="#66717D" />
<rect x="110" y="160" width="10" height="80" fill="#879098" />
<rect x="130" y="160" width="10" height="10" fill="#66717D" />
<rect x="140" y="160" width="10" height="20" fill="#879098" />
<rect x="160" y="160" width="10" height="10" fill="#66717D" />
<rect x="90" y="170" width="10" height="10" fill="#B0BEC0" />
<rect x="120" y="170" width="10" height="10" fill="#66717D" />
<rect x="130" y="170" width="10" height="20" fill="#879098" />
<rect x="160" y="170" width="10" height="20" fill="#879098" />
<rect x="180" y="170" width="10" height="10" fill="#B8C9C9" />
<rect x="90" y="180" width="10" height="110" fill="#9CA5AA" />
<rect x="120" y="180" width="10" height="20" fill="#879098" />
<rect x="140" y="180" width="10" height="10" fill="#66717D" />
<rect x="170" y="180" width="10" height="10" fill="#9CA5AA" />
<rect x="180" y="180" width="10" height="20" fill="#66717D" />
<rect x="130" y="190" width="10" height="10" fill="#66717D" />
<rect x="140" y="190" width="10" height="20" fill="#879098" />
<rect x="160" y="190" width="10" height="10" fill="#9CA5AA" />
<rect x="170" y="190" width="10" height="20" fill="#66717D" />
<rect x="120" y="200" width="10" height="10" fill="#66717D" />
<rect x="130" y="200" width="10" height="20" fill="#879098" />
<rect x="150" y="200" width="10" height="10" fill="#B0BEC0" />
<rect x="160" y="200" width="10" height="20" fill="#66717D" />
<rect x="120" y="210" width="10" height="20" fill="#879098" />
<rect x="140" y="210" width="10" height="10" fill="#B0BEC0" />
<rect x="150" y="210" width="10" height="20" fill="#66717D" />
<rect x="130" y="220" width="10" height="10" fill="#9CA5AA" />
<rect x="140" y="220" width="10" height="20" fill="#66717D" />
<rect x="120" y="230" width="10" height="10" fill="#9CA5AA" />
<rect x="130" y="230" width="10" height="20" fill="#66717D" />
<rect x="110" y="240" width="10" height="10" fill="#B8C9C9" />
<rect x="120" y="240" width="10" height="20" fill="#66717D" />
<rect x="110" y="250" width="10" height="20" fill="#66717D" />
</svg>