<?xml version="1.0" encoding="UTF-8" ?>
<svg version="1.1" width="400" height="410" xmlns="http://www.w3.org/2000/svg" shape-rendering="crispEdges">
<rect x="100" y="0" width="200" height="10" fill="#526774" />
<rect x="90" y="10" width="20" height="10" fill="#526774" />
<rect x="110" y="10" width="180" height="20" fill="#A3B3B7" />
<rect x="290" y="10" width="20" height="10" fill="#526774" />
<rect x="90" y="20" width="10" height="320" fill="#526774" />
<rect x="100" y="20" width="10" height="130" fill="#A3B3B7" />
<rect x="290" y="20" width="10" height="290" fill="#A3B3B7" />
<rect x="300" y="20" width="10" height="320" fill="#526774" />
<rect x="110" y="30" width="50" height="10" fill="#A3B3B7" />
<rect x="160" y="30" width="40" height="10" fill="#E6F8FF" />
<rect x="200" y="30" width="90" height="10" fill="#A3B3B7" />
<rect x="110" y="40" width="40" height="30" fill="#A3B3B7" />
<rect x="150" y="40" width="20" height="10" fill="#E6F8FF" />
<rect x="170" y="40" width="10" height="10" fill="#A3B3B7" />
<rect x="180" y="40" width="20" height="10" fill="#E6F8FF" />
<rect x="200" y="40" width="60" height="10" fill="#A3B3B7" />
<rect x="260" y="40" width="10" height="10" fill="#E6F8FF" />
<rect x="270" y="40" width="20" height="280" fill="#A3B3B7" />
<rect x="150" y="50" width="10" height="10" fill="#E6F8FF" />
<rect x="160" y="50" width="10" height="10" fill="#A3B3B7" />
<rect x="170" y="50" width="10" height="20" fill="#E6F8FF" />
<rect x="180" y="50" width="10" height="10" fill="#A3B3B7" />
<rect x="190" y="50" width="10" height="30" fill="#E6F8FF" />
<rect x="200" y="50" width="50" height="70" fill="#A3B3B7" />
<rect x="250" y="50" width="10" height="10" fill="#E6F8FF" />
<rect x="260" y="50" width="10" height="120" fill="#A3B3B7" />
<rect x="60" y="60" width="10" height="10" fill="#425150" />
<rect x="150" y="60" width="10" height="20" fill="#A3B3B7" />
<rect x="160" y="60" width="10" height="10" fill="#E6F8FF" />
<rect x="180" y="60" width="10" height="10" fill="#E6F8FF" />
<rect x="250" y="60" width="10" height="100" fill="#A3B3B7" />
<rect x="60" y="70" width="10" height="10" fill="#62746D" />
<rect x="70" y="70" width="10" height="10" fill="#D3EEF2" />
<rect x="110" y="70" width="20" height="90" fill="#A3B3B7" />
<rect x="130" y="70" width="10" height="10" fill="#E6F8FF" />
<rect x="140" y="70" width="10" height="20" fill="#A3B3B7" />
<rect x="160" y="70" width="30" height="90" fill="#A3B3B7" />
<rect x="70" y="80" width="10" height="10" fill="#62746D" />
<rect x="80" y="80" width="10" height="10" fill="#D3EEF2" />
<rect x="130" y="80" width="10" height="160" fill="#A3B3B7" />
<rect x="150" y="80" width="10" height="10" fill="#E6F8FF" />
<rect x="190" y="80" width="10" height="90" fill="#A3B3B7" />
<rect x="80" y="90" width="10" height="10" fill="#62746D" />
<rect x="140" y="90" width="10" height="10" fill="#E6F8FF" />
<rect x="150" y="90" width="10" height="80" fill="#A3B3B7" />
<rect x="40" y="100" width="30" height="10" fill="#425150" />
<rect x="140" y="100" width="10" height="130" fill="#A3B3B7" />
<rect x="30" y="110" width="10" height="20" fill="#425150" />
<rect x="70" y="110" width="10" height="20" fill="#425150" />
<rect x="60" y="120" width="10" height="10" fill="#E6F8FF" />
<rect x="200" y="120" width="10" height="10" fill="#A3B3B7" />
<rect x="210" y="120" width="10" height="10" fill="#E6F8FF" />
<rect x="220" y="120" width="30" height="10" fill="#A3B3B7" />
<rect x="20" y="130" width="10" height="30" fill="#425150" />
<rect x="50" y="130" width="10" height="10" fill="#E6F8FF" />
<rect x="60" y="130" width="20" height="10" fill="#D3EEF2" />
<rect x="80" y="130" width="10" height="20" fill="#62746D" />
<rect x="200" y="130" width="10" height="10" fill="#E6F8FF" />
<rect x="210" y="130" width="30" height="30" fill="#A3B3B7" />
<rect x="240" y="130" width="10" height="10" fill="#E6F8FF" />
<rect x="40" y="140" width="10" height="10" fill="#E6F8FF" />
<rect x="70" y="140" width="10" height="10" fill="#D3EEF2" />
<rect x="200" y="140" width="10" height="30" fill="#A3B3B7" />
<rect x="240" y="140" width="10" height="20" fill="#A3B3B7" />
<rect x="30" y="150" width="10" height="10" fill="#E6F8FF" />
<rect x="50" y="150" width="10" height="10" fill="#E6F8FF" />
<rect x="60" y="150" width="10" height="10" fill="#D3EEF2" />
<rect x="70" y="150" width="10" height="10" fill="#62746D" />
<rect x="100" y="150" width="10" height="10" fill="#E6F8FF" />
<rect x="20" y="160" width="10" height="10" fill="#E6F8FF" />
<rect x="40" y="160" width="20" height="10" fill="#D3EEF2" />
<rect x="60" y="160" width="10" height="10" fill="#62746D" />
<rect x="100" y="160" width="10" height="150" fill="#A3B3B7" />
<rect x="110" y="160" width="10" height="10" fill="#E6F8FF" />
<rect x="120" y="160" width="10" height="60" fill="#A3B3B7" />
<rect x="160" y="160" width="20" height="10" fill="#A3B3B7" />
<rect x="180" y="160" width="10" height="40" fill="#62B365" />
<rect x="210" y="160" width="20" height="10" fill="#A3B3B7" />
<rect x="230" y="160" width="30" height="10" fill="#E6F8FF" />
<rect x="20" y="170" width="10" height="20" fill="#62746D" />
<rect x="30" y="170" width="20" height="10" fill="#D3EEF2" />
<rect x="50" y="170" width="10" height="10" fill="#62746D" />
<rect x="80" y="170" width="10" height="10" fill="#D3EEF2" />
<rect x="110" y="170" width="10" height="150" fill="#A3B3B7" />
<rect x="150" y="170" width="10" height="10" fill="#62B365" />
<rect x="160" y="170" width="10" height="10" fill="#A3B3B7" />
<rect x="170" y="170" width="10" height="30" fill="#62B365" />
<rect x="190" y="170" width="10" height="30" fill="#62B365" />
<rect x="200" y="170" width="30" height="20" fill="#E6F8FF" />
<rect x="230" y="170" width="10" height="10" fill="#A3B3B7" />
<rect x="240" y="170" width="10" height="10" fill="#E6F8FF" />
<rect x="250" y="170" width="10" height="10" fill="#A3B3B7" />
<rect x="260" y="170" width="10" height="20" fill="#E6F8FF" />
<rect x="30" y="180" width="20" height="10" fill="#62746D" />
<rect x="150" y="180" width="10" height="10" fill="#A3B3B7" />
<rect x="160" y="180" width="10" height="30" fill="#62B365" />
<rect x="230" y="180" width="20" height="10" fill="#62B365" />
<rect x="250" y="180" width="10" height="20" fill="#E6F8FF" />
<rect x="150" y="190" width="10" height="10" fill="#62B365" />
<rect x="200" y="190" width="30" height="10" fill="#62B365" />
<rect x="230" y="190" width="20" height="10" fill="#E6F8FF" />
<rect x="260" y="190" width="10" height="140" fill="#A3B3B7" />
<rect x="10" y="200" width="10" height="10" fill="#E6F8FF" />
<rect x="150" y="200" width="10" height="20" fill="#A3B3B7" />
<rect x="170" y="200" width="40" height="40" fill="#A3B3B7" />
<rect x="210" y="200" width="40" height="10" fill="#62B365" />
<rect x="250" y="200" width="10" height="130" fill="#A3B3B7" />
<rect x="50" y="210" width="10" height="30" fill="#D3EEF2" />
<rect x="70" y="210" width="10" height="10" fill="#E6F8FF" />
<rect x="160" y="210" width="10" height="20" fill="#A3B3B7" />
<rect x="210" y="210" width="40" height="120" fill="#A3B3B7" />
<rect x="0" y="220" width="10" height="10" fill="#E6F8FF" />
<rect x="40" y="220" width="10" height="20" fill="#D3EEF2" />
<rect x="60" y="220" width="10" height="10" fill="#D3EEF2" />
<rect x="120" y="220" width="10" height="10" fill="#E6F8FF" />
<rect x="150" y="220" width="10" height="30" fill="#62B365" />
<rect x="120" y="230" width="10" height="20" fill="#A3B3B7" />
<rect x="140" y="230" width="10" height="10" fill="#62B365" />
<rect x="160" y="230" width="10" height="10" fill="#62B365" />
<rect x="130" y="240" width="20" height="10" fill="#BEC9C5" />
<rect x="160" y="240" width="20" height="50" fill="#BEC9C5" />
<rect x="180" y="240" width="30" height="10" fill="#A3B3B7" />
<rect x="20" y="250" width="10" height="10" fill="#E6F8FF" />
<rect x="40" y="250" width="10" height="20" fill="#D3EEF2" />
<rect x="120" y="250" width="20" height="10" fill="#BEC9C5" />
<rect x="140" y="250" width="10" height="10" fill="#62B365" />
<rect x="150" y="250" width="10" height="40" fill="#BEC9C5" />
<rect x="180" y="250" width="10" height="30" fill="#BEC9C5" />
<rect x="190" y="250" width="20" height="10" fill="#A3B3B7" />
<rect x="70" y="260" width="10" height="10" fill="#E6F8FF" />
<rect x="120" y="260" width="10" height="70" fill="#A3B3B7" />
<rect x="130" y="260" width="20" height="10" fill="#BEC9C5" />
<rect x="190" y="260" width="10" height="10" fill="#BEC9C5" />
<rect x="200" y="260" width="10" height="70" fill="#A3B3B7" />
<rect x="130" y="270" width="10" height="60" fill="#A3B3B7" />
<rect x="140" y="270" width="10" height="10" fill="#BEC9C5" />
<rect x="190" y="270" width="10" height="60" fill="#A3B3B7" />
<rect x="140" y="280" width="10" height="50" fill="#A3B3B7" />
<rect x="180" y="280" width="10" height="50" fill="#A3B3B7" />
<rect x="150" y="290" width="10" height="40" fill="#A3B3B7" />
<rect x="160" y="290" width="10" height="10" fill="#BEC9C5" />
<rect x="170" y="290" width="10" height="40" fill="#A3B3B7" />
<rect x="60" y="300" width="10" height="10" fill="#A1B3AC" />
<rect x="160" y="300" width="10" height="30" fill="#A3B3B7" />
<rect x="50" y="310" width="10" height="10" fill="#A1B3AC" />
<rect x="60" y="310" width="10" height="40" fill="#BEC9C5" />
<rect x="70" y="310" width="10" height="10" fill="#A1B3AC" />
<rect x="100" y="310" width="10" height="40" fill="#526774" />
<rect x="290" y="310" width="10" height="40" fill="#526774" />
<rect x="40" y="320" width="10" height="10" fill="#A1B3AC" />
<rect x="50" y="320" width="10" height="20" fill="#BEC9C5" />
<rect x="70" y="320" width="10" height="30" fill="#BEC9C5" />
<rect x="80" y="320" width="10" height="10" fill="#A1B3AC" />
<rect x="110" y="320" width="10" height="30" fill="#526774" />
<rect x="270" y="320" width="10" height="10" fill="#A3B3B7" />
<rect x="280" y="320" width="10" height="30" fill="#526774" />
<rect x="30" y="330" width="10" height="10" fill="#A1B3AC" />
<rect x="40" y="330" width="10" height="30" fill="#BEC9C5" />
<rect x="80" y="330" width="10" height="10" fill="#BEC9C5" />
<rect x="120" y="330" width="160" height="20" fill="#526774" />
<rect x="20" y="340" width="10" height="10" fill="#A1B3AC" />
<rect x="30" y="340" width="10" height="10" fill="#BEC9C5" />
<rect x="50" y="340" width="10" height="10" fill="#425150" />
<rect x="80" y="340" width="10" height="10" fill="#A1B3AC" />
<rect x="90" y="340" width="10" height="20" fill="#62746D" />
<rect x="300" y="340" width="10" height="40" fill="#62746D" />
<rect x="20" y="350" width="10" height="10" fill="#62746D" />
<rect x="30" y="350" width="10" height="10" fill="#A1B3AC" />
<rect x="50" y="350" width="10" height="20" fill="#BEC9C5" />
<rect x="60" y="350" width="10" height="10" fill="#425150" />
<rect x="70" y="350" width="10" height="10" fill="#A1B3AC" />
<rect x="80" y="350" width="10" height="20" fill="#62746D" />
<rect x="100" y="350" width="20" height="40" fill="#62746D" />
<rect x="120" y="350" width="40" height="40" fill="#526774" />
<rect x="160" y="350" width="50" height="10" fill="#A1B3AC" />
<rect x="210" y="350" width="30" height="50" fill="#62746D" />
<rect x="240" y="350" width="40" height="40" fill="#526774" />
<rect x="280" y="350" width="20" height="40" fill="#62746D" />
<rect x="30" y="360" width="10" height="10" fill="#62746D" />
<rect x="40" y="360" width="10" height="10" fill="#A1B3AC" />
<rect x="60" y="360" width="10" height="10" fill="#A1B3AC" />
<rect x="70" y="360" width="10" height="10" fill="#425150" />
<rect x="90" y="360" width="10" height="20" fill="#E6F8FF" />
<rect x="160" y="360" width="10" height="40" fill="#62746D" />
<rect x="170" y="360" width="30" height="10" fill="#A1B3AC" />
<rect x="200" y="360" width="10" height="40" fill="#62746D" />
<rect x="40" y="370" width="10" height="10" fill="#62746D" />
<rect x="50" y="370" width="10" height="10" fill="#A1B3AC" />
<rect x="60" y="370" width="20" height="10" fill="#62746D" />
<rect x="80" y="370" width="10" height="10" fill="#758281" />
<rect x="170" y="370" width="10" height="30" fill="#62746D" />
<rect x="180" y="370" width="10" height="10" fill="#A1B3AC" />
<rect x="190" y="370" width="10" height="30" fill="#62746D" />
<rect x="50" y="380" width="10" height="10" fill="#62746D" />
<rect x="70" y="380" width="10" height="10" fill="#E6F8FF" />
<rect x="80" y="380" width="20" height="10" fill="#62746D" />
<rect x="180" y="380" width="10" height="20" fill="#62746D" />
<rect x="110" y="390" width="20" height="10" fill="#62746D" />
<rect x="130" y="390" width="20" height="10" fill="#526774" />
<rect x="150" y="390" width="10" height="20" fill="#62746D" />
<rect x="240" y="390" width="10" height="20" fill="#62746D" />
<rect x="250" y="390" width="20" height="10" fill="#526774" />
<rect x="270" y="390" width="20" height="10" fill="#62746D" />
<rect x="120" y="400" width="30" height="10" fill="#62746D" />
<rect x="250" y="400" width="30" height="10" fill="#62746D" />
</svg>