<?xml version="1.0" encoding="UTF-8" ?>
<svg version="1.1" width="400" height="420" xmlns="http://www.w3.org/2000/svg" shape-rendering="crispEdges">
<rect x="210" y="0" width="80" height="10" fill="#1B3E43" />
<rect x="200" y="10" width="10" height="40" fill="#1B3E43" />
<rect x="210" y="10" width="30" height="10" fill="#19232D" />
<rect x="240" y="10" width="10" height="10" fill="#C2CECB" />
<rect x="250" y="10" width="10" height="10" fill="#19232D" />
<rect x="260" y="10" width="10" height="10" fill="#C2CECB" />
<rect x="270" y="10" width="20" height="10" fill="#19232D" />
<rect x="290" y="10" width="10" height="40" fill="#1B3E43" />
<rect x="210" y="20" width="10" height="10" fill="#1B3E43" />
<rect x="220" y="20" width="10" height="10" fill="#19232D" />
<rect x="230" y="20" width="10" height="10" fill="#C2CECB" />
<rect x="240" y="20" width="10" height="10" fill="#19232D" />
<rect x="250" y="20" width="10" height="10" fill="#C2CECB" />
<rect x="260" y="20" width="20" height="10" fill="#19232D" />
<rect x="280" y="20" width="10" height="10" fill="#1B3E43" />
<rect x="210" y="30" width="10" height="20" fill="#9AB8C0" />
<rect x="220" y="30" width="20" height="10" fill="#1B3E43" />
<rect x="240" y="30" width="10" height="10" fill="#C2CECB" />
<rect x="250" y="30" width="10" height="10" fill="#19232D" />
<rect x="260" y="30" width="20" height="10" fill="#1B3E43" />
<rect x="280" y="30" width="10" height="20" fill="#9AB8C0" />
<rect x="220" y="40" width="10" height="30" fill="#9AB8C0" />
<rect x="230" y="40" width="10" height="30" fill="#739B9D" />
<rect x="240" y="40" width="20" height="10" fill="#1B3E43" />
<rect x="260" y="40" width="10" height="30" fill="#E6F8FF" />
<rect x="270" y="40" width="10" height="30" fill="#9AB8C0" />
<rect x="210" y="50" width="10" height="20" fill="#1B3E43" />
<rect x="240" y="50" width="20" height="30" fill="#E6F8FF" />
<rect x="280" y="50" width="10" height="20" fill="#1B3E43" />
<rect x="220" y="70" width="20" height="10" fill="#1B3E43" />
<rect x="260" y="70" width="20" height="10" fill="#1B3E43" />
<rect x="220" y="80" width="10" height="180" fill="#1B3E43" />
<rect x="230" y="80" width="10" height="180" fill="#9AB8C0" />
<rect x="240" y="80" width="20" height="10" fill="#1B3E43" />
<rect x="260" y="80" width="10" height="120" fill="#9AB8C0" />
<rect x="270" y="80" width="10" height="180" fill="#1B3E43" />
<rect x="310" y="80" width="20" height="10" fill="#1B3E43" />
<rect x="240" y="90" width="10" height="170" fill="#739B9D" />
<rect x="250" y="90" width="10" height="170" fill="#E6F8FF" />
<rect x="290" y="90" width="20" height="10" fill="#1B3E43" />
<rect x="310" y="90" width="10" height="10" fill="#9AB8C0" />
<rect x="320" y="90" width="10" height="30" fill="#E6F8FF" />
<rect x="330" y="90" width="10" height="20" fill="#1B3E43" />
<rect x="280" y="100" width="20" height="10" fill="#1B3E43" />
<rect x="300" y="100" width="10" height="10" fill="#9AB8C0" />
<rect x="310" y="100" width="10" height="30" fill="#E6F8FF" />
<rect x="280" y="110" width="20" height="10" fill="#9AB8C0" />
<rect x="300" y="110" width="10" height="20" fill="#1B3E43" />
<rect x="330" y="110" width="10" height="40" fill="#9AB8C0" />
<rect x="340" y="110" width="10" height="20" fill="#1B3E43" />
<rect x="280" y="120" width="20" height="20" fill="#E6F8FF" />
<rect x="320" y="120" width="10" height="30" fill="#9AB8C0" />
<rect x="210" y="130" width="10" height="10" fill="#1B3E43" />
<rect x="300" y="130" width="10" height="10" fill="#E6F8FF" />
<rect x="310" y="130" width="10" height="20" fill="#1B3E43" />
<rect x="340" y="130" width="10" height="10" fill="#9AB8C0" />
<rect x="350" y="130" width="10" height="20" fill="#1B3E43" />
<rect x="190" y="140" width="20" height="10" fill="#1B3E43" />
<rect x="210" y="140" width="10" height="10" fill="#9AB8C0" />
<rect x="280" y="140" width="10" height="10" fill="#E6F8FF" />
<rect x="290" y="140" width="20" height="30" fill="#9AB8C0" />
<rect x="340" y="140" width="10" height="20" fill="#739B9D" />
<rect x="170" y="150" width="20" height="10" fill="#1B3E43" />
<rect x="190" y="150" width="20" height="10" fill="#9AB8C0" />
<rect x="210" y="150" width="10" height="10" fill="#E6F8FF" />
<rect x="280" y="150" width="10" height="30" fill="#9AB8C0" />
<rect x="310" y="150" width="10" height="20" fill="#9AB8C0" />
<rect x="320" y="150" width="10" height="20" fill="#1B3E43" />
<rect x="330" y="150" width="10" height="10" fill="#739B9D" />
<rect x="350" y="150" width="10" height="20" fill="#AFBCB0" />
<rect x="360" y="150" width="10" height="20" fill="#1B3E43" />
<rect x="150" y="160" width="20" height="10" fill="#1B3E43" />
<rect x="170" y="160" width="20" height="10" fill="#9AB8C0" />
<rect x="190" y="160" width="20" height="10" fill="#E6F8FF" />
<rect x="210" y="160" width="10" height="10" fill="#1B3E43" />
<rect x="330" y="160" width="20" height="10" fill="#AFBCB0" />
<rect x="130" y="170" width="20" height="10" fill="#1B3E43" />
<rect x="150" y="170" width="20" height="10" fill="#9AB8C0" />
<rect x="170" y="170" width="30" height="10" fill="#E6F8FF" />
<rect x="200" y="170" width="10" height="10" fill="#1B3E43" />
<rect x="210" y="170" width="10" height="30" fill="#E6F8FF" />
<rect x="290" y="170" width="10" height="10" fill="#9AB8C0" />
<rect x="300" y="170" width="20" height="10" fill="#739B9D" />
<rect x="320" y="170" width="10" height="10" fill="#AFBCB0" />
<rect x="330" y="170" width="30" height="10" fill="#1B3E43" />
<rect x="110" y="180" width="20" height="10" fill="#1B3E43" />
<rect x="130" y="180" width="20" height="10" fill="#9AB8C0" />
<rect x="150" y="180" width="40" height="20" fill="#E6F8FF" />
<rect x="190" y="180" width="10" height="30" fill="#1B3E43" />
<rect x="200" y="180" width="10" height="10" fill="#E6F8FF" />
<rect x="280" y="180" width="20" height="10" fill="#739B9D" />
<rect x="300" y="180" width="20" height="10" fill="#AFBCB0" />
<rect x="320" y="180" width="20" height="10" fill="#1B3E43" />
<rect x="90" y="190" width="20" height="10" fill="#1B3E43" />
<rect x="110" y="190" width="20" height="10" fill="#9AB8C0" />
<rect x="130" y="190" width="20" height="30" fill="#E6F8FF" />
<rect x="200" y="190" width="10" height="10" fill="#739B9D" />
<rect x="280" y="190" width="20" height="10" fill="#AFBCB0" />
<rect x="300" y="190" width="20" height="10" fill="#1B3E43" />
<rect x="80" y="200" width="10" height="20" fill="#1B3E43" />
<rect x="90" y="200" width="20" height="10" fill="#9AB8C0" />
<rect x="110" y="200" width="10" height="20" fill="#1B3E43" />
<rect x="120" y="200" width="10" height="20" fill="#E6F8FF" />
<rect x="150" y="200" width="20" height="10" fill="#E6F8FF" />
<rect x="170" y="200" width="20" height="30" fill="#9AB8C0" />
<rect x="200" y="200" width="10" height="10" fill="#AFBCB0" />
<rect x="210" y="200" width="10" height="10" fill="#739B9D" />
<rect x="260" y="200" width="10" height="60" fill="#AFBCB0" />
<rect x="280" y="200" width="20" height="10" fill="#1B3E43" />
<rect x="90" y="210" width="10" height="10" fill="#9AB8C0" />
<rect x="100" y="210" width="10" height="30" fill="#E6F8FF" />
<rect x="150" y="210" width="20" height="30" fill="#9AB8C0" />
<rect x="190" y="210" width="10" height="20" fill="#9AB8C0" />
<rect x="200" y="210" width="10" height="10" fill="#1B3E43" />
<rect x="210" y="210" width="10" height="10" fill="#AFBCB0" />
<rect x="90" y="220" width="10" height="20" fill="#1B3E43" />
<rect x="110" y="220" width="10" height="20" fill="#E6F8FF" />
<rect x="120" y="220" width="10" height="20" fill="#1B3E43" />
<rect x="130" y="220" width="20" height="20" fill="#9AB8C0" />
<rect x="200" y="220" width="10" height="10" fill="#739B9D" />
<rect x="210" y="220" width="10" height="10" fill="#1B3E43" />
<rect x="10" y="230" width="10" height="10" fill="#353A36" />
<rect x="20" y="230" width="10" height="30" fill="#313A33" />
<rect x="70" y="230" width="20" height="10" fill="#1B3E43" />
<rect x="170" y="230" width="10" height="10" fill="#9AB8C0" />
<rect x="180" y="230" width="20" height="10" fill="#739B9D" />
<rect x="200" y="230" width="20" height="10" fill="#AFBCB0" />
<rect x="10" y="240" width="10" height="30" fill="#313A33" />
<rect x="50" y="240" width="30" height="10" fill="#1B3E43" />
<rect x="80" y="240" width="20" height="10" fill="#E6F8FF" />
<rect x="100" y="240" width="10" height="30" fill="#1B3E43" />
<rect x="110" y="240" width="20" height="20" fill="#9AB8C0" />
<rect x="130" y="240" width="10" height="20" fill="#1B3E43" />
<rect x="140" y="240" width="20" height="10" fill="#9AB8C0" />
<rect x="160" y="240" width="20" height="10" fill="#739B9D" />
<rect x="180" y="240" width="20" height="10" fill="#AFBCB0" />
<rect x="200" y="240" width="20" height="10" fill="#1B3E43" />
<rect x="30" y="250" width="10" height="20" fill="#313A33" />
<rect x="40" y="250" width="10" height="10" fill="#353A36" />
<rect x="50" y="250" width="10" height="30" fill="#1B3E43" />
<rect x="60" y="250" width="20" height="10" fill="#E6F8FF" />
<rect x="80" y="250" width="20" height="10" fill="#9AB8C0" />
<rect x="140" y="250" width="20" height="10" fill="#739B9D" />
<rect x="160" y="250" width="20" height="10" fill="#AFBCB0" />
<rect x="180" y="250" width="20" height="10" fill="#1B3E43" />
<rect x="20" y="260" width="10" height="10" fill="#353A36" />
<rect x="40" y="260" width="10" height="10" fill="#313A33" />
<rect x="60" y="260" width="30" height="10" fill="#9AB8C0" />
<rect x="90" y="260" width="10" height="10" fill="#1B3E43" />
<rect x="110" y="260" width="10" height="20" fill="#1B3E43" />
<rect x="120" y="260" width="20" height="10" fill="#739B9D" />
<rect x="140" y="260" width="10" height="20" fill="#1B3E43" />
<rect x="150" y="260" width="10" height="10" fill="#AFBCB0" />
<rect x="160" y="260" width="30" height="10" fill="#1B3E43" />
<rect x="210" y="260" width="10" height="20" fill="#1B3E43" />
<rect x="220" y="260" width="10" height="20" fill="#E6F8FF" />
<rect x="230" y="260" width="40" height="10" fill="#1B3E43" />
<rect x="270" y="260" width="10" height="20" fill="#E6F8FF" />
<rect x="280" y="260" width="10" height="20" fill="#1B3E43" />
<rect x="60" y="270" width="30" height="10" fill="#1B3E43" />
<rect x="120" y="270" width="20" height="10" fill="#AFBCB0" />
<rect x="150" y="270" width="10" height="10" fill="#1B3E43" />
<rect x="160" y="270" width="20" height="10" fill="#739B9D" />
<rect x="180" y="270" width="10" height="10" fill="#1B3E43" />
<rect x="230" y="270" width="40" height="10" fill="#E6F8FF" />
<rect x="120" y="280" width="20" height="10" fill="#1B3E43" />
<rect x="140" y="280" width="20" height="10" fill="#739B9D" />
<rect x="160" y="280" width="30" height="10" fill="#9AB8C0" />
<rect x="190" y="280" width="10" height="20" fill="#1B3E43" />
<rect x="220" y="280" width="20" height="10" fill="#1B3E43" />
<rect x="240" y="280" width="20" height="10" fill="#9AB8C0" />
<rect x="260" y="280" width="20" height="10" fill="#1B3E43" />
<rect x="130" y="290" width="10" height="20" fill="#1B3E43" />
<rect x="140" y="290" width="10" height="10" fill="#739B9D" />
<rect x="150" y="290" width="20" height="10" fill="#9AB8C0" />
<rect x="170" y="290" width="10" height="10" fill="#1B3E43" />
<rect x="180" y="290" width="10" height="20" fill="#E6F8FF" />
<rect x="240" y="290" width="20" height="10" fill="#1B3E43" />
<rect x="140" y="300" width="10" height="10" fill="#9AB8C0" />
<rect x="150" y="300" width="10" height="10" fill="#1B3E43" />
<rect x="160" y="300" width="10" height="10" fill="#9AB8C0" />
<rect x="170" y="300" width="10" height="20" fill="#E6F8FF" />
<rect x="190" y="300" width="10" height="30" fill="#9AB8C0" />
<rect x="200" y="300" width="10" height="30" fill="#1B3E43" />
<rect x="140" y="310" width="10" height="20" fill="#1B3E43" />
<rect x="150" y="310" width="10" height="10" fill="#9AB8C0" />
<rect x="160" y="310" width="10" height="10" fill="#E6F8FF" />
<rect x="180" y="310" width="10" height="10" fill="#1B3E43" />
<rect x="150" y="320" width="10" height="10" fill="#E6F8FF" />
<rect x="160" y="320" width="10" height="10" fill="#1B3E43" />
<rect x="170" y="320" width="20" height="10" fill="#9AB8C0" />
<rect x="150" y="330" width="10" height="20" fill="#1B3E43" />
<rect x="160" y="330" width="20" height="10" fill="#9AB8C0" />
<rect x="180" y="330" width="20" height="10" fill="#1B3E43" />
<rect x="200" y="330" width="10" height="40" fill="#739B9D" />
<rect x="210" y="330" width="10" height="40" fill="#1B3E43" />
<rect x="160" y="340" width="20" height="10" fill="#1B3E43" />
<rect x="180" y="340" width="20" height="30" fill="#739B9D" />
<rect x="140" y="350" width="10" height="20" fill="#1B3E43" />
<rect x="150" y="350" width="30" height="20" fill="#739B9D" />
<rect x="90" y="360" width="50" height="10" fill="#62746D" />
<rect x="220" y="360" width="100" height="10" fill="#62746D" />
<rect x="70" y="370" width="30" height="40" fill="#62746D" />
<rect x="100" y="370" width="40" height="10" fill="#1B3E43" />
<rect x="140" y="370" width="80" height="10" fill="#9AB8C0" />
<rect x="220" y="370" width="40" height="10" fill="#1B3E43" />
<rect x="260" y="370" width="70" height="40" fill="#62746D" />
<rect x="10" y="380" width="10" height="10" fill="#62746D" />
<rect x="30" y="380" width="40" height="20" fill="#62746D" />
<rect x="100" y="380" width="10" height="20" fill="#1B3E43" />
<rect x="110" y="380" width="140" height="10" fill="#739B9D" />
<rect x="250" y="380" width="10" height="20" fill="#1B3E43" />
<rect x="330" y="380" width="10" height="30" fill="#62746D" />
<rect x="20" y="390" width="10" height="10" fill="#62746D" />
<rect x="110" y="390" width="140" height="10" fill="#1B3E43" />
<rect x="340" y="390" width="10" height="20" fill="#62746D" />
<rect x="100" y="400" width="160" height="10" fill="#62746D" />
<rect x="350" y="400" width="10" height="10" fill="#62746D" />
</svg>