<?xml version="1.0" encoding="UTF-8" ?>
<svg version="1.1" width="400" height="400" xmlns="http://www.w3.org/2000/svg" shape-rendering="crispEdges">
<rect x="170" y="70" width="20" height="10" fill="#948849" />
<rect x="220" y="70" width="20" height="10" fill="#948849" />
<rect x="170" y="80" width="20" height="60" fill="#5E4E1A" />
<rect x="220" y="80" width="20" height="60" fill="#5E4E1A" />
<rect x="190" y="90" width="30" height="10" fill="#948849" />
<rect x="190" y="100" width="30" height="20" fill="#5E4E1A" />
<rect x="190" y="130" width="30" height="10" fill="#5E4E1A" />
<rect x="10" y="140" width="380" height="10" fill="#2D270A" />
<rect x="0" y="150" width="20" height="10" fill="#2D270A" />
<rect x="20" y="150" width="350" height="10" fill="#514C17" />
<rect x="370" y="150" width="10" height="10" fill="#3A370B" />
<rect x="380" y="150" width="20" height="10" fill="#2D270A" />
<rect x="0" y="160" width="10" height="130" fill="#2D270A" />
<rect x="10" y="160" width="300" height="10" fill="#514C17" />
<rect x="310" y="160" width="60" height="10" fill="#62746D" />
<rect x="370" y="160" width="20" height="50" fill="#514C17" />
<rect x="390" y="160" width="10" height="130" fill="#2D270A" />
<rect x="10" y="170" width="40" height="10" fill="#514C17" />
<rect x="50" y="170" width="10" height="10" fill="#8B6619" />
<rect x="60" y="170" width="10" height="10" fill="#7D7235" />
<rect x="70" y="170" width="10" height="10" fill="#8B6619" />
<rect x="80" y="170" width="80" height="10" fill="#514C17" />
<rect x="160" y="170" width="10" height="10" fill="#0E2823" />
<rect x="170" y="170" width="30" height="10" fill="#514C17" />
<rect x="200" y="170" width="10" height="10" fill="#A1B3AC" />
<rect x="210" y="170" width="100" height="10" fill="#514C17" />
<rect x="310" y="170" width="50" height="10" fill="#623219" />
<rect x="360" y="170" width="10" height="10" fill="#62746D" />
<rect x="10" y="180" width="30" height="10" fill="#514C17" />
<rect x="40" y="180" width="50" height="20" fill="#A17E34" />
<rect x="90" y="180" width="60" height="10" fill="#514C17" />
<rect x="150" y="180" width="10" height="10" fill="#0E2823" />
<rect x="160" y="180" width="30" height="10" fill="#514C17" />
<rect x="190" y="180" width="10" height="10" fill="#A1B3AC" />
<rect x="200" y="180" width="10" height="10" fill="#BEC9C5" />
<rect x="210" y="180" width="10" height="10" fill="#A1B3AC" />
<rect x="220" y="180" width="60" height="10" fill="#514C17" />
<rect x="280" y="180" width="20" height="30" fill="#A1B3AC" />
<rect x="300" y="180" width="20" height="10" fill="#623219" />
<rect x="320" y="180" width="10" height="10" fill="#A1B3AC" />
<rect x="330" y="180" width="10" height="10" fill="#623219" />
<rect x="340" y="180" width="10" height="10" fill="#62746D" />
<rect x="350" y="180" width="20" height="10" fill="#623219" />
<rect x="10" y="190" width="20" height="10" fill="#514C17" />
<rect x="30" y="190" width="10" height="10" fill="#A17E34" />
<rect x="90" y="190" width="10" height="10" fill="#A17E34" />
<rect x="100" y="190" width="40" height="10" fill="#514C17" />
<rect x="140" y="190" width="10" height="10" fill="#0E2823" />
<rect x="150" y="190" width="30" height="10" fill="#514C17" />
<rect x="180" y="190" width="10" height="10" fill="#A1B3AC" />
<rect x="190" y="190" width="10" height="10" fill="#BEC9C5" />
<rect x="200" y="190" width="10" height="20" fill="#0E2823" />
<rect x="210" y="190" width="10" height="10" fill="#BEC9C5" />
<rect x="220" y="190" width="10" height="10" fill="#A1B3AC" />
<rect x="230" y="190" width="50" height="10" fill="#514C17" />
<rect x="300" y="190" width="10" height="10" fill="#A1B3AC" />
<rect x="310" y="190" width="20" height="10" fill="#623219" />
<rect x="330" y="190" width="10" height="10" fill="#1C3635" />
<rect x="340" y="190" width="20" height="10" fill="#623219" />
<rect x="360" y="190" width="10" height="10" fill="#62746D" />
<rect x="10" y="200" width="10" height="80" fill="#514C17" />
<rect x="20" y="200" width="90" height="10" fill="#8B6619" />
<rect x="110" y="200" width="20" height="90" fill="#514C17" />
<rect x="130" y="200" width="10" height="10" fill="#7D7235" />
<rect x="140" y="200" width="30" height="10" fill="#514C17" />
<rect x="170" y="200" width="10" height="10" fill="#A1B3AC" />
<rect x="180" y="200" width="10" height="20" fill="#BEC9C5" />
<rect x="190" y="200" width="10" height="10" fill="#0E2823" />
<rect x="210" y="200" width="10" height="10" fill="#0E2823" />
<rect x="220" y="200" width="10" height="10" fill="#BEC9C5" />
<rect x="230" y="200" width="10" height="10" fill="#A1B3AC" />
<rect x="240" y="200" width="40" height="10" fill="#514C17" />
<rect x="300" y="200" width="20" height="20" fill="#623219" />
<rect x="320" y="200" width="10" height="10" fill="#1C3635" />
<rect x="330" y="200" width="10" height="10" fill="#A1B3AC" />
<rect x="340" y="200" width="10" height="10" fill="#1C3635" />
<rect x="350" y="200" width="20" height="20" fill="#623219" />
<rect x="20" y="210" width="10" height="70" fill="#514C17" />
<rect x="30" y="210" width="10" height="20" fill="#7D7235" />
<rect x="40" y="210" width="20" height="10" fill="#514C17" />
<rect x="60" y="210" width="10" height="60" fill="#7D7235" />
<rect x="70" y="210" width="40" height="10" fill="#514C17" />
<rect x="130" y="210" width="30" height="10" fill="#514C17" />
<rect x="160" y="210" width="10" height="10" fill="#A1B3AC" />
<rect x="170" y="210" width="10" height="30" fill="#BEC9C5" />
<rect x="190" y="210" width="30" height="20" fill="#BEC9C5" />
<rect x="220" y="210" width="10" height="10" fill="#0E2823" />
<rect x="230" y="210" width="10" height="10" fill="#BEC9C5" />
<rect x="240" y="210" width="10" height="10" fill="#A1B3AC" />
<rect x="250" y="210" width="30" height="80" fill="#514C17" />
<rect x="280" y="210" width="10" height="50" fill="#A1B3AC" />
<rect x="290" y="210" width="10" height="10" fill="#623219" />
<rect x="320" y="210" width="10" height="10" fill="#623219" />
<rect x="330" y="210" width="10" height="10" fill="#1C3635" />
<rect x="340" y="210" width="10" height="10" fill="#623219" />
<rect x="370" y="210" width="10" height="10" fill="#623219" />
<rect x="380" y="210" width="10" height="70" fill="#514C17" />
<rect x="40" y="220" width="10" height="40" fill="#514C17" />
<rect x="50" y="220" width="10" height="20" fill="#7D7235" />
<rect x="70" y="220" width="10" height="20" fill="#7D7235" />
<rect x="80" y="220" width="30" height="40" fill="#514C17" />
<rect x="130" y="220" width="20" height="70" fill="#514C17" />
<rect x="150" y="220" width="10" height="10" fill="#A1B3AC" />
<rect x="160" y="220" width="10" height="10" fill="#BEC9C5" />
<rect x="180" y="220" width="10" height="10" fill="#0E2823" />
<rect x="220" y="220" width="10" height="10" fill="#BEC9C5" />
<rect x="230" y="220" width="10" height="10" fill="#A1B3AC" />
<rect x="240" y="220" width="10" height="70" fill="#514C17" />
<rect x="290" y="220" width="50" height="40" fill="#A1B3AC" />
<rect x="340" y="220" width="30" height="20" fill="#62746D" />
<rect x="370" y="220" width="10" height="70" fill="#514C17" />
<rect x="30" y="230" width="10" height="10" fill="#8B6619" />
<rect x="150" y="230" width="10" height="60" fill="#514C17" />
<rect x="160" y="230" width="10" height="10" fill="#A1B3AC" />
<rect x="180" y="230" width="10" height="20" fill="#BEC9C5" />
<rect x="190" y="230" width="20" height="10" fill="#623219" />
<rect x="210" y="230" width="10" height="10" fill="#BEC9C5" />
<rect x="220" y="230" width="10" height="10" fill="#A1B3AC" />
<rect x="230" y="230" width="10" height="60" fill="#514C17" />
<rect x="30" y="240" width="10" height="50" fill="#514C17" />
<rect x="50" y="240" width="10" height="10" fill="#514C17" />
<rect x="70" y="240" width="10" height="10" fill="#514C17" />
<rect x="160" y="240" width="10" height="50" fill="#514C17" />
<rect x="170" y="240" width="10" height="10" fill="#A1B3AC" />
<rect x="190" y="240" width="20" height="10" fill="#BEC9C5" />
<rect x="210" y="240" width="10" height="10" fill="#A1B3AC" />
<rect x="220" y="240" width="10" height="50" fill="#514C17" />
<rect x="340" y="240" width="30" height="30" fill="#514C17" />
<rect x="50" y="250" width="10" height="20" fill="#7D7235" />
<rect x="70" y="250" width="10" height="20" fill="#7D7235" />
<rect x="170" y="250" width="10" height="40" fill="#514C17" />
<rect x="180" y="250" width="10" height="10" fill="#A1B3AC" />
<rect x="190" y="250" width="10" height="10" fill="#BEC9C5" />
<rect x="200" y="250" width="10" height="10" fill="#A1B3AC" />
<rect x="210" y="250" width="10" height="40" fill="#514C17" />
<rect x="40" y="260" width="10" height="10" fill="#7D7235" />
<rect x="80" y="260" width="10" height="10" fill="#7D7235" />
<rect x="90" y="260" width="20" height="30" fill="#514C17" />
<rect x="180" y="260" width="10" height="30" fill="#514C17" />
<rect x="190" y="260" width="10" height="10" fill="#A1B3AC" />
<rect x="200" y="260" width="10" height="30" fill="#514C17" />
<rect x="280" y="260" width="60" height="30" fill="#514C17" />
<rect x="40" y="270" width="50" height="20" fill="#514C17" />
<rect x="190" y="270" width="10" height="20" fill="#514C17" />
<rect x="340" y="270" width="10" height="20" fill="#514C17" />
<rect x="350" y="270" width="10" height="10" fill="#3A370B" />
<rect x="360" y="270" width="10" height="10" fill="#514C17" />
<rect x="10" y="280" width="10" height="30" fill="#2D270A" />
<rect x="20" y="280" width="10" height="10" fill="#3A370B" />
<rect x="350" y="280" width="10" height="10" fill="#514C17" />
<rect x="360" y="280" width="10" height="10" fill="#3A370B" />
<rect x="380" y="280" width="10" height="30" fill="#2D270A" />
<rect x="0" y="290" width="10" height="40" fill="#62746D" />
<rect x="20" y="290" width="360" height="30" fill="#2D270A" />
<rect x="390" y="290" width="10" height="40" fill="#62746D" />
<rect x="10" y="310" width="10" height="80" fill="#62746D" />
<rect x="380" y="310" width="10" height="70" fill="#62746D" />
<rect x="20" y="320" width="60" height="20" fill="#2D270A" />
<rect x="80" y="320" width="240" height="30" fill="#3A370B" />
<rect x="320" y="320" width="60" height="20" fill="#2D270A" />
<rect x="20" y="340" width="40" height="20" fill="#2D270A" />
<rect x="60" y="340" width="20" height="10" fill="#3A370B" />
<rect x="320" y="340" width="20" height="10" fill="#3A370B" />
<rect x="340" y="340" width="40" height="20" fill="#2D270A" />
<rect x="60" y="350" width="280" height="10" fill="#2D270A" />
<rect x="20" y="360" width="10" height="30" fill="#62746D" />
<rect x="30" y="360" width="30" height="10" fill="#2D270A" />
<rect x="60" y="360" width="280" height="30" fill="#62746D" />
<rect x="340" y="360" width="30" height="10" fill="#2D270A" />
<rect x="370" y="360" width="10" height="30" fill="#62746D" />
<rect x="30" y="370" width="10" height="20" fill="#62746D" />
<rect x="40" y="370" width="20" height="10" fill="#2D270A" />
<rect x="340" y="370" width="20" height="10" fill="#2D270A" />
<rect x="360" y="370" width="10" height="20" fill="#62746D" />
<rect x="40" y="380" width="20" height="10" fill="#62746D" />
<rect x="340" y="380" width="20" height="10" fill="#62746D" />
</svg>