<?xml version="1.0" encoding="UTF-8" ?>
<svg version="1.1" width="400" height="400" xmlns="http://www.w3.org/2000/svg" shape-rendering="crispEdges">
<rect x="140" y="0" width="20" height="10" fill="#948849" />
<rect x="190" y="0" width="20" height="10" fill="#948849" />
<rect x="140" y="10" width="20" height="70" fill="#5E4E1A" />
<rect x="190" y="10" width="20" height="70" fill="#5E4E1A" />
<rect x="160" y="20" width="30" height="10" fill="#948849" />
<rect x="160" y="30" width="30" height="20" fill="#5E4E1A" />
<rect x="160" y="60" width="30" height="10" fill="#5E4E1A" />
<rect x="160" y="70" width="30" height="50" fill="#948849" />
<rect x="130" y="80" width="10" height="60" fill="#62746D" />
<rect x="140" y="80" width="10" height="60" fill="#5E4E1A" />
<rect x="150" y="80" width="10" height="30" fill="#948849" />
<rect x="190" y="80" width="10" height="30" fill="#948849" />
<rect x="200" y="80" width="10" height="60" fill="#5E4E1A" />
<rect x="210" y="80" width="10" height="60" fill="#62746D" />
<rect x="150" y="110" width="10" height="30" fill="#5E4E1A" />
<rect x="190" y="110" width="10" height="30" fill="#5E4E1A" />
<rect x="160" y="120" width="30" height="10" fill="#5E4E1A" />
<rect x="160" y="130" width="30" height="10" fill="#62746D" />
<rect x="70" y="140" width="310" height="10" fill="#2D270A" />
<rect x="60" y="150" width="20" height="10" fill="#2D270A" />
<rect x="80" y="150" width="290" height="10" fill="#514C17" />
<rect x="370" y="150" width="20" height="10" fill="#2D270A" />
<rect x="60" y="160" width="10" height="130" fill="#2D270A" />
<rect x="70" y="160" width="130" height="20" fill="#514C17" />
<rect x="200" y="160" width="100" height="10" fill="#374448" />
<rect x="300" y="160" width="80" height="20" fill="#514C17" />
<rect x="380" y="160" width="10" height="130" fill="#2D270A" />
<rect x="200" y="170" width="20" height="10" fill="#374448" />
<rect x="220" y="170" width="10" height="10" fill="#273036" />
<rect x="230" y="170" width="10" height="10" fill="#374448" />
<rect x="240" y="170" width="10" height="10" fill="#273036" />
<rect x="250" y="170" width="10" height="10" fill="#374448" />
<rect x="260" y="170" width="10" height="10" fill="#273036" />
<rect x="270" y="170" width="10" height="10" fill="#374448" />
<rect x="280" y="170" width="10" height="10" fill="#273036" />
<rect x="290" y="170" width="10" height="30" fill="#374448" />
<rect x="70" y="180" width="60" height="10" fill="#514C17" />
<rect x="130" y="180" width="10" height="10" fill="#A1B3AC" />
<rect x="140" y="180" width="10" height="10" fill="#514C17" />
<rect x="150" y="180" width="10" height="30" fill="#5E4E1A" />
<rect x="160" y="180" width="40" height="60" fill="#514C17" />
<rect x="200" y="180" width="10" height="20" fill="#374448" />
<rect x="210" y="180" width="10" height="10" fill="#273036" />
<rect x="220" y="180" width="10" height="20" fill="#374448" />
<rect x="230" y="180" width="10" height="10" fill="#273036" />
<rect x="240" y="180" width="10" height="20" fill="#374448" />
<rect x="250" y="180" width="10" height="10" fill="#273036" />
<rect x="260" y="180" width="10" height="20" fill="#374448" />
<rect x="270" y="180" width="10" height="10" fill="#273036" />
<rect x="280" y="180" width="10" height="20" fill="#374448" />
<rect x="300" y="180" width="10" height="10" fill="#514C17" />
<rect x="310" y="180" width="20" height="10" fill="#3A3F11" />
<rect x="330" y="180" width="10" height="10" fill="#514C17" />
<rect x="340" y="180" width="10" height="20" fill="#3A3F11" />
<rect x="350" y="180" width="30" height="100" fill="#514C17" />
<rect x="70" y="190" width="10" height="10" fill="#3A370B" />
<rect x="80" y="190" width="40" height="10" fill="#514C17" />
<rect x="120" y="190" width="10" height="30" fill="#A1B3AC" />
<rect x="130" y="190" width="10" height="10" fill="#BEC9C5" />
<rect x="140" y="190" width="10" height="30" fill="#A1B3AC" />
<rect x="210" y="190" width="10" height="10" fill="#374448" />
<rect x="230" y="190" width="10" height="10" fill="#374448" />
<rect x="250" y="190" width="10" height="10" fill="#374448" />
<rect x="270" y="190" width="10" height="10" fill="#374448" />
<rect x="300" y="190" width="40" height="10" fill="#5E4E1A" />
<rect x="70" y="200" width="10" height="80" fill="#514C17" />
<rect x="80" y="200" width="10" height="10" fill="#3A370B" />
<rect x="90" y="200" width="30" height="40" fill="#514C17" />
<rect x="130" y="200" width="10" height="30" fill="#273036" />
<rect x="200" y="200" width="100" height="10" fill="#273036" />
<rect x="300" y="200" width="20" height="60" fill="#5E4E1A" />
<rect x="320" y="200" width="10" height="10" fill="#514C17" />
<rect x="330" y="200" width="10" height="60" fill="#5E4E1A" />
<rect x="340" y="200" width="10" height="50" fill="#514C17" />
<rect x="80" y="210" width="10" height="70" fill="#514C17" />
<rect x="150" y="210" width="10" height="40" fill="#514C17" />
<rect x="200" y="210" width="30" height="10" fill="#514C17" />
<rect x="230" y="210" width="10" height="50" fill="#5E4E1A" />
<rect x="240" y="210" width="10" height="10" fill="#273036" />
<rect x="250" y="210" width="50" height="10" fill="#5E4E1A" />
<rect x="320" y="210" width="10" height="30" fill="#5E4E1A" />
<rect x="120" y="220" width="10" height="10" fill="#514C17" />
<rect x="140" y="220" width="10" height="40" fill="#514C17" />
<rect x="200" y="220" width="20" height="50" fill="#514C17" />
<rect x="220" y="220" width="10" height="10" fill="#3A3F11" />
<rect x="240" y="220" width="10" height="40" fill="#5E4E1A" />
<rect x="250" y="220" width="10" height="10" fill="#273036" />
<rect x="260" y="220" width="10" height="10" fill="#374448" />
<rect x="270" y="220" width="30" height="10" fill="#5E4E1A" />
<rect x="120" y="230" width="10" height="10" fill="#374448" />
<rect x="130" y="230" width="10" height="30" fill="#514C17" />
<rect x="220" y="230" width="10" height="10" fill="#514C17" />
<rect x="250" y="230" width="20" height="10" fill="#5E4E1A" />
<rect x="270" y="230" width="10" height="10" fill="#273036" />
<rect x="280" y="230" width="20" height="10" fill="#5E4E1A" />
<rect x="90" y="240" width="20" height="50" fill="#514C17" />
<rect x="110" y="240" width="10" height="10" fill="#273036" />
<rect x="120" y="240" width="10" height="10" fill="#514C17" />
<rect x="160" y="240" width="20" height="10" fill="#273036" />
<rect x="180" y="240" width="10" height="10" fill="#5E4E1A" />
<rect x="190" y="240" width="10" height="40" fill="#514C17" />
<rect x="220" y="240" width="10" height="20" fill="#3A3F11" />
<rect x="250" y="240" width="10" height="20" fill="#5E4E1A" />
<rect x="260" y="240" width="20" height="10" fill="#514C17" />
<rect x="280" y="240" width="10" height="10" fill="#273036" />
<rect x="290" y="240" width="10" height="20" fill="#5E4E1A" />
<rect x="320" y="240" width="10" height="10" fill="#514C17" />
<rect x="110" y="250" width="10" height="40" fill="#514C17" />
<rect x="120" y="250" width="10" height="10" fill="#374448" />
<rect x="150" y="250" width="10" height="10" fill="#273036" />
<rect x="160" y="250" width="20" height="10" fill="#514C17" />
<rect x="180" y="250" width="10" height="10" fill="#273036" />
<rect x="260" y="250" width="30" height="10" fill="#5E4E1A" />
<rect x="320" y="250" width="10" height="10" fill="#5E4E1A" />
<rect x="340" y="250" width="10" height="20" fill="#3A3F11" />
<rect x="120" y="260" width="10" height="30" fill="#514C17" />
<rect x="130" y="260" width="10" height="10" fill="#273036" />
<rect x="140" y="260" width="10" height="10" fill="#374448" />
<rect x="150" y="260" width="20" height="30" fill="#514C17" />
<rect x="170" y="260" width="10" height="10" fill="#374448" />
<rect x="180" y="260" width="10" height="30" fill="#514C17" />
<rect x="220" y="260" width="10" height="30" fill="#514C17" />
<rect x="230" y="260" width="20" height="10" fill="#3A3F11" />
<rect x="250" y="260" width="50" height="30" fill="#514C17" />
<rect x="300" y="260" width="40" height="10" fill="#3A3F11" />
<rect x="130" y="270" width="10" height="20" fill="#514C17" />
<rect x="140" y="270" width="10" height="1" fill="#3A370B" />
<rect x="170" y="270" width="10" height="20" fill="#514C17" />
<rect x="200" y="270" width="10" height="10" fill="#3A370B" />
<rect x="210" y="270" width="10" height="20" fill="#514C17" />
<rect x="230" y="270" width="20" height="20" fill="#514C17" />
<rect x="300" y="270" width="50" height="20" fill="#514C17" />
<rect x="140" y="271" width="10" height="19" fill="#514C17" />
<rect x="70" y="280" width="10" height="30" fill="#2D270A" />
<rect x="80" y="280" width="10" height="10" fill="#3A370B" />
<rect x="190" y="280" width="10" height="10" fill="#3A370B" />
<rect x="200" y="280" width="10" height="10" fill="#514C17" />
<rect x="350" y="280" width="20" height="10" fill="#514C17" />
<rect x="370" y="280" width="10" height="30" fill="#2D270A" />
<rect x="60" y="290" width="10" height="40" fill="#62746D" />
<rect x="80" y="290" width="290" height="30" fill="#2D270A" />
<rect x="380" y="290" width="10" height="40" fill="#62746D" />
<rect x="70" y="310" width="10" height="80" fill="#62746D" />
<rect x="370" y="310" width="10" height="70" fill="#62746D" />
<rect x="80" y="320" width="60" height="20" fill="#2D270A" />
<rect x="140" y="320" width="170" height="30" fill="#3A370B" />
<rect x="310" y="320" width="60" height="20" fill="#2D270A" />
<rect x="80" y="340" width="40" height="40" fill="#2D270A" />
<rect x="120" y="340" width="20" height="10" fill="#3A370B" />
<rect x="310" y="340" width="20" height="10" fill="#3A370B" />
<rect x="330" y="340" width="40" height="40" fill="#2D270A" />
<rect x="120" y="350" width="210" height="10" fill="#2D270A" />
<rect x="120" y="360" width="210" height="30" fill="#62746D" />
<rect x="80" y="380" width="40" height="10" fill="#62746D" />
<rect x="330" y="380" width="40" height="10" fill="#62746D" />
</svg>