<?xml version="1.0" encoding="UTF-8" ?>
<svg version="1.1" width="400" height="400" xmlns="http://www.w3.org/2000/svg" shape-rendering="crispEdges">
<rect x="10" y="60" width="20" height="250" fill="#405146" />
<rect x="370" y="60" width="20" height="250" fill="#405146" />
<rect x="30" y="70" width="140" height="10" fill="#405146" />
<rect x="170" y="70" width="10" height="10" fill="#131F1F" />
<rect x="180" y="70" width="190" height="10" fill="#405146" />
<rect x="30" y="80" width="10" height="10" fill="#706458" />
<rect x="40" y="80" width="50" height="10" fill="#5D7471" />
<rect x="90" y="80" width="10" height="10" fill="#131F1F" />
<rect x="100" y="80" width="10" height="10" fill="#5D7471" />
<rect x="110" y="80" width="10" height="10" fill="#131F1F" />
<rect x="120" y="80" width="20" height="10" fill="#5D7471" />
<rect x="140" y="80" width="10" height="10" fill="#131F1F" />
<rect x="150" y="80" width="10" height="10" fill="#5D7471" />
<rect x="160" y="80" width="10" height="10" fill="#131F1F" />
<rect x="170" y="80" width="10" height="10" fill="#5D7471" />
<rect x="180" y="80" width="10" height="10" fill="#131F1F" />
<rect x="190" y="80" width="180" height="10" fill="#5D7471" />
<rect x="30" y="90" width="20" height="30" fill="#5D7471" />
<rect x="50" y="90" width="20" height="10" fill="#6E8386" />
<rect x="70" y="90" width="20" height="10" fill="#131F1F" />
<rect x="90" y="90" width="10" height="20" fill="#6E8386" />
<rect x="100" y="90" width="10" height="10" fill="#131F1F" />
<rect x="110" y="90" width="10" height="10" fill="#98ACAE" />
<rect x="120" y="90" width="20" height="10" fill="#131F1F" />
<rect x="140" y="90" width="10" height="10" fill="#98ACAE" />
<rect x="150" y="90" width="10" height="10" fill="#131F1F" />
<rect x="160" y="90" width="190" height="10" fill="#6E8386" />
<rect x="350" y="90" width="10" height="30" fill="#5D7471" />
<rect x="360" y="90" width="10" height="10" fill="#706458" />
<rect x="50" y="100" width="10" height="20" fill="#5D7471" />
<rect x="60" y="100" width="30" height="10" fill="#6E8386" />
<rect x="100" y="100" width="10" height="10" fill="#6E8386" />
<rect x="110" y="100" width="10" height="10" fill="#131F1F" />
<rect x="120" y="100" width="20" height="10" fill="#6E8386" />
<rect x="140" y="100" width="10" height="10" fill="#131F1F" />
<rect x="150" y="100" width="190" height="10" fill="#6E8386" />
<rect x="340" y="100" width="10" height="20" fill="#5D7471" />
<rect x="360" y="100" width="10" height="20" fill="#5D7471" />
<rect x="60" y="110" width="280" height="10" fill="#5D7471" />
<rect x="30" y="120" width="340" height="10" fill="#405146" />
<rect x="30" y="130" width="20" height="20" fill="#3D313F" />
<rect x="50" y="130" width="10" height="20" fill="#27362B" />
<rect x="60" y="130" width="20" height="20" fill="#2F4662" />
<rect x="80" y="130" width="10" height="10" fill="#62746D" />
<rect x="90" y="130" width="10" height="20" fill="#2F4662" />
<rect x="100" y="130" width="10" height="20" fill="#27362B" />
<rect x="120" y="130" width="20" height="20" fill="#2F4662" />
<rect x="140" y="130" width="10" height="20" fill="#3D313F" />
<rect x="150" y="130" width="10" height="20" fill="#27362B" />
<rect x="160" y="130" width="30" height="20" fill="#3D313F" />
<rect x="190" y="130" width="10" height="20" fill="#62746D" />
<rect x="200" y="130" width="10" height="20" fill="#27362B" />
<rect x="210" y="130" width="10" height="20" fill="#3D313F" />
<rect x="220" y="130" width="10" height="20" fill="#27362B" />
<rect x="230" y="130" width="10" height="20" fill="#3D313F" />
<rect x="240" y="130" width="10" height="20" fill="#62746D" />
<rect x="260" y="130" width="10" height="10" fill="#62746D" />
<rect x="270" y="130" width="20" height="10" fill="#2F4662" />
<rect x="290" y="130" width="10" height="20" fill="#27362B" />
<rect x="300" y="130" width="10" height="20" fill="#3D313F" />
<rect x="310" y="130" width="20" height="20" fill="#27362B" />
<rect x="330" y="130" width="20" height="10" fill="#62746D" />
<rect x="350" y="130" width="10" height="20" fill="#2F4662" />
<rect x="360" y="130" width="10" height="20" fill="#27362B" />
<rect x="80" y="140" width="10" height="10" fill="#3D313F" />
<rect x="110" y="140" width="10" height="10" fill="#62746D" />
<rect x="250" y="140" width="10" height="10" fill="#62746D" />
<rect x="260" y="140" width="20" height="10" fill="#2F4662" />
<rect x="280" y="140" width="10" height="10" fill="#376D70" />
<rect x="330" y="140" width="10" height="10" fill="#3D313F" />
<rect x="340" y="140" width="10" height="10" fill="#2F4662" />
<rect x="30" y="150" width="20" height="20" fill="#53495E" />
<rect x="50" y="150" width="10" height="40" fill="#394C39" />
<rect x="60" y="150" width="20" height="40" fill="#376D70" />
<rect x="80" y="150" width="10" height="20" fill="#53495E" />
<rect x="90" y="150" width="10" height="40" fill="#376D70" />
<rect x="100" y="150" width="10" height="40" fill="#394C39" />
<rect x="110" y="150" width="10" height="10" fill="#405146" />
<rect x="120" y="150" width="20" height="40" fill="#376D70" />
<rect x="140" y="150" width="10" height="20" fill="#53495E" />
<rect x="150" y="150" width="10" height="40" fill="#394C39" />
<rect x="160" y="150" width="30" height="20" fill="#53495E" />
<rect x="190" y="150" width="10" height="10" fill="#405146" />
<rect x="200" y="150" width="10" height="40" fill="#394C39" />
<rect x="210" y="150" width="10" height="20" fill="#53495E" />
<rect x="220" y="150" width="10" height="40" fill="#394C39" />
<rect x="230" y="150" width="10" height="20" fill="#53495E" />
<rect x="240" y="150" width="10" height="10" fill="#405146" />
<rect x="250" y="150" width="20" height="10" fill="#2F4662" />
<rect x="270" y="150" width="20" height="10" fill="#819394" />
<rect x="290" y="150" width="10" height="40" fill="#394C39" />
<rect x="300" y="150" width="10" height="20" fill="#53495E" />
<rect x="310" y="150" width="20" height="40" fill="#394C39" />
<rect x="330" y="150" width="10" height="20" fill="#53495E" />
<rect x="340" y="150" width="20" height="40" fill="#376D70" />
<rect x="360" y="150" width="10" height="40" fill="#394C39" />
<rect x="110" y="160" width="10" height="20" fill="#5D7471" />
<rect x="190" y="160" width="10" height="20" fill="#5D7471" />
<rect x="240" y="160" width="20" height="10" fill="#2F4662" />
<rect x="260" y="160" width="20" height="10" fill="#376D70" />
<rect x="280" y="160" width="10" height="30" fill="#5D7471" />
<rect x="30" y="170" width="20" height="10" fill="#819394" />
<rect x="80" y="170" width="10" height="10" fill="#819394" />
<rect x="140" y="170" width="10" height="10" fill="#819394" />
<rect x="160" y="170" width="30" height="10" fill="#819394" />
<rect x="210" y="170" width="10" height="10" fill="#819394" />
<rect x="230" y="170" width="10" height="10" fill="#819394" />
<rect x="240" y="170" width="10" height="10" fill="#2F4662" />
<rect x="250" y="170" width="20" height="10" fill="#376D70" />
<rect x="270" y="170" width="10" height="20" fill="#5D7471" />
<rect x="300" y="170" width="10" height="10" fill="#819394" />
<rect x="330" y="170" width="10" height="10" fill="#819394" />
<rect x="30" y="180" width="20" height="10" fill="#53495E" />
<rect x="80" y="180" width="10" height="10" fill="#53495E" />
<rect x="110" y="180" width="10" height="20" fill="#6E8386" />
<rect x="140" y="180" width="10" height="10" fill="#53495E" />
<rect x="160" y="180" width="30" height="10" fill="#53495E" />
<rect x="190" y="180" width="10" height="20" fill="#6E8386" />
<rect x="210" y="180" width="10" height="10" fill="#53495E" />
<rect x="230" y="180" width="10" height="10" fill="#53495E" />
<rect x="240" y="180" width="20" height="10" fill="#376D70" />
<rect x="260" y="180" width="10" height="10" fill="#5D7471" />
<rect x="300" y="180" width="10" height="10" fill="#53495E" />
<rect x="330" y="180" width="10" height="10" fill="#53495E" />
<rect x="30" y="190" width="10" height="10" fill="#5D7471" />
<rect x="40" y="190" width="10" height="10" fill="#706458" />
<rect x="50" y="190" width="60" height="10" fill="#6E8386" />
<rect x="120" y="190" width="70" height="10" fill="#6E8386" />
<rect x="200" y="190" width="110" height="10" fill="#6E8386" />
<rect x="310" y="190" width="10" height="10" fill="#374448" />
<rect x="320" y="190" width="30" height="10" fill="#6E8386" />
<rect x="350" y="190" width="20" height="10" fill="#5D7471" />
<rect x="30" y="200" width="260" height="10" fill="#405146" />
<rect x="290" y="200" width="10" height="50" fill="#A1B3AC" />
<rect x="300" y="200" width="10" height="10" fill="#374448" />
<rect x="310" y="200" width="20" height="10" fill="#A1B3AC" />
<rect x="330" y="200" width="40" height="10" fill="#405146" />
<rect x="270" y="210" width="20" height="20" fill="#62746D" />
<rect x="300" y="210" width="10" height="10" fill="#A1B3AC" />
<rect x="310" y="210" width="10" height="10" fill="#6B3327" />
<rect x="320" y="210" width="10" height="40" fill="#A1B3AC" />
<rect x="330" y="210" width="10" height="20" fill="#62746D" />
<rect x="30" y="220" width="240" height="10" fill="#62746D" />
<rect x="300" y="220" width="10" height="20" fill="#6B3327" />
<rect x="310" y="220" width="10" height="10" fill="#A1B3AC" />
<rect x="340" y="220" width="30" height="10" fill="#62746D" />
<rect x="30" y="230" width="260" height="10" fill="#405146" />
<rect x="310" y="230" width="10" height="10" fill="#6B3327" />
<rect x="330" y="230" width="40" height="10" fill="#405146" />
<rect x="30" y="240" width="240" height="20" fill="#5D7471" />
<rect x="270" y="240" width="10" height="10" fill="#706458" />
<rect x="280" y="240" width="10" height="30" fill="#5D7471" />
<rect x="300" y="240" width="20" height="10" fill="#A1B3AC" />
<rect x="330" y="240" width="20" height="40" fill="#5D7471" />
<rect x="350" y="240" width="20" height="10" fill="#706458" />
<rect x="270" y="250" width="10" height="20" fill="#5D7471" />
<rect x="290" y="250" width="40" height="30" fill="#5D7471" />
<rect x="350" y="250" width="10" height="30" fill="#5D7471" />
<rect x="360" y="250" width="10" height="10" fill="#706458" />
<rect x="30" y="260" width="10" height="20" fill="#706458" />
<rect x="40" y="260" width="230" height="10" fill="#5D7471" />
<rect x="360" y="260" width="10" height="20" fill="#5D7471" />
<rect x="40" y="270" width="20" height="10" fill="#706458" />
<rect x="60" y="270" width="30" height="10" fill="#5D7471" />
<rect x="90" y="270" width="200" height="10" fill="#6E8386" />
<rect x="30" y="280" width="340" height="10" fill="#405146" />
<rect x="30" y="290" width="340" height="10" fill="#62746D" />
<rect x="30" y="300" width="20" height="10" fill="#62746D" />
<rect x="350" y="300" width="20" height="10" fill="#62746D" />
<rect x="10" y="310" width="30" height="10" fill="#62746D" />
<rect x="360" y="310" width="30" height="10" fill="#62746D" />
</svg>