<?xml version="1.0" encoding="UTF-8" ?>
<svg version="1.1" width="400" height="400" xmlns="http://www.w3.org/2000/svg" shape-rendering="crispEdges">
<rect x="10" y="60" width="20" height="250" fill="#405146" />
<rect x="370" y="60" width="20" height="250" fill="#405146" />
<rect x="30" y="70" width="340" height="10" fill="#405146" />
<rect x="30" y="80" width="310" height="10" fill="#5D7471" />
<rect x="340" y="80" width="20" height="10" fill="#706458" />
<rect x="360" y="80" width="10" height="10" fill="#5D7471" />
<rect x="30" y="90" width="20" height="20" fill="#5D7471" />
<rect x="50" y="90" width="300" height="10" fill="#6E8386" />
<rect x="350" y="90" width="10" height="30" fill="#5D7471" />
<rect x="360" y="90" width="10" height="10" fill="#706458" />
<rect x="50" y="100" width="10" height="20" fill="#5D7471" />
<rect x="60" y="100" width="280" height="10" fill="#6E8386" />
<rect x="340" y="100" width="10" height="20" fill="#5D7471" />
<rect x="360" y="100" width="10" height="20" fill="#5D7471" />
<rect x="30" y="110" width="10" height="10" fill="#706458" />
<rect x="40" y="110" width="10" height="10" fill="#5D7471" />
<rect x="60" y="110" width="280" height="10" fill="#5D7471" />
<rect x="30" y="120" width="340" height="10" fill="#405146" />
<rect x="360" y="130" width="10" height="20" fill="#9DA0A1" />
<rect x="30" y="140" width="320" height="10" fill="#62746D" />
<rect x="350" y="140" width="10" height="10" fill="#9DA0A1" />
<rect x="30" y="150" width="310" height="10" fill="#405146" />
<rect x="340" y="150" width="10" height="10" fill="#9DA0A1" />
<rect x="350" y="150" width="10" height="10" fill="#405146" />
<rect x="360" y="150" width="10" height="10" fill="#5B6062" />
<rect x="30" y="160" width="300" height="10" fill="#5D7471" />
<rect x="330" y="160" width="10" height="20" fill="#9DA0A1" />
<rect x="340" y="160" width="10" height="30" fill="#5D7471" />
<rect x="350" y="160" width="10" height="10" fill="#9DA0A1" />
<rect x="360" y="160" width="10" height="10" fill="#5D7471" />
<rect x="30" y="170" width="290" height="10" fill="#5D7471" />
<rect x="320" y="170" width="10" height="10" fill="#9DA0A1" />
<rect x="350" y="170" width="10" height="30" fill="#5D7471" />
<rect x="360" y="170" width="10" height="10" fill="#9DA0A1" />
<rect x="30" y="180" width="40" height="10" fill="#5D7471" />
<rect x="70" y="180" width="260" height="20" fill="#6E8386" />
<rect x="330" y="180" width="10" height="10" fill="#5D7471" />
<rect x="360" y="180" width="10" height="20" fill="#5D7471" />
<rect x="30" y="190" width="20" height="10" fill="#5D7471" />
<rect x="50" y="190" width="20" height="10" fill="#6E8386" />
<rect x="330" y="190" width="20" height="10" fill="#6E8386" />
<rect x="30" y="200" width="340" height="10" fill="#405146" />
<rect x="30" y="220" width="340" height="10" fill="#62746D" />
<rect x="30" y="230" width="340" height="10" fill="#405146" />
<rect x="30" y="240" width="320" height="30" fill="#5D7471" />
<rect x="350" y="240" width="20" height="10" fill="#706458" />
<rect x="350" y="250" width="20" height="30" fill="#5D7471" />
<rect x="30" y="270" width="20" height="10" fill="#5D7471" />
<rect x="50" y="270" width="10" height="10" fill="#706458" />
<rect x="60" y="270" width="30" height="10" fill="#5D7471" />
<rect x="90" y="270" width="220" height="10" fill="#6E8386" />
<rect x="310" y="270" width="40" height="10" fill="#5D7471" />
<rect x="30" y="280" width="340" height="10" fill="#405146" />
<rect x="30" y="290" width="10" height="30" fill="#62746D" />
<rect x="40" y="290" width="10" height="10" fill="#9DA0A1" />
<rect x="50" y="290" width="320" height="10" fill="#62746D" />
<rect x="40" y="300" width="10" height="10" fill="#62746D" />
<rect x="50" y="300" width="10" height="10" fill="#9DA0A1" />
<rect x="350" y="300" width="20" height="10" fill="#62746D" />
<rect x="10" y="310" width="20" height="10" fill="#62746D" />
<rect x="360" y="310" width="30" height="10" fill="#62746D" />
</svg>