<?xml version="1.0" encoding="UTF-8" ?>
<svg version="1.1" width="400" height="400" xmlns="http://www.w3.org/2000/svg" shape-rendering="crispEdges">
<rect x="10" y="60" width="20" height="250" fill="#405146" />
<rect x="370" y="60" width="20" height="250" fill="#405146" />
<rect x="30" y="70" width="340" height="10" fill="#405146" />
<rect x="30" y="80" width="210" height="10" fill="#5D7471" />
<rect x="240" y="80" width="10" height="10" fill="#706458" />
<rect x="250" y="80" width="10" height="10" fill="#5D7471" />
<rect x="260" y="80" width="10" height="10" fill="#706458" />
<rect x="270" y="80" width="100" height="10" fill="#5D7471" />
<rect x="30" y="90" width="20" height="20" fill="#5D7471" />
<rect x="50" y="90" width="300" height="10" fill="#6E8386" />
<rect x="350" y="90" width="20" height="10" fill="#5D7471" />
<rect x="50" y="100" width="10" height="20" fill="#5D7471" />
<rect x="60" y="100" width="280" height="10" fill="#6E8386" />
<rect x="340" y="100" width="20" height="20" fill="#5D7471" />
<rect x="360" y="100" width="10" height="10" fill="#706458" />
<rect x="30" y="110" width="10" height="10" fill="#706458" />
<rect x="40" y="110" width="10" height="10" fill="#5D7471" />
<rect x="60" y="110" width="280" height="10" fill="#5D7471" />
<rect x="360" y="110" width="10" height="10" fill="#5D7471" />
<rect x="30" y="120" width="340" height="10" fill="#405146" />
<rect x="30" y="140" width="340" height="10" fill="#62746D" />
<rect x="30" y="150" width="340" height="10" fill="#405146" />
<rect x="30" y="160" width="10" height="10" fill="#706458" />
<rect x="40" y="160" width="70" height="10" fill="#5D7471" />
<rect x="110" y="160" width="10" height="10" fill="#A1B3AC" />
<rect x="120" y="160" width="240" height="10" fill="#5D7471" />
<rect x="360" y="160" width="10" height="10" fill="#706458" />
<rect x="30" y="170" width="70" height="10" fill="#5D7471" />
<rect x="100" y="170" width="10" height="10" fill="#A1B3AC" />
<rect x="110" y="170" width="10" height="30" fill="#BEC9C5" />
<rect x="120" y="170" width="10" height="10" fill="#A1B3AC" />
<rect x="130" y="170" width="240" height="10" fill="#5D7471" />
<rect x="30" y="180" width="40" height="10" fill="#5D7471" />
<rect x="70" y="180" width="20" height="10" fill="#6E8386" />
<rect x="90" y="180" width="20" height="20" fill="#BEC9C5" />
<rect x="120" y="180" width="20" height="10" fill="#BEC9C5" />
<rect x="140" y="180" width="190" height="20" fill="#6E8386" />
<rect x="330" y="180" width="40" height="10" fill="#5D7471" />
<rect x="30" y="190" width="20" height="10" fill="#706458" />
<rect x="50" y="190" width="30" height="10" fill="#6E8386" />
<rect x="80" y="190" width="10" height="10" fill="#BEC9C5" />
<rect x="120" y="190" width="10" height="10" fill="#BEC9C5" />
<rect x="130" y="190" width="10" height="10" fill="#6E8386" />
<rect x="330" y="190" width="20" height="10" fill="#6E8386" />
<rect x="350" y="190" width="10" height="10" fill="#5D7471" />
<rect x="360" y="190" width="10" height="10" fill="#706458" />
<rect x="30" y="200" width="60" height="10" fill="#405146" />
<rect x="90" y="200" width="30" height="10" fill="#A1B3AC" />
<rect x="120" y="200" width="250" height="10" fill="#405146" />
<rect x="100" y="210" width="10" height="10" fill="#A1B3AC" />
<rect x="110" y="210" width="10" height="20" fill="#62746D" />
<rect x="30" y="220" width="80" height="10" fill="#62746D" />
<rect x="120" y="220" width="250" height="10" fill="#62746D" />
<rect x="30" y="230" width="340" height="10" fill="#405146" />
<rect x="30" y="240" width="290" height="30" fill="#5D7471" />
<rect x="320" y="240" width="10" height="10" fill="#706458" />
<rect x="330" y="240" width="30" height="40" fill="#5D7471" />
<rect x="360" y="240" width="10" height="10" fill="#706458" />
<rect x="320" y="250" width="10" height="30" fill="#5D7471" />
<rect x="360" y="250" width="10" height="30" fill="#5D7471" />
<rect x="30" y="270" width="10" height="10" fill="#706458" />
<rect x="40" y="270" width="20" height="10" fill="#5D7471" />
<rect x="60" y="270" width="10" height="10" fill="#706458" />
<rect x="70" y="270" width="20" height="10" fill="#5D7471" />
<rect x="90" y="270" width="220" height="10" fill="#6E8386" />
<rect x="310" y="270" width="10" height="10" fill="#5D7471" />
<rect x="30" y="280" width="340" height="10" fill="#405146" />
<rect x="30" y="290" width="240" height="10" fill="#62746D" />
<rect x="270" y="290" width="70" height="10" fill="#A1B3AC" />
<rect x="340" y="290" width="30" height="10" fill="#62746D" />
<rect x="30" y="300" width="20" height="10" fill="#62746D" />
<rect x="280" y="300" width="50" height="10" fill="#A1B3AC" />
<rect x="350" y="300" width="20" height="10" fill="#62746D" />
<rect x="10" y="310" width="30" height="10" fill="#62746D" />
<rect x="290" y="310" width="30" height="10" fill="#BEC9C5" />
<rect x="360" y="310" width="30" height="10" fill="#62746D" />
<rect x="300" y="320" width="10" height="10" fill="#BEC9C5" />
</svg>