<?xml version="1.0" encoding="UTF-8" ?>
<svg version="1.1" width="600" height="600" xmlns="http://www.w3.org/2000/svg" shape-rendering="crispEdges">
<rect x="270" y="90" width="20" height="10" fill="#948849" />
<rect x="320" y="90" width="20" height="10" fill="#948849" />
<rect x="270" y="100" width="20" height="40" fill="#5E4E1A" />
<rect x="320" y="100" width="20" height="40" fill="#5E4E1A" />
<rect x="290" y="110" width="30" height="10" fill="#948849" />
<rect x="290" y="120" width="10" height="10" fill="#5E4E1A" />
<rect x="300" y="120" width="10" height="10" fill="#18273A" />
<rect x="310" y="120" width="10" height="10" fill="#5E4E1A" />
<rect x="290" y="130" width="10" height="10" fill="#18273A" />
<rect x="300" y="130" width="10" height="10" fill="#4A788B" />
<rect x="310" y="130" width="10" height="10" fill="#18273A" />
<rect x="240" y="140" width="50" height="10" fill="#18273A" />
<rect x="290" y="140" width="10" height="10" fill="#4A788B" />
<rect x="300" y="140" width="10" height="10" fill="#0E2823" />
<rect x="310" y="140" width="10" height="20" fill="#4A7D8B" />
<rect x="320" y="140" width="50" height="10" fill="#18273A" />
<rect x="230" y="150" width="20" height="10" fill="#18273A" />
<rect x="250" y="150" width="20" height="30" fill="#53495E" />
<rect x="270" y="150" width="10" height="10" fill="#18273A" />
<rect x="280" y="150" width="10" height="10" fill="#4A788B" />
<rect x="290" y="150" width="10" height="10" fill="#0E2823" />
<rect x="300" y="150" width="10" height="30" fill="#4A7D8B" />
<rect x="320" y="150" width="10" height="30" fill="#4A7D8B" />
<rect x="330" y="150" width="10" height="10" fill="#18273A" />
<rect x="340" y="150" width="20" height="10" fill="#495E52" />
<rect x="360" y="150" width="10" height="60" fill="#18273A" />
<rect x="200" y="160" width="30" height="10" fill="#18273A" />
<rect x="230" y="160" width="10" height="10" fill="#232406" />
<rect x="240" y="160" width="10" height="40" fill="#18273A" />
<rect x="270" y="160" width="10" height="10" fill="#3A4E70" />
<rect x="280" y="160" width="10" height="10" fill="#18273A" />
<rect x="290" y="160" width="10" height="10" fill="#4A7D8B" />
<rect x="310" y="160" width="10" height="10" fill="#0E2823" />
<rect x="330" y="160" width="10" height="10" fill="#4A7D8B" />
<rect x="340" y="160" width="10" height="10" fill="#18273A" />
<rect x="350" y="160" width="10" height="40" fill="#495E52" />
<rect x="370" y="160" width="10" height="10" fill="#18273A" />
<rect x="200" y="170" width="20" height="10" fill="#18273A" />
<rect x="220" y="170" width="10" height="40" fill="#376D70" />
<rect x="230" y="170" width="10" height="10" fill="#18273A" />
<rect x="270" y="170" width="10" height="10" fill="#232406" />
<rect x="280" y="170" width="10" height="10" fill="#3A4E70" />
<rect x="290" y="170" width="10" height="10" fill="#18273A" />
<rect x="310" y="170" width="10" height="20" fill="#4A7D8B" />
<rect x="330" y="170" width="10" height="10" fill="#18273A" />
<rect x="340" y="170" width="10" height="10" fill="#A1B3AC" />
<rect x="370" y="170" width="10" height="40" fill="#53495E" />
<rect x="380" y="170" width="10" height="10" fill="#18273A" />
<rect x="140" y="180" width="60" height="10" fill="#2D270A" />
<rect x="200" y="180" width="10" height="10" fill="#18273A" />
<rect x="210" y="180" width="10" height="20" fill="#376D70" />
<rect x="230" y="180" width="10" height="40" fill="#376D70" />
<rect x="250" y="180" width="10" height="10" fill="#A1B3AC" />
<rect x="260" y="180" width="20" height="10" fill="#97AA9F" />
<rect x="280" y="180" width="10" height="10" fill="#232406" />
<rect x="290" y="180" width="10" height="10" fill="#3A4E70" />
<rect x="300" y="180" width="10" height="10" fill="#18273A" />
<rect x="320" y="180" width="10" height="10" fill="#18273A" />
<rect x="330" y="180" width="10" height="10" fill="#A1B3AC" />
<rect x="340" y="180" width="10" height="10" fill="#232406" />
<rect x="380" y="180" width="10" height="20" fill="#53495E" />
<rect x="390" y="180" width="10" height="10" fill="#18273A" />
<rect x="400" y="180" width="70" height="10" fill="#2D270A" />
<rect x="130" y="190" width="20" height="10" fill="#2D270A" />
<rect x="150" y="190" width="30" height="10" fill="#514C17" />
<rect x="180" y="190" width="10" height="10" fill="#3A3525" />
<rect x="190" y="190" width="10" height="20" fill="#18273A" />
<rect x="200" y="190" width="10" height="10" fill="#97AA9F" />
<rect x="250" y="190" width="40" height="10" fill="#18273A" />
<rect x="290" y="190" width="10" height="10" fill="#232406" />
<rect x="300" y="190" width="10" height="10" fill="#3A4E70" />
<rect x="310" y="190" width="10" height="10" fill="#18273A" />
<rect x="320" y="190" width="10" height="10" fill="#A1B3AC" />
<rect x="330" y="190" width="10" height="10" fill="#232406" />
<rect x="340" y="190" width="10" height="10" fill="#495E52" />
<rect x="390" y="190" width="10" height="10" fill="#A1B3AC" />
<rect x="400" y="190" width="10" height="10" fill="#18273A" />
<rect x="410" y="190" width="10" height="10" fill="#3A3525" />
<rect x="420" y="190" width="40" height="20" fill="#514C17" />
<rect x="460" y="190" width="20" height="10" fill="#2D270A" />
<rect x="130" y="200" width="10" height="200" fill="#2D270A" />
<rect x="140" y="200" width="30" height="10" fill="#514C17" />
<rect x="170" y="200" width="10" height="10" fill="#3A3525" />
<rect x="180" y="200" width="10" height="70" fill="#18273A" />
<rect x="200" y="200" width="10" height="10" fill="#232406" />
<rect x="210" y="200" width="10" height="10" fill="#97AA9F" />
<rect x="240" y="200" width="20" height="10" fill="#376D70" />
<rect x="260" y="200" width="10" height="10" fill="#232406" />
<rect x="270" y="200" width="10" height="20" fill="#394C39" />
<rect x="280" y="200" width="10" height="10" fill="#232406" />
<rect x="290" y="200" width="10" height="10" fill="#344B4C" />
<rect x="300" y="200" width="10" height="10" fill="#232406" />
<rect x="310" y="200" width="10" height="10" fill="#3A4E70" />
<rect x="320" y="200" width="10" height="10" fill="#232406" />
<rect x="330" y="200" width="30" height="10" fill="#18273A" />
<rect x="380" y="200" width="10" height="10" fill="#A1B3AC" />
<rect x="390" y="200" width="10" height="20" fill="#18273A" />
<rect x="400" y="200" width="10" height="10" fill="#3A3525" />
<rect x="410" y="200" width="10" height="10" fill="#514C17" />
<rect x="460" y="200" width="10" height="130" fill="#514C17" />
<rect x="470" y="200" width="10" height="140" fill="#2D270A" />
<rect x="140" y="210" width="20" height="120" fill="#514C17" />
<rect x="160" y="210" width="10" height="50" fill="#3A3525" />
<rect x="170" y="210" width="10" height="50" fill="#18273A" />
<rect x="190" y="210" width="20" height="40" fill="#3C2F43" />
<rect x="210" y="210" width="10" height="10" fill="#18273A" />
<rect x="220" y="210" width="10" height="10" fill="#97AA9F" />
<rect x="240" y="210" width="10" height="10" fill="#376D70" />
<rect x="250" y="210" width="20" height="10" fill="#18273A" />
<rect x="280" y="210" width="30" height="10" fill="#18273A" />
<rect x="310" y="210" width="10" height="10" fill="#232406" />
<rect x="320" y="210" width="20" height="30" fill="#376D70" />
<rect x="340" y="210" width="10" height="10" fill="#18273A" />
<rect x="350" y="210" width="10" height="10" fill="#97AA9F" />
<rect x="360" y="210" width="10" height="10" fill="#53495E" />
<rect x="370" y="210" width="10" height="10" fill="#97AA9F" />
<rect x="380" y="210" width="10" height="10" fill="#18273A" />
<rect x="400" y="210" width="30" height="10" fill="#18273A" />
<rect x="430" y="210" width="10" height="30" fill="#3A3525" />
<rect x="440" y="210" width="20" height="30" fill="#514C17" />
<rect x="210" y="220" width="10" height="30" fill="#3C2F43" />
<rect x="220" y="220" width="10" height="10" fill="#18273A" />
<rect x="230" y="220" width="10" height="10" fill="#97AA9F" />
<rect x="240" y="220" width="10" height="10" fill="#18273A" />
<rect x="250" y="220" width="10" height="30" fill="#2C4955" />
<rect x="260" y="220" width="20" height="20" fill="#18273A" />
<rect x="280" y="220" width="30" height="10" fill="#394C39" />
<rect x="310" y="220" width="10" height="70" fill="#18273A" />
<rect x="340" y="220" width="10" height="20" fill="#376D70" />
<rect x="350" y="220" width="10" height="20" fill="#18273A" />
<rect x="360" y="220" width="10" height="10" fill="#97AA9F" />
<rect x="370" y="220" width="10" height="10" fill="#18273A" />
<rect x="380" y="220" width="40" height="20" fill="#2C4955" />
<rect x="420" y="220" width="10" height="40" fill="#18273A" />
<rect x="80" y="230" width="20" height="10" fill="#948849" />
<rect x="220" y="230" width="10" height="20" fill="#3C2F43" />
<rect x="230" y="230" width="10" height="10" fill="#232406" />
<rect x="240" y="230" width="10" height="10" fill="#2C4955" />
<rect x="280" y="230" width="30" height="10" fill="#18273A" />
<rect x="360" y="230" width="10" height="10" fill="#232406" />
<rect x="370" y="230" width="10" height="10" fill="#2C4955" />
<rect x="510" y="230" width="20" height="10" fill="#948849" />
<rect x="80" y="240" width="20" height="160" fill="#5E4E1A" />
<rect x="230" y="240" width="10" height="30" fill="#18273A" />
<rect x="240" y="240" width="10" height="10" fill="#738B84" />
<rect x="260" y="240" width="10" height="10" fill="#738B84" />
<rect x="270" y="240" width="10" height="10" fill="#18273A" />
<rect x="280" y="240" width="30" height="10" fill="#3C2F43" />
<rect x="320" y="240" width="10" height="10" fill="#18273A" />
<rect x="330" y="240" width="10" height="10" fill="#376D70" />
<rect x="340" y="240" width="10" height="10" fill="#18273A" />
<rect x="350" y="240" width="10" height="20" fill="#2F4662" />
<rect x="360" y="240" width="10" height="20" fill="#18273A" />
<rect x="370" y="240" width="50" height="10" fill="#738B84" />
<rect x="430" y="240" width="10" height="10" fill="#18273A" />
<rect x="440" y="240" width="10" height="30" fill="#3A3525" />
<rect x="450" y="240" width="10" height="80" fill="#514C17" />
<rect x="510" y="240" width="20" height="160" fill="#5E4E1A" />
<rect x="190" y="250" width="40" height="10" fill="#738B84" />
<rect x="240" y="250" width="10" height="10" fill="#232406" />
<rect x="250" y="250" width="10" height="10" fill="#738B84" />
<rect x="260" y="250" width="10" height="10" fill="#232406" />
<rect x="270" y="250" width="10" height="30" fill="#2F4662" />
<rect x="280" y="250" width="10" height="10" fill="#18273A" />
<rect x="290" y="250" width="10" height="10" fill="#3C2F43" />
<rect x="300" y="250" width="10" height="10" fill="#18273A" />
<rect x="320" y="250" width="10" height="10" fill="#738B84" />
<rect x="330" y="250" width="10" height="10" fill="#18273A" />
<rect x="340" y="250" width="10" height="20" fill="#2F4662" />
<rect x="370" y="250" width="50" height="10" fill="#18273A" />
<rect x="430" y="250" width="10" height="50" fill="#3A3525" />
<rect x="160" y="260" width="10" height="10" fill="#18273A" />
<rect x="170" y="260" width="10" height="20" fill="#152B31" />
<rect x="190" y="260" width="40" height="10" fill="#18273A" />
<rect x="240" y="260" width="10" height="30" fill="#27362B" />
<rect x="250" y="260" width="20" height="10" fill="#18273A" />
<rect x="280" y="260" width="10" height="20" fill="#2F4662" />
<rect x="290" y="260" width="10" height="10" fill="#18273A" />
<rect x="300" y="260" width="10" height="20" fill="#2F4662" />
<rect x="320" y="260" width="10" height="10" fill="#232406" />
<rect x="330" y="260" width="10" height="10" fill="#738B84" />
<rect x="350" y="260" width="10" height="10" fill="#738B84" />
<rect x="360" y="260" width="10" height="20" fill="#232406" />
<rect x="370" y="260" width="40" height="10" fill="#212D4C" />
<rect x="410" y="260" width="10" height="10" fill="#232406" />
<rect x="420" y="260" width="10" height="10" fill="#3A3525" />
<rect x="160" y="270" width="10" height="10" fill="#535E5A" />
<rect x="180" y="270" width="30" height="20" fill="#152B31" />
<rect x="210" y="270" width="10" height="10" fill="#232406" />
<rect x="220" y="270" width="20" height="10" fill="#27362B" />
<rect x="250" y="270" width="10" height="20" fill="#27362B" />
<rect x="260" y="270" width="10" height="20" fill="#18273A" />
<rect x="290" y="270" width="10" height="10" fill="#2F4662" />
<rect x="320" y="270" width="10" height="20" fill="#1E343A" />
<rect x="330" y="270" width="10" height="10" fill="#18273A" />
<rect x="340" y="270" width="10" height="10" fill="#879D9C" />
<rect x="350" y="270" width="10" height="20" fill="#18273A" />
<rect x="370" y="270" width="30" height="10" fill="#212D4C" />
<rect x="400" y="270" width="10" height="10" fill="#18273A" />
<rect x="410" y="270" width="10" height="20" fill="#27362B" />
<rect x="420" y="270" width="10" height="10" fill="#18273A" />
<rect x="440" y="270" width="10" height="40" fill="#514C17" />
<rect x="160" y="280" width="10" height="10" fill="#18273A" />
<rect x="170" y="280" width="10" height="10" fill="#535E5A" />
<rect x="210" y="280" width="10" height="10" fill="#535E5A" />
<rect x="220" y="280" width="10" height="10" fill="#232406" />
<rect x="230" y="280" width="10" height="10" fill="#27362B" />
<rect x="270" y="280" width="40" height="10" fill="#18273A" />
<rect x="330" y="280" width="10" height="10" fill="#1E343A" />
<rect x="340" y="280" width="10" height="10" fill="#18273A" />
<rect x="360" y="280" width="10" height="20" fill="#27362B" />
<rect x="370" y="280" width="10" height="10" fill="#18273A" />
<rect x="380" y="280" width="10" height="10" fill="#212D4C" />
<rect x="390" y="280" width="10" height="10" fill="#18273A" />
<rect x="400" y="280" width="10" height="20" fill="#27362B" />
<rect x="420" y="280" width="10" height="10" fill="#535E5A" />
<rect x="100" y="290" width="30" height="10" fill="#5E4E1A" />
<rect x="160" y="290" width="10" height="10" fill="#3A3525" />
<rect x="170" y="290" width="10" height="10" fill="#18273A" />
<rect x="180" y="290" width="10" height="10" fill="#535E5A" />
<rect x="190" y="290" width="10" height="10" fill="#152B31" />
<rect x="200" y="290" width="10" height="10" fill="#535E5A" />
<rect x="210" y="290" width="50" height="10" fill="#18273A" />
<rect x="260" y="290" width="10" height="10" fill="#232406" />
<rect x="270" y="290" width="30" height="20" fill="#3D313F" />
<rect x="300" y="290" width="10" height="10" fill="#232406" />
<rect x="310" y="290" width="11" height="10" fill="#1E343A" />
<rect x="321" y="290" width="10" height="10" fill="#1F362D" />
<rect x="331" y="290" width="9" height="10" fill="#1E343A" />
<rect x="340" y="290" width="10" height="10" fill="#232406" />
<rect x="350" y="290" width="10" height="10" fill="#535E5A" />
<rect x="370" y="290" width="10" height="20" fill="#27362B" />
<rect x="380" y="290" width="10" height="10" fill="#18273A" />
<rect x="390" y="290" width="10" height="20" fill="#27362B" />
<rect x="410" y="290" width="10" height="10" fill="#535E5A" />
<rect x="420" y="290" width="10" height="10" fill="#18273A" />
<rect x="480" y="290" width="30" height="10" fill="#5E4E1A" />
<rect x="100" y="300" width="30" height="50" fill="#948849" />
<rect x="160" y="300" width="10" height="90" fill="#514C17" />
<rect x="170" y="300" width="10" height="10" fill="#3A3525" />
<rect x="180" y="300" width="10" height="10" fill="#18273A" />
<rect x="190" y="300" width="10" height="10" fill="#535E5A" />
<rect x="200" y="300" width="10" height="10" fill="#18273A" />
<rect x="210" y="300" width="10" height="40" fill="#3A3525" />
<rect x="220" y="300" width="10" height="10" fill="#232406" />
<rect x="230" y="300" width="10" height="20" fill="#535E5A" />
<rect x="240" y="300" width="10" height="10" fill="#232406" />
<rect x="250" y="300" width="10" height="10" fill="#212D4C" />
<rect x="260" y="300" width="10" height="20" fill="#18273A" />
<rect x="300" y="300" width="10" height="10" fill="#3D313F" />
<rect x="310" y="300" width="10" height="10" fill="#18273A" />
<rect x="320" y="300" width="10" height="10" fill="#1E343A" />
<rect x="330" y="300" width="10" height="10" fill="#18273A" />
<rect x="340" y="300" width="10" height="10" fill="#212D4C" />
<rect x="350" y="300" width="10" height="10" fill="#18273A" />
<rect x="360" y="300" width="10" height="10" fill="#535E5A" />
<rect x="380" y="300" width="10" height="20" fill="#27362B" />
<rect x="400" y="300" width="10" height="10" fill="#535E5A" />
<rect x="410" y="300" width="10" height="10" fill="#18273A" />
<rect x="420" y="300" width="10" height="10" fill="#3A3525" />
<rect x="430" y="300" width="10" height="20" fill="#514C17" />
<rect x="480" y="300" width="30" height="50" fill="#948849" />
<rect x="170" y="310" width="10" height="80" fill="#514C17" />
<rect x="180" y="310" width="10" height="10" fill="#3A3525" />
<rect x="190" y="310" width="10" height="10" fill="#18273A" />
<rect x="200" y="310" width="10" height="10" fill="#3A3525" />
<rect x="220" y="310" width="10" height="30" fill="#18273A" />
<rect x="240" y="310" width="20" height="10" fill="#18273A" />
<rect x="270" y="310" width="40" height="10" fill="#18273A" />
<rect x="310" y="310" width="10" height="10" fill="#232406" />
<rect x="320" y="310" width="10" height="20" fill="#18273A" />
<rect x="330" y="310" width="10" height="10" fill="#212D4C" />
<rect x="340" y="310" width="10" height="10" fill="#535E5A" />
<rect x="350" y="310" width="10" height="10" fill="#232406" />
<rect x="360" y="310" width="10" height="10" fill="#18273A" />
<rect x="370" y="310" width="10" height="10" fill="#535E5A" />
<rect x="390" y="310" width="10" height="10" fill="#535E5A" />
<rect x="400" y="310" width="10" height="10" fill="#18273A" />
<rect x="410" y="310" width="10" height="10" fill="#3A3525" />
<rect x="420" y="310" width="10" height="20" fill="#514C17" />
<rect x="440" y="310" width="10" height="10" fill="#18273A" />
<rect x="180" y="320" width="10" height="70" fill="#514C17" />
<rect x="190" y="320" width="10" height="10" fill="#3A3525" />
<rect x="200" y="320" width="10" height="70" fill="#514C17" />
<rect x="230" y="320" width="10" height="20" fill="#18273A" />
<rect x="240" y="320" width="30" height="10" fill="#535E5A" />
<rect x="270" y="320" width="10" height="10" fill="#232406" />
<rect x="280" y="320" width="40" height="10" fill="#3A3525" />
<rect x="330" y="320" width="10" height="10" fill="#535E5A" />
<rect x="340" y="320" width="10" height="10" fill="#18273A" />
<rect x="350" y="320" width="20" height="10" fill="#3A3525" />
<rect x="370" y="320" width="10" height="10" fill="#18273A" />
<rect x="380" y="320" width="10" height="10" fill="#535E5A" />
<rect x="390" y="320" width="10" height="10" fill="#18273A" />
<rect x="400" y="320" width="10" height="10" fill="#3A3525" />
<rect x="410" y="320" width="10" height="20" fill="#514C17" />
<rect x="430" y="320" width="10" height="10" fill="#18273A" />
<rect x="440" y="320" width="10" height="50" fill="#53495E" />
<rect x="450" y="320" width="10" height="10" fill="#18273A" />
<rect x="140" y="330" width="10" height="10" fill="#5E4E1A" />
<rect x="150" y="330" width="10" height="60" fill="#514C17" />
<rect x="190" y="330" width="10" height="60" fill="#514C17" />
<rect x="240" y="330" width="40" height="10" fill="#18273A" />
<rect x="280" y="330" width="10" height="10" fill="#3A3525" />
<rect x="290" y="330" width="30" height="60" fill="#514C17" />
<rect x="320" y="330" width="10" height="10" fill="#3A3525" />
<rect x="330" y="330" width="10" height="10" fill="#18273A" />
<rect x="340" y="330" width="10" height="10" fill="#3A3525" />
<rect x="350" y="330" width="20" height="60" fill="#514C17" />
<rect x="370" y="330" width="10" height="10" fill="#3A3525" />
<rect x="380" y="330" width="10" height="10" fill="#18273A" />
<rect x="390" y="330" width="10" height="10" fill="#3A3525" />
<rect x="400" y="330" width="10" height="20" fill="#514C17" />
<rect x="420" y="330" width="10" height="10" fill="#18273A" />
<rect x="430" y="330" width="10" height="50" fill="#53495E" />
<rect x="450" y="330" width="10" height="30" fill="#53495E" />
<rect x="460" y="330" width="10" height="10" fill="#18273A" />
<rect x="140" y="340" width="10" height="40" fill="#514C17" />
<rect x="210" y="340" width="10" height="50" fill="#514C17" />
<rect x="220" y="340" width="60" height="10" fill="#3A3525" />
<rect x="280" y="340" width="10" height="50" fill="#514C17" />
<rect x="320" y="340" width="10" height="50" fill="#514C17" />
<rect x="330" y="340" width="10" height="10" fill="#3A3525" />
<rect x="340" y="340" width="10" height="50" fill="#514C17" />
<rect x="370" y="340" width="10" height="50" fill="#514C17" />
<rect x="380" y="340" width="10" height="10" fill="#3A3525" />
<rect x="390" y="340" width="10" height="20" fill="#514C17" />
<rect x="410" y="340" width="10" height="10" fill="#18273A" />
<rect x="420" y="340" width="10" height="30" fill="#53495E" />
<rect x="460" y="340" width="10" height="10" fill="#53495E" />
<rect x="470" y="340" width="10" height="10" fill="#18273A" />
<rect x="100" y="350" width="30" height="10" fill="#5E4E1A" />
<rect x="220" y="350" width="60" height="40" fill="#514C17" />
<rect x="330" y="350" width="10" height="40" fill="#514C17" />
<rect x="380" y="350" width="10" height="40" fill="#514C17" />
<rect x="400" y="350" width="10" height="10" fill="#18273A" />
<rect x="410" y="350" width="10" height="10" fill="#53495E" />
<rect x="460" y="350" width="10" height="10" fill="#18273A" />
<rect x="470" y="350" width="10" height="10" fill="#A1B3AC" />
<rect x="480" y="350" width="30" height="10" fill="#5E4E1A" />
<rect x="390" y="360" width="10" height="20" fill="#3A3525" />
<rect x="400" y="360" width="10" height="10" fill="#A1B3AC" />
<rect x="410" y="360" width="10" height="10" fill="#18273A" />
<rect x="450" y="360" width="10" height="10" fill="#18273A" />
<rect x="460" y="360" width="10" height="10" fill="#A1B3AC" />
<rect x="470" y="360" width="10" height="10" fill="#18273A" />
<rect x="100" y="370" width="30" height="40" fill="#62746D" />
<rect x="400" y="370" width="10" height="10" fill="#18273A" />
<rect x="410" y="370" width="10" height="10" fill="#A1B3AC" />
<rect x="420" y="370" width="10" height="10" fill="#18273A" />
<rect x="440" y="370" width="10" height="10" fill="#18273A" />
<rect x="450" y="370" width="10" height="10" fill="#A1B3AC" />
<rect x="460" y="370" width="10" height="10" fill="#18273A" />
<rect x="470" y="370" width="10" height="30" fill="#2D270A" />
<rect x="480" y="370" width="30" height="40" fill="#62746D" />
<rect x="70" y="380" width="10" height="30" fill="#62746D" />
<rect x="140" y="380" width="10" height="40" fill="#2D270A" />
<rect x="390" y="380" width="10" height="10" fill="#514C17" />
<rect x="400" y="380" width="10" height="10" fill="#3A3525" />
<rect x="410" y="380" width="10" height="10" fill="#18273A" />
<rect x="420" y="380" width="10" height="10" fill="#A1B3AC" />
<rect x="430" y="380" width="10" height="10" fill="#18273A" />
<rect x="440" y="380" width="10" height="10" fill="#A1B3AC" />
<rect x="450" y="380" width="10" height="10" fill="#18273A" />
<rect x="460" y="380" width="10" height="40" fill="#2D270A" />
<rect x="530" y="380" width="10" height="30" fill="#62746D" />
<rect x="150" y="390" width="270" height="30" fill="#2D270A" />
<rect x="420" y="390" width="10" height="10" fill="#18273A" />
<rect x="430" y="390" width="10" height="10" fill="#A1B3AC" />
<rect x="440" y="390" width="10" height="10" fill="#18273A" />
<rect x="450" y="390" width="10" height="40" fill="#2D270A" />
<rect x="60" y="400" width="10" height="10" fill="#62746D" />
<rect x="80" y="400" width="20" height="10" fill="#62746D" />
<rect x="130" y="400" width="10" height="40" fill="#62746D" />
<rect x="420" y="400" width="10" height="70" fill="#2D270A" />
<rect x="430" y="400" width="10" height="10" fill="#18273A" />
<rect x="440" y="400" width="10" height="60" fill="#2D270A" />
<rect x="470" y="400" width="10" height="40" fill="#62746D" />
<rect x="510" y="400" width="20" height="10" fill="#62746D" />
<rect x="540" y="400" width="10" height="10" fill="#62746D" />
<rect x="430" y="410" width="10" height="60" fill="#2D270A" />
<rect x="140" y="420" width="10" height="30" fill="#62746D" />
<rect x="150" y="420" width="60" height="10" fill="#2D270A" />
<rect x="210" y="420" width="190" height="20" fill="#3A370B" />
<rect x="400" y="420" width="20" height="10" fill="#2D270A" />
<rect x="460" y="420" width="10" height="30" fill="#62746D" />
<rect x="150" y="430" width="10" height="50" fill="#62746D" />
<rect x="160" y="430" width="40" height="30" fill="#2D270A" />
<rect x="200" y="430" width="10" height="20" fill="#3A370B" />
<rect x="400" y="430" width="10" height="20" fill="#3A370B" />
<rect x="410" y="430" width="10" height="40" fill="#2D270A" />
<rect x="450" y="430" width="10" height="50" fill="#62746D" />
<rect x="210" y="440" width="30" height="10" fill="#3A370B" />
<rect x="240" y="440" width="10" height="10" fill="#18273A" />
<rect x="250" y="440" width="150" height="10" fill="#3A370B" />
<rect x="200" y="450" width="30" height="10" fill="#2D270A" />
<rect x="230" y="450" width="10" height="10" fill="#18273A" />
<rect x="240" y="450" width="10" height="10" fill="#394C39" />
<rect x="250" y="450" width="10" height="10" fill="#18273A" />
<rect x="260" y="450" width="150" height="10" fill="#2D270A" />
<rect x="160" y="460" width="10" height="30" fill="#62746D" />
<rect x="170" y="460" width="30" height="10" fill="#2D270A" />
<rect x="200" y="460" width="20" height="10" fill="#62746D" />
<rect x="220" y="460" width="10" height="10" fill="#18273A" />
<rect x="230" y="460" width="10" height="10" fill="#394C39" />
<rect x="240" y="460" width="10" height="10" fill="#0E2823" />
<rect x="250" y="460" width="10" height="20" fill="#394C39" />
<rect x="260" y="460" width="10" height="10" fill="#18273A" />
<rect x="270" y="460" width="140" height="10" fill="#62746D" />
<rect x="440" y="460" width="10" height="20" fill="#62746D" />
<rect x="170" y="470" width="40" height="20" fill="#62746D" />
<rect x="210" y="470" width="10" height="10" fill="#18273A" />
<rect x="220" y="470" width="10" height="10" fill="#394C39" />
<rect x="230" y="470" width="10" height="10" fill="#0E2823" />
<rect x="240" y="470" width="10" height="30" fill="#394C39" />
<rect x="260" y="470" width="10" height="30" fill="#394C39" />
<rect x="270" y="470" width="10" height="10" fill="#18273A" />
<rect x="280" y="470" width="160" height="10" fill="#62746D" />
<rect x="210" y="480" width="10" height="10" fill="#A1B3AC" />
<rect x="220" y="480" width="10" height="10" fill="#18273A" />
<rect x="230" y="480" width="10" height="10" fill="#394C39" />
<rect x="250" y="480" width="10" height="10" fill="#0E2823" />
<rect x="270" y="480" width="10" height="10" fill="#394C39" />
<rect x="280" y="480" width="10" height="10" fill="#18273A" />
<rect x="290" y="480" width="60" height="20" fill="#62746D" />
<rect x="350" y="480" width="40" height="10" fill="#18273A" />
<rect x="390" y="480" width="30" height="10" fill="#62746D" />
<rect x="420" y="480" width="40" height="10" fill="#18273A" />
<rect x="210" y="490" width="10" height="10" fill="#18273A" />
<rect x="220" y="490" width="10" height="10" fill="#A1B3AC" />
<rect x="230" y="490" width="10" height="10" fill="#18273A" />
<rect x="250" y="490" width="10" height="20" fill="#394C39" />
<rect x="270" y="490" width="10" height="10" fill="#18273A" />
<rect x="280" y="490" width="10" height="10" fill="#A1B3AC" />
<rect x="350" y="490" width="10" height="60" fill="#18273A" />
<rect x="360" y="490" width="30" height="10" fill="#A1B3AC" />
<rect x="390" y="490" width="10" height="10" fill="#18273A" />
<rect x="400" y="490" width="10" height="10" fill="#62746D" />
<rect x="410" y="490" width="10" height="10" fill="#18273A" />
<rect x="420" y="490" width="30" height="10" fill="#A1B3AC" />
<rect x="450" y="490" width="10" height="60" fill="#18273A" />
<rect x="460" y="490" width="10" height="10" fill="#62746D" />
<rect x="220" y="500" width="10" height="10" fill="#18273A" />
<rect x="230" y="500" width="10" height="10" fill="#A1B3AC" />
<rect x="240" y="500" width="10" height="10" fill="#18273A" />
<rect x="260" y="500" width="10" height="10" fill="#18273A" />
<rect x="270" y="500" width="10" height="10" fill="#A1B3AC" />
<rect x="280" y="500" width="10" height="10" fill="#18273A" />
<rect x="290" y="500" width="10" height="10" fill="#62746D" />
<rect x="310" y="500" width="30" height="10" fill="#62746D" />
<rect x="340" y="500" width="10" height="60" fill="#3C2F43" />
<rect x="360" y="500" width="10" height="40" fill="#A1B3AC" />
<rect x="370" y="500" width="20" height="10" fill="#0E2823" />
<rect x="390" y="500" width="10" height="40" fill="#A1B3AC" />
<rect x="400" y="500" width="10" height="40" fill="#18273A" />
<rect x="410" y="500" width="10" height="40" fill="#A1B3AC" />
<rect x="420" y="500" width="20" height="10" fill="#0E2823" />
<rect x="440" y="500" width="10" height="40" fill="#A1B3AC" />
<rect x="460" y="500" width="10" height="60" fill="#3C2F43" />
<rect x="470" y="500" width="10" height="70" fill="#62746D" />
<rect x="230" y="510" width="10" height="10" fill="#18273A" />
<rect x="240" y="510" width="10" height="10" fill="#A1B3AC" />
<rect x="250" y="510" width="10" height="10" fill="#18273A" />
<rect x="260" y="510" width="10" height="10" fill="#A1B3AC" />
<rect x="270" y="510" width="10" height="10" fill="#18273A" />
<rect x="280" y="510" width="10" height="10" fill="#62746D" />
<rect x="320" y="510" width="20" height="10" fill="#62746D" />
<rect x="370" y="510" width="20" height="10" fill="#A1B3AC" />
<rect x="420" y="510" width="20" height="10" fill="#A1B3AC" />
<rect x="240" y="520" width="10" height="10" fill="#18273A" />
<rect x="250" y="520" width="10" height="10" fill="#A1B3AC" />
<rect x="260" y="520" width="10" height="10" fill="#18273A" />
<rect x="270" y="520" width="10" height="10" fill="#62746D" />
<rect x="330" y="520" width="10" height="50" fill="#62746D" />
<rect x="370" y="520" width="20" height="10" fill="#0E2823" />
<rect x="420" y="520" width="20" height="10" fill="#0E2823" />
<rect x="250" y="530" width="10" height="10" fill="#18273A" />
<rect x="260" y="530" width="10" height="10" fill="#62746D" />
<rect x="370" y="530" width="20" height="10" fill="#A1B3AC" />
<rect x="420" y="530" width="20" height="10" fill="#A1B3AC" />
<rect x="360" y="540" width="40" height="10" fill="#18273A" />
<rect x="400" y="540" width="10" height="10" fill="#53495E" />
<rect x="410" y="540" width="40" height="10" fill="#18273A" />
<rect x="350" y="550" width="40" height="10" fill="#3C2F43" />
<rect x="390" y="550" width="10" height="10" fill="#53495E" />
<rect x="400" y="550" width="10" height="10" fill="#3C2F43" />
<rect x="410" y="550" width="10" height="10" fill="#53495E" />
<rect x="420" y="550" width="40" height="10" fill="#3C2F43" />
<rect x="340" y="560" width="130" height="10" fill="#62746D" />
</svg>