<?xml version="1.0" encoding="UTF-8" ?>
<svg version="1.1" width="400" height="400" xmlns="http://www.w3.org/2000/svg" shape-rendering="crispEdges">
<rect x="210" y="80" width="20" height="10" fill="#948849" />
<rect x="210" y="90" width="10" height="10" fill="#5E4E1A" />
<rect x="220" y="90" width="10" height="10" fill="#948849" />
<rect x="210" y="100" width="10" height="10" fill="#948849" />
<rect x="220" y="100" width="10" height="120" fill="#5E4E1A" />
<rect x="160" y="110" width="20" height="10" fill="#948849" />
<rect x="200" y="110" width="10" height="10" fill="#948849" />
<rect x="210" y="110" width="10" height="100" fill="#5E4E1A" />
<rect x="160" y="120" width="10" height="140" fill="#5E4E1A" />
<rect x="170" y="120" width="10" height="10" fill="#948849" />
<rect x="190" y="120" width="10" height="10" fill="#948849" />
<rect x="200" y="120" width="10" height="30" fill="#5E4E1A" />
<rect x="170" y="130" width="10" height="140" fill="#5E4E1A" />
<rect x="180" y="130" width="10" height="10" fill="#948849" />
<rect x="190" y="130" width="10" height="30" fill="#5E4E1A" />
<rect x="180" y="140" width="10" height="30" fill="#5E4E1A" />
<rect x="150" y="150" width="10" height="10" fill="#5E4E1A" />
<rect x="140" y="160" width="10" height="10" fill="#5E4E1A" />
<rect x="150" y="160" width="10" height="40" fill="#948849" />
<rect x="190" y="160" width="10" height="30" fill="#948849" />
<rect x="200" y="160" width="10" height="10" fill="#5E4E1A" />
<rect x="130" y="170" width="10" height="60" fill="#5E4E1A" />
<rect x="140" y="170" width="10" height="20" fill="#948849" />
<rect x="180" y="170" width="10" height="30" fill="#948849" />
<rect x="200" y="170" width="10" height="10" fill="#948849" />
<rect x="120" y="180" width="10" height="60" fill="#5E4E1A" />
<rect x="200" y="180" width="10" height="10" fill="#5E4E1A" />
<rect x="140" y="190" width="10" height="10" fill="#5E4E1A" />
<rect x="190" y="190" width="10" height="10" fill="#5E4E1A" />
<rect x="150" y="200" width="10" height="10" fill="#5E4E1A" />
<rect x="180" y="200" width="10" height="10" fill="#5E4E1A" />
</svg>