<?xml version="1.0" encoding="UTF-8" ?>
<svg version="1.1" width="400" height="400" xmlns="http://www.w3.org/2000/svg" shape-rendering="crispEdges">
<rect x="220" y="60" width="20" height="10" fill="#948849" />
<rect x="220" y="70" width="10" height="10" fill="#948849" />
<rect x="230" y="70" width="10" height="10" fill="#5E4E1A" />
<rect x="220" y="80" width="10" height="80" fill="#5E4E1A" />
<rect x="230" y="80" width="10" height="10" fill="#948849" />
<rect x="230" y="90" width="10" height="60" fill="#5E4E1A" />
<rect x="240" y="90" width="10" height="10" fill="#948849" />
<rect x="270" y="90" width="20" height="10" fill="#948849" />
<rect x="240" y="100" width="10" height="30" fill="#5E4E1A" />
<rect x="250" y="100" width="10" height="10" fill="#948849" />
<rect x="270" y="100" width="10" height="10" fill="#948849" />
<rect x="280" y="100" width="10" height="140" fill="#5E4E1A" />
<rect x="250" y="110" width="10" height="30" fill="#5E4E1A" />
<rect x="260" y="110" width="10" height="10" fill="#948849" />
<rect x="270" y="110" width="10" height="120" fill="#5E4E1A" />
<rect x="260" y="120" width="10" height="30" fill="#5E4E1A" />
<rect x="230" y="150" width="10" height="70" fill="#948849" />
<rect x="240" y="150" width="10" height="10" fill="#5E4E1A" />
<rect x="210" y="160" width="10" height="10" fill="#5E4E1A" />
<rect x="220" y="160" width="10" height="50" fill="#948849" />
<rect x="240" y="160" width="10" height="60" fill="#948849" />
<rect x="250" y="160" width="10" height="10" fill="#5E4E1A" />
<rect x="200" y="170" width="10" height="10" fill="#5E4E1A" />
<rect x="210" y="170" width="10" height="30" fill="#948849" />
<rect x="250" y="170" width="10" height="40" fill="#948849" />
<rect x="260" y="170" width="10" height="10" fill="#5E4E1A" />
<rect x="180" y="180" width="20" height="40" fill="#5E4E1A" />
<rect x="200" y="180" width="10" height="10" fill="#948849" />
<rect x="260" y="180" width="10" height="20" fill="#948849" />
<rect x="200" y="190" width="10" height="10" fill="#5E4E1A" />
<rect x="210" y="200" width="10" height="10" fill="#5E4E1A" />
<rect x="260" y="200" width="10" height="10" fill="#5E4E1A" />
<rect x="220" y="210" width="10" height="10" fill="#5E4E1A" />
<rect x="250" y="210" width="10" height="10" fill="#5E4E1A" />
<rect x="180" y="220" width="10" height="10" fill="#5E4E1A" />
<rect x="230" y="220" width="20" height="40" fill="#5E4E1A" />
<rect x="230" y="260" width="10" height="10" fill="#5E4E1A" />
</svg>