<?xml version="1.0" encoding="UTF-8" ?>
<svg version="1.1" width="400" height="400" xmlns="http://www.w3.org/2000/svg" shape-rendering="crispEdges">
<rect x="190" y="20" width="30" height="10" fill="#8B8383" />
<rect x="150" y="30" width="40" height="10" fill="#8B8383" />
<rect x="190" y="30" width="30" height="10" fill="#CEC9C8" />
<rect x="220" y="30" width="40" height="10" fill="#8B8383" />
<rect x="120" y="40" width="30" height="10" fill="#8B8383" />
<rect x="150" y="40" width="20" height="20" fill="#CEC9C8" />
<rect x="170" y="40" width="60" height="10" fill="#B7ABAB" />
<rect x="230" y="40" width="30" height="30" fill="#CEC9C8" />
<rect x="260" y="40" width="30" height="10" fill="#8B8383" />
<rect x="80" y="50" width="40" height="10" fill="#8B8383" />
<rect x="120" y="50" width="30" height="10" fill="#CEC9C8" />
<rect x="170" y="50" width="60" height="10" fill="#CEC9C8" />
<rect x="260" y="50" width="30" height="20" fill="#CEC9C8" />
<rect x="290" y="50" width="40" height="10" fill="#8B8383" />
<rect x="50" y="60" width="30" height="10" fill="#8B8383" />
<rect x="80" y="60" width="120" height="10" fill="#B7ABAB" />
<rect x="200" y="60" width="30" height="20" fill="#CEC9C8" />
<rect x="290" y="60" width="40" height="10" fill="#CEC9C8" />
<rect x="330" y="60" width="30" height="10" fill="#8B8383" />
<rect x="30" y="70" width="20" height="10" fill="#8B8383" />
<rect x="50" y="70" width="150" height="10" fill="#CEC9C8" />
<rect x="230" y="70" width="20" height="10" fill="#CEC9C8" />
<rect x="250" y="70" width="110" height="20" fill="#B7ABAB" />
<rect x="360" y="70" width="20" height="10" fill="#8B8383" />
<rect x="30" y="80" width="10" height="150" fill="#8B8383" />
<rect x="40" y="80" width="70" height="20" fill="#CEC9C8" />
<rect x="110" y="80" width="140" height="10" fill="#B7ABAB" />
<rect x="360" y="80" width="10" height="10" fill="#B7ABAB" />
<rect x="370" y="80" width="10" height="150" fill="#8B8383" />
<rect x="110" y="90" width="260" height="10" fill="#CEC9C8" />
<rect x="40" y="100" width="160" height="10" fill="#B7ABAB" />
<rect x="200" y="100" width="130" height="10" fill="#CEC9C8" />
<rect x="330" y="100" width="40" height="10" fill="#B7ABAB" />
<rect x="40" y="110" width="250" height="10" fill="#CEC9C8" />
<rect x="290" y="110" width="40" height="10" fill="#B7ABAB" />
<rect x="330" y="110" width="40" height="30" fill="#CEC9C8" />
<rect x="40" y="120" width="50" height="10" fill="#B7ABAB" />
<rect x="90" y="120" width="240" height="10" fill="#CEC9C8" />
<rect x="40" y="130" width="50" height="20" fill="#CEC9C8" />
<rect x="90" y="130" width="210" height="10" fill="#B7ABAB" />
<rect x="300" y="130" width="30" height="10" fill="#CEC9C8" />
<rect x="90" y="140" width="20" height="20" fill="#CEC9C8" />
<rect x="110" y="140" width="50" height="10" fill="#B7ABAB" />
<rect x="160" y="140" width="130" height="10" fill="#CEC9C8" />
<rect x="290" y="140" width="60" height="10" fill="#B7ABAB" />
<rect x="350" y="140" width="20" height="10" fill="#CEC9C8" />
<rect x="40" y="150" width="10" height="10" fill="#8B8383" />
<rect x="50" y="150" width="40" height="10" fill="#CEC9C8" />
<rect x="110" y="150" width="90" height="10" fill="#CEC9C8" />
<rect x="200" y="150" width="40" height="10" fill="#B7ABAB" />
<rect x="240" y="150" width="120" height="10" fill="#CEC9C8" />
<rect x="360" y="150" width="10" height="10" fill="#8B8383" />
<rect x="40" y="160" width="10" height="60" fill="#B7ABAB" />
<rect x="50" y="160" width="310" height="10" fill="#8B8383" />
<rect x="360" y="160" width="10" height="60" fill="#B7ABAB" />
<rect x="50" y="170" width="100" height="50" fill="#B7ABAB" />
<rect x="150" y="170" width="10" height="10" fill="#8B8383" />
<rect x="160" y="170" width="200" height="10" fill="#B7ABAB" />
<rect x="150" y="180" width="10" height="50" fill="#B7ABAB" />
<rect x="160" y="180" width="10" height="10" fill="#8B8383" />
<rect x="170" y="180" width="190" height="20" fill="#B7ABAB" />
<rect x="160" y="190" width="10" height="40" fill="#B7ABAB" />
<rect x="170" y="200" width="130" height="30" fill="#B7ABAB" />
<rect x="300" y="200" width="10" height="10" fill="#8B8383" />
<rect x="310" y="200" width="50" height="10" fill="#B7ABAB" />
<rect x="300" y="210" width="10" height="20" fill="#B7ABAB" />
<rect x="310" y="210" width="10" height="30" fill="#8B8383" />
<rect x="320" y="210" width="40" height="20" fill="#B7ABAB" />
<rect x="40" y="220" width="10" height="20" fill="#8B8383" />
<rect x="50" y="220" width="20" height="10" fill="#B7ABAB" />
<rect x="70" y="220" width="10" height="20" fill="#8B8383" />
<rect x="80" y="220" width="70" height="10" fill="#B7ABAB" />
<rect x="360" y="220" width="10" height="20" fill="#8B8383" />
<rect x="50" y="230" width="20" height="10" fill="#8B8383" />
<rect x="80" y="230" width="230" height="10" fill="#8B8383" />
<rect x="320" y="230" width="40" height="10" fill="#8B8383" />
<rect x="50" y="240" width="20" height="120" fill="#616E79" />
<rect x="340" y="240" width="20" height="120" fill="#616E79" />
<rect x="70" y="270" width="270" height="20" fill="#616E79" />
<rect x="50" y="360" width="20" height="30" fill="#3C2E48" />
<rect x="340" y="360" width="20" height="30" fill="#3C2E48" />
<rect x="40" y="370" width="10" height="10" fill="#3C2E48" />
<rect x="70" y="370" width="10" height="10" fill="#3C2E48" />
<rect x="330" y="370" width="10" height="10" fill="#3C2E48" />
<rect x="360" y="370" width="10" height="10" fill="#3C2E48" />
</svg>