<?xml version="1.0" encoding="UTF-8" ?>
<svg version="1.1" width="400" height="400" xmlns="http://www.w3.org/2000/svg" shape-rendering="crispEdges">
<rect x="40" y="20" width="330" height="10" fill="#8B8383" />
<rect x="30" y="30" width="20" height="10" fill="#8B8383" />
<rect x="50" y="30" width="310" height="10" fill="#CEC9C8" />
<rect x="360" y="30" width="20" height="10" fill="#8B8383" />
<rect x="30" y="40" width="10" height="150" fill="#8B8383" />
<rect x="40" y="40" width="50" height="40" fill="#CEC9C8" />
<rect x="90" y="40" width="90" height="10" fill="#B7ABAB" />
<rect x="180" y="40" width="110" height="30" fill="#CEC9C8" />
<rect x="290" y="40" width="80" height="10" fill="#B7ABAB" />
<rect x="370" y="40" width="10" height="150" fill="#8B8383" />
<rect x="90" y="50" width="90" height="20" fill="#CEC9C8" />
<rect x="290" y="50" width="80" height="20" fill="#CEC9C8" />
<rect x="90" y="70" width="50" height="10" fill="#CEC9C8" />
<rect x="140" y="70" width="120" height="10" fill="#B7ABAB" />
<rect x="260" y="70" width="80" height="10" fill="#CEC9C8" />
<rect x="340" y="70" width="30" height="10" fill="#B7ABAB" />
<rect x="40" y="80" width="110" height="10" fill="#B7ABAB" />
<rect x="150" y="80" width="110" height="20" fill="#CEC9C8" />
<rect x="260" y="80" width="60" height="10" fill="#B7ABAB" />
<rect x="320" y="80" width="50" height="20" fill="#CEC9C8" />
<rect x="40" y="90" width="110" height="10" fill="#CEC9C8" />
<rect x="260" y="90" width="60" height="20" fill="#CEC9C8" />
<rect x="40" y="100" width="10" height="20" fill="#8B8383" />
<rect x="50" y="100" width="150" height="10" fill="#CEC9C8" />
<rect x="200" y="100" width="40" height="10" fill="#B7ABAB" />
<rect x="240" y="100" width="20" height="20" fill="#CEC9C8" />
<rect x="320" y="100" width="40" height="10" fill="#CEC9C8" />
<rect x="360" y="100" width="10" height="20" fill="#8B8383" />
<rect x="50" y="110" width="60" height="10" fill="#CEC9C8" />
<rect x="110" y="110" width="50" height="20" fill="#B7ABAB" />
<rect x="160" y="110" width="80" height="10" fill="#CEC9C8" />
<rect x="260" y="110" width="30" height="10" fill="#CEC9C8" />
<rect x="290" y="110" width="60" height="10" fill="#B7ABAB" />
<rect x="350" y="110" width="10" height="10" fill="#CEC9C8" />
<rect x="40" y="120" width="10" height="60" fill="#B7ABAB" />
<rect x="50" y="120" width="30" height="10" fill="#8B8383" />
<rect x="80" y="120" width="10" height="10" fill="#CEC9C8" />
<rect x="90" y="120" width="20" height="10" fill="#B7ABAB" />
<rect x="160" y="120" width="140" height="10" fill="#B7ABAB" />
<rect x="300" y="120" width="30" height="10" fill="#CEC9C8" />
<rect x="330" y="120" width="30" height="10" fill="#8B8383" />
<rect x="360" y="120" width="10" height="60" fill="#B7ABAB" />
<rect x="50" y="130" width="30" height="10" fill="#B7ABAB" />
<rect x="80" y="130" width="40" height="10" fill="#8B8383" />
<rect x="120" y="130" width="170" height="10" fill="#CEC9C8" />
<rect x="290" y="130" width="40" height="10" fill="#8B8383" />
<rect x="330" y="130" width="30" height="10" fill="#B7ABAB" />
<rect x="50" y="140" width="30" height="10" fill="#8B8383" />
<rect x="80" y="140" width="40" height="10" fill="#B7ABAB" />
<rect x="120" y="140" width="40" height="10" fill="#8B8383" />
<rect x="160" y="140" width="90" height="10" fill="#CEC9C8" />
<rect x="250" y="140" width="40" height="10" fill="#8B8383" />
<rect x="290" y="140" width="40" height="10" fill="#B7ABAB" />
<rect x="330" y="140" width="30" height="10" fill="#8B8383" />
<rect x="50" y="150" width="10" height="20" fill="#8B8383" />
<rect x="60" y="150" width="20" height="20" fill="#B7ABAB" />
<rect x="80" y="150" width="40" height="10" fill="#8B8383" />
<rect x="120" y="150" width="40" height="10" fill="#B7ABAB" />
<rect x="160" y="150" width="30" height="10" fill="#8B8383" />
<rect x="190" y="150" width="30" height="10" fill="#CEC9C8" />
<rect x="220" y="150" width="30" height="10" fill="#8B8383" />
<rect x="250" y="150" width="40" height="10" fill="#B7ABAB" />
<rect x="290" y="150" width="40" height="10" fill="#8B8383" />
<rect x="330" y="150" width="20" height="20" fill="#B7ABAB" />
<rect x="350" y="150" width="10" height="20" fill="#8B8383" />
<rect x="80" y="160" width="40" height="10" fill="#B7ABAB" />
<rect x="120" y="160" width="30" height="10" fill="#8B8383" />
<rect x="150" y="160" width="40" height="10" fill="#B7ABAB" />
<rect x="190" y="160" width="10" height="10" fill="#8B8383" />
<rect x="200" y="160" width="10" height="10" fill="#CEC9C8" />
<rect x="210" y="160" width="10" height="10" fill="#8B8383" />
<rect x="220" y="160" width="40" height="10" fill="#B7ABAB" />
<rect x="260" y="160" width="30" height="10" fill="#8B8383" />
<rect x="290" y="160" width="40" height="10" fill="#B7ABAB" />
<rect x="50" y="170" width="10" height="20" fill="#B7ABAB" />
<rect x="60" y="170" width="20" height="10" fill="#8B8383" />
<rect x="80" y="170" width="20" height="10" fill="#B7ABAB" />
<rect x="100" y="170" width="30" height="10" fill="#8B8383" />
<rect x="130" y="170" width="20" height="20" fill="#B7ABAB" />
<rect x="150" y="170" width="40" height="10" fill="#8B8383" />
<rect x="190" y="170" width="10" height="60" fill="#B7ABAB" />
<rect x="200" y="170" width="10" height="70" fill="#8B8383" />
<rect x="210" y="170" width="10" height="60" fill="#B7ABAB" />
<rect x="220" y="170" width="40" height="10" fill="#8B8383" />
<rect x="260" y="170" width="20" height="20" fill="#B7ABAB" />
<rect x="280" y="170" width="30" height="10" fill="#8B8383" />
<rect x="310" y="170" width="20" height="10" fill="#B7ABAB" />
<rect x="330" y="170" width="20" height="10" fill="#8B8383" />
<rect x="350" y="170" width="10" height="20" fill="#B7ABAB" />
<rect x="40" y="180" width="10" height="10" fill="#8B8383" />
<rect x="60" y="180" width="20" height="10" fill="#B7ABAB" />
<rect x="80" y="180" width="40" height="10" fill="#8B8383" />
<rect x="120" y="180" width="10" height="10" fill="#B7ABAB" />
<rect x="150" y="180" width="30" height="20" fill="#B7ABAB" />
<rect x="180" y="180" width="10" height="30" fill="#8B8383" />
<rect x="220" y="180" width="10" height="30" fill="#8B8383" />
<rect x="230" y="180" width="30" height="20" fill="#B7ABAB" />
<rect x="280" y="180" width="10" height="10" fill="#B7ABAB" />
<rect x="290" y="180" width="40" height="10" fill="#8B8383" />
<rect x="330" y="180" width="20" height="10" fill="#B7ABAB" />
<rect x="360" y="180" width="10" height="10" fill="#8B8383" />
<rect x="50" y="190" width="30" height="10" fill="#8B8383" />
<rect x="80" y="190" width="40" height="10" fill="#B7ABAB" />
<rect x="120" y="190" width="30" height="10" fill="#8B8383" />
<rect x="260" y="190" width="30" height="10" fill="#8B8383" />
<rect x="290" y="190" width="40" height="10" fill="#B7ABAB" />
<rect x="330" y="190" width="30" height="10" fill="#8B8383" />
<rect x="50" y="200" width="20" height="160" fill="#616E79" />
<rect x="80" y="200" width="40" height="10" fill="#8B8383" />
<rect x="120" y="200" width="30" height="10" fill="#B7ABAB" />
<rect x="150" y="200" width="30" height="10" fill="#8B8383" />
<rect x="230" y="200" width="30" height="10" fill="#8B8383" />
<rect x="260" y="200" width="30" height="10" fill="#B7ABAB" />
<rect x="290" y="200" width="40" height="10" fill="#8B8383" />
<rect x="340" y="200" width="20" height="160" fill="#616E79" />
<rect x="120" y="210" width="30" height="10" fill="#8B8383" />
<rect x="150" y="210" width="40" height="10" fill="#B7ABAB" />
<rect x="220" y="210" width="40" height="10" fill="#B7ABAB" />
<rect x="260" y="210" width="30" height="10" fill="#8B8383" />
<rect x="150" y="220" width="40" height="10" fill="#8B8383" />
<rect x="220" y="220" width="40" height="10" fill="#8B8383" />
<rect x="190" y="230" width="10" height="10" fill="#8B8383" />
<rect x="210" y="230" width="10" height="10" fill="#8B8383" />
<rect x="70" y="270" width="270" height="20" fill="#616E79" />
<rect x="50" y="360" width="20" height="30" fill="#3C2E48" />
<rect x="340" y="360" width="20" height="30" fill="#3C2E48" />
<rect x="40" y="370" width="10" height="10" fill="#3C2E48" />
<rect x="70" y="370" width="10" height="10" fill="#3C2E48" />
<rect x="330" y="370" width="10" height="10" fill="#3C2E48" />
<rect x="360" y="370" width="10" height="10" fill="#3C2E48" />
</svg>