<?xml version="1.0" encoding="UTF-8" ?>
<svg version="1.1" width="400" height="400" xmlns="http://www.w3.org/2000/svg" shape-rendering="crispEdges">
<rect x="20" y="70" width="360" height="10" fill="#7B501D" />
<rect x="10" y="80" width="10" height="220" fill="#7B501D" />
<rect x="20" y="80" width="360" height="30" fill="#CE772A" />
<rect x="380" y="80" width="10" height="220" fill="#7B501D" />
<rect x="20" y="110" width="10" height="40" fill="#7B501D" />
<rect x="30" y="110" width="340" height="10" fill="#CE772A" />
<rect x="370" y="110" width="10" height="40" fill="#7B501D" />
<rect x="30" y="120" width="340" height="20" fill="#7B501D" />
<rect x="30" y="140" width="340" height="10" fill="#4C300F" />
<rect x="20" y="150" width="20" height="50" fill="#4C300F" />
<rect x="40" y="150" width="30" height="10" fill="#587460" />
<rect x="70" y="150" width="10" height="10" fill="#586C74" />
<rect x="80" y="150" width="10" height="10" fill="#745870" />
<rect x="90" y="150" width="10" height="10" fill="#586C74" />
<rect x="100" y="150" width="10" height="10" fill="#745870" />
<rect x="110" y="150" width="20" height="10" fill="#4C300F" />
<rect x="130" y="150" width="10" height="10" fill="#15402D" />
<rect x="140" y="150" width="10" height="10" fill="#587460" />
<rect x="150" y="150" width="20" height="10" fill="#745870" />
<rect x="170" y="150" width="20" height="10" fill="#587460" />
<rect x="190" y="150" width="10" height="10" fill="#745870" />
<rect x="200" y="150" width="20" height="10" fill="#587460" />
<rect x="220" y="150" width="10" height="10" fill="#745870" />
<rect x="230" y="150" width="10" height="10" fill="#586C74" />
<rect x="240" y="150" width="20" height="30" fill="#4C300F" />
<rect x="260" y="150" width="10" height="10" fill="#988765" />
<rect x="270" y="150" width="10" height="10" fill="#4C300F" />
<rect x="280" y="150" width="10" height="10" fill="#988765" />
<rect x="290" y="150" width="10" height="50" fill="#4C300F" />
<rect x="300" y="150" width="10" height="10" fill="#587460" />
<rect x="310" y="150" width="20" height="10" fill="#745870" />
<rect x="330" y="150" width="10" height="10" fill="#587460" />
<rect x="340" y="150" width="10" height="10" fill="#745870" />
<rect x="350" y="150" width="10" height="10" fill="#587460" />
<rect x="360" y="150" width="20" height="50" fill="#4C300F" />
<rect x="40" y="160" width="30" height="20" fill="#245532" />
<rect x="70" y="160" width="10" height="20" fill="#2C4E74" />
<rect x="80" y="160" width="10" height="20" fill="#563B59" />
<rect x="90" y="160" width="10" height="20" fill="#2C4E74" />
<rect x="100" y="160" width="10" height="20" fill="#563B59" />
<rect x="110" y="160" width="10" height="10" fill="#4C300F" />
<rect x="120" y="160" width="20" height="10" fill="#245532" />
<rect x="140" y="160" width="10" height="40" fill="#4C300F" />
<rect x="150" y="160" width="20" height="20" fill="#563B59" />
<rect x="170" y="160" width="20" height="20" fill="#245532" />
<rect x="190" y="160" width="10" height="20" fill="#563B59" />
<rect x="200" y="160" width="20" height="20" fill="#245532" />
<rect x="220" y="160" width="10" height="20" fill="#563B59" />
<rect x="230" y="160" width="10" height="20" fill="#2C4E74" />
<rect x="260" y="160" width="10" height="10" fill="#2D2516" />
<rect x="270" y="160" width="10" height="10" fill="#988765" />
<rect x="280" y="160" width="10" height="10" fill="#2D2516" />
<rect x="300" y="160" width="10" height="20" fill="#245532" />
<rect x="310" y="160" width="20" height="20" fill="#563B59" />
<rect x="330" y="160" width="10" height="20" fill="#245532" />
<rect x="340" y="160" width="10" height="20" fill="#563B59" />
<rect x="350" y="160" width="10" height="20" fill="#245532" />
<rect x="110" y="170" width="10" height="20" fill="#15402D" />
<rect x="120" y="170" width="10" height="10" fill="#245532" />
<rect x="130" y="170" width="10" height="30" fill="#4C300F" />
<rect x="260" y="170" width="10" height="20" fill="#988765" />
<rect x="270" y="170" width="10" height="10" fill="#2D2516" />
<rect x="280" y="170" width="10" height="20" fill="#988765" />
<rect x="40" y="180" width="30" height="10" fill="#15402D" />
<rect x="70" y="180" width="10" height="10" fill="#103867" />
<rect x="80" y="180" width="10" height="10" fill="#3C2E48" />
<rect x="90" y="180" width="10" height="10" fill="#103867" />
<rect x="100" y="180" width="10" height="10" fill="#3C2E48" />
<rect x="120" y="180" width="10" height="20" fill="#4C300F" />
<rect x="150" y="180" width="20" height="10" fill="#3C2E48" />
<rect x="170" y="180" width="20" height="10" fill="#15402D" />
<rect x="190" y="180" width="10" height="10" fill="#3C2E48" />
<rect x="200" y="180" width="20" height="10" fill="#15402D" />
<rect x="220" y="180" width="10" height="10" fill="#3C2E48" />
<rect x="230" y="180" width="10" height="10" fill="#103867" />
<rect x="240" y="180" width="20" height="10" fill="#988765" />
<rect x="270" y="180" width="10" height="10" fill="#988765" />
<rect x="300" y="180" width="10" height="10" fill="#15402D" />
<rect x="310" y="180" width="20" height="10" fill="#3C2E48" />
<rect x="330" y="180" width="10" height="10" fill="#15402D" />
<rect x="340" y="180" width="10" height="10" fill="#3C2E48" />
<rect x="350" y="180" width="10" height="10" fill="#15402D" />
<rect x="40" y="190" width="80" height="10" fill="#4C300F" />
<rect x="150" y="190" width="140" height="10" fill="#4C300F" />
<rect x="300" y="190" width="60" height="10" fill="#4C300F" />
<rect x="20" y="200" width="10" height="10" fill="#4C300F" />
<rect x="30" y="200" width="340" height="20" fill="#7B501D" />
<rect x="370" y="200" width="10" height="10" fill="#4C300F" />
<rect x="20" y="210" width="10" height="20" fill="#7B501D" />
<rect x="370" y="210" width="10" height="20" fill="#7B501D" />
<rect x="30" y="220" width="340" height="10" fill="#4C300F" />
<rect x="20" y="230" width="20" height="50" fill="#4C300F" />
<rect x="40" y="230" width="20" height="10" fill="#745870" />
<rect x="60" y="230" width="10" height="10" fill="#586C74" />
<rect x="70" y="230" width="10" height="10" fill="#745870" />
<rect x="80" y="230" width="10" height="10" fill="#587460" />
<rect x="90" y="230" width="10" height="10" fill="#586C74" />
<rect x="100" y="230" width="20" height="10" fill="#587460" />
<rect x="120" y="230" width="10" height="10" fill="#745870" />
<rect x="130" y="230" width="20" height="10" fill="#586C74" />
<rect x="150" y="230" width="20" height="10" fill="#587460" />
<rect x="170" y="230" width="10" height="10" fill="#745870" />
<rect x="180" y="230" width="10" height="10" fill="#587460" />
<rect x="190" y="230" width="10" height="10" fill="#586C74" />
<rect x="200" y="230" width="20" height="10" fill="#745870" />
<rect x="220" y="230" width="40" height="10" fill="#587460" />
<rect x="260" y="230" width="10" height="10" fill="#745870" />
<rect x="270" y="230" width="10" height="10" fill="#586C74" />
<rect x="280" y="230" width="30" height="10" fill="#745870" />
<rect x="310" y="230" width="20" height="10" fill="#587460" />
<rect x="330" y="230" width="1" height="1" fill="#586C74" />
<rect x="331" y="230" width="9" height="10" fill="#745870" />
<rect x="340" y="230" width="10" height="10" fill="#586C74" />
<rect x="350" y="230" width="10" height="10" fill="#587460" />
<rect x="360" y="230" width="20" height="50" fill="#4C300F" />
<rect x="330" y="231" width="1" height="9" fill="#745870" />
<rect x="40" y="240" width="20" height="20" fill="#563B59" />
<rect x="60" y="240" width="10" height="20" fill="#2C4E74" />
<rect x="70" y="240" width="10" height="20" fill="#563B59" />
<rect x="80" y="240" width="10" height="20" fill="#245532" />
<rect x="90" y="240" width="10" height="20" fill="#2C4E74" />
<rect x="100" y="240" width="20" height="20" fill="#245532" />
<rect x="120" y="240" width="10" height="20" fill="#563B59" />
<rect x="130" y="240" width="20" height="20" fill="#2C4E74" />
<rect x="150" y="240" width="20" height="20" fill="#245532" />
<rect x="170" y="240" width="10" height="20" fill="#563B59" />
<rect x="180" y="240" width="10" height="20" fill="#245532" />
<rect x="190" y="240" width="10" height="20" fill="#2C4E74" />
<rect x="200" y="240" width="20" height="20" fill="#563B59" />
<rect x="220" y="240" width="40" height="20" fill="#245532" />
<rect x="260" y="240" width="10" height="20" fill="#563B59" />
<rect x="270" y="240" width="10" height="20" fill="#2C4E74" />
<rect x="280" y="240" width="30" height="20" fill="#563B59" />
<rect x="310" y="240" width="20" height="20" fill="#245532" />
<rect x="330" y="240" width="10" height="20" fill="#563B59" />
<rect x="340" y="240" width="10" height="20" fill="#2C4E74" />
<rect x="350" y="240" width="10" height="20" fill="#245532" />
<rect x="40" y="260" width="20" height="10" fill="#3C2E48" />
<rect x="60" y="260" width="10" height="10" fill="#103867" />
<rect x="70" y="260" width="10" height="10" fill="#3C2E48" />
<rect x="80" y="260" width="10" height="10" fill="#15402D" />
<rect x="90" y="260" width="10" height="10" fill="#103867" />
<rect x="100" y="260" width="20" height="10" fill="#15402D" />
<rect x="120" y="260" width="10" height="10" fill="#3C2E48" />
<rect x="130" y="260" width="20" height="10" fill="#103867" />
<rect x="150" y="260" width="20" height="10" fill="#15402D" />
<rect x="170" y="260" width="10" height="10" fill="#3C2E48" />
<rect x="180" y="260" width="10" height="10" fill="#15402D" />
<rect x="190" y="260" width="10" height="10" fill="#103867" />
<rect x="200" y="260" width="20" height="10" fill="#3C2E48" />
<rect x="220" y="260" width="40" height="10" fill="#15402D" />
<rect x="260" y="260" width="10" height="10" fill="#3C2E48" />
<rect x="270" y="260" width="10" height="10" fill="#103867" />
<rect x="280" y="260" width="30" height="10" fill="#3C2E48" />
<rect x="310" y="260" width="20" height="10" fill="#15402D" />
<rect x="330" y="260" width="10" height="10" fill="#3C2E48" />
<rect x="340" y="260" width="10" height="10" fill="#103867" />
<rect x="350" y="260" width="10" height="10" fill="#15402D" />
<rect x="40" y="270" width="320" height="10" fill="#4C300F" />
<rect x="20" y="280" width="10" height="10" fill="#4C300F" />
<rect x="30" y="280" width="340" height="30" fill="#7B501D" />
<rect x="370" y="280" width="10" height="10" fill="#4C300F" />
<rect x="20" y="290" width="10" height="20" fill="#7B501D" />
<rect x="370" y="290" width="10" height="20" fill="#7B501D" />
</svg>