<?xml version="1.0" encoding="UTF-8" ?>
<svg version="1.1" width="400" height="400" xmlns="http://www.w3.org/2000/svg" shape-rendering="crispEdges">
<rect x="190" y="0" width="20" height="10" fill="#55304C" />
<rect x="170" y="10" width="20" height="10" fill="#55304C" />
<rect x="190" y="10" width="20" height="30" fill="#6E6AB6" />
<rect x="210" y="10" width="20" height="10" fill="#55304C" />
<rect x="150" y="20" width="20" height="10" fill="#55304C" />
<rect x="170" y="20" width="10" height="30" fill="#6E6AB6" />
<rect x="180" y="20" width="10" height="120" fill="#55304C" />
<rect x="210" y="20" width="10" height="120" fill="#55304C" />
<rect x="220" y="20" width="10" height="30" fill="#6E6AB6" />
<rect x="230" y="20" width="20" height="10" fill="#55304C" />
<rect x="130" y="30" width="20" height="10" fill="#55304C" />
<rect x="150" y="30" width="20" height="30" fill="#6E6AB6" />
<rect x="230" y="30" width="20" height="30" fill="#6E6AB6" />
<rect x="250" y="30" width="20" height="10" fill="#55304C" />
<rect x="110" y="40" width="20" height="10" fill="#55304C" />
<rect x="130" y="40" width="20" height="30" fill="#6E6AB6" />
<rect x="190" y="40" width="20" height="10" fill="#55304C" />
<rect x="250" y="40" width="20" height="30" fill="#6E6AB6" />
<rect x="270" y="40" width="20" height="10" fill="#55304C" />
<rect x="90" y="50" width="20" height="10" fill="#55304C" />
<rect x="110" y="50" width="20" height="30" fill="#6E6AB6" />
<rect x="170" y="50" width="10" height="10" fill="#55304C" />
<rect x="190" y="50" width="20" height="30" fill="#6E6AB6" />
<rect x="220" y="50" width="10" height="10" fill="#55304C" />
<rect x="270" y="50" width="20" height="30" fill="#6E6AB6" />
<rect x="290" y="50" width="20" height="10" fill="#55304C" />
<rect x="70" y="60" width="20" height="10" fill="#55304C" />
<rect x="90" y="60" width="20" height="30" fill="#6E6AB6" />
<rect x="150" y="60" width="20" height="10" fill="#5F4870" />
<rect x="170" y="60" width="10" height="30" fill="#6E6AB6" />
<rect x="220" y="60" width="10" height="30" fill="#6E6AB6" />
<rect x="230" y="60" width="20" height="10" fill="#5F4870" />
<rect x="290" y="60" width="20" height="30" fill="#6E6AB6" />
<rect x="310" y="60" width="20" height="10" fill="#55304C" />
<rect x="50" y="70" width="20" height="10" fill="#55304C" />
<rect x="70" y="70" width="20" height="30" fill="#6E6AB6" />
<rect x="130" y="70" width="20" height="10" fill="#5F4870" />
<rect x="150" y="70" width="20" height="30" fill="#6E6AB6" />
<rect x="230" y="70" width="20" height="30" fill="#6E6AB6" />
<rect x="250" y="70" width="20" height="10" fill="#5F4870" />
<rect x="310" y="70" width="20" height="30" fill="#6E6AB6" />
<rect x="330" y="70" width="20" height="10" fill="#55304C" />
<rect x="30" y="80" width="20" height="10" fill="#55304C" />
<rect x="50" y="80" width="20" height="30" fill="#6E6AB6" />
<rect x="110" y="80" width="20" height="10" fill="#5F4870" />
<rect x="130" y="80" width="20" height="30" fill="#6E6AB6" />
<rect x="190" y="80" width="20" height="10" fill="#55304C" />
<rect x="250" y="80" width="20" height="30" fill="#6E6AB6" />
<rect x="270" y="80" width="20" height="10" fill="#5F4870" />
<rect x="330" y="80" width="20" height="30" fill="#6E6AB6" />
<rect x="350" y="80" width="20" height="10" fill="#55304C" />
<rect x="20" y="90" width="10" height="10" fill="#55304C" />
<rect x="30" y="90" width="20" height="30" fill="#6E6AB6" />
<rect x="90" y="90" width="20" height="10" fill="#5F4870" />
<rect x="110" y="90" width="20" height="30" fill="#6E6AB6" />
<rect x="170" y="90" width="10" height="10" fill="#55304C" />
<rect x="190" y="90" width="20" height="30" fill="#6E6AB6" />
<rect x="220" y="90" width="10" height="10" fill="#55304C" />
<rect x="270" y="90" width="20" height="30" fill="#6E6AB6" />
<rect x="290" y="90" width="20" height="10" fill="#5F4870" />
<rect x="350" y="90" width="20" height="30" fill="#6E6AB6" />
<rect x="370" y="90" width="10" height="10" fill="#55304C" />
<rect x="10" y="100" width="10" height="30" fill="#55304C" />
<rect x="20" y="100" width="10" height="30" fill="#6E6AB6" />
<rect x="70" y="100" width="20" height="10" fill="#5F4870" />
<rect x="90" y="100" width="20" height="30" fill="#6E6AB6" />
<rect x="150" y="100" width="20" height="10" fill="#5F4870" />
<rect x="170" y="100" width="10" height="30" fill="#6E6AB6" />
<rect x="220" y="100" width="10" height="30" fill="#6E6AB6" />
<rect x="230" y="100" width="20" height="10" fill="#5F4870" />
<rect x="290" y="100" width="20" height="30" fill="#6E6AB6" />
<rect x="310" y="100" width="20" height="10" fill="#5F4870" />
<rect x="370" y="100" width="10" height="30" fill="#6E6AB6" />
<rect x="380" y="100" width="10" height="30" fill="#55304C" />
<rect x="50" y="110" width="20" height="10" fill="#5F4870" />
<rect x="70" y="110" width="20" height="30" fill="#6E6AB6" />
<rect x="130" y="110" width="20" height="10" fill="#5F4870" />
<rect x="150" y="110" width="20" height="30" fill="#6E6AB6" />
<rect x="230" y="110" width="20" height="30" fill="#6E6AB6" />
<rect x="250" y="110" width="20" height="10" fill="#5F4870" />
<rect x="310" y="110" width="20" height="30" fill="#6E6AB6" />
<rect x="330" y="110" width="20" height="10" fill="#5F4870" />
<rect x="30" y="120" width="20" height="10" fill="#5F4870" />
<rect x="50" y="120" width="20" height="30" fill="#6E6AB6" />
<rect x="110" y="120" width="20" height="10" fill="#5F4870" />
<rect x="130" y="120" width="20" height="30" fill="#6E6AB6" />
<rect x="190" y="120" width="20" height="10" fill="#55304C" />
<rect x="250" y="120" width="20" height="30" fill="#6E6AB6" />
<rect x="270" y="120" width="20" height="10" fill="#5F4870" />
<rect x="330" y="120" width="20" height="30" fill="#6E6AB6" />
<rect x="350" y="120" width="20" height="10" fill="#5F4870" />
<rect x="20" y="130" width="10" height="10" fill="#55304C" />
<rect x="30" y="130" width="20" height="30" fill="#6E6AB6" />
<rect x="90" y="130" width="20" height="10" fill="#5F4870" />
<rect x="110" y="130" width="20" height="30" fill="#6E6AB6" />
<rect x="170" y="130" width="10" height="10" fill="#55304C" />
<rect x="190" y="130" width="20" height="10" fill="#5F4870" />
<rect x="220" y="130" width="10" height="10" fill="#55304C" />
<rect x="270" y="130" width="20" height="30" fill="#6E6AB6" />
<rect x="290" y="130" width="20" height="10" fill="#5F4870" />
<rect x="350" y="130" width="20" height="30" fill="#6E6AB6" />
<rect x="370" y="130" width="10" height="10" fill="#55304C" />
<rect x="10" y="140" width="10" height="30" fill="#55304C" />
<rect x="20" y="140" width="10" height="30" fill="#6E6AB6" />
<rect x="70" y="140" width="20" height="10" fill="#5F4870" />
<rect x="90" y="140" width="20" height="30" fill="#6E6AB6" />
<rect x="150" y="140" width="20" height="10" fill="#55304C" />
<rect x="170" y="140" width="20" height="10" fill="#5F4870" />
<rect x="190" y="140" width="20" height="10" fill="#55304C" />
<rect x="210" y="140" width="20" height="10" fill="#5F4870" />
<rect x="230" y="140" width="20" height="10" fill="#55304C" />
<rect x="290" y="140" width="20" height="30" fill="#6E6AB6" />
<rect x="310" y="140" width="20" height="10" fill="#5F4870" />
<rect x="370" y="140" width="10" height="30" fill="#6E6AB6" />
<rect x="380" y="140" width="10" height="30" fill="#55304C" />
<rect x="50" y="150" width="20" height="10" fill="#5F4870" />
<rect x="70" y="150" width="20" height="30" fill="#6E6AB6" />
<rect x="130" y="150" width="20" height="10" fill="#55304C" />
<rect x="150" y="150" width="20" height="10" fill="#5F4870" />
<rect x="170" y="150" width="20" height="10" fill="#55304C" />
<rect x="190" y="150" width="20" height="30" fill="#CEC9C8" />
<rect x="210" y="150" width="20" height="10" fill="#55304C" />
<rect x="230" y="150" width="20" height="10" fill="#5F4870" />
<rect x="250" y="150" width="20" height="10" fill="#55304C" />
<rect x="310" y="150" width="20" height="30" fill="#6E6AB6" />
<rect x="330" y="150" width="20" height="10" fill="#5F4870" />
<rect x="30" y="160" width="20" height="10" fill="#55304C" />
<rect x="50" y="160" width="20" height="30" fill="#6E6AB6" />
<rect x="110" y="160" width="20" height="10" fill="#55304C" />
<rect x="130" y="160" width="20" height="10" fill="#5F4870" />
<rect x="150" y="160" width="20" height="10" fill="#55304C" />
<rect x="170" y="160" width="20" height="20" fill="#CEC9C8" />
<rect x="210" y="160" width="20" height="20" fill="#CEC9C8" />
<rect x="230" y="160" width="20" height="10" fill="#55304C" />
<rect x="250" y="160" width="20" height="10" fill="#5F4870" />
<rect x="270" y="160" width="20" height="10" fill="#55304C" />
<rect x="330" y="160" width="20" height="30" fill="#6E6AB6" />
<rect x="350" y="160" width="20" height="10" fill="#5F4870" />
<rect x="20" y="170" width="10" height="10" fill="#55304C" />
<rect x="30" y="170" width="20" height="30" fill="#6E6AB6" />
<rect x="90" y="170" width="20" height="10" fill="#55304C" />
<rect x="110" y="170" width="20" height="10" fill="#5F4870" />
<rect x="130" y="170" width="20" height="10" fill="#55304C" />
<rect x="150" y="170" width="20" height="10" fill="#CEC9C8" />
<rect x="230" y="170" width="20" height="10" fill="#CEC9C8" />
<rect x="250" y="170" width="20" height="10" fill="#55304C" />
<rect x="270" y="170" width="20" height="10" fill="#5F4870" />
<rect x="290" y="170" width="20" height="10" fill="#55304C" />
<rect x="350" y="170" width="20" height="30" fill="#6E6AB6" />
<rect x="370" y="170" width="10" height="10" fill="#55304C" />
<rect x="10" y="180" width="10" height="40" fill="#55304C" />
<rect x="20" y="180" width="10" height="30" fill="#6E6AB6" />
<rect x="70" y="180" width="20" height="10" fill="#55304C" />
<rect x="90" y="180" width="20" height="10" fill="#5F4870" />
<rect x="110" y="180" width="20" height="10" fill="#55304C" />
<rect x="130" y="180" width="140" height="10" fill="#B7ABAB" />
<rect x="270" y="180" width="20" height="10" fill="#55304C" />
<rect x="290" y="180" width="20" height="10" fill="#5F4870" />
<rect x="310" y="180" width="20" height="10" fill="#55304C" />
<rect x="370" y="180" width="10" height="30" fill="#6E6AB6" />
<rect x="380" y="180" width="10" height="40" fill="#55304C" />
<rect x="50" y="190" width="20" height="10" fill="#55304C" />
<rect x="70" y="190" width="20" height="10" fill="#5F4870" />
<rect x="90" y="190" width="20" height="10" fill="#55304C" />
<rect x="110" y="190" width="10" height="40" fill="#B7ABAB" />
<rect x="120" y="190" width="110" height="30" fill="#CEC9C8" />
<rect x="230" y="190" width="10" height="30" fill="#B7ABAB" />
<rect x="240" y="190" width="50" height="30" fill="#CEC9C8" />
<rect x="290" y="190" width="20" height="10" fill="#55304C" />
<rect x="310" y="190" width="20" height="10" fill="#5F4870" />
<rect x="330" y="190" width="20" height="10" fill="#55304C" />
<rect x="30" y="200" width="20" height="10" fill="#55304C" />
<rect x="50" y="200" width="20" height="10" fill="#5F4870" />
<rect x="70" y="200" width="20" height="10" fill="#55304C" />
<rect x="90" y="200" width="20" height="20" fill="#CEC9C8" />
<rect x="290" y="200" width="20" height="20" fill="#CEC9C8" />
<rect x="310" y="200" width="20" height="10" fill="#55304C" />
<rect x="330" y="200" width="20" height="10" fill="#5F4870" />
<rect x="350" y="200" width="20" height="10" fill="#55304C" />
<rect x="20" y="210" width="10" height="20" fill="#55304C" />
<rect x="30" y="210" width="20" height="10" fill="#5F4870" />
<rect x="50" y="210" width="20" height="10" fill="#55304C" />
<rect x="70" y="210" width="20" height="10" fill="#CEC9C8" />
<rect x="310" y="210" width="20" height="10" fill="#CEC9C8" />
<rect x="330" y="210" width="20" height="10" fill="#55304C" />
<rect x="350" y="210" width="20" height="10" fill="#5F4870" />
<rect x="370" y="210" width="10" height="20" fill="#55304C" />
<rect x="30" y="220" width="20" height="10" fill="#55304C" />
<rect x="50" y="220" width="10" height="180" fill="#8B8383" />
<rect x="60" y="220" width="50" height="10" fill="#B7ABAB" />
<rect x="120" y="220" width="80" height="10" fill="#B7ABAB" />
<rect x="200" y="220" width="120" height="10" fill="#8B8383" />
<rect x="320" y="220" width="20" height="10" fill="#B7ABAB" />
<rect x="340" y="220" width="10" height="180" fill="#8B8383" />
<rect x="350" y="220" width="20" height="10" fill="#55304C" />
<rect x="30" y="230" width="10" height="170" fill="#8B8383" />
<rect x="40" y="230" width="10" height="150" fill="#CEC9C8" />
<rect x="60" y="230" width="30" height="10" fill="#CEC9C8" />
<rect x="90" y="230" width="80" height="10" fill="#8B8383" />
<rect x="170" y="230" width="20" height="10" fill="#CEC9C8" />
<rect x="190" y="230" width="10" height="170" fill="#8B8383" />
<rect x="200" y="230" width="10" height="10" fill="#B7ABAB" />
<rect x="210" y="230" width="100" height="10" fill="#CEC9C8" />
<rect x="310" y="230" width="10" height="10" fill="#B7ABAB" />
<rect x="320" y="230" width="10" height="170" fill="#8B8383" />
<rect x="330" y="230" width="10" height="30" fill="#CEC9C8" />
<rect x="350" y="230" width="10" height="150" fill="#CEC9C8" />
<rect x="360" y="230" width="10" height="170" fill="#8B8383" />
<rect x="60" y="240" width="20" height="20" fill="#CEC9C8" />
<rect x="80" y="240" width="10" height="90" fill="#8B8383" />
<rect x="90" y="240" width="30" height="30" fill="#5E5262" />
<rect x="120" y="240" width="20" height="80" fill="#8B8383" />
<rect x="140" y="240" width="30" height="30" fill="#5E5262" />
<rect x="170" y="240" width="10" height="90" fill="#8B8383" />
<rect x="180" y="240" width="10" height="20" fill="#CEC9C8" />
<rect x="200" y="240" width="10" height="150" fill="#CEC9C8" />
<rect x="210" y="240" width="10" height="10" fill="#B7ABAB" />
<rect x="220" y="240" width="80" height="10" fill="#8B8383" />
<rect x="300" y="240" width="10" height="10" fill="#B7ABAB" />
<rect x="310" y="240" width="10" height="150" fill="#CEC9C8" />
<rect x="210" y="250" width="10" height="150" fill="#8B8383" />
<rect x="220" y="250" width="80" height="80" fill="#5E5262" />
<rect x="300" y="250" width="10" height="150" fill="#8B8383" />
<rect x="60" y="260" width="20" height="10" fill="#B7ABAB" />
<rect x="180" y="260" width="10" height="10" fill="#B7ABAB" />
<rect x="330" y="260" width="10" height="10" fill="#B7ABAB" />
<rect x="60" y="270" width="20" height="30" fill="#CEC9C8" />
<rect x="90" y="270" width="30" height="10" fill="#B7ABAB" />
<rect x="140" y="270" width="30" height="10" fill="#B7ABAB" />
<rect x="180" y="270" width="10" height="30" fill="#CEC9C8" />
<rect x="330" y="270" width="10" height="30" fill="#CEC9C8" />
<rect x="90" y="280" width="30" height="10" fill="#8B8383" />
<rect x="140" y="280" width="30" height="10" fill="#8B8383" />
<rect x="90" y="290" width="30" height="20" fill="#5E5262" />
<rect x="140" y="290" width="30" height="20" fill="#5E5262" />
<rect x="60" y="300" width="20" height="10" fill="#B7ABAB" />
<rect x="180" y="300" width="10" height="10" fill="#B7ABAB" />
<rect x="330" y="300" width="10" height="10" fill="#B7ABAB" />
<rect x="60" y="310" width="20" height="30" fill="#CEC9C8" />
<rect x="90" y="310" width="10" height="10" fill="#5E5262" />
<rect x="100" y="310" width="20" height="10" fill="#8B8383" />
<rect x="140" y="310" width="20" height="10" fill="#8B8383" />
<rect x="160" y="310" width="10" height="10" fill="#5E5262" />
<rect x="180" y="310" width="10" height="30" fill="#CEC9C8" />
<rect x="330" y="310" width="10" height="30" fill="#CEC9C8" />
<rect x="90" y="320" width="10" height="20" fill="#8B8383" />
<rect x="100" y="320" width="60" height="10" fill="#B7ABAB" />
<rect x="160" y="320" width="10" height="20" fill="#8B8383" />
<rect x="80" y="330" width="10" height="10" fill="#CEC9C8" />
<rect x="100" y="330" width="60" height="10" fill="#8B8383" />
<rect x="170" y="330" width="10" height="10" fill="#CEC9C8" />
<rect x="220" y="330" width="10" height="10" fill="#8B8383" />
<rect x="230" y="330" width="10" height="10" fill="#5E5262" />
<rect x="240" y="330" width="10" height="10" fill="#8B8383" />
<rect x="250" y="330" width="10" height="10" fill="#5E5262" />
<rect x="260" y="330" width="10" height="10" fill="#8B8383" />
<rect x="270" y="330" width="10" height="10" fill="#5E5262" />
<rect x="280" y="330" width="10" height="10" fill="#8B8383" />
<rect x="290" y="330" width="10" height="10" fill="#5E5262" />
<rect x="60" y="340" width="130" height="10" fill="#B7ABAB" />
<rect x="220" y="340" width="10" height="10" fill="#5E5262" />
<rect x="230" y="340" width="10" height="10" fill="#8B8383" />
<rect x="240" y="340" width="10" height="10" fill="#5E5262" />
<rect x="250" y="340" width="10" height="10" fill="#8B8383" />
<rect x="260" y="340" width="10" height="10" fill="#5E5262" />
<rect x="270" y="340" width="10" height="10" fill="#8B8383" />
<rect x="280" y="340" width="10" height="10" fill="#5E5262" />
<rect x="290" y="340" width="10" height="10" fill="#8B8383" />
<rect x="330" y="340" width="10" height="10" fill="#B7ABAB" />
<rect x="60" y="350" width="80" height="30" fill="#CEC9C8" />
<rect x="140" y="350" width="10" height="30" fill="#B7ABAB" />
<rect x="150" y="350" width="40" height="30" fill="#CEC9C8" />
<rect x="220" y="350" width="10" height="10" fill="#8B8383" />
<rect x="230" y="350" width="10" height="10" fill="#5E5262" />
<rect x="240" y="350" width="10" height="40" fill="#8B8383" />
<rect x="250" y="350" width="10" height="10" fill="#5E5262" />
<rect x="260" y="350" width="10" height="40" fill="#8B8383" />
<rect x="270" y="350" width="10" height="10" fill="#5E5262" />
<rect x="280" y="350" width="10" height="10" fill="#8B8383" />
<rect x="290" y="350" width="10" height="10" fill="#5E5262" />
<rect x="330" y="350" width="10" height="30" fill="#CEC9C8" />
<rect x="220" y="360" width="10" height="10" fill="#5E5262" />
<rect x="230" y="360" width="10" height="30" fill="#8B8383" />
<rect x="250" y="360" width="10" height="30" fill="#8B8383" />
<rect x="270" y="360" width="10" height="30" fill="#8B8383" />
<rect x="280" y="360" width="10" height="10" fill="#5E5262" />
<rect x="290" y="360" width="10" height="30" fill="#8B8383" />
<rect x="220" y="370" width="10" height="20" fill="#8B8383" />
<rect x="280" y="370" width="10" height="20" fill="#8B8383" />
<rect x="40" y="380" width="10" height="10" fill="#B7ABAB" />
<rect x="60" y="380" width="130" height="10" fill="#8B8383" />
<rect x="330" y="380" width="10" height="10" fill="#8B8383" />
<rect x="350" y="380" width="10" height="10" fill="#B7ABAB" />
<rect x="40" y="390" width="10" height="10" fill="#8B8383" />
<rect x="200" y="390" width="10" height="10" fill="#8B8383" />
<rect x="310" y="390" width="10" height="10" fill="#8B8383" />
<rect x="350" y="390" width="10" height="10" fill="#8B8383" />
</svg>