<?xml version="1.0" encoding="UTF-8" ?>
<svg version="1.1" width="600" height="600" xmlns="http://www.w3.org/2000/svg" shape-rendering="crispEdges">
<rect x="390" y="20" width="140" height="10" fill="#7B501D" />
<rect x="380" y="30" width="20" height="10" fill="#7B501D" />
<rect x="400" y="30" width="120" height="30" fill="#CE772A" />
<rect x="520" y="30" width="20" height="10" fill="#7B501D" />
<rect x="380" y="40" width="10" height="360" fill="#7B501D" />
<rect x="390" y="40" width="10" height="500" fill="#CE772A" />
<rect x="520" y="40" width="10" height="480" fill="#CE772A" />
<rect x="530" y="40" width="10" height="490" fill="#7B501D" />
<rect x="400" y="60" width="30" height="10" fill="#CE772A" />
<rect x="430" y="60" width="30" height="10" fill="#4C4359" />
<rect x="460" y="60" width="60" height="40" fill="#CE772A" />
<rect x="400" y="70" width="40" height="10" fill="#4C4359" />
<rect x="440" y="70" width="10" height="60" fill="#6D6682" />
<rect x="450" y="70" width="10" height="130" fill="#4C4359" />
<rect x="400" y="80" width="10" height="10" fill="#4C4359" />
<rect x="410" y="80" width="10" height="10" fill="#6D6682" />
<rect x="420" y="80" width="10" height="90" fill="#4C4359" />
<rect x="430" y="80" width="10" height="110" fill="#6D6682" />
<rect x="400" y="90" width="10" height="10" fill="#6D6682" />
<rect x="410" y="90" width="10" height="10" fill="#4C4359" />
<rect x="400" y="100" width="10" height="10" fill="#4C4359" />
<rect x="410" y="100" width="10" height="10" fill="#6D6682" />
<rect x="460" y="100" width="10" height="360" fill="#CE772A" />
<rect x="470" y="100" width="50" height="10" fill="#FFF0DF" />
<rect x="400" y="110" width="10" height="10" fill="#6D6682" />
<rect x="410" y="110" width="10" height="10" fill="#4C4359" />
<rect x="470" y="110" width="10" height="30" fill="#FFF0DF" />
<rect x="480" y="110" width="10" height="20" fill="#6D6682" />
<rect x="490" y="110" width="30" height="10" fill="#FFF0DF" />
<rect x="400" y="120" width="10" height="10" fill="#4C4359" />
<rect x="410" y="120" width="10" height="10" fill="#6D6682" />
<rect x="490" y="120" width="10" height="20" fill="#FFF0DF" />
<rect x="500" y="120" width="10" height="10" fill="#6D6682" />
<rect x="510" y="120" width="10" height="20" fill="#FFF0DF" />
<rect x="400" y="130" width="10" height="10" fill="#6D6682" />
<rect x="410" y="130" width="10" height="10" fill="#4C4359" />
<rect x="440" y="130" width="10" height="20" fill="#FFFFFF" />
<rect x="480" y="130" width="10" height="10" fill="#FFF0DF" />
<rect x="500" y="130" width="10" height="10" fill="#FFF0DF" />
<rect x="400" y="140" width="10" height="10" fill="#4C4359" />
<rect x="410" y="140" width="10" height="10" fill="#6D6682" />
<rect x="470" y="140" width="50" height="330" fill="#CE772A" />
<rect x="400" y="150" width="10" height="10" fill="#6D6682" />
<rect x="410" y="150" width="10" height="10" fill="#4C4359" />
<rect x="440" y="150" width="10" height="40" fill="#6D6682" />
<rect x="400" y="160" width="10" height="40" fill="#4C4359" />
<rect x="410" y="160" width="10" height="10" fill="#6D6682" />
<rect x="410" y="170" width="10" height="10" fill="#4C4359" />
<rect x="420" y="170" width="10" height="20" fill="#6D6682" />
<rect x="410" y="180" width="10" height="10" fill="#6D6682" />
<rect x="410" y="190" width="40" height="10" fill="#4C4359" />
<rect x="400" y="200" width="60" height="10" fill="#CE772A" />
<rect x="400" y="210" width="60" height="10" fill="#4C4359" />
<rect x="400" y="220" width="30" height="20" fill="#4C4359" />
<rect x="430" y="220" width="20" height="10" fill="#2D2936" />
<rect x="450" y="220" width="10" height="10" fill="#4C4359" />
<rect x="430" y="230" width="20" height="10" fill="#4C4359" />
<rect x="450" y="230" width="10" height="10" fill="#9CE347" />
<rect x="400" y="240" width="60" height="20" fill="#CE772A" />
<rect x="400" y="260" width="20" height="10" fill="#CE772A" />
<rect x="420" y="260" width="20" height="10" fill="#FFFFFF" />
<rect x="440" y="260" width="20" height="10" fill="#CE772A" />
<rect x="400" y="270" width="10" height="270" fill="#CE772A" />
<rect x="410" y="270" width="10" height="20" fill="#FFFFFF" />
<rect x="420" y="270" width="20" height="20" fill="#CEC9C8" />
<rect x="440" y="270" width="10" height="20" fill="#FFFFFF" />
<rect x="450" y="270" width="10" height="180" fill="#CE772A" />
<rect x="410" y="290" width="10" height="10" fill="#CEC9C8" />
<rect x="420" y="290" width="20" height="10" fill="#FFFFFF" />
<rect x="440" y="290" width="10" height="10" fill="#CEC9C8" />
<rect x="410" y="300" width="10" height="30" fill="#CE772A" />
<rect x="420" y="300" width="20" height="10" fill="#CEC9C8" />
<rect x="440" y="300" width="10" height="30" fill="#CE772A" />
<rect x="420" y="310" width="20" height="10" fill="#CE772A" />
<rect x="420" y="320" width="20" height="10" fill="#FFFFFF" />
<rect x="410" y="330" width="10" height="20" fill="#FFFFFF" />
<rect x="420" y="330" width="20" height="20" fill="#CEC9C8" />
<rect x="440" y="330" width="10" height="20" fill="#FFFFFF" />
<rect x="410" y="350" width="10" height="10" fill="#CEC9C8" />
<rect x="420" y="350" width="20" height="10" fill="#FFFFFF" />
<rect x="440" y="350" width="10" height="10" fill="#CEC9C8" />
<rect x="410" y="360" width="10" height="30" fill="#CE772A" />
<rect x="420" y="360" width="20" height="10" fill="#CEC9C8" />
<rect x="440" y="360" width="10" height="30" fill="#CE772A" />
<rect x="420" y="370" width="20" height="10" fill="#CE772A" />
<rect x="420" y="380" width="20" height="10" fill="#FFFFFF" />
<rect x="410" y="390" width="10" height="20" fill="#FFFFFF" />
<rect x="420" y="390" width="20" height="20" fill="#CEC9C8" />
<rect x="440" y="390" width="10" height="20" fill="#FFFFFF" />
<rect x="130" y="400" width="20" height="30" fill="#FFFFFF" />
<rect x="370" y="400" width="10" height="10" fill="#7B501D" />
<rect x="380" y="400" width="10" height="140" fill="#CE772A" />
<rect x="60" y="410" width="60" height="10" fill="#7B501D" />
<rect x="120" y="410" width="10" height="10" fill="#FFFFFF" />
<rect x="150" y="410" width="10" height="10" fill="#FFFFFF" />
<rect x="160" y="410" width="210" height="10" fill="#7B501D" />
<rect x="370" y="410" width="10" height="30" fill="#CE772A" />
<rect x="410" y="410" width="10" height="10" fill="#CEC9C8" />
<rect x="420" y="410" width="20" height="10" fill="#FFFFFF" />
<rect x="440" y="410" width="10" height="10" fill="#CEC9C8" />
<rect x="50" y="420" width="20" height="10" fill="#7B501D" />
<rect x="70" y="420" width="30" height="10" fill="#CE772A" />
<rect x="100" y="420" width="20" height="10" fill="#FFFFFF" />
<rect x="120" y="420" width="10" height="30" fill="#AA9B8B" />
<rect x="150" y="420" width="10" height="20" fill="#AA9B8B" />
<rect x="160" y="420" width="20" height="10" fill="#FFFFFF" />
<rect x="180" y="420" width="190" height="10" fill="#CE772A" />
<rect x="410" y="420" width="10" height="120" fill="#CE772A" />
<rect x="420" y="420" width="20" height="10" fill="#CEC9C8" />
<rect x="440" y="420" width="10" height="40" fill="#CE772A" />
<rect x="50" y="430" width="10" height="100" fill="#7B501D" />
<rect x="60" y="430" width="30" height="10" fill="#CE772A" />
<rect x="90" y="430" width="10" height="10" fill="#FFFFFF" />
<rect x="100" y="430" width="20" height="20" fill="#AA9B8B" />
<rect x="130" y="430" width="20" height="20" fill="#AA9B8B" />
<rect x="160" y="430" width="20" height="10" fill="#AA9B8B" />
<rect x="180" y="430" width="10" height="10" fill="#FFFFFF" />
<rect x="190" y="430" width="40" height="10" fill="#CE772A" />
<rect x="230" y="430" width="20" height="10" fill="#FFFFFF" />
<rect x="250" y="430" width="40" height="10" fill="#CE772A" />
<rect x="290" y="430" width="20" height="10" fill="#FFFFFF" />
<rect x="310" y="430" width="40" height="10" fill="#CE772A" />
<rect x="350" y="430" width="20" height="10" fill="#FFFFFF" />
<rect x="420" y="430" width="20" height="40" fill="#CE772A" />
<rect x="60" y="440" width="20" height="80" fill="#CE772A" />
<rect x="80" y="440" width="10" height="40" fill="#FFFFFF" />
<rect x="90" y="440" width="10" height="30" fill="#AA9B8B" />
<rect x="150" y="440" width="20" height="20" fill="#F9DFC6" />
<rect x="170" y="440" width="20" height="10" fill="#AA9B8B" />
<rect x="190" y="440" width="10" height="40" fill="#FFFFFF" />
<rect x="200" y="440" width="20" height="100" fill="#CE772A" />
<rect x="220" y="440" width="10" height="20" fill="#FFFFFF" />
<rect x="230" y="440" width="20" height="20" fill="#CEC9C8" />
<rect x="250" y="440" width="10" height="20" fill="#FFFFFF" />
<rect x="260" y="440" width="20" height="100" fill="#CE772A" />
<rect x="280" y="440" width="10" height="20" fill="#FFFFFF" />
<rect x="290" y="440" width="20" height="20" fill="#CEC9C8" />
<rect x="310" y="440" width="10" height="20" fill="#FFFFFF" />
<rect x="320" y="440" width="20" height="100" fill="#CE772A" />
<rect x="340" y="440" width="10" height="20" fill="#FFFFFF" />
<rect x="350" y="440" width="20" height="20" fill="#CEC9C8" />
<rect x="370" y="440" width="10" height="20" fill="#FFFFFF" />
<rect x="100" y="450" width="10" height="10" fill="#AA9B8B" />
<rect x="110" y="450" width="20" height="20" fill="#F9DFC6" />
<rect x="130" y="450" width="10" height="10" fill="#CEC9C8" />
<rect x="140" y="450" width="10" height="20" fill="#F9DFC6" />
<rect x="170" y="450" width="10" height="20" fill="#F9DFC6" />
<rect x="180" y="450" width="10" height="20" fill="#AA9B8B" />
<rect x="450" y="450" width="10" height="20" fill="#FFF0DF" />
<rect x="100" y="460" width="10" height="20" fill="#F9DFC6" />
<rect x="130" y="460" width="10" height="20" fill="#F9DFC6" />
<rect x="150" y="460" width="20" height="10" fill="#CEC9C8" />
<rect x="220" y="460" width="10" height="10" fill="#CEC9C8" />
<rect x="230" y="460" width="20" height="10" fill="#FFFFFF" />
<rect x="250" y="460" width="10" height="10" fill="#CEC9C8" />
<rect x="280" y="460" width="10" height="10" fill="#CEC9C8" />
<rect x="290" y="460" width="20" height="10" fill="#FFFFFF" />
<rect x="310" y="460" width="10" height="10" fill="#CEC9C8" />
<rect x="340" y="460" width="10" height="10" fill="#CEC9C8" />
<rect x="350" y="460" width="20" height="10" fill="#FFFFFF" />
<rect x="370" y="460" width="10" height="10" fill="#CEC9C8" />
<rect x="440" y="460" width="10" height="20" fill="#FFF0DF" />
<rect x="460" y="460" width="10" height="30" fill="#FFF0DF" />
<rect x="90" y="470" width="10" height="10" fill="#CEC9C8" />
<rect x="110" y="470" width="20" height="10" fill="#CEC9C8" />
<rect x="140" y="470" width="10" height="20" fill="#CEC9C8" />
<rect x="150" y="470" width="20" height="10" fill="#F9DFC6" />
<rect x="170" y="470" width="20" height="10" fill="#CEC9C8" />
<rect x="220" y="470" width="10" height="70" fill="#CE772A" />
<rect x="230" y="470" width="20" height="10" fill="#CEC9C8" />
<rect x="250" y="470" width="10" height="70" fill="#CE772A" />
<rect x="280" y="470" width="10" height="70" fill="#CE772A" />
<rect x="290" y="470" width="20" height="10" fill="#CEC9C8" />
<rect x="310" y="470" width="10" height="70" fill="#CE772A" />
<rect x="340" y="470" width="10" height="70" fill="#CE772A" />
<rect x="350" y="470" width="20" height="10" fill="#CEC9C8" />
<rect x="370" y="470" width="10" height="70" fill="#CE772A" />
<rect x="420" y="470" width="10" height="10" fill="#CE772A" />
<rect x="430" y="470" width="10" height="30" fill="#FFF0DF" />
<rect x="450" y="470" width="10" height="10" fill="#6D6682" />
<rect x="470" y="470" width="10" height="10" fill="#FFF0DF" />
<rect x="480" y="470" width="40" height="60" fill="#CE772A" />
<rect x="80" y="480" width="10" height="60" fill="#CE772A" />
<rect x="90" y="480" width="20" height="10" fill="#FFFFFF" />
<rect x="110" y="480" width="20" height="10" fill="#F9DFC6" />
<rect x="130" y="480" width="10" height="10" fill="#CEC9C8" />
<rect x="150" y="480" width="20" height="10" fill="#CEC9C8" />
<rect x="170" y="480" width="20" height="10" fill="#FFFFFF" />
<rect x="190" y="480" width="10" height="60" fill="#CE772A" />
<rect x="230" y="480" width="20" height="60" fill="#CE772A" />
<rect x="290" y="480" width="20" height="60" fill="#CE772A" />
<rect x="350" y="480" width="20" height="60" fill="#CE772A" />
<rect x="420" y="480" width="10" height="10" fill="#FFF0DF" />
<rect x="440" y="480" width="10" height="10" fill="#6D6682" />
<rect x="450" y="480" width="10" height="20" fill="#FFF0DF" />
<rect x="470" y="480" width="10" height="60" fill="#CE772A" />
<rect x="90" y="490" width="10" height="50" fill="#CE772A" />
<rect x="100" y="490" width="10" height="10" fill="#CEC9C8" />
<rect x="110" y="490" width="60" height="10" fill="#FFFFFF" />
<rect x="170" y="490" width="10" height="10" fill="#CEC9C8" />
<rect x="180" y="490" width="10" height="50" fill="#CE772A" />
<rect x="420" y="490" width="10" height="50" fill="#CE772A" />
<rect x="440" y="490" width="10" height="20" fill="#FFF0DF" />
<rect x="460" y="490" width="10" height="50" fill="#CE772A" />
<rect x="100" y="500" width="20" height="40" fill="#CE772A" />
<rect x="120" y="500" width="40" height="10" fill="#CEC9C8" />
<rect x="160" y="500" width="20" height="40" fill="#CE772A" />
<rect x="430" y="500" width="10" height="40" fill="#CE772A" />
<rect x="450" y="500" width="10" height="40" fill="#CE772A" />
<rect x="120" y="510" width="40" height="30" fill="#CE772A" />
<rect x="440" y="510" width="10" height="30" fill="#CE772A" />
<rect x="60" y="520" width="10" height="20" fill="#7B501D" />
<rect x="70" y="520" width="10" height="10" fill="#CE772A" />
<rect x="520" y="520" width="10" height="20" fill="#7B501D" />
<rect x="50" y="530" width="10" height="10" fill="#51300A" />
<rect x="70" y="530" width="10" height="20" fill="#7B501D" />
<rect x="480" y="530" width="30" height="10" fill="#CE772A" />
<rect x="510" y="530" width="10" height="20" fill="#7B501D" />
<rect x="530" y="530" width="10" height="10" fill="#51300A" />
<rect x="60" y="540" width="10" height="10" fill="#51300A" />
<rect x="80" y="540" width="430" height="10" fill="#7B501D" />
<rect x="520" y="540" width="10" height="10" fill="#51300A" />
<rect x="60" y="550" width="10" height="20" fill="#7B501D" />
<rect x="70" y="550" width="450" height="10" fill="#51300A" />
<rect x="520" y="550" width="10" height="20" fill="#7B501D" />
<rect x="70" y="560" width="450" height="20" fill="#7B501D" />
<rect x="80" y="580" width="430" height="10" fill="#7B501D" />
</svg>