<?xml version="1.0" encoding="UTF-8" ?>
<svg version="1.1" width="400" height="400" xmlns="http://www.w3.org/2000/svg" shape-rendering="crispEdges">
<rect x="60" y="100" width="330" height="10" fill="#7B501D" />
<rect x="50" y="110" width="20" height="10" fill="#7B501D" />
<rect x="70" y="110" width="310" height="10" fill="#CE772A" />
<rect x="380" y="110" width="20" height="10" fill="#7B501D" />
<rect x="50" y="120" width="10" height="200" fill="#7B501D" />
<rect x="60" y="120" width="90" height="10" fill="#CE772A" />
<rect x="150" y="120" width="40" height="10" fill="#FFF0DF" />
<rect x="190" y="120" width="200" height="30" fill="#CE772A" />
<rect x="390" y="120" width="10" height="200" fill="#7B501D" />
<rect x="60" y="130" width="60" height="30" fill="#CE772A" />
<rect x="120" y="130" width="40" height="30" fill="#E4C9C4" />
<rect x="160" y="130" width="30" height="40" fill="#FFF0DF" />
<rect x="190" y="150" width="50" height="10" fill="#CE772A" />
<rect x="240" y="150" width="10" height="10" fill="#F9DFC6" />
<rect x="250" y="150" width="60" height="20" fill="#CE772A" />
<rect x="310" y="150" width="60" height="40" fill="#FFF0DF" />
<rect x="370" y="150" width="20" height="150" fill="#CE772A" />
<rect x="60" y="160" width="20" height="140" fill="#CE772A" />
<rect x="80" y="160" width="50" height="10" fill="#FFF0DF" />
<rect x="130" y="160" width="30" height="20" fill="#E4C9C4" />
<rect x="190" y="160" width="40" height="10" fill="#CE772A" />
<rect x="230" y="160" width="10" height="10" fill="#F9DFC6" />
<rect x="240" y="160" width="10" height="30" fill="#C03326" />
<rect x="80" y="170" width="10" height="30" fill="#FFF0DF" />
<rect x="90" y="170" width="10" height="20" fill="#6E6AB6" />
<rect x="100" y="170" width="10" height="10" fill="#FFF0DF" />
<rect x="110" y="170" width="10" height="10" fill="#6E6AB6" />
<rect x="120" y="170" width="10" height="30" fill="#FFF0DF" />
<rect x="160" y="170" width="60" height="40" fill="#CE772A" />
<rect x="220" y="170" width="10" height="20" fill="#FFFFFF" />
<rect x="230" y="170" width="10" height="20" fill="#F0D806" />
<rect x="250" y="170" width="10" height="20" fill="#FFFFFF" />
<rect x="260" y="170" width="20" height="140" fill="#CE772A" />
<rect x="280" y="170" width="30" height="40" fill="#E4C9C4" />
<rect x="100" y="180" width="10" height="10" fill="#6E6AB6" />
<rect x="110" y="180" width="10" height="20" fill="#FFF0DF" />
<rect x="130" y="180" width="30" height="40" fill="#CE772A" />
<rect x="90" y="190" width="20" height="10" fill="#FFF0DF" />
<rect x="220" y="190" width="10" height="10" fill="#CEC9C8" />
<rect x="230" y="190" width="20" height="1" fill="#9DC7D2" />
<rect x="250" y="190" width="10" height="10" fill="#CEC9C8" />
<rect x="310" y="190" width="20" height="20" fill="#E4C9C4" />
<rect x="330" y="190" width="40" height="120" fill="#CE772A" />
<rect x="230" y="191" width="20" height="9" fill="#FFFFFF" />
<rect x="80" y="200" width="50" height="110" fill="#CE772A" />
<rect x="220" y="200" width="10" height="110" fill="#CE772A" />
<rect x="230" y="200" width="20" height="10" fill="#CEC9C8" />
<rect x="250" y="200" width="10" height="110" fill="#CE772A" />
<rect x="160" y="210" width="10" height="10" fill="#F9DFC6" />
<rect x="170" y="210" width="50" height="10" fill="#CE772A" />
<rect x="230" y="210" width="20" height="100" fill="#CE772A" />
<rect x="280" y="210" width="50" height="10" fill="#CE772A" />
<rect x="130" y="220" width="20" height="10" fill="#CE772A" />
<rect x="150" y="220" width="10" height="10" fill="#6E6AB6" />
<rect x="160" y="220" width="10" height="10" fill="#CE772A" />
<rect x="170" y="220" width="10" height="10" fill="#F9DFC6" />
<rect x="180" y="220" width="40" height="10" fill="#CE772A" />
<rect x="280" y="220" width="20" height="20" fill="#CE772A" />
<rect x="300" y="220" width="10" height="10" fill="#F9DFC6" />
<rect x="310" y="220" width="20" height="10" fill="#CE772A" />
<rect x="130" y="230" width="10" height="10" fill="#CE772A" />
<rect x="140" y="230" width="10" height="10" fill="#6E6AB6" />
<rect x="150" y="230" width="10" height="10" fill="#CE772A" />
<rect x="160" y="230" width="10" height="10" fill="#F0D806" />
<rect x="170" y="230" width="10" height="10" fill="#CE772A" />
<rect x="180" y="230" width="10" height="10" fill="#F9DFC6" />
<rect x="190" y="230" width="30" height="80" fill="#CE772A" />
<rect x="300" y="230" width="10" height="30" fill="#064D9D" />
<rect x="310" y="230" width="10" height="10" fill="#FFFFFF" />
<rect x="320" y="230" width="10" height="10" fill="#CE772A" />
<rect x="130" y="240" width="10" height="10" fill="#6E6AB6" />
<rect x="140" y="240" width="10" height="10" fill="#CE772A" />
<rect x="150" y="240" width="10" height="10" fill="#F0D806" />
<rect x="160" y="240" width="10" height="10" fill="#CE772A" />
<rect x="170" y="240" width="10" height="10" fill="#C03326" />
<rect x="180" y="240" width="10" height="70" fill="#CE772A" />
<rect x="280" y="240" width="10" height="70" fill="#CE772A" />
<rect x="290" y="240" width="10" height="20" fill="#FFFFFF" />
<rect x="310" y="240" width="10" height="20" fill="#9DC7D2" />
<rect x="320" y="240" width="10" height="20" fill="#FFFFFF" />
<rect x="130" y="250" width="10" height="60" fill="#CE772A" />
<rect x="140" y="250" width="10" height="10" fill="#F0D806" />
<rect x="150" y="250" width="10" height="10" fill="#CE772A" />
<rect x="160" y="250" width="10" height="10" fill="#C03326" />
<rect x="170" y="250" width="10" height="60" fill="#CE772A" />
<rect x="140" y="260" width="10" height="50" fill="#CE772A" />
<rect x="150" y="260" width="10" height="10" fill="#C03326" />
<rect x="160" y="260" width="10" height="50" fill="#CE772A" />
<rect x="290" y="260" width="10" height="10" fill="#CEC9C8" />
<rect x="300" y="260" width="10" height="1" fill="#9DC7D2" />
<rect x="310" y="260" width="10" height="10" fill="#FFFFFF" />
<rect x="320" y="260" width="10" height="10" fill="#CEC9C8" />
<rect x="300" y="261" width="10" height="9" fill="#FFFFFF" />
<rect x="150" y="270" width="10" height="40" fill="#CE772A" />
<rect x="290" y="270" width="10" height="40" fill="#CE772A" />
<rect x="300" y="270" width="20" height="10" fill="#CEC9C8" />
<rect x="320" y="270" width="10" height="40" fill="#CE772A" />
<rect x="300" y="280" width="20" height="30" fill="#CE772A" />
<rect x="60" y="300" width="10" height="40" fill="#7B501D" />
<rect x="70" y="300" width="10" height="10" fill="#CE772A" />
<rect x="370" y="300" width="10" height="10" fill="#CE772A" />
<rect x="380" y="300" width="10" height="40" fill="#7B501D" />
<rect x="70" y="310" width="310" height="30" fill="#7B501D" />
<rect x="80" y="340" width="40" height="40" fill="#7B501D" />
<rect x="330" y="340" width="40" height="40" fill="#7B501D" />
<rect x="90" y="380" width="20" height="10" fill="#7B501D" />
<rect x="340" y="380" width="20" height="10" fill="#7B501D" />
</svg>