<?xml version="1.0" encoding="UTF-8" ?>
<svg version="1.1" width="400" height="400" xmlns="http://www.w3.org/2000/svg" shape-rendering="crispEdges">
<rect x="80" y="110" width="240" height="10" fill="#879D90" />
<rect x="80" y="120" width="10" height="140" fill="#879D90" />
<rect x="90" y="120" width="10" height="10" fill="#4F5859" />
<rect x="100" y="120" width="200" height="10" fill="#CED7C2" />
<rect x="300" y="120" width="10" height="10" fill="#4F5859" />
<rect x="310" y="120" width="10" height="140" fill="#879D90" />
<rect x="90" y="130" width="180" height="10" fill="#CED7C2" />
<rect x="270" y="130" width="20" height="20" fill="#879D90" />
<rect x="290" y="130" width="20" height="10" fill="#CED7C2" />
<rect x="90" y="140" width="10" height="100" fill="#CED7C2" />
<rect x="100" y="140" width="60" height="10" fill="#879D90" />
<rect x="160" y="140" width="20" height="20" fill="#CED7C2" />
<rect x="180" y="140" width="60" height="10" fill="#879D90" />
<rect x="240" y="140" width="10" height="30" fill="#CED7C2" />
<rect x="250" y="140" width="20" height="20" fill="#879D90" />
<rect x="290" y="140" width="10" height="20" fill="#879D90" />
<rect x="300" y="140" width="10" height="100" fill="#CED7C2" />
<rect x="100" y="150" width="60" height="10" fill="#CED7C2" />
<rect x="180" y="150" width="10" height="10" fill="#CED7C2" />
<rect x="190" y="150" width="50" height="50" fill="#879D90" />
<rect x="270" y="150" width="10" height="30" fill="#879D90" />
<rect x="280" y="150" width="10" height="10" fill="#CED7C2" />
<rect x="100" y="160" width="30" height="10" fill="#879D90" />
<rect x="130" y="160" width="10" height="20" fill="#CED7C2" />
<rect x="140" y="160" width="20" height="10" fill="#879D90" />
<rect x="160" y="160" width="10" height="90" fill="#CED7C2" />
<rect x="170" y="160" width="20" height="10" fill="#879D90" />
<rect x="250" y="160" width="10" height="20" fill="#CED7C2" />
<rect x="260" y="160" width="10" height="10" fill="#879D90" />
<rect x="280" y="160" width="10" height="40" fill="#879D90" />
<rect x="290" y="160" width="10" height="30" fill="#CED7C2" />
<rect x="100" y="170" width="30" height="10" fill="#CED7C2" />
<rect x="140" y="170" width="20" height="10" fill="#CED7C2" />
<rect x="170" y="170" width="10" height="80" fill="#CED7C2" />
<rect x="180" y="170" width="10" height="10" fill="#879D90" />
<rect x="240" y="170" width="10" height="70" fill="#879D90" />
<rect x="260" y="170" width="10" height="20" fill="#CED7C2" />
<rect x="100" y="180" width="60" height="10" fill="#879D90" />
<rect x="180" y="180" width="10" height="70" fill="#CED7C2" />
<rect x="250" y="180" width="10" height="50" fill="#879D90" />
<rect x="270" y="180" width="10" height="70" fill="#CED7C2" />
<rect x="100" y="190" width="60" height="10" fill="#CED7C2" />
<rect x="260" y="190" width="10" height="30" fill="#879D90" />
<rect x="290" y="190" width="10" height="20" fill="#879D90" />
<rect x="100" y="200" width="10" height="10" fill="#879D90" />
<rect x="110" y="200" width="10" height="30" fill="#CED7C2" />
<rect x="120" y="200" width="20" height="10" fill="#879D90" />
<rect x="140" y="200" width="10" height="30" fill="#CED7C2" />
<rect x="150" y="200" width="10" height="10" fill="#879D90" />
<rect x="190" y="200" width="20" height="10" fill="#CED7C2" />
<rect x="210" y="200" width="30" height="20" fill="#879D90" />
<rect x="280" y="200" width="10" height="50" fill="#CED7C2" />
<rect x="100" y="210" width="10" height="20" fill="#CED7C2" />
<rect x="120" y="210" width="20" height="20" fill="#CED7C2" />
<rect x="150" y="210" width="10" height="40" fill="#CED7C2" />
<rect x="190" y="210" width="10" height="40" fill="#CED7C2" />
<rect x="200" y="210" width="10" height="10" fill="#879D90" />
<rect x="290" y="210" width="10" height="40" fill="#CED7C2" />
<rect x="200" y="220" width="20" height="30" fill="#CED7C2" />
<rect x="220" y="220" width="20" height="10" fill="#879D90" />
<rect x="260" y="220" width="10" height="30" fill="#CED7C2" />
<rect x="100" y="230" width="50" height="10" fill="#879D90" />
<rect x="220" y="230" width="10" height="20" fill="#CED7C2" />
<rect x="230" y="230" width="10" height="10" fill="#879D90" />
<rect x="250" y="230" width="10" height="20" fill="#CED7C2" />
<rect x="90" y="240" width="10" height="10" fill="#4F5859" />
<rect x="100" y="240" width="50" height="10" fill="#CED7C2" />
<rect x="230" y="240" width="20" height="10" fill="#CED7C2" />
<rect x="300" y="240" width="10" height="10" fill="#4F5859" />
<rect x="90" y="250" width="220" height="10" fill="#879D90" />
</svg>