<?xml version="1.0" encoding="UTF-8" ?>
<svg version="1.1" width="400" height="400" xmlns="http://www.w3.org/2000/svg" shape-rendering="crispEdges">
<rect x="190" y="40" width="20" height="10" fill="#4F5859" />
<rect x="180" y="50" width="10" height="10" fill="#4F5859" />
<rect x="210" y="50" width="10" height="10" fill="#4F5859" />
<rect x="170" y="60" width="10" height="10" fill="#4F5859" />
<rect x="220" y="60" width="10" height="10" fill="#4F5859" />
<rect x="160" y="70" width="10" height="10" fill="#4F5859" />
<rect x="230" y="70" width="10" height="10" fill="#4F5859" />
<rect x="150" y="80" width="10" height="10" fill="#4F5859" />
<rect x="240" y="80" width="10" height="10" fill="#4F5859" />
<rect x="140" y="90" width="10" height="20" fill="#4F5859" />
<rect x="250" y="90" width="10" height="20" fill="#4F5859" />
<rect x="70" y="100" width="70" height="10" fill="#4F5859" />
<rect x="150" y="100" width="100" height="10" fill="#4F5859" />
<rect x="260" y="100" width="70" height="10" fill="#4F5859" />
<rect x="70" y="110" width="10" height="160" fill="#4F5859" />
<rect x="80" y="110" width="240" height="10" fill="#CE772A" />
<rect x="320" y="110" width="10" height="160" fill="#4F5859" />
<rect x="80" y="120" width="10" height="140" fill="#CE772A" />
<rect x="90" y="120" width="40" height="50" fill="#DFF8FF" />
<rect x="130" y="120" width="190" height="10" fill="#CE772A" />
<rect x="130" y="130" width="20" height="60" fill="#CE772A" />
<rect x="150" y="130" width="20" height="20" fill="#F0D806" />
<rect x="170" y="130" width="10" height="10" fill="#CE772A" />
<rect x="180" y="130" width="60" height="20" fill="#FFF0DF" />
<rect x="240" y="130" width="20" height="90" fill="#CE772A" />
<rect x="260" y="130" width="40" height="40" fill="#FFF0DF" />
<rect x="300" y="130" width="20" height="40" fill="#CE772A" />
<rect x="170" y="140" width="10" height="20" fill="#E4C9C4" />
<rect x="150" y="150" width="10" height="110" fill="#CE772A" />
<rect x="160" y="150" width="10" height="10" fill="#E4C9C4" />
<rect x="180" y="150" width="40" height="10" fill="#E4C9C4" />
<rect x="220" y="150" width="20" height="70" fill="#CE772A" />
<rect x="160" y="160" width="60" height="20" fill="#CE772A" />
<rect x="90" y="170" width="40" height="20" fill="#CE772A" />
<rect x="260" y="170" width="10" height="10" fill="#FFF0DF" />
<rect x="270" y="170" width="40" height="20" fill="#DFF8FF" />
<rect x="310" y="170" width="10" height="90" fill="#CE772A" />
<rect x="160" y="180" width="60" height="20" fill="#FFF0DF" />
<rect x="260" y="180" width="10" height="10" fill="#CE772A" />
<rect x="90" y="190" width="10" height="20" fill="#CE772A" />
<rect x="100" y="190" width="40" height="20" fill="#FFF0DF" />
<rect x="140" y="190" width="10" height="70" fill="#CE772A" />
<rect x="260" y="190" width="20" height="20" fill="#F0D806" />
<rect x="280" y="190" width="30" height="20" fill="#DFF8FF" />
<rect x="160" y="200" width="60" height="20" fill="#CE772A" />
<rect x="90" y="210" width="20" height="20" fill="#F0D806" />
<rect x="110" y="210" width="30" height="30" fill="#FFF0DF" />
<rect x="260" y="210" width="10" height="50" fill="#CE772A" />
<rect x="270" y="210" width="20" height="10" fill="#DFF8FF" />
<rect x="290" y="210" width="20" height="20" fill="#F0D806" />
<rect x="160" y="220" width="30" height="10" fill="#CE772A" />
<rect x="190" y="220" width="60" height="10" fill="#FFF0DF" />
<rect x="250" y="220" width="10" height="40" fill="#CE772A" />
<rect x="270" y="220" width="20" height="40" fill="#CE772A" />
<rect x="90" y="230" width="10" height="30" fill="#CE772A" />
<rect x="100" y="230" width="10" height="10" fill="#FFF0DF" />
<rect x="160" y="230" width="20" height="30" fill="#CE772A" />
<rect x="180" y="230" width="20" height="20" fill="#F0D806" />
<rect x="200" y="230" width="50" height="10" fill="#FFF0DF" />
<rect x="290" y="230" width="20" height="30" fill="#CE772A" />
<rect x="100" y="240" width="40" height="20" fill="#CE772A" />
<rect x="200" y="240" width="50" height="20" fill="#CE772A" />
<rect x="180" y="250" width="20" height="10" fill="#CE772A" />
<rect x="80" y="260" width="240" height="10" fill="#4F5859" />
</svg>