<?xml version="1.0" encoding="UTF-8" ?>
<svg version="1.1" width="600" height="600" xmlns="http://www.w3.org/2000/svg" shape-rendering="crispEdges">
<rect x="150" y="20" width="190" height="10" fill="#6D6682" />
<rect x="140" y="30" width="10" height="10" fill="#6D6682" />
<rect x="150" y="30" width="190" height="10" fill="#FFFFFF" />
<rect x="340" y="30" width="10" height="10" fill="#6D6682" />
<rect x="130" y="40" width="10" height="10" fill="#6D6682" />
<rect x="140" y="40" width="10" height="10" fill="#FFFFFF" />
<rect x="150" y="40" width="160" height="20" fill="#CEC9C8" />
<rect x="310" y="40" width="20" height="10" fill="#FFFFFF" />
<rect x="330" y="40" width="10" height="20" fill="#CEC9C8" />
<rect x="340" y="40" width="10" height="10" fill="#FFFFFF" />
<rect x="350" y="40" width="10" height="10" fill="#6D6682" />
<rect x="120" y="50" width="10" height="90" fill="#6D6682" />
<rect x="130" y="50" width="10" height="20" fill="#FFFFFF" />
<rect x="140" y="50" width="10" height="10" fill="#CEC9C8" />
<rect x="310" y="50" width="20" height="10" fill="#CEC9C8" />
<rect x="340" y="50" width="10" height="10" fill="#CEC9C8" />
<rect x="350" y="50" width="10" height="20" fill="#FFFFFF" />
<rect x="360" y="50" width="10" height="90" fill="#6D6682" />
<rect x="140" y="60" width="210" height="10" fill="#FFFFFF" />
<rect x="130" y="70" width="230" height="10" fill="#6D6682" />
<rect x="130" y="80" width="230" height="10" fill="#7D98CE" />
<rect x="130" y="90" width="30" height="40" fill="#7D98CE" />
<rect x="160" y="90" width="10" height="40" fill="#FFFFFF" />
<rect x="170" y="90" width="10" height="10" fill="#7D98CE" />
<rect x="180" y="90" width="10" height="40" fill="#FFFFFF" />
<rect x="190" y="90" width="10" height="50" fill="#7D98CE" />
<rect x="200" y="90" width="10" height="10" fill="#FFFFFF" />
<rect x="210" y="90" width="10" height="50" fill="#7D98CE" />
<rect x="220" y="90" width="30" height="10" fill="#FFFFFF" />
<rect x="250" y="90" width="10" height="50" fill="#7D98CE" />
<rect x="260" y="90" width="10" height="40" fill="#FFFFFF" />
<rect x="270" y="90" width="30" height="10" fill="#7D98CE" />
<rect x="300" y="90" width="20" height="10" fill="#FFFFFF" />
<rect x="320" y="90" width="40" height="10" fill="#7D98CE" />
<rect x="170" y="100" width="10" height="10" fill="#FFFFFF" />
<rect x="200" y="100" width="10" height="10" fill="#7D98CE" />
<rect x="220" y="100" width="20" height="10" fill="#FFFFFF" />
<rect x="240" y="100" width="10" height="20" fill="#7D98CE" />
<rect x="270" y="100" width="20" height="20" fill="#7D98CE" />
<rect x="290" y="100" width="10" height="20" fill="#FFFFFF" />
<rect x="300" y="100" width="20" height="20" fill="#7D98CE" />
<rect x="320" y="100" width="10" height="20" fill="#FFFFFF" />
<rect x="330" y="100" width="30" height="30" fill="#7D98CE" />
<rect x="170" y="110" width="10" height="30" fill="#7D98CE" />
<rect x="200" y="110" width="10" height="20" fill="#FFFFFF" />
<rect x="220" y="110" width="10" height="20" fill="#FFFFFF" />
<rect x="230" y="110" width="10" height="10" fill="#7D98CE" />
<rect x="230" y="120" width="20" height="10" fill="#FFFFFF" />
<rect x="270" y="120" width="10" height="10" fill="#FFFFFF" />
<rect x="280" y="120" width="20" height="20" fill="#7D98CE" />
<rect x="300" y="120" width="20" height="10" fill="#FFFFFF" />
<rect x="320" y="120" width="10" height="20" fill="#7D98CE" />
<rect x="130" y="130" width="10" height="20" fill="#6D6682" />
<rect x="140" y="130" width="30" height="10" fill="#7D98CE" />
<rect x="180" y="130" width="10" height="10" fill="#7D98CE" />
<rect x="200" y="130" width="10" height="10" fill="#7D98CE" />
<rect x="220" y="130" width="30" height="10" fill="#7D98CE" />
<rect x="260" y="130" width="20" height="10" fill="#7D98CE" />
<rect x="300" y="130" width="20" height="10" fill="#7D98CE" />
<rect x="330" y="130" width="20" height="10" fill="#7D98CE" />
<rect x="350" y="130" width="10" height="20" fill="#6D6682" />
<rect x="140" y="140" width="210" height="10" fill="#6D6682" />
</svg>