<?xml version="1.0" encoding="UTF-8" ?>
<svg version="1.1" width="400" height="400" xmlns="http://www.w3.org/2000/svg" shape-rendering="crispEdges">
<rect x="110" y="90" width="20" height="10" fill="#CE772A" />
<rect x="160" y="90" width="20" height="10" fill="#CE772A" />
<rect x="110" y="100" width="20" height="70" fill="#7B501D" />
<rect x="160" y="100" width="20" height="70" fill="#7B501D" />
<rect x="130" y="110" width="30" height="10" fill="#CE772A" />
<rect x="130" y="120" width="30" height="20" fill="#7B501D" />
<rect x="130" y="150" width="30" height="10" fill="#7B501D" />
<rect x="130" y="160" width="30" height="50" fill="#CE772A" />
<rect x="110" y="170" width="10" height="90" fill="#7B501D" />
<rect x="120" y="170" width="10" height="30" fill="#CE772A" />
<rect x="160" y="170" width="10" height="30" fill="#CE772A" />
<rect x="170" y="170" width="10" height="90" fill="#7B501D" />
<rect x="120" y="200" width="10" height="60" fill="#7B501D" />
<rect x="160" y="200" width="10" height="60" fill="#7B501D" />
<rect x="130" y="210" width="30" height="10" fill="#7B501D" />
</svg>