<?xml version="1.0" encoding="UTF-8" ?>
<svg version="1.1" width="360" height="360" xmlns="http://www.w3.org/2000/svg" shape-rendering="crispEdges">
<rect x="160" y="40" width="10" height="10" fill="#7C501D" />
<rect x="170" y="50" width="70" height="40" fill="#7C501D" />
<rect x="250" y="50" width="10" height="10" fill="#7C501D" />
<rect x="160" y="60" width="10" height="30" fill="#7C501D" />
<rect x="240" y="60" width="10" height="110" fill="#7C501D" />
<rect x="140" y="70" width="20" height="20" fill="#7C501D" />
<rect x="250" y="70" width="10" height="100" fill="#7C501D" />
<rect x="270" y="80" width="10" height="10" fill="#7C501D" />
<rect x="130" y="90" width="10" height="10" fill="#7C501D" />
<rect x="150" y="90" width="10" height="10" fill="#7C501D" />
<rect x="160" y="90" width="30" height="10" fill="#F9DFC6" />
<rect x="190" y="90" width="50" height="10" fill="#7C501D" />
<rect x="260" y="90" width="10" height="100" fill="#7C501D" />
<rect x="140" y="100" width="10" height="40" fill="#7C501D" />
<rect x="150" y="100" width="20" height="40" fill="#F9DFC6" />
<rect x="170" y="100" width="20" height="10" fill="#3C2E48" />
<rect x="190" y="100" width="20" height="60" fill="#F9DFC6" />
<rect x="210" y="100" width="30" height="10" fill="#7C501D" />
<rect x="170" y="110" width="10" height="10" fill="#3C2E48" />
<rect x="180" y="110" width="10" height="40" fill="#F9DFC6" />
<rect x="210" y="110" width="10" height="20" fill="#F9DFC6" />
<rect x="220" y="110" width="20" height="50" fill="#7C501D" />
<rect x="170" y="120" width="10" height="30" fill="#F9DFC6" />
<rect x="210" y="130" width="10" height="70" fill="#7C501D" />
<rect x="150" y="140" width="10" height="10" fill="#7C501D" />
<rect x="160" y="140" width="10" height="10" fill="#F9DFC6" />
<rect x="160" y="150" width="30" height="10" fill="#7C501D" />
<rect x="170" y="160" width="40" height="10" fill="#7C501D" />
<rect x="220" y="160" width="10" height="100" fill="#82C9A8" />
<rect x="230" y="160" width="10" height="20" fill="#7C501D" />
<rect x="160" y="170" width="10" height="40" fill="#7C501D" />
<rect x="170" y="170" width="10" height="30" fill="#82C9A8" />
<rect x="180" y="170" width="10" height="30" fill="#7C501D" />
<rect x="190" y="170" width="20" height="30" fill="#82C9A8" />
<rect x="240" y="170" width="20" height="10" fill="#7B501D" />
<rect x="230" y="180" width="10" height="60" fill="#82C9A8" />
<rect x="240" y="180" width="10" height="60" fill="#7C501D" />
<rect x="250" y="180" width="10" height="150" fill="#7B501D" />
<rect x="150" y="200" width="10" height="10" fill="#7C501D" />
<rect x="170" y="200" width="10" height="10" fill="#7C501D" />
<rect x="180" y="200" width="10" height="20" fill="#EDEDED" />
<rect x="190" y="200" width="10" height="10" fill="#82C9A8" />
<rect x="200" y="200" width="10" height="20" fill="#7C501D" />
<rect x="210" y="200" width="10" height="60" fill="#82C9A8" />
<rect x="120" y="210" width="10" height="20" fill="#7C501D" />
<rect x="140" y="210" width="10" height="20" fill="#7C501D" />
<rect x="150" y="210" width="30" height="10" fill="#EDEDED" />
<rect x="190" y="210" width="10" height="10" fill="#EDEDED" />
<rect x="110" y="220" width="10" height="10" fill="#7C501D" />
<rect x="130" y="220" width="10" height="10" fill="#7C501D" />
<rect x="150" y="220" width="20" height="10" fill="#EDEDED" />
<rect x="170" y="220" width="30" height="10" fill="#7C501D" />
<rect x="200" y="220" width="10" height="40" fill="#82C9A8" />
<rect x="150" y="230" width="20" height="10" fill="#7C501D" />
<rect x="170" y="230" width="30" height="30" fill="#82C9A8" />
<rect x="160" y="240" width="10" height="40" fill="#7C501D" />
<rect x="230" y="240" width="10" height="20" fill="#7C501D" />
<rect x="240" y="240" width="10" height="90" fill="#7B501D" />
<rect x="130" y="260" width="30" height="20" fill="#7C501D" />
<rect x="170" y="260" width="60" height="20" fill="#7C501D" />
<rect x="230" y="260" width="10" height="20" fill="#CE772A" />
<rect x="130" y="280" width="20" height="40" fill="#7C501D" />
<rect x="190" y="280" width="50" height="10" fill="#7B501D" />
<rect x="190" y="290" width="20" height="40" fill="#7B501D" />
<rect x="120" y="300" width="10" height="20" fill="#7C501D" />
<rect x="110" y="310" width="10" height="10" fill="#7C501D" />
</svg>