<?xml version="1.0" encoding="UTF-8" ?>
<svg version="1.1" width="360" height="360" xmlns="http://www.w3.org/2000/svg" shape-rendering="crispEdges">
<rect x="220" y="40" width="10" height="20" fill="#7C501D" />
<rect x="280" y="40" width="10" height="10" fill="#7C501D" />
<rect x="230" y="50" width="50" height="10" fill="#7C501D" />
<rect x="190" y="60" width="10" height="10" fill="#7C501D" />
<rect x="210" y="60" width="10" height="10" fill="#7C501D" />
<rect x="220" y="60" width="60" height="20" fill="#3C2E48" />
<rect x="280" y="60" width="10" height="10" fill="#7C501D" />
<rect x="200" y="70" width="10" height="10" fill="#7C501D" />
<rect x="210" y="70" width="10" height="60" fill="#3C2E48" />
<rect x="280" y="70" width="10" height="10" fill="#3C2E48" />
<rect x="290" y="70" width="20" height="10" fill="#7C501D" />
<rect x="190" y="80" width="10" height="10" fill="#7C501D" />
<rect x="200" y="80" width="10" height="40" fill="#3C2E48" />
<rect x="220" y="80" width="40" height="10" fill="#3C2E48" />
<rect x="260" y="80" width="30" height="10" fill="#7C501D" />
<rect x="290" y="80" width="10" height="10" fill="#3C2E48" />
<rect x="300" y="80" width="20" height="10" fill="#7C501D" />
<rect x="180" y="90" width="10" height="10" fill="#7C501D" />
<rect x="190" y="90" width="10" height="10" fill="#3C2E48" />
<rect x="220" y="90" width="20" height="10" fill="#3C2E48" />
<rect x="240" y="90" width="20" height="10" fill="#7C501D" />
<rect x="260" y="90" width="30" height="10" fill="#E0C1A1" />
<rect x="290" y="90" width="10" height="10" fill="#7C501D" />
<rect x="190" y="100" width="10" height="20" fill="#7C501D" />
<rect x="220" y="100" width="10" height="10" fill="#3C2E48" />
<rect x="230" y="100" width="10" height="10" fill="#7C501D" />
<rect x="240" y="100" width="20" height="70" fill="#E0C1A1" />
<rect x="260" y="100" width="20" height="10" fill="#3C2E48" />
<rect x="280" y="100" width="20" height="40" fill="#E0C1A1" />
<rect x="300" y="100" width="10" height="40" fill="#7C501D" />
<rect x="220" y="110" width="10" height="20" fill="#7C501D" />
<rect x="230" y="110" width="10" height="20" fill="#E0C1A1" />
<rect x="260" y="110" width="10" height="40" fill="#E0C1A1" />
<rect x="270" y="110" width="10" height="10" fill="#7C501D" />
<rect x="180" y="120" width="10" height="10" fill="#7C501D" />
<rect x="200" y="120" width="10" height="10" fill="#7C501D" />
<rect x="270" y="120" width="10" height="30" fill="#E0C1A1" />
<rect x="210" y="130" width="10" height="10" fill="#7C501D" />
<rect x="220" y="130" width="10" height="10" fill="#3C2E48" />
<rect x="230" y="130" width="10" height="90" fill="#7C501D" />
<rect x="200" y="140" width="10" height="10" fill="#7C501D" />
<rect x="220" y="140" width="10" height="10" fill="#7C501D" />
<rect x="280" y="140" width="10" height="10" fill="#E0C1A1" />
<rect x="290" y="140" width="10" height="10" fill="#7C501D" />
<rect x="210" y="150" width="10" height="10" fill="#7C501D" />
<rect x="260" y="150" width="30" height="10" fill="#7C501D" />
<rect x="220" y="160" width="10" height="10" fill="#7C501D" />
<rect x="260" y="160" width="10" height="50" fill="#7C501D" />
<rect x="210" y="170" width="10" height="20" fill="#7C501D" />
<rect x="220" y="170" width="10" height="90" fill="#6E6AB6" />
<rect x="240" y="170" width="20" height="10" fill="#7C501D" />
<rect x="270" y="170" width="10" height="10" fill="#7C501D" />
<rect x="240" y="180" width="20" height="40" fill="#6E6AB6" />
<rect x="270" y="180" width="10" height="30" fill="#6E6AB6" />
<rect x="280" y="180" width="10" height="80" fill="#7C501D" />
<rect x="200" y="190" width="10" height="50" fill="#7C501D" />
<rect x="210" y="190" width="10" height="50" fill="#6E6AB6" />
<rect x="260" y="210" width="10" height="20" fill="#6E6AB6" />
<rect x="270" y="210" width="10" height="10" fill="#7C501D" />
<rect x="300" y="210" width="10" height="20" fill="#7C501D" />
<rect x="230" y="220" width="10" height="40" fill="#6E6AB6" />
<rect x="240" y="220" width="10" height="10" fill="#7C501D" />
<rect x="250" y="220" width="10" height="10" fill="#6E6AB6" />
<rect x="270" y="220" width="10" height="10" fill="#6E6AB6" />
<rect x="290" y="220" width="10" height="10" fill="#7C501D" />
<rect x="310" y="220" width="10" height="10" fill="#7C501D" />
<rect x="240" y="230" width="10" height="30" fill="#6E6AB6" />
<rect x="250" y="230" width="30" height="10" fill="#7C501D" />
<rect x="210" y="240" width="10" height="20" fill="#7C501D" />
<rect x="250" y="240" width="30" height="20" fill="#6E6AB6" />
<rect x="220" y="260" width="60" height="10" fill="#7C501D" />
<rect x="230" y="270" width="20" height="70" fill="#7C501D" />
<rect x="260" y="270" width="20" height="70" fill="#7C501D" />
<rect x="250" y="320" width="10" height="20" fill="#7C501D" />
<rect x="280" y="320" width="10" height="20" fill="#7C501D" />
<rect x="290" y="330" width="10" height="10" fill="#7C501D" />
</svg>