<?xml version="1.0" encoding="UTF-8" ?>
<svg version="1.1" width="360" height="360" xmlns="http://www.w3.org/2000/svg" shape-rendering="crispEdges">
<rect x="150" y="40" width="60" height="10" fill="#7C501D" />
<rect x="130" y="50" width="20" height="10" fill="#7C501D" />
<rect x="150" y="50" width="60" height="20" fill="#C6B527" />
<rect x="210" y="50" width="20" height="10" fill="#7C501D" />
<rect x="120" y="60" width="10" height="10" fill="#7C501D" />
<rect x="130" y="60" width="20" height="30" fill="#C6B527" />
<rect x="210" y="60" width="20" height="30" fill="#C6B527" />
<rect x="230" y="60" width="10" height="10" fill="#7C501D" />
<rect x="110" y="70" width="10" height="90" fill="#7C501D" />
<rect x="120" y="70" width="10" height="80" fill="#C6B527" />
<rect x="150" y="70" width="10" height="10" fill="#C6B527" />
<rect x="160" y="70" width="20" height="10" fill="#7C501D" />
<rect x="180" y="70" width="10" height="10" fill="#C6B527" />
<rect x="190" y="70" width="10" height="10" fill="#7C501D" />
<rect x="200" y="70" width="10" height="10" fill="#C6B527" />
<rect x="230" y="70" width="10" height="30" fill="#C6B527" />
<rect x="240" y="70" width="10" height="10" fill="#7C501D" />
<rect x="150" y="80" width="10" height="10" fill="#7C501D" />
<rect x="160" y="80" width="20" height="20" fill="#F9DFC6" />
<rect x="180" y="80" width="10" height="10" fill="#7C501D" />
<rect x="190" y="80" width="10" height="70" fill="#F9DFC6" />
<rect x="200" y="80" width="10" height="10" fill="#7C501D" />
<rect x="240" y="80" width="10" height="70" fill="#C6B527" />
<rect x="250" y="80" width="10" height="80" fill="#7C501D" />
<rect x="130" y="90" width="10" height="10" fill="#C6B527" />
<rect x="140" y="90" width="10" height="10" fill="#7C501D" />
<rect x="150" y="90" width="10" height="10" fill="#F9DFC6" />
<rect x="180" y="90" width="10" height="60" fill="#F9DFC6" />
<rect x="200" y="90" width="10" height="10" fill="#F9DFC6" />
<rect x="210" y="90" width="20" height="10" fill="#7C501D" />
<rect x="130" y="100" width="10" height="30" fill="#7C501D" />
<rect x="140" y="100" width="10" height="30" fill="#F9DFC6" />
<rect x="150" y="100" width="20" height="10" fill="#3C2E48" />
<rect x="170" y="100" width="10" height="50" fill="#F9DFC6" />
<rect x="200" y="100" width="20" height="10" fill="#3C2E48" />
<rect x="220" y="100" width="10" height="30" fill="#F9DFC6" />
<rect x="230" y="100" width="10" height="30" fill="#7C501D" />
<rect x="150" y="110" width="10" height="10" fill="#F9DFC6" />
<rect x="160" y="110" width="10" height="10" fill="#7C501D" />
<rect x="200" y="110" width="10" height="10" fill="#7C501D" />
<rect x="210" y="110" width="10" height="10" fill="#F9DFC6" />
<rect x="150" y="120" width="10" height="10" fill="#CE9FAB" />
<rect x="160" y="120" width="10" height="30" fill="#F9DFC6" />
<rect x="200" y="120" width="10" height="30" fill="#F9DFC6" />
<rect x="210" y="120" width="10" height="10" fill="#CE9FAB" />
<rect x="130" y="130" width="10" height="10" fill="#C6B527" />
<rect x="140" y="130" width="10" height="30" fill="#7C501D" />
<rect x="150" y="130" width="10" height="10" fill="#F9DFC6" />
<rect x="210" y="130" width="10" height="10" fill="#F9DFC6" />
<rect x="220" y="130" width="10" height="30" fill="#7C501D" />
<rect x="230" y="130" width="10" height="10" fill="#C6B527" />
<rect x="130" y="140" width="10" height="10" fill="#7C501D" />
<rect x="150" y="140" width="10" height="20" fill="#7C501D" />
<rect x="210" y="140" width="10" height="20" fill="#7C501D" />
<rect x="230" y="140" width="10" height="10" fill="#7C501D" />
<rect x="120" y="150" width="10" height="30" fill="#7C501D" />
<rect x="160" y="150" width="50" height="10" fill="#7C501D" />
<rect x="240" y="150" width="10" height="30" fill="#7C501D" />
<rect x="131" y="160" width="9" height="10" fill="#7C501D" />
<rect x="140" y="160" width="40" height="20" fill="#C9828E" />
<rect x="180" y="160" width="10" height="10" fill="#F9DFC6" />
<rect x="190" y="160" width="40" height="20" fill="#C9828E" />
<rect x="230" y="160" width="10" height="10" fill="#7C501D" />
<rect x="130" y="161" width="1" height="10" fill="#7C501D" />
<rect x="131" y="170" width="9" height="60" fill="#C9828E" />
<rect x="180" y="170" width="10" height="40" fill="#C9828E" />
<rect x="230" y="170" width="10" height="60" fill="#C9828E" />
<rect x="130" y="171" width="1" height="59" fill="#C9828E" />
<rect x="110" y="180" width="10" height="50" fill="#7C501D" />
<rect x="120" y="180" width="10" height="50" fill="#C9828E" />
<rect x="140" y="180" width="10" height="40" fill="#C9828E" />
<rect x="150" y="180" width="10" height="80" fill="#7C501D" />
<rect x="160" y="180" width="20" height="30" fill="#C9828E" />
<rect x="190" y="180" width="20" height="30" fill="#C9828E" />
<rect x="210" y="180" width="10" height="80" fill="#7C501D" />
<rect x="220" y="180" width="10" height="40" fill="#C9828E" />
<rect x="240" y="180" width="10" height="50" fill="#C9828E" />
<rect x="250" y="180" width="10" height="50" fill="#7C501D" />
<rect x="160" y="210" width="50" height="10" fill="#7C501D" />
<rect x="140" y="220" width="10" height="10" fill="#7C501D" />
<rect x="160" y="220" width="50" height="10" fill="#F9DFC6" />
<rect x="220" y="220" width="10" height="10" fill="#7C501D" />
<rect x="120" y="230" width="20" height="10" fill="#7C501D" />
<rect x="160" y="230" width="50" height="30" fill="#7C501D" />
<rect x="230" y="230" width="20" height="10" fill="#7C501D" />
<rect x="130" y="240" width="20" height="10" fill="#7C501D" />
<rect x="220" y="240" width="20" height="10" fill="#7C501D" />
<rect x="130" y="250" width="10" height="30" fill="#7C501D" />
<rect x="230" y="250" width="10" height="30" fill="#7C501D" />
<rect x="140" y="260" width="10" height="10" fill="#7C501D" />
<rect x="160" y="260" width="20" height="90" fill="#7C501D" />
<rect x="190" y="260" width="20" height="90" fill="#7C501D" />
<rect x="220" y="260" width="10" height="10" fill="#7C501D" />
<rect x="150" y="320" width="10" height="30" fill="#7C501D" />
<rect x="210" y="320" width="10" height="30" fill="#7C501D" />
<rect x="140" y="330" width="10" height="20" fill="#7C501D" />
<rect x="220" y="330" width="10" height="20" fill="#7C501D" />
<rect x="130" y="340" width="10" height="10" fill="#7C501D" />
<rect x="230" y="340" width="10" height="10" fill="#7C501D" />
</svg>