<?xml version="1.0" encoding="UTF-8" ?>
<svg version="1.1" width="360" height="360" xmlns="http://www.w3.org/2000/svg" shape-rendering="crispEdges">
<rect x="150" y="30" width="60" height="10" fill="#7C501D" />
<rect x="130" y="40" width="20" height="10" fill="#7C501D" />
<rect x="150" y="40" width="60" height="20" fill="#3C2E48" />
<rect x="210" y="40" width="20" height="10" fill="#7C501D" />
<rect x="120" y="50" width="10" height="60" fill="#7C501D" />
<rect x="130" y="50" width="20" height="30" fill="#3C2E48" />
<rect x="210" y="50" width="20" height="30" fill="#3C2E48" />
<rect x="230" y="50" width="10" height="10" fill="#7C501D" />
<rect x="150" y="60" width="10" height="10" fill="#3C2E48" />
<rect x="160" y="60" width="20" height="10" fill="#7C501D" />
<rect x="180" y="60" width="10" height="10" fill="#3C2E48" />
<rect x="190" y="60" width="10" height="10" fill="#7C501D" />
<rect x="200" y="60" width="10" height="10" fill="#3C2E48" />
<rect x="230" y="60" width="10" height="20" fill="#3C2E48" />
<rect x="240" y="60" width="10" height="50" fill="#7C501D" />
<rect x="150" y="70" width="10" height="10" fill="#7C501D" />
<rect x="160" y="70" width="20" height="20" fill="#AA8456" />
<rect x="180" y="70" width="10" height="10" fill="#7C501D" />
<rect x="190" y="70" width="10" height="70" fill="#AA8456" />
<rect x="200" y="70" width="10" height="10" fill="#7C501D" />
<rect x="130" y="80" width="10" height="10" fill="#3C2E48" />
<rect x="140" y="80" width="10" height="10" fill="#7C501D" />
<rect x="150" y="80" width="10" height="10" fill="#AA8456" />
<rect x="180" y="80" width="10" height="60" fill="#AA8456" />
<rect x="200" y="80" width="10" height="10" fill="#AA8456" />
<rect x="210" y="80" width="30" height="10" fill="#7C501D" />
<rect x="130" y="90" width="10" height="30" fill="#7C501D" />
<rect x="140" y="90" width="10" height="30" fill="#AA8456" />
<rect x="150" y="90" width="20" height="10" fill="#3C2E48" />
<rect x="170" y="90" width="10" height="50" fill="#AA8456" />
<rect x="200" y="90" width="20" height="10" fill="#3C2E48" />
<rect x="220" y="90" width="10" height="30" fill="#AA8456" />
<rect x="230" y="90" width="10" height="30" fill="#7C501D" />
<rect x="150" y="100" width="10" height="30" fill="#AA8456" />
<rect x="160" y="100" width="10" height="10" fill="#3C2E48" />
<rect x="200" y="100" width="10" height="10" fill="#3C2E48" />
<rect x="210" y="100" width="10" height="30" fill="#AA8456" />
<rect x="160" y="110" width="10" height="30" fill="#AA8456" />
<rect x="200" y="110" width="10" height="30" fill="#AA8456" />
<rect x="140" y="120" width="10" height="30" fill="#7C501D" />
<rect x="220" y="120" width="10" height="30" fill="#7C501D" />
<rect x="150" y="130" width="10" height="10" fill="#7C501D" />
<rect x="210" y="130" width="10" height="10" fill="#7C501D" />
<rect x="130" y="140" width="10" height="10" fill="#7C501D" />
<rect x="150" y="140" width="10" height="100" fill="#7C6B8B" />
<rect x="160" y="140" width="50" height="10" fill="#7C501D" />
<rect x="210" y="140" width="10" height="100" fill="#7C6B8B" />
<rect x="230" y="140" width="10" height="10" fill="#7C501D" />
<rect x="120" y="150" width="10" height="10" fill="#7C501D" />
<rect x="130" y="150" width="20" height="10" fill="#7C6B8B" />
<rect x="160" y="150" width="20" height="90" fill="#7C6B8B" />
<rect x="180" y="150" width="10" height="10" fill="#7C501D" />
<rect x="190" y="150" width="20" height="90" fill="#7C6B8B" />
<rect x="220" y="150" width="20" height="10" fill="#7C6B8B" />
<rect x="240" y="150" width="10" height="10" fill="#7C501D" />
<rect x="110" y="160" width="10" height="10" fill="#7C501D" />
<rect x="120" y="160" width="10" height="60" fill="#7C6B8B" />
<rect x="130" y="160" width="10" height="60" fill="#7C501D" />
<rect x="140" y="160" width="10" height="60" fill="#7C6B8B" />
<rect x="180" y="160" width="10" height="80" fill="#7C6B8B" />
<rect x="220" y="160" width="10" height="60" fill="#7C6B8B" />
<rect x="230" y="160" width="10" height="60" fill="#7C501D" />
<rect x="240" y="160" width="10" height="60" fill="#7C6B8B" />
<rect x="250" y="160" width="10" height="10" fill="#7C501D" />
<rect x="100" y="170" width="10" height="50" fill="#7C501D" />
<rect x="110" y="170" width="10" height="50" fill="#7C6B8B" />
<rect x="250" y="170" width="10" height="50" fill="#7C6B8B" />
<rect x="260" y="170" width="10" height="50" fill="#7C501D" />
<rect x="110" y="220" width="20" height="10" fill="#7C501D" />
<rect x="130" y="220" width="10" height="10" fill="#7C6B8B" />
<rect x="140" y="220" width="10" height="30" fill="#7C501D" />
<rect x="220" y="220" width="10" height="30" fill="#7C501D" />
<rect x="230" y="220" width="10" height="10" fill="#7C6B8B" />
<rect x="240" y="220" width="20" height="10" fill="#7C501D" />
<rect x="120" y="230" width="20" height="10" fill="#7C501D" />
<rect x="230" y="230" width="20" height="10" fill="#7C501D" />
<rect x="120" y="240" width="10" height="30" fill="#7C501D" />
<rect x="150" y="240" width="70" height="10" fill="#7C501D" />
<rect x="240" y="240" width="10" height="30" fill="#7C501D" />
<rect x="130" y="250" width="10" height="10" fill="#7C501D" />
<rect x="150" y="250" width="20" height="100" fill="#7C501D" />
<rect x="200" y="250" width="20" height="100" fill="#7C501D" />
<rect x="230" y="250" width="10" height="10" fill="#7C501D" />
<rect x="140" y="320" width="10" height="30" fill="#7C501D" />
<rect x="220" y="320" width="10" height="30" fill="#7C501D" />
<rect x="130" y="330" width="10" height="20" fill="#7C501D" />
<rect x="230" y="330" width="10" height="20" fill="#7C501D" />
<rect x="120" y="340" width="10" height="10" fill="#7C501D" />
<rect x="240" y="340" width="10" height="10" fill="#7C501D" />
</svg>