<?xml version="1.0" encoding="UTF-8" ?>
<svg version="1.1" width="360" height="360" xmlns="http://www.w3.org/2000/svg" shape-rendering="crispEdges">
<rect x="280" y="20" width="10" height="10" fill="#7C501D" />
<rect x="200" y="30" width="10" height="10" fill="#7C501D" />
<rect x="220" y="30" width="60" height="40" fill="#7C501D" />
<rect x="210" y="40" width="10" height="80" fill="#7C501D" />
<rect x="280" y="40" width="10" height="30" fill="#7C501D" />
<rect x="180" y="50" width="10" height="10" fill="#7C501D" />
<rect x="200" y="50" width="10" height="60" fill="#7C501D" />
<rect x="290" y="50" width="20" height="20" fill="#7C501D" />
<rect x="190" y="60" width="10" height="40" fill="#7C501D" />
<rect x="220" y="70" width="40" height="10" fill="#7C501D" />
<rect x="260" y="70" width="30" height="10" fill="#F9DFC6" />
<rect x="290" y="70" width="10" height="10" fill="#7C501D" />
<rect x="310" y="70" width="10" height="10" fill="#7C501D" />
<rect x="220" y="80" width="10" height="10" fill="#7C501D" />
<rect x="230" y="80" width="80" height="10" fill="#3C2E48" />
<rect x="220" y="90" width="10" height="10" fill="#3C2E48" />
<rect x="230" y="90" width="30" height="20" fill="#F9DFC6" />
<rect x="260" y="90" width="30" height="10" fill="#3C2E48" />
<rect x="290" y="90" width="10" height="20" fill="#F9DFC6" />
<rect x="300" y="90" width="10" height="30" fill="#7C501D" />
<rect x="220" y="100" width="10" height="40" fill="#7C501D" />
<rect x="260" y="100" width="30" height="20" fill="#F9DFC6" />
<rect x="190" y="110" width="10" height="10" fill="#7C501D" />
<rect x="230" y="110" width="10" height="30" fill="#7C501D" />
<rect x="240" y="110" width="10" height="30" fill="#F9DFC6" />
<rect x="250" y="110" width="10" height="10" fill="#C5B2AF" />
<rect x="290" y="110" width="10" height="10" fill="#C5B2AF" />
<rect x="250" y="120" width="10" height="20" fill="#F9DFC6" />
<rect x="260" y="120" width="30" height="10" fill="#C5B2AF" />
<rect x="290" y="120" width="10" height="10" fill="#7C501D" />
<rect x="260" y="130" width="30" height="10" fill="#7C501D" />
<rect x="210" y="140" width="10" height="20" fill="#7C501D" />
<rect x="220" y="140" width="20" height="10" fill="#3C2E48" />
<rect x="240" y="140" width="40" height="10" fill="#7C501D" />
<rect x="220" y="150" width="10" height="90" fill="#FFFFFF" />
<rect x="230" y="150" width="10" height="30" fill="#7C501D" />
<rect x="240" y="150" width="20" height="30" fill="#FFFFFF" />
<rect x="260" y="150" width="10" height="30" fill="#7C501D" />
<rect x="270" y="150" width="10" height="10" fill="#FFFFFF" />
<rect x="280" y="150" width="10" height="10" fill="#7C501D" />
<rect x="200" y="160" width="10" height="60" fill="#7C501D" />
<rect x="210" y="160" width="10" height="60" fill="#FFFFFF" />
<rect x="270" y="160" width="20" height="20" fill="#3C2E48" />
<rect x="230" y="180" width="10" height="60" fill="#FFFFFF" />
<rect x="240" y="180" width="10" height="20" fill="#7C501D" />
<rect x="250" y="180" width="20" height="20" fill="#FFFFFF" />
<rect x="270" y="180" width="30" height="10" fill="#7C501D" />
<rect x="270" y="190" width="30" height="10" fill="#FFFFFF" />
<rect x="300" y="190" width="10" height="20" fill="#7C501D" />
<rect x="320" y="190" width="10" height="20" fill="#7C501D" />
<rect x="240" y="200" width="10" height="40" fill="#FFFFFF" />
<rect x="250" y="200" width="30" height="10" fill="#7C501D" />
<rect x="280" y="200" width="20" height="10" fill="#FFFFFF" />
<rect x="310" y="200" width="10" height="10" fill="#7C501D" />
<rect x="330" y="200" width="10" height="10" fill="#7C501D" />
<rect x="250" y="210" width="10" height="10" fill="#FFFFFF" />
<rect x="260" y="210" width="20" height="80" fill="#3C2E48" />
<rect x="280" y="210" width="20" height="10" fill="#7C501D" />
<rect x="210" y="220" width="10" height="20" fill="#7C501D" />
<rect x="250" y="220" width="10" height="70" fill="#3C2E48" />
<rect x="280" y="220" width="10" height="70" fill="#3C2E48" />
<rect x="220" y="240" width="30" height="10" fill="#7C501D" />
<rect x="230" y="250" width="20" height="100" fill="#7C501D" />
<rect x="260" y="290" width="20" height="60" fill="#7C501D" />
<rect x="250" y="330" width="10" height="20" fill="#7C501D" />
<rect x="280" y="330" width="10" height="20" fill="#7C501D" />
<rect x="290" y="340" width="10" height="10" fill="#7C501D" />
</svg>