<?xml version="1.0" encoding="UTF-8" ?>
<svg version="1.1" width="400" height="400" xmlns="http://www.w3.org/2000/svg" shape-rendering="crispEdges">
<rect x="90" y="0" width="150" height="10" fill="#7B501D" />
<rect x="80" y="10" width="20" height="10" fill="#7B501D" />
<rect x="100" y="10" width="130" height="60" fill="#CE772A" />
<rect x="230" y="10" width="20" height="10" fill="#7B501D" />
<rect x="80" y="20" width="10" height="320" fill="#7B501D" />
<rect x="90" y="20" width="10" height="50" fill="#CE772A" />
<rect x="230" y="20" width="10" height="50" fill="#CE772A" />
<rect x="240" y="20" width="10" height="130" fill="#7B501D" />
<rect x="90" y="70" width="150" height="10" fill="#CEC9C8" />
<rect x="90" y="80" width="10" height="10" fill="#CEC9C8" />
<rect x="100" y="80" width="130" height="10" fill="#FFFFFF" />
<rect x="230" y="80" width="10" height="10" fill="#CEC9C8" />
<rect x="90" y="90" width="20" height="10" fill="#CE772A" />
<rect x="110" y="90" width="110" height="10" fill="#3C2E48" />
<rect x="220" y="90" width="20" height="10" fill="#CE772A" />
<rect x="90" y="100" width="10" height="10" fill="#CE772A" />
<rect x="100" y="100" width="130" height="20" fill="#FFFFFF" />
<rect x="230" y="100" width="10" height="10" fill="#CE772A" />
<rect x="90" y="110" width="10" height="170" fill="#3C2E48" />
<rect x="230" y="110" width="10" height="170" fill="#3C2E48" />
<rect x="100" y="120" width="30" height="10" fill="#FFFFFF" />
<rect x="130" y="120" width="30" height="30" fill="#FFF0DF" />
<rect x="160" y="120" width="70" height="20" fill="#FFFFFF" />
<rect x="100" y="130" width="20" height="20" fill="#FFFFFF" />
<rect x="120" y="130" width="10" height="20" fill="#FFF0DF" />
<rect x="160" y="140" width="70" height="10" fill="#FFF0DF" />
<rect x="100" y="150" width="130" height="10" fill="#3C2E48" />
<rect x="240" y="150" width="10" height="90" fill="#FFF0DF" />
<rect x="100" y="160" width="10" height="70" fill="#FFFFFF" />
<rect x="110" y="160" width="10" height="80" fill="#3C2E48" />
<rect x="120" y="160" width="90" height="10" fill="#5186F0" />
<rect x="210" y="160" width="10" height="80" fill="#3C2E48" />
<rect x="220" y="160" width="10" height="70" fill="#FFF0DF" />
<rect x="120" y="170" width="40" height="10" fill="#5186F0" />
<rect x="160" y="170" width="10" height="10" fill="#9CE347" />
<rect x="170" y="170" width="40" height="10" fill="#5186F0" />
<rect x="120" y="180" width="30" height="50" fill="#5186F0" />
<rect x="150" y="180" width="10" height="10" fill="#9CE347" />
<rect x="160" y="180" width="10" height="30" fill="#5186F0" />
<rect x="170" y="180" width="20" height="30" fill="#9CE347" />
<rect x="190" y="180" width="20" height="50" fill="#5186F0" />
<rect x="150" y="190" width="10" height="10" fill="#5186F0" />
<rect x="150" y="200" width="10" height="10" fill="#9CE347" />
<rect x="150" y="210" width="10" height="20" fill="#5186F0" />
<rect x="160" y="210" width="10" height="10" fill="#9CE347" />
<rect x="170" y="210" width="20" height="20" fill="#5186F0" />
<rect x="160" y="220" width="10" height="10" fill="#5186F0" />
<rect x="100" y="230" width="10" height="10" fill="#3C2E48" />
<rect x="120" y="230" width="90" height="10" fill="#3C2E48" />
<rect x="220" y="230" width="10" height="10" fill="#3C2E48" />
<rect x="100" y="240" width="20" height="50" fill="#FFFFFF" />
<rect x="120" y="240" width="110" height="10" fill="#FFF0DF" />
<rect x="240" y="240" width="10" height="100" fill="#7B501D" />
<rect x="120" y="250" width="40" height="10" fill="#FFF0DF" />
<rect x="160" y="250" width="70" height="40" fill="#FFFFFF" />
<rect x="120" y="260" width="10" height="30" fill="#FFFFFF" />
<rect x="130" y="260" width="30" height="10" fill="#FFF0DF" />
<rect x="130" y="270" width="30" height="20" fill="#FFFFFF" />
<rect x="90" y="280" width="10" height="20" fill="#CE772A" />
<rect x="230" y="280" width="10" height="20" fill="#CE772A" />
<rect x="100" y="290" width="10" height="10" fill="#CE772A" />
<rect x="110" y="290" width="110" height="10" fill="#3C2E48" />
<rect x="220" y="290" width="10" height="10" fill="#CE772A" />
<rect x="90" y="300" width="10" height="10" fill="#CEC9C8" />
<rect x="100" y="300" width="130" height="10" fill="#FFFFFF" />
<rect x="230" y="300" width="10" height="10" fill="#CEC9C8" />
<rect x="90" y="310" width="10" height="10" fill="#B3AFAE" />
<rect x="100" y="310" width="130" height="10" fill="#CEC9C8" />
<rect x="230" y="310" width="10" height="10" fill="#B3AFAE" />
<rect x="90" y="320" width="10" height="20" fill="#7B501D" />
<rect x="100" y="320" width="130" height="10" fill="#B3AFAE" />
<rect x="230" y="320" width="10" height="20" fill="#7B501D" />
<rect x="100" y="330" width="130" height="20" fill="#7B501D" />
<rect x="110" y="350" width="40" height="40" fill="#7B501D" />
<rect x="180" y="350" width="40" height="40" fill="#7B501D" />
<rect x="120" y="390" width="20" height="10" fill="#7B501D" />
<rect x="190" y="390" width="20" height="10" fill="#7B501D" />
</svg>