<?xml version="1.0" encoding="UTF-8" ?>
<svg version="1.1" width="600" height="600" xmlns="http://www.w3.org/2000/svg" shape-rendering="crispEdges">
<rect x="150" y="140" width="10" height="10" fill="#753F17" />
<rect x="140" y="150" width="10" height="30" fill="#753F17" />
<rect x="150" y="150" width="10" height="30" fill="#3C2E48" />
<rect x="160" y="150" width="10" height="10" fill="#753F17" />
<rect x="180" y="150" width="60" height="10" fill="#753F17" />
<rect x="160" y="160" width="10" height="10" fill="#3C2E48" />
<rect x="170" y="160" width="10" height="10" fill="#753F17" />
<rect x="180" y="160" width="60" height="20" fill="#3C2E48" />
<rect x="240" y="160" width="10" height="10" fill="#753F17" />
<rect x="290" y="160" width="130" height="10" fill="#7B501D" />
<rect x="130" y="170" width="10" height="40" fill="#753F17" />
<rect x="160" y="170" width="10" height="20" fill="#753F17" />
<rect x="170" y="170" width="10" height="60" fill="#3C2E48" />
<rect x="240" y="170" width="10" height="10" fill="#3C2E48" />
<rect x="250" y="170" width="20" height="10" fill="#753F17" />
<rect x="280" y="170" width="20" height="10" fill="#7B501D" />
<rect x="300" y="170" width="110" height="50" fill="#CE772A" />
<rect x="410" y="170" width="20" height="10" fill="#7B501D" />
<rect x="140" y="180" width="10" height="10" fill="#3C2E48" />
<rect x="150" y="180" width="10" height="40" fill="#753F17" />
<rect x="180" y="180" width="40" height="10" fill="#3C2E48" />
<rect x="220" y="180" width="30" height="10" fill="#6C3A15" />
<rect x="250" y="180" width="10" height="10" fill="#3C2E48" />
<rect x="260" y="180" width="10" height="10" fill="#753F17" />
<rect x="280" y="180" width="10" height="140" fill="#7B501D" />
<rect x="290" y="180" width="10" height="310" fill="#CE772A" />
<rect x="410" y="180" width="10" height="70" fill="#CE772A" />
<rect x="420" y="180" width="10" height="90" fill="#7B501D" />
<rect x="140" y="190" width="10" height="10" fill="#753F17" />
<rect x="160" y="190" width="10" height="30" fill="#3C2E48" />
<rect x="180" y="190" width="20" height="10" fill="#3C2E48" />
<rect x="200" y="190" width="20" height="10" fill="#6C3A15" />
<rect x="220" y="190" width="30" height="10" fill="#AA8456" />
<rect x="250" y="190" width="10" height="10" fill="#6C3A15" />
<rect x="180" y="200" width="10" height="10" fill="#3C2E48" />
<rect x="190" y="200" width="10" height="10" fill="#6C3A15" />
<rect x="200" y="200" width="20" height="70" fill="#AA8456" />
<rect x="220" y="200" width="30" height="10" fill="#3C2E48" />
<rect x="250" y="200" width="10" height="10" fill="#AA8456" />
<rect x="260" y="200" width="10" height="10" fill="#6C3A15" />
<rect x="180" y="210" width="10" height="20" fill="#753F17" />
<rect x="190" y="210" width="10" height="20" fill="#AA8456" />
<rect x="220" y="210" width="10" height="20" fill="#3C2E48" />
<rect x="230" y="210" width="10" height="10" fill="#CCE2FA" />
<rect x="240" y="210" width="30" height="10" fill="#3C2E48" />
<rect x="160" y="220" width="10" height="10" fill="#753F17" />
<rect x="230" y="220" width="20" height="10" fill="#3C2E48" />
<rect x="250" y="220" width="10" height="20" fill="#AA8456" />
<rect x="260" y="220" width="10" height="20" fill="#6C3A15" />
<rect x="300" y="220" width="30" height="10" fill="#5F506B" />
<rect x="330" y="220" width="20" height="10" fill="#CE772A" />
<rect x="350" y="220" width="30" height="10" fill="#3C2E48" />
<rect x="380" y="220" width="30" height="10" fill="#CE772A" />
<rect x="170" y="230" width="10" height="10" fill="#753F17" />
<rect x="180" y="230" width="10" height="10" fill="#3C2E48" />
<rect x="190" y="230" width="10" height="80" fill="#753F17" />
<rect x="220" y="230" width="30" height="20" fill="#AA8456" />
<rect x="300" y="230" width="10" height="20" fill="#5F506B" />
<rect x="310" y="230" width="40" height="10" fill="#3C2E48" />
<rect x="350" y="230" width="30" height="20" fill="#CE772A" />
<rect x="380" y="230" width="10" height="10" fill="#3C2E48" />
<rect x="390" y="230" width="20" height="10" fill="#CE772A" />
<rect x="180" y="240" width="10" height="10" fill="#753F17" />
<rect x="250" y="240" width="10" height="10" fill="#6C3A15" />
<rect x="310" y="240" width="20" height="10" fill="#5F506B" />
<rect x="330" y="240" width="20" height="20" fill="#CE772A" />
<rect x="380" y="240" width="10" height="10" fill="#CE772A" />
<rect x="390" y="240" width="10" height="110" fill="#3C2E48" />
<rect x="400" y="240" width="10" height="10" fill="#CE772A" />
<rect x="220" y="250" width="30" height="10" fill="#753F17" />
<rect x="300" y="250" width="30" height="10" fill="#CE772A" />
<rect x="350" y="250" width="20" height="60" fill="#CE772A" />
<rect x="370" y="250" width="10" height="100" fill="#5F506B" />
<rect x="380" y="250" width="10" height="100" fill="#3C2E48" />
<rect x="400" y="250" width="20" height="100" fill="#3C2E48" />
<rect x="180" y="260" width="10" height="10" fill="#753F17" />
<rect x="220" y="260" width="10" height="50" fill="#753F17" />
<rect x="300" y="260" width="20" height="130" fill="#CE772A" />
<rect x="320" y="260" width="30" height="90" fill="#5F506B" />
<rect x="170" y="270" width="10" height="20" fill="#753F17" />
<rect x="180" y="270" width="10" height="100" fill="#407B5B" />
<rect x="200" y="270" width="20" height="10" fill="#753F17" />
<rect x="230" y="270" width="10" height="10" fill="#753F17" />
<rect x="420" y="270" width="20" height="60" fill="#3C2E48" />
<rect x="150" y="280" width="20" height="10" fill="#CE772A" />
<rect x="200" y="280" width="20" height="30" fill="#407B5B" />
<rect x="230" y="280" width="10" height="30" fill="#407B5B" />
<rect x="240" y="280" width="10" height="40" fill="#753F17" />
<rect x="150" y="290" width="10" height="120" fill="#7B501D" />
<rect x="160" y="290" width="10" height="60" fill="#753F17" />
<rect x="170" y="290" width="10" height="60" fill="#407B5B" />
<rect x="190" y="310" width="10" height="60" fill="#407B5B" />
<rect x="200" y="310" width="10" height="20" fill="#753F17" />
<rect x="210" y="310" width="20" height="20" fill="#407B5B" />
<rect x="230" y="310" width="10" height="10" fill="#753F17" />
<rect x="250" y="310" width="10" height="10" fill="#753F17" />
<rect x="350" y="310" width="20" height="10" fill="#3C2E48" />
<rect x="230" y="320" width="30" height="10" fill="#407B5B" />
<rect x="260" y="320" width="10" height="20" fill="#753F17" />
<rect x="280" y="320" width="10" height="20" fill="#753F17" />
<rect x="350" y="320" width="20" height="80" fill="#CE772A" />
<rect x="200" y="330" width="10" height="40" fill="#407B5B" />
<rect x="210" y="330" width="30" height="10" fill="#753F17" />
<rect x="240" y="330" width="20" height="10" fill="#407B5B" />
<rect x="270" y="330" width="10" height="10" fill="#753F17" />
<rect x="420" y="330" width="20" height="20" fill="#60618B" />
<rect x="210" y="340" width="30" height="30" fill="#407B5B" />
<rect x="240" y="340" width="20" height="10" fill="#753F17" />
<rect x="280" y="340" width="10" height="60" fill="#7B501D" />
<rect x="160" y="350" width="10" height="60" fill="#7B501D" />
<rect x="170" y="350" width="10" height="20" fill="#753F17" />
<rect x="240" y="350" width="10" height="20" fill="#753F17" />
<rect x="320" y="350" width="30" height="10" fill="#3C2E48" />
<rect x="370" y="350" width="50" height="20" fill="#60618B" />
<rect x="420" y="350" width="10" height="150" fill="#7B501D" />
<rect x="320" y="360" width="30" height="30" fill="#CE772A" />
<rect x="170" y="370" width="10" height="30" fill="#CE772A" />
<rect x="180" y="370" width="60" height="10" fill="#753F17" />
<rect x="370" y="370" width="50" height="100" fill="#CE772A" />
<rect x="180" y="380" width="10" height="20" fill="#CE772A" />
<rect x="190" y="380" width="70" height="20" fill="#753F17" />
<rect x="300" y="390" width="10" height="10" fill="#CE772A" />
<rect x="310" y="390" width="10" height="10" fill="#FFF0DF" />
<rect x="320" y="390" width="10" height="10" fill="#CE772A" />
<rect x="330" y="390" width="20" height="10" fill="#FFF0DF" />
<rect x="140" y="400" width="10" height="20" fill="#7B501D" />
<rect x="170" y="400" width="110" height="10" fill="#7B501D" />
<rect x="280" y="400" width="10" height="90" fill="#CE772A" />
<rect x="300" y="400" width="10" height="20" fill="#FFF0DF" />
<rect x="310" y="400" width="10" height="20" fill="#CE772A" />
<rect x="320" y="400" width="10" height="20" fill="#FFF0DF" />
<rect x="330" y="400" width="20" height="20" fill="#7B501D" />
<rect x="350" y="400" width="10" height="20" fill="#FFF0DF" />
<rect x="360" y="400" width="10" height="90" fill="#CE772A" />
<rect x="130" y="410" width="10" height="90" fill="#7B501D" />
<rect x="150" y="410" width="130" height="70" fill="#CE772A" />
<rect x="140" y="420" width="10" height="50" fill="#CE772A" />
<rect x="300" y="420" width="10" height="70" fill="#CE772A" />
<rect x="310" y="420" width="10" height="10" fill="#FFF0DF" />
<rect x="320" y="420" width="10" height="10" fill="#E4C9C4" />
<rect x="330" y="420" width="20" height="10" fill="#FFF0DF" />
<rect x="350" y="420" width="10" height="10" fill="#E4C9C4" />
<rect x="310" y="430" width="20" height="60" fill="#CE772A" />
<rect x="330" y="430" width="20" height="10" fill="#E4C9C4" />
<rect x="350" y="430" width="10" height="60" fill="#CE772A" />
<rect x="330" y="440" width="20" height="50" fill="#CE772A" />
<rect x="140" y="470" width="10" height="40" fill="#7B501D" />
<rect x="370" y="470" width="40" height="10" fill="#CE772A" />
<rect x="410" y="470" width="10" height="40" fill="#7B501D" />
<rect x="150" y="480" width="10" height="70" fill="#7B501D" />
<rect x="160" y="480" width="120" height="10" fill="#CE772A" />
<rect x="370" y="480" width="30" height="10" fill="#CE772A" />
<rect x="400" y="480" width="10" height="70" fill="#7B501D" />
<rect x="160" y="490" width="240" height="10" fill="#7B501D" />
<rect x="160" y="500" width="40" height="10" fill="#7B501D" />
<rect x="350" y="500" width="50" height="10" fill="#7B501D" />
<rect x="160" y="510" width="30" height="40" fill="#7B501D" />
<rect x="370" y="510" width="30" height="40" fill="#7B501D" />
<rect x="160" y="550" width="20" height="10" fill="#7B501D" />
<rect x="380" y="550" width="20" height="10" fill="#7B501D" />
</svg>