<?xml version="1.0" encoding="UTF-8"?>
<svg id="Capa_1" data-name="Capa 1" xmlns="http://www.w3.org/2000/svg" viewBox="0 0 360 360">
  <defs>
    <style>
      .cls-1 {
        fill: #f8f2b6;
      }

      .cls-2 {
        fill: #f6f6f6;
      }

      .cls-3 {
        fill: #7c501d;
      }

      .cls-4 {
        fill: #3c2e48;
      }

      .cls-5 {
        fill: #cce2fa;
      }

      .cls-6 {
        fill: #f59a2f;
      }
    </style>
  </defs>
  <g id="izq1">
    <g>
      <path class="cls-2" d="M165.41,126.49v9.73h-9.73v9.73h-9.73v29.19h-29.19v-29.19h-29.19v-9.73h-9.73v-38.92h9.73v-9.73h9.73v-9.73h9.73v9.73h9.73v-9.73h29.19v9.73h9.73v9.73h9.73v9.73h-9.73v9.73h9.73v9.73ZM136.22,107.03v-9.73h-19.46v19.46h9.73v-9.73h9.73Z"/>
      <rect class="cls-3" x="214.05" y="252.97" width="9.73" height="9.73"/>
      <rect class="cls-3" x="214.05" y="243.24" width="9.73" height="9.73"/>
      <rect class="cls-3" x="214.05" y="233.51" width="9.73" height="9.73"/>
      <rect class="cls-3" x="214.05" y="223.78" width="9.73" height="9.73"/>
      <rect class="cls-3" x="214.05" y="214.05" width="9.73" height="9.73"/>
      <rect class="cls-3" x="214.05" y="204.32" width="9.73" height="9.73"/>
      <rect class="cls-3" x="214.05" y="194.59" width="9.73" height="9.73"/>
      <rect class="cls-3" x="204.32" y="262.7" width="9.73" height="9.73"/>
      <rect class="cls-5" x="204.32" y="252.97" width="9.73" height="9.73"/>
      <rect class="cls-5" x="204.32" y="243.24" width="9.73" height="9.73"/>
      <rect class="cls-5" x="204.32" y="233.51" width="9.73" height="9.73"/>
      <rect class="cls-5" x="204.32" y="223.78" width="9.73" height="9.73"/>
      <rect class="cls-5" x="204.32" y="214.05" width="9.73" height="9.73"/>
      <rect class="cls-5" x="204.32" y="204.32" width="9.73" height="9.73"/>
      <rect class="cls-5" x="204.32" y="194.59" width="9.73" height="9.73"/>
      <rect class="cls-3" x="204.32" y="184.86" width="9.73" height="9.73"/>
      <rect class="cls-3" x="204.32" y="126.49" width="9.73" height="9.73"/>
      <rect class="cls-3" x="204.32" y="97.3" width="9.73" height="9.73"/>
      <rect class="cls-3" x="194.59" y="262.7" width="9.73" height="9.73"/>
      <rect class="cls-5" x="194.59" y="252.97" width="9.73" height="9.73"/>
      <rect class="cls-5" x="194.59" y="243.24" width="9.73" height="9.73"/>
      <rect class="cls-5" x="194.59" y="233.51" width="9.73" height="9.73"/>
      <rect class="cls-5" x="194.59" y="223.78" width="9.73" height="9.73"/>
      <rect class="cls-5" x="194.59" y="214.05" width="9.73" height="9.73"/>
      <rect class="cls-5" x="194.59" y="204.32" width="9.73" height="9.73"/>
      <rect class="cls-5" x="194.59" y="194.59" width="9.73" height="9.73"/>
      <rect class="cls-3" x="194.59" y="184.86" width="9.73" height="9.73"/>
      <rect class="cls-3" x="194.59" y="126.49" width="9.73" height="9.73"/>
      <rect class="cls-3" x="194.59" y="116.76" width="9.73" height="9.73"/>
      <rect class="cls-3" x="194.59" y="107.03" width="9.73" height="9.73"/>
      <rect class="cls-3" x="194.59" y="97.3" width="9.73" height="9.73"/>
      <rect class="cls-3" x="194.59" y="87.57" width="9.73" height="9.73"/>
      <rect class="cls-3" x="194.59" y="77.84" width="9.73" height="9.73"/>
      <rect class="cls-3" x="184.86" y="262.7" width="9.73" height="9.73"/>
      <rect class="cls-5" x="184.86" y="252.97" width="9.73" height="9.73"/>
      <rect class="cls-5" x="184.86" y="243.24" width="9.73" height="9.73"/>
      <rect class="cls-5" x="184.86" y="233.51" width="9.73" height="9.73"/>
      <rect class="cls-5" x="184.86" y="223.78" width="9.73" height="9.73"/>
      <rect class="cls-5" x="184.86" y="214.05" width="9.73" height="9.73"/>
      <rect class="cls-5" x="184.86" y="204.32" width="9.73" height="9.73"/>
      <rect class="cls-5" x="184.86" y="194.59" width="9.73" height="9.73"/>
      <rect class="cls-3" x="184.86" y="184.86" width="9.73" height="9.73"/>
      <rect class="cls-3" x="184.86" y="126.49" width="9.73" height="9.73"/>
      <rect class="cls-3" x="184.86" y="116.76" width="9.73" height="9.73"/>
      <rect class="cls-3" x="184.86" y="107.03" width="9.73" height="9.73"/>
      <rect class="cls-3" x="184.86" y="97.3" width="9.73" height="9.73"/>
      <rect class="cls-3" x="184.86" y="87.57" width="9.73" height="9.73"/>
      <rect class="cls-3" x="184.86" y="77.84" width="9.73" height="9.73"/>
      <rect class="cls-3" x="175.14" y="262.7" width="9.72" height="9.73"/>
      <rect class="cls-5" x="175.14" y="252.97" width="9.72" height="9.73"/>
      <rect class="cls-3" x="175.14" y="243.24" width="9.72" height="9.73"/>
      <rect class="cls-3" x="175.14" y="233.51" width="9.72" height="9.73"/>
      <rect class="cls-3" x="175.14" y="223.78" width="9.72" height="9.73"/>
      <rect class="cls-3" x="175.14" y="214.05" width="9.72" height="9.73"/>
      <rect class="cls-3" x="175.14" y="204.32" width="9.72" height="9.73"/>
      <rect class="cls-5" x="175.14" y="194.59" width="9.72" height="9.73"/>
      <rect class="cls-3" x="175.14" y="184.86" width="9.72" height="9.73"/>
      <rect class="cls-3" x="175.14" y="136.22" width="9.72" height="9.73"/>
      <rect class="cls-3" x="175.14" y="126.49" width="9.72" height="9.73"/>
      <rect class="cls-3" x="175.14" y="116.76" width="9.72" height="9.73"/>
      <rect class="cls-3" x="175.14" y="107.03" width="9.72" height="9.73"/>
      <rect class="cls-3" x="175.14" y="97.3" width="9.72" height="9.73"/>
      <rect class="cls-3" x="175.14" y="87.57" width="9.72" height="9.73"/>
      <rect class="cls-3" x="175.14" y="77.84" width="9.72" height="9.73"/>
      <rect class="cls-3" x="175.14" y="68.11" width="9.72" height="9.73"/>
      <rect class="cls-3" x="165.41" y="262.7" width="9.73" height="9.73"/>
      <rect class="cls-5" x="165.41" y="252.97" width="9.73" height="9.73"/>
      <rect class="cls-6" x="165.41" y="243.24" width="9.73" height="9.73"/>
      <rect class="cls-6" x="165.41" y="233.51" width="9.73" height="9.73"/>
      <rect class="cls-6" x="165.41" y="223.78" width="9.73" height="9.73"/>
      <rect class="cls-6" x="165.41" y="214.05" width="9.73" height="9.73"/>
      <rect class="cls-6" x="165.41" y="204.32" width="9.73" height="9.73"/>
      <rect class="cls-5" x="165.41" y="194.59" width="9.73" height="9.73"/>
      <rect class="cls-3" x="165.41" y="184.86" width="9.73" height="9.73"/>
      <rect class="cls-3" x="165.41" y="126.49" width="9.73" height="9.73"/>
      <rect class="cls-3" x="165.41" y="116.76" width="9.73" height="9.73"/>
      <rect class="cls-3" x="165.41" y="107.03" width="9.73" height="9.73"/>
      <rect class="cls-3" x="165.41" y="97.3" width="9.73" height="9.73"/>
      <rect class="cls-3" x="165.41" y="87.57" width="9.73" height="9.73"/>
      <rect class="cls-3" x="165.41" y="77.84" width="9.73" height="9.73"/>
      <rect class="cls-3" x="165.41" y="68.11" width="9.73" height="9.73"/>
      <rect class="cls-3" x="155.68" y="272.43" width="9.73" height="9.73"/>
      <rect class="cls-6" x="155.68" y="262.7" width="9.73" height="9.73"/>
      <rect class="cls-6" x="155.68" y="252.97" width="9.73" height="9.73"/>
      <rect class="cls-5" x="155.68" y="243.24" width="9.73" height="9.73"/>
      <rect class="cls-6" x="155.68" y="233.51" width="9.73" height="9.73"/>
      <rect class="cls-6" x="155.68" y="223.78" width="9.73" height="9.73"/>
      <rect class="cls-6" x="155.68" y="214.05" width="9.73" height="9.73"/>
      <rect class="cls-6" x="155.68" y="204.32" width="9.73" height="9.73"/>
      <rect class="cls-5" x="155.68" y="194.59" width="9.73" height="9.73"/>
      <rect class="cls-6" x="155.68" y="184.86" width="9.73" height="9.73"/>
      <rect class="cls-3" x="155.68" y="175.14" width="9.73" height="9.72"/>
      <rect class="cls-3" x="155.68" y="136.22" width="9.73" height="9.73"/>
      <rect class="cls-3" x="155.68" y="107.03" width="9.73" height="9.73"/>
      <rect class="cls-3" x="155.68" y="87.57" width="9.73" height="9.73"/>
      <rect class="cls-3" x="155.68" y="77.84" width="9.73" height="9.73"/>
      <rect class="cls-3" x="155.68" y="68.11" width="9.73" height="9.73"/>
      <rect class="cls-3" x="155.68" y="58.38" width="9.73" height="9.73"/>
      <rect class="cls-3" x="155.68" y="48.65" width="9.73" height="9.73"/>
      <rect class="cls-3" x="145.95" y="350.27" width="9.73" height="9.73"/>
      <rect class="cls-3" x="145.95" y="340.54" width="9.73" height="9.73"/>
      <rect class="cls-3" x="145.95" y="330.81" width="9.73" height="9.73"/>
      <rect class="cls-3" x="145.95" y="321.08" width="9.73" height="9.73"/>
      <rect class="cls-3" x="145.95" y="311.35" width="9.73" height="9.73"/>
      <rect class="cls-3" x="145.95" y="301.62" width="9.73" height="9.73"/>
      <rect class="cls-3" x="145.95" y="291.89" width="9.73" height="9.73"/>
      <rect class="cls-3" x="145.95" y="282.16" width="9.73" height="9.73"/>
      <rect class="cls-6" x="145.95" y="272.43" width="9.73" height="9.73"/>
      <rect class="cls-6" x="145.95" y="262.7" width="9.73" height="9.73"/>
      <rect class="cls-6" x="145.95" y="252.97" width="9.73" height="9.73"/>
      <rect class="cls-6" x="145.95" y="243.24" width="9.73" height="9.73"/>
      <rect class="cls-5" x="145.95" y="233.51" width="9.73" height="9.73"/>
      <rect class="cls-6" x="145.95" y="223.78" width="9.73" height="9.73"/>
      <rect class="cls-6" x="145.95" y="214.05" width="9.73" height="9.73"/>
      <rect class="cls-6" x="145.95" y="204.32" width="9.73" height="9.73"/>
      <rect class="cls-5" x="145.95" y="194.59" width="9.73" height="9.73"/>
      <rect class="cls-6" x="145.95" y="184.86" width="9.73" height="9.73"/>
      <rect class="cls-3" x="145.95" y="175.14" width="9.73" height="9.72"/>
      <rect class="cls-3" x="145.95" y="165.41" width="9.73" height="9.73"/>
      <rect class="cls-3" x="145.95" y="155.68" width="9.73" height="9.73"/>
      <rect class="cls-3" x="145.95" y="145.95" width="9.73" height="9.73"/>
      <rect class="cls-3" x="145.95" y="77.84" width="9.73" height="9.73"/>
      <rect class="cls-3" x="145.95" y="68.11" width="9.73" height="9.73"/>
      <rect class="cls-3" x="145.95" y="58.38" width="9.73" height="9.73"/>
      <rect class="cls-3" x="145.95" y="48.65" width="9.73" height="9.73"/>
      <rect class="cls-3" x="145.95" y="38.92" width="9.73" height="9.73"/>
      <rect class="cls-3" x="136.22" y="350.27" width="9.73" height="9.73"/>
      <rect class="cls-3" x="136.22" y="340.54" width="9.73" height="9.73"/>
      <rect class="cls-3" x="136.22" y="330.81" width="9.73" height="9.73"/>
      <rect class="cls-3" x="136.22" y="321.08" width="9.73" height="9.73"/>
      <rect class="cls-3" x="136.22" y="311.35" width="9.73" height="9.73"/>
      <rect class="cls-3" x="136.22" y="301.62" width="9.73" height="9.73"/>
      <rect class="cls-3" x="136.22" y="291.89" width="9.73" height="9.73"/>
      <rect class="cls-3" x="136.22" y="282.16" width="9.73" height="9.73"/>
      <rect class="cls-3" x="136.22" y="272.43" width="9.73" height="9.73"/>
      <rect class="cls-3" x="136.22" y="262.7" width="9.73" height="9.73"/>
      <rect class="cls-3" x="136.22" y="252.97" width="9.73" height="9.73"/>
      <rect class="cls-3" x="136.22" y="243.24" width="9.73" height="9.73"/>
      <rect class="cls-3" x="136.22" y="233.51" width="9.73" height="9.73"/>
      <rect class="cls-3" x="136.22" y="223.78" width="9.73" height="9.73"/>
      <rect class="cls-3" x="136.22" y="214.05" width="9.73" height="9.73"/>
      <rect class="cls-3" x="136.22" y="204.32" width="9.73" height="9.73"/>
      <rect class="cls-5" x="136.22" y="194.59" width="9.73" height="9.73"/>
      <rect class="cls-6" x="136.22" y="184.86" width="9.73" height="9.73"/>
      <rect class="cls-3" x="136.22" y="175.14" width="9.73" height="9.72"/>
      <rect class="cls-3" x="136.22" y="68.11" width="9.73" height="9.73"/>
      <rect class="cls-3" x="136.22" y="58.38" width="9.73" height="9.73"/>
      <rect class="cls-3" x="136.22" y="48.65" width="9.73" height="9.73"/>
      <rect class="cls-3" x="126.49" y="350.27" width="9.73" height="9.73"/>
      <rect class="cls-3" x="126.49" y="301.62" width="9.73" height="9.73"/>
      <rect class="cls-3" x="126.49" y="282.16" width="9.73" height="9.73"/>
      <rect class="cls-6" x="126.49" y="272.43" width="9.73" height="9.73"/>
      <rect class="cls-6" x="126.49" y="262.7" width="9.73" height="9.73"/>
      <rect class="cls-6" x="126.49" y="252.97" width="9.73" height="9.73"/>
      <rect class="cls-6" x="126.49" y="243.24" width="9.73" height="9.73"/>
      <rect class="cls-6" x="126.49" y="233.51" width="9.73" height="9.73"/>
      <rect class="cls-6" x="126.49" y="223.78" width="9.73" height="9.73"/>
      <rect class="cls-5" x="126.49" y="214.05" width="9.73" height="9.73"/>
      <rect class="cls-5" x="126.49" y="204.32" width="9.73" height="9.73"/>
      <rect class="cls-5" x="126.49" y="194.59" width="9.73" height="9.73"/>
      <rect class="cls-6" x="126.49" y="184.86" width="9.73" height="9.73"/>
      <rect class="cls-3" x="126.49" y="175.14" width="9.73" height="9.72"/>
      <rect class="cls-4" x="126.49" y="97.3" width="9.73" height="9.73"/>
      <rect class="cls-3" x="126.49" y="68.11" width="9.73" height="9.73"/>
      <rect class="cls-3" x="126.49" y="58.38" width="9.73" height="9.73"/>
      <rect class="cls-3" x="126.49" y="48.65" width="9.73" height="9.73"/>
      <rect class="cls-3" x="116.76" y="350.27" width="9.73" height="9.73"/>
      <rect class="cls-3" x="116.76" y="282.16" width="9.73" height="9.73"/>
      <rect class="cls-6" x="116.76" y="272.43" width="9.73" height="9.73"/>
      <rect class="cls-6" x="116.76" y="262.7" width="9.73" height="9.73"/>
      <rect class="cls-6" x="116.76" y="252.97" width="9.73" height="9.73"/>
      <rect class="cls-6" x="116.76" y="243.24" width="9.73" height="9.73"/>
      <rect class="cls-6" x="116.76" y="233.51" width="9.73" height="9.73"/>
      <rect class="cls-6" x="116.76" y="223.78" width="9.73" height="9.73"/>
      <rect class="cls-6" x="116.76" y="214.05" width="9.73" height="9.73"/>
      <rect class="cls-6" x="116.76" y="204.32" width="9.73" height="9.73"/>
      <rect class="cls-6" x="116.76" y="194.59" width="9.73" height="9.73"/>
      <rect class="cls-6" x="116.76" y="184.86" width="9.73" height="9.73"/>
      <rect class="cls-3" x="116.76" y="175.14" width="9.73" height="9.72"/>
      <rect class="cls-1" x="116.76" y="107.03" width="9.73" height="9.73"/>
      <rect class="cls-4" x="116.76" y="97.3" width="9.73" height="9.73"/>
      <rect class="cls-3" x="116.76" y="68.11" width="9.73" height="9.73"/>
      <rect class="cls-3" x="116.76" y="58.38" width="9.73" height="9.73"/>
      <rect class="cls-3" x="116.76" y="48.65" width="9.73" height="9.73"/>
      <rect class="cls-3" x="116.76" y="38.92" width="9.73" height="9.73"/>
      <rect class="cls-3" x="107.03" y="282.16" width="9.73" height="9.73"/>
      <rect class="cls-6" x="107.03" y="272.43" width="9.73" height="9.73"/>
      <rect class="cls-6" x="107.03" y="262.7" width="9.73" height="9.73"/>
      <rect class="cls-6" x="107.03" y="252.97" width="9.73" height="9.73"/>
      <rect class="cls-6" x="107.03" y="243.24" width="9.73" height="9.73"/>
      <rect class="cls-6" x="107.03" y="233.51" width="9.73" height="9.73"/>
      <rect class="cls-6" x="107.03" y="223.78" width="9.73" height="9.73"/>
      <rect class="cls-6" x="107.03" y="214.05" width="9.73" height="9.73"/>
      <rect class="cls-6" x="107.03" y="204.32" width="9.73" height="9.73"/>
      <rect class="cls-6" x="107.03" y="194.59" width="9.73" height="9.73"/>
      <rect class="cls-6" x="107.03" y="184.86" width="9.73" height="9.73"/>
      <rect class="cls-3" x="107.03" y="175.14" width="9.73" height="9.72"/>
      <rect class="cls-3" x="107.03" y="165.41" width="9.73" height="9.73"/>
      <rect class="cls-3" x="107.03" y="155.68" width="9.73" height="9.73"/>
      <rect class="cls-3" x="107.03" y="145.95" width="9.73" height="9.73"/>
      <rect class="cls-3" x="107.03" y="77.84" width="9.73" height="9.73"/>
      <rect class="cls-3" x="107.03" y="68.11" width="9.73" height="9.73"/>
      <rect class="cls-3" x="107.03" y="58.38" width="9.73" height="9.73"/>
      <rect class="cls-3" x="107.03" y="48.65" width="9.73" height="9.73"/>
      <rect class="cls-3" x="97.3" y="350.27" width="9.73" height="9.73"/>
      <rect class="cls-3" x="97.3" y="340.54" width="9.73" height="9.73"/>
      <rect class="cls-3" x="97.3" y="330.81" width="9.73" height="9.73"/>
      <rect class="cls-3" x="97.3" y="321.08" width="9.73" height="9.73"/>
      <rect class="cls-3" x="97.3" y="311.35" width="9.73" height="9.73"/>
      <rect class="cls-3" x="97.3" y="301.62" width="9.73" height="9.73"/>
      <rect class="cls-3" x="97.3" y="291.89" width="9.73" height="9.73"/>
      <rect class="cls-3" x="97.3" y="282.16" width="9.73" height="9.73"/>
      <rect class="cls-6" x="97.3" y="272.43" width="9.73" height="9.73"/>
      <rect class="cls-6" x="97.3" y="262.7" width="9.73" height="9.73"/>
      <rect class="cls-6" x="97.3" y="252.97" width="9.73" height="9.73"/>
      <rect class="cls-6" x="97.3" y="243.24" width="9.73" height="9.73"/>
      <rect class="cls-6" x="97.3" y="233.51" width="9.73" height="9.73"/>
      <rect class="cls-6" x="97.3" y="223.78" width="9.73" height="9.73"/>
      <rect class="cls-6" x="97.3" y="214.05" width="9.73" height="9.73"/>
      <rect class="cls-6" x="97.3" y="204.32" width="9.73" height="9.73"/>
      <rect class="cls-6" x="97.3" y="194.59" width="9.73" height="9.73"/>
      <rect class="cls-6" x="97.3" y="184.86" width="9.73" height="9.73"/>
      <rect class="cls-3" x="97.3" y="175.14" width="9.73" height="9.72"/>
      <rect class="cls-3" x="97.3" y="145.95" width="9.73" height="9.73"/>
      <rect class="cls-3" x="97.3" y="68.11" width="9.73" height="9.73"/>
      <rect class="cls-3" x="97.3" y="58.38" width="9.73" height="9.73"/>
      <rect class="cls-3" x="87.57" y="350.27" width="9.73" height="9.73"/>
      <rect class="cls-3" x="87.57" y="340.54" width="9.73" height="9.73"/>
      <rect class="cls-3" x="87.57" y="330.81" width="9.73" height="9.73"/>
      <rect class="cls-3" x="87.57" y="321.08" width="9.73" height="9.73"/>
      <rect class="cls-3" x="87.57" y="311.35" width="9.73" height="9.73"/>
      <rect class="cls-3" x="87.57" y="301.62" width="9.73" height="9.73"/>
      <rect class="cls-3" x="87.57" y="291.89" width="9.73" height="9.73"/>
      <rect class="cls-3" x="87.57" y="282.16" width="9.73" height="9.73"/>
      <rect class="cls-6" x="87.57" y="272.43" width="9.73" height="9.73"/>
      <rect class="cls-6" x="87.57" y="262.7" width="9.73" height="9.73"/>
      <rect class="cls-6" x="87.57" y="252.97" width="9.73" height="9.73"/>
      <rect class="cls-6" x="87.57" y="243.24" width="9.73" height="9.73"/>
      <rect class="cls-6" x="87.57" y="233.51" width="9.73" height="9.73"/>
      <rect class="cls-6" x="87.57" y="223.78" width="9.73" height="9.73"/>
      <rect class="cls-6" x="87.57" y="214.05" width="9.73" height="9.73"/>
      <rect class="cls-6" x="87.57" y="204.32" width="9.73" height="9.73"/>
      <rect class="cls-6" x="87.57" y="194.59" width="9.73" height="9.73"/>
      <rect class="cls-6" x="87.57" y="184.86" width="9.73" height="9.73"/>
      <rect class="cls-3" x="87.57" y="175.14" width="9.73" height="9.72"/>
      <rect class="cls-3" x="87.57" y="145.95" width="9.73" height="9.73"/>
      <rect class="cls-3" x="87.57" y="77.84" width="9.73" height="9.73"/>
      <rect class="cls-3" x="87.57" y="68.11" width="9.73" height="9.73"/>
      <rect class="cls-3" x="77.84" y="350.27" width="9.73" height="9.73"/>
      <rect class="cls-3" x="77.84" y="272.43" width="9.73" height="9.73"/>
      <rect class="cls-6" x="77.84" y="262.7" width="9.73" height="9.73"/>
      <rect class="cls-6" x="77.84" y="252.97" width="9.73" height="9.73"/>
      <rect class="cls-6" x="77.84" y="243.24" width="9.73" height="9.73"/>
      <rect class="cls-6" x="77.84" y="233.51" width="9.73" height="9.73"/>
      <rect class="cls-6" x="77.84" y="223.78" width="9.73" height="9.73"/>
      <rect class="cls-6" x="77.84" y="214.05" width="9.73" height="9.73"/>
      <rect class="cls-6" x="77.84" y="204.32" width="9.73" height="9.73"/>
      <rect class="cls-6" x="77.84" y="194.59" width="9.73" height="9.73"/>
      <rect class="cls-3" x="77.84" y="184.86" width="9.73" height="9.73"/>
      <rect class="cls-3" x="77.84" y="136.22" width="9.73" height="9.73"/>
      <rect class="cls-3" x="77.84" y="87.57" width="9.73" height="9.73"/>
      <rect class="cls-3" x="68.11" y="350.27" width="9.73" height="9.73"/>
      <rect class="cls-3" x="68.11" y="262.7" width="9.73" height="9.73"/>
      <rect class="cls-3" x="68.11" y="252.97" width="9.73" height="9.73"/>
      <rect class="cls-3" x="68.11" y="243.24" width="9.73" height="9.73"/>
      <rect class="cls-3" x="68.11" y="233.51" width="9.73" height="9.73"/>
      <rect class="cls-3" x="68.11" y="223.78" width="9.73" height="9.73"/>
      <rect class="cls-3" x="68.11" y="214.05" width="9.73" height="9.73"/>
      <rect class="cls-3" x="68.11" y="204.32" width="9.73" height="9.73"/>
      <rect class="cls-3" x="68.11" y="194.59" width="9.73" height="9.73"/>
      <rect class="cls-3" x="68.11" y="126.49" width="9.73" height="9.73"/>
      <rect class="cls-3" x="68.11" y="116.76" width="9.73" height="9.73"/>
      <rect class="cls-3" x="68.11" y="107.03" width="9.73" height="9.73"/>
      <rect class="cls-3" x="68.11" y="97.3" width="9.73" height="9.73"/>
    </g>
  </g>
</svg>