<?xml version="1.0" encoding="UTF-8"?>
<svg id="Capa_1" data-name="Capa 1" xmlns="http://www.w3.org/2000/svg" viewBox="0 0 360 360">
  <defs>
    <style>
      .cls-1 {
        fill: #f6f6f6;
      }

      .cls-2 {
        fill: #9d9d9c;
      }

      .cls-3 {
        fill: #422828;
      }

      .cls-4 {
        fill: #ededed;
      }
    </style>
  </defs>
  <rect class="cls-2" x="203.82" y="96.8" width="9.73" height="9.73"/>
  <rect class="cls-2" x="194.09" y="106.53" width="9.73" height="9.73"/>
  <rect class="cls-2" x="194.09" y="96.8" width="9.73" height="9.73"/>
  <rect class="cls-2" x="194.09" y="87.07" width="9.73" height="9.73"/>
  <rect class="cls-2" x="194.09" y="67.61" width="9.73" height="9.73"/>
  <rect class="cls-2" x="184.36" y="252.47" width="9.73" height="9.73"/>
  <rect class="cls-2" x="184.36" y="242.74" width="9.73" height="9.73"/>
  <rect class="cls-2" x="184.36" y="233.01" width="9.73" height="9.73"/>
  <rect class="cls-2" x="184.36" y="223.28" width="9.73" height="9.73"/>
  <rect class="cls-2" x="184.36" y="213.55" width="9.73" height="9.73"/>
  <rect class="cls-2" x="184.36" y="203.82" width="9.73" height="9.73"/>
  <rect class="cls-2" x="184.36" y="125.99" width="9.73" height="9.73"/>
  <rect class="cls-2" x="184.36" y="116.26" width="9.73" height="9.73"/>
  <rect class="cls-2" x="184.36" y="106.53" width="9.73" height="9.73"/>
  <rect class="cls-2" x="184.36" y="96.8" width="9.73" height="9.73"/>
  <rect class="cls-2" x="184.36" y="87.07" width="9.73" height="9.73"/>
  <rect class="cls-2" x="184.36" y="77.34" width="9.73" height="9.73"/>
  <rect class="cls-2" x="184.36" y="67.61" width="9.73" height="9.73"/>
  <rect class="cls-2" x="174.64" y="262.2" width="9.72" height="9.73"/>
  <rect class="cls-2" x="174.64" y="252.47" width="9.72" height="9.73"/>
  <rect class="cls-2" x="174.64" y="242.74" width="9.72" height="9.73"/>
  <rect class="cls-2" x="174.64" y="233.01" width="9.72" height="9.73"/>
  <rect class="cls-2" x="174.64" y="223.28" width="9.72" height="9.73"/>
  <rect class="cls-2" x="174.64" y="213.55" width="9.72" height="9.73"/>
  <rect class="cls-2" x="174.64" y="203.82" width="9.72" height="9.73"/>
  <rect class="cls-2" x="174.64" y="194.09" width="9.72" height="9.73"/>
  <rect class="cls-2" x="174.64" y="184.36" width="9.72" height="9.73"/>
  <rect class="cls-2" x="174.64" y="135.72" width="9.72" height="9.73"/>
  <rect class="cls-2" x="174.64" y="125.99" width="9.72" height="9.73"/>
  <rect class="cls-2" x="174.64" y="116.26" width="9.72" height="9.73"/>
  <rect class="cls-2" x="174.64" y="106.53" width="9.72" height="9.73"/>
  <rect class="cls-2" x="174.64" y="96.8" width="9.72" height="9.73"/>
  <rect class="cls-2" x="174.64" y="87.07" width="9.72" height="9.73"/>
  <rect class="cls-2" x="174.64" y="77.34" width="9.72" height="9.73"/>
  <rect class="cls-2" x="174.64" y="67.61" width="9.72" height="9.73"/>
  <rect class="cls-2" x="174.64" y="57.88" width="9.72" height="9.73"/>
  <rect class="cls-2" x="164.91" y="349.77" width="9.73" height="9.73"/>
  <rect class="cls-2" x="164.91" y="271.93" width="9.73" height="9.73"/>
  <rect class="cls-3" x="164.91" y="262.2" width="9.73" height="9.73"/>
  <rect class="cls-2" x="164.91" y="252.47" width="9.73" height="9.73"/>
  <rect class="cls-4" x="164.91" y="242.74" width="9.73" height="9.73"/>
  <rect class="cls-4" x="164.91" y="233.01" width="9.73" height="9.73"/>
  <rect class="cls-4" x="164.91" y="223.28" width="9.73" height="9.73"/>
  <rect class="cls-4" x="164.91" y="213.55" width="9.73" height="9.73"/>
  <rect class="cls-4" x="164.91" y="203.82" width="9.73" height="9.73"/>
  <rect class="cls-2" x="164.91" y="194.09" width="9.73" height="9.73"/>
  <rect class="cls-3" x="164.91" y="184.36" width="9.73" height="9.73"/>
  <rect class="cls-2" x="164.91" y="174.64" width="9.73" height="9.72"/>
  <rect class="cls-2" x="164.91" y="145.45" width="9.73" height="9.73"/>
  <rect class="cls-2" x="164.91" y="135.72" width="9.73" height="9.73"/>
  <rect class="cls-2" x="164.91" y="125.99" width="9.73" height="9.73"/>
  <rect class="cls-2" x="164.91" y="116.26" width="9.73" height="9.73"/>
  <rect class="cls-2" x="164.91" y="106.53" width="9.73" height="9.73"/>
  <rect class="cls-2" x="164.91" y="96.8" width="9.73" height="9.73"/>
  <rect class="cls-2" x="164.91" y="87.07" width="9.73" height="9.73"/>
  <rect class="cls-2" x="164.91" y="77.34" width="9.73" height="9.73"/>
  <rect class="cls-2" x="164.91" y="67.61" width="9.73" height="9.73"/>
  <rect class="cls-2" x="164.91" y="57.88" width="9.73" height="9.73"/>
  <rect class="cls-2" x="164.91" y="48.15" width="9.73" height="9.73"/>
  <rect class="cls-2" x="155.18" y="349.77" width="9.73" height="9.73"/>
  <rect class="cls-2" x="155.18" y="340.04" width="9.73" height="9.73"/>
  <rect class="cls-2" x="155.18" y="330.31" width="9.73" height="9.73"/>
  <rect class="cls-2" x="155.18" y="320.58" width="9.73" height="9.73"/>
  <rect class="cls-2" x="155.18" y="310.85" width="9.73" height="9.73"/>
  <rect class="cls-2" x="155.18" y="301.12" width="9.73" height="9.73"/>
  <rect class="cls-2" x="155.18" y="291.39" width="9.73" height="9.73"/>
  <rect class="cls-2" x="155.18" y="281.66" width="9.73" height="9.73"/>
  <rect class="cls-3" x="155.18" y="271.93" width="9.73" height="9.73"/>
  <rect class="cls-2" x="155.18" y="262.2" width="9.73" height="9.73"/>
  <rect class="cls-4" x="155.18" y="252.47" width="9.73" height="9.73"/>
  <rect class="cls-4" x="155.18" y="242.74" width="9.73" height="9.73"/>
  <rect class="cls-4" x="155.18" y="233.01" width="9.73" height="9.73"/>
  <rect class="cls-4" x="155.18" y="223.28" width="9.73" height="9.73"/>
  <rect class="cls-2" x="155.18" y="213.55" width="9.73" height="9.73"/>
  <rect class="cls-4" x="155.18" y="203.82" width="9.73" height="9.73"/>
  <rect class="cls-4" x="155.18" y="194.09" width="9.73" height="9.73"/>
  <rect class="cls-2" x="155.18" y="184.36" width="9.73" height="9.73"/>
  <rect class="cls-2" x="155.18" y="174.64" width="9.73" height="9.72"/>
  <rect class="cls-2" x="155.18" y="145.45" width="9.73" height="9.73"/>
  <rect class="cls-2" x="155.18" y="135.72" width="9.73" height="9.73"/>
  <rect class="cls-2" x="155.18" y="125.99" width="9.73" height="9.73"/>
  <rect class="cls-2" x="155.18" y="116.26" width="9.73" height="9.73"/>
  <rect class="cls-2" x="155.18" y="106.53" width="9.73" height="9.73"/>
  <rect class="cls-2" x="155.18" y="96.8" width="9.73" height="9.73"/>
  <rect class="cls-2" x="155.18" y="87.07" width="9.73" height="9.73"/>
  <rect class="cls-2" x="155.18" y="77.34" width="9.73" height="9.73"/>
  <rect class="cls-2" x="155.18" y="67.61" width="9.73" height="9.73"/>
  <rect class="cls-2" x="155.18" y="57.88" width="9.73" height="9.73"/>
  <rect class="cls-2" x="155.18" y="48.15" width="9.73" height="9.73"/>
  <rect class="cls-2" x="145.45" y="349.77" width="9.73" height="9.73"/>
  <rect class="cls-2" x="145.45" y="340.04" width="9.73" height="9.73"/>
  <rect class="cls-2" x="145.45" y="330.31" width="9.73" height="9.73"/>
  <rect class="cls-2" x="145.45" y="320.58" width="9.73" height="9.73"/>
  <rect class="cls-2" x="145.45" y="310.85" width="9.73" height="9.73"/>
  <rect class="cls-2" x="145.45" y="301.12" width="9.73" height="9.73"/>
  <rect class="cls-2" x="145.45" y="291.39" width="9.73" height="9.73"/>
  <rect class="cls-2" x="145.45" y="281.66" width="9.73" height="9.73"/>
  <rect class="cls-3" x="145.45" y="271.93" width="9.73" height="9.73"/>
  <rect class="cls-2" x="145.45" y="262.2" width="9.73" height="9.73"/>
  <rect class="cls-4" x="145.45" y="252.47" width="9.73" height="9.73"/>
  <rect class="cls-4" x="145.45" y="242.74" width="9.73" height="9.73"/>
  <rect class="cls-4" x="145.45" y="233.01" width="9.73" height="9.73"/>
  <rect class="cls-2" x="145.45" y="223.28" width="9.73" height="9.73"/>
  <rect class="cls-2" x="145.45" y="213.55" width="9.73" height="9.73"/>
  <rect class="cls-4" x="145.45" y="203.82" width="9.73" height="9.73"/>
  <rect class="cls-4" x="145.45" y="194.09" width="9.73" height="9.73"/>
  <rect class="cls-2" x="145.45" y="184.36" width="9.73" height="9.73"/>
  <rect class="cls-2" x="145.45" y="174.64" width="9.73" height="9.72"/>
  <rect class="cls-2" x="145.45" y="164.91" width="9.73" height="9.73"/>
  <rect class="cls-2" x="145.45" y="155.18" width="9.73" height="9.73"/>
  <rect class="cls-2" x="145.45" y="145.45" width="9.73" height="9.73"/>
  <rect class="cls-2" x="145.45" y="135.72" width="9.73" height="9.73"/>
  <rect class="cls-2" x="145.45" y="125.99" width="9.73" height="9.73"/>
  <rect class="cls-2" x="145.45" y="116.26" width="9.73" height="9.73"/>
  <rect class="cls-2" x="145.45" y="106.53" width="9.73" height="9.73"/>
  <rect class="cls-2" x="145.45" y="96.8" width="9.73" height="9.73"/>
  <rect class="cls-2" x="145.45" y="87.07" width="9.73" height="9.73"/>
  <rect class="cls-2" x="145.45" y="77.34" width="9.73" height="9.73"/>
  <rect class="cls-2" x="145.45" y="67.61" width="9.73" height="9.73"/>
  <rect class="cls-2" x="145.45" y="57.88" width="9.73" height="9.73"/>
  <rect class="cls-2" x="135.72" y="349.77" width="9.73" height="9.73"/>
  <rect class="cls-2" x="135.72" y="281.66" width="9.73" height="9.73"/>
  <rect class="cls-3" x="135.72" y="271.93" width="9.73" height="9.73"/>
  <rect class="cls-2" x="135.72" y="262.2" width="9.73" height="9.73"/>
  <rect class="cls-4" x="135.72" y="252.47" width="9.73" height="9.73"/>
  <rect class="cls-4" x="135.72" y="242.74" width="9.73" height="9.73"/>
  <rect class="cls-4" x="135.72" y="233.01" width="9.73" height="9.73"/>
  <rect class="cls-4" x="135.72" y="223.28" width="9.73" height="9.73"/>
  <rect class="cls-2" x="135.72" y="213.55" width="9.73" height="9.73"/>
  <rect class="cls-4" x="135.72" y="203.82" width="9.73" height="9.73"/>
  <rect class="cls-4" x="135.72" y="194.09" width="9.73" height="9.73"/>
  <rect class="cls-2" x="135.72" y="184.36" width="9.73" height="9.73"/>
  <rect class="cls-2" x="135.72" y="174.64" width="9.73" height="9.72"/>
  <rect class="cls-1" x="135.72" y="164.91" width="9.73" height="9.73"/>
  <rect class="cls-1" x="135.72" y="155.18" width="9.73" height="9.73"/>
  <rect class="cls-2" x="135.72" y="145.45" width="9.73" height="9.73"/>
  <rect class="cls-2" x="135.72" y="135.72" width="9.73" height="9.73"/>
  <rect class="cls-2" x="135.72" y="125.99" width="9.73" height="9.73"/>
  <rect class="cls-2" x="135.72" y="116.26" width="9.73" height="9.73"/>
  <rect class="cls-2" x="135.72" y="106.53" width="9.73" height="9.73"/>
  <rect class="cls-2" x="135.72" y="96.8" width="9.73" height="9.73"/>
  <rect class="cls-2" x="135.72" y="87.07" width="9.73" height="9.73"/>
  <rect class="cls-2" x="135.72" y="77.34" width="9.73" height="9.73"/>
  <rect class="cls-2" x="135.72" y="67.61" width="9.73" height="9.73"/>
  <rect class="cls-2" x="135.72" y="57.88" width="9.73" height="9.73"/>
  <rect class="cls-2" x="135.72" y="48.15" width="9.73" height="9.73"/>
  <rect class="cls-2" x="125.99" y="281.66" width="9.73" height="9.73"/>
  <rect class="cls-3" x="125.99" y="271.93" width="9.73" height="9.73"/>
  <rect class="cls-2" x="125.99" y="262.2" width="9.73" height="9.73"/>
  <rect class="cls-4" x="125.99" y="252.47" width="9.73" height="9.73"/>
  <rect class="cls-4" x="125.99" y="242.74" width="9.73" height="9.73"/>
  <rect class="cls-4" x="125.99" y="233.01" width="9.73" height="9.73"/>
  <rect class="cls-4" x="125.99" y="223.28" width="9.73" height="9.73"/>
  <rect class="cls-2" x="125.99" y="213.55" width="9.73" height="9.73"/>
  <rect class="cls-4" x="125.99" y="203.82" width="9.73" height="9.73"/>
  <rect class="cls-4" x="125.99" y="194.09" width="9.73" height="9.73"/>
  <rect class="cls-2" x="125.99" y="184.36" width="9.73" height="9.73"/>
  <rect class="cls-2" x="125.99" y="174.64" width="9.73" height="9.72"/>
  <rect class="cls-1" x="125.99" y="164.91" width="9.73" height="9.73"/>
  <rect class="cls-2" x="125.99" y="155.18" width="9.73" height="9.73"/>
  <rect class="cls-2" x="125.99" y="145.45" width="9.73" height="9.73"/>
  <rect class="cls-2" x="125.99" y="135.72" width="9.73" height="9.73"/>
  <rect class="cls-2" x="125.99" y="125.99" width="9.73" height="9.73"/>
  <rect class="cls-2" x="125.99" y="116.26" width="9.73" height="9.73"/>
  <rect class="cls-2" x="125.99" y="106.53" width="9.73" height="9.73"/>
  <rect class="cls-2" x="125.99" y="96.8" width="9.73" height="9.73"/>
  <rect class="cls-2" x="125.99" y="87.07" width="9.73" height="9.73"/>
  <rect class="cls-2" x="125.99" y="77.34" width="9.73" height="9.73"/>
  <rect class="cls-2" x="125.99" y="67.61" width="9.73" height="9.73"/>
  <rect class="cls-2" x="125.99" y="57.88" width="9.73" height="9.73"/>
  <rect class="cls-2" x="125.99" y="48.15" width="9.73" height="9.73"/>
  <rect class="cls-2" x="125.99" y="38.42" width="9.73" height="9.73"/>
  <rect class="cls-2" x="116.26" y="281.66" width="9.73" height="9.73"/>
  <rect class="cls-3" x="116.26" y="271.93" width="9.73" height="9.73"/>
  <rect class="cls-2" x="116.26" y="262.2" width="9.73" height="9.73"/>
  <rect class="cls-4" x="116.26" y="252.47" width="9.73" height="9.73"/>
  <rect class="cls-4" x="116.26" y="242.74" width="9.73" height="9.73"/>
  <rect class="cls-4" x="116.26" y="233.01" width="9.73" height="9.73"/>
  <rect class="cls-4" x="116.26" y="223.28" width="9.73" height="9.73"/>
  <rect class="cls-2" x="116.26" y="213.55" width="9.73" height="9.73"/>
  <rect class="cls-4" x="116.26" y="203.82" width="9.73" height="9.73"/>
  <rect class="cls-4" x="116.26" y="194.09" width="9.73" height="9.73"/>
  <rect class="cls-2" x="116.26" y="184.36" width="9.73" height="9.73"/>
  <rect class="cls-2" x="116.26" y="174.64" width="9.73" height="9.72"/>
  <rect class="cls-1" x="116.26" y="164.91" width="9.73" height="9.73"/>
  <rect class="cls-1" x="116.26" y="155.18" width="9.73" height="9.73"/>
  <rect class="cls-2" x="116.26" y="145.45" width="9.73" height="9.73"/>
  <rect class="cls-2" x="116.26" y="135.72" width="9.73" height="9.73"/>
  <rect class="cls-2" x="116.26" y="125.99" width="9.73" height="9.73"/>
  <rect class="cls-2" x="116.26" y="116.26" width="9.73" height="9.73"/>
  <rect class="cls-2" x="116.26" y="106.53" width="9.73" height="9.73"/>
  <rect class="cls-2" x="116.26" y="96.8" width="9.73" height="9.73"/>
  <rect class="cls-2" x="116.26" y="87.07" width="9.73" height="9.73"/>
  <rect class="cls-2" x="116.26" y="77.34" width="9.73" height="9.73"/>
  <rect class="cls-2" x="116.26" y="67.61" width="9.73" height="9.73"/>
  <rect class="cls-2" x="116.26" y="57.88" width="9.73" height="9.73"/>
  <rect class="cls-2" x="116.26" y="48.15" width="9.73" height="9.73"/>
  <rect class="cls-2" x="106.53" y="349.77" width="9.73" height="9.73"/>
  <rect class="cls-2" x="106.53" y="281.66" width="9.73" height="9.73"/>
  <rect class="cls-3" x="106.53" y="271.93" width="9.73" height="9.73"/>
  <rect class="cls-2" x="106.53" y="262.2" width="9.73" height="9.73"/>
  <rect class="cls-4" x="106.53" y="252.47" width="9.73" height="9.73"/>
  <rect class="cls-4" x="106.53" y="242.74" width="9.73" height="9.73"/>
  <rect class="cls-4" x="106.53" y="233.01" width="9.73" height="9.73"/>
  <rect class="cls-4" x="106.53" y="223.28" width="9.73" height="9.73"/>
  <rect class="cls-2" x="106.53" y="213.55" width="9.73" height="9.73"/>
  <rect class="cls-4" x="106.53" y="203.82" width="9.73" height="9.73"/>
  <rect class="cls-4" x="106.53" y="194.09" width="9.73" height="9.73"/>
  <rect class="cls-2" x="106.53" y="184.36" width="9.73" height="9.73"/>
  <rect class="cls-2" x="106.53" y="174.64" width="9.73" height="9.72"/>
  <rect class="cls-1" x="106.53" y="164.91" width="9.73" height="9.73"/>
  <rect class="cls-1" x="106.53" y="155.18" width="9.73" height="9.73"/>
  <rect class="cls-2" x="106.53" y="145.45" width="9.73" height="9.73"/>
  <rect class="cls-2" x="106.53" y="135.72" width="9.73" height="9.73"/>
  <rect class="cls-2" x="106.53" y="125.99" width="9.73" height="9.73"/>
  <rect class="cls-2" x="106.53" y="116.26" width="9.73" height="9.73"/>
  <rect class="cls-2" x="106.53" y="106.53" width="9.73" height="9.73"/>
  <rect class="cls-2" x="106.53" y="96.8" width="9.73" height="9.73"/>
  <rect class="cls-2" x="106.53" y="87.07" width="9.73" height="9.73"/>
  <rect class="cls-2" x="106.53" y="77.34" width="9.73" height="9.73"/>
  <rect class="cls-2" x="106.53" y="67.61" width="9.73" height="9.73"/>
  <rect class="cls-2" x="106.53" y="57.88" width="9.73" height="9.73"/>
  <rect class="cls-2" x="106.53" y="48.15" width="9.73" height="9.73"/>
  <rect class="cls-2" x="96.8" y="349.77" width="9.73" height="9.73"/>
  <rect class="cls-2" x="96.8" y="340.04" width="9.73" height="9.73"/>
  <rect class="cls-2" x="96.8" y="330.31" width="9.73" height="9.73"/>
  <rect class="cls-2" x="96.8" y="320.58" width="9.73" height="9.73"/>
  <rect class="cls-2" x="96.8" y="310.85" width="9.73" height="9.73"/>
  <rect class="cls-2" x="96.8" y="301.12" width="9.73" height="9.73"/>
  <rect class="cls-2" x="96.8" y="291.39" width="9.73" height="9.73"/>
  <rect class="cls-2" x="96.8" y="281.66" width="9.73" height="9.73"/>
  <rect class="cls-3" x="96.8" y="271.93" width="9.73" height="9.73"/>
  <rect class="cls-2" x="96.8" y="262.2" width="9.73" height="9.73"/>
  <rect class="cls-4" x="96.8" y="252.47" width="9.73" height="9.73"/>
  <rect class="cls-4" x="96.8" y="242.74" width="9.73" height="9.73"/>
  <rect class="cls-4" x="96.8" y="233.01" width="9.73" height="9.73"/>
  <rect class="cls-2" x="96.8" y="223.28" width="9.73" height="9.73"/>
  <rect class="cls-2" x="96.8" y="213.55" width="9.73" height="9.73"/>
  <rect class="cls-4" x="96.8" y="203.82" width="9.73" height="9.73"/>
  <rect class="cls-4" x="96.8" y="194.09" width="9.73" height="9.73"/>
  <rect class="cls-2" x="96.8" y="184.36" width="9.73" height="9.73"/>
  <rect class="cls-2" x="96.8" y="174.64" width="9.73" height="9.72"/>
  <rect class="cls-2" x="96.8" y="164.91" width="9.73" height="9.73"/>
  <rect class="cls-2" x="96.8" y="155.18" width="9.73" height="9.73"/>
  <rect class="cls-2" x="96.8" y="145.45" width="9.73" height="9.73"/>
  <rect class="cls-2" x="96.8" y="135.72" width="9.73" height="9.73"/>
  <rect class="cls-2" x="96.8" y="125.99" width="9.73" height="9.73"/>
  <rect class="cls-2" x="96.8" y="116.26" width="9.73" height="9.73"/>
  <rect class="cls-2" x="96.8" y="106.53" width="9.73" height="9.73"/>
  <rect class="cls-2" x="96.8" y="96.8" width="9.73" height="9.73"/>
  <rect class="cls-2" x="96.8" y="87.07" width="9.73" height="9.73"/>
  <rect class="cls-2" x="96.8" y="77.34" width="9.73" height="9.73"/>
  <rect class="cls-2" x="96.8" y="67.61" width="9.73" height="9.73"/>
  <rect class="cls-2" x="96.8" y="57.88" width="9.73" height="9.73"/>
  <rect class="cls-2" x="96.8" y="48.15" width="9.73" height="9.73"/>
  <rect class="cls-2" x="96.8" y="38.42" width="9.73" height="9.73"/>
  <rect class="cls-2" x="87.07" y="349.77" width="9.73" height="9.73"/>
  <rect class="cls-2" x="87.07" y="340.04" width="9.73" height="9.73"/>
  <rect class="cls-2" x="87.07" y="330.31" width="9.73" height="9.73"/>
  <rect class="cls-2" x="87.07" y="320.58" width="9.73" height="9.73"/>
  <rect class="cls-2" x="87.07" y="310.85" width="9.73" height="9.73"/>
  <rect class="cls-2" x="87.07" y="301.12" width="9.73" height="9.73"/>
  <rect class="cls-2" x="87.07" y="291.39" width="9.73" height="9.73"/>
  <rect class="cls-2" x="87.07" y="281.66" width="9.73" height="9.73"/>
  <rect class="cls-3" x="87.07" y="271.93" width="9.73" height="9.73"/>
  <rect class="cls-2" x="87.07" y="262.2" width="9.73" height="9.73"/>
  <rect class="cls-4" x="87.07" y="252.47" width="9.73" height="9.73"/>
  <rect class="cls-4" x="87.07" y="242.74" width="9.73" height="9.73"/>
  <rect class="cls-4" x="87.07" y="233.01" width="9.73" height="9.73"/>
  <rect class="cls-4" x="87.07" y="223.28" width="9.73" height="9.73"/>
  <rect class="cls-2" x="87.07" y="213.55" width="9.73" height="9.73"/>
  <rect class="cls-4" x="87.07" y="203.82" width="9.73" height="9.73"/>
  <rect class="cls-4" x="87.07" y="194.09" width="9.73" height="9.73"/>
  <rect class="cls-2" x="87.07" y="184.36" width="9.73" height="9.73"/>
  <rect class="cls-2" x="87.07" y="174.64" width="9.73" height="9.72"/>
  <rect class="cls-2" x="87.07" y="145.45" width="9.73" height="9.73"/>
  <rect class="cls-2" x="87.07" y="135.72" width="9.73" height="9.73"/>
  <rect class="cls-2" x="87.07" y="125.99" width="9.73" height="9.73"/>
  <rect class="cls-2" x="87.07" y="116.26" width="9.73" height="9.73"/>
  <rect class="cls-2" x="87.07" y="106.53" width="9.73" height="9.73"/>
  <rect class="cls-2" x="87.07" y="96.8" width="9.73" height="9.73"/>
  <rect class="cls-2" x="87.07" y="87.07" width="9.73" height="9.73"/>
  <rect class="cls-2" x="87.07" y="77.34" width="9.73" height="9.73"/>
  <rect class="cls-2" x="87.07" y="67.61" width="9.73" height="9.73"/>
  <rect class="cls-2" x="87.07" y="57.88" width="9.73" height="9.73"/>
  <rect class="cls-2" x="87.07" y="48.15" width="9.73" height="9.73"/>
  <rect class="cls-2" x="77.34" y="349.77" width="9.73" height="9.73"/>
  <rect class="cls-2" x="77.34" y="271.93" width="9.73" height="9.73"/>
  <rect class="cls-3" x="77.34" y="262.2" width="9.73" height="9.73"/>
  <rect class="cls-2" x="77.34" y="252.47" width="9.73" height="9.73"/>
  <rect class="cls-4" x="77.34" y="242.74" width="9.73" height="9.73"/>
  <rect class="cls-4" x="77.34" y="233.01" width="9.73" height="9.73"/>
  <rect class="cls-4" x="77.34" y="223.28" width="9.73" height="9.73"/>
  <rect class="cls-4" x="77.34" y="213.55" width="9.73" height="9.73"/>
  <rect class="cls-4" x="77.34" y="203.82" width="9.73" height="9.73"/>
  <rect class="cls-2" x="77.34" y="194.09" width="9.73" height="9.73"/>
  <rect class="cls-3" x="77.34" y="184.36" width="9.73" height="9.73"/>
  <rect class="cls-2" x="77.34" y="174.64" width="9.73" height="9.72"/>
  <rect class="cls-2" x="77.34" y="145.45" width="9.73" height="9.73"/>
  <rect class="cls-2" x="77.34" y="135.72" width="9.73" height="9.73"/>
  <rect class="cls-2" x="77.34" y="125.99" width="9.73" height="9.73"/>
  <rect class="cls-2" x="77.34" y="116.26" width="9.73" height="9.73"/>
  <rect class="cls-2" x="77.34" y="106.53" width="9.73" height="9.73"/>
  <rect class="cls-2" x="77.34" y="96.8" width="9.73" height="9.73"/>
  <rect class="cls-2" x="77.34" y="87.07" width="9.73" height="9.73"/>
  <rect class="cls-2" x="77.34" y="77.34" width="9.73" height="9.73"/>
  <rect class="cls-2" x="77.34" y="67.61" width="9.73" height="9.73"/>
  <rect class="cls-2" x="77.34" y="57.88" width="9.73" height="9.73"/>
  <rect class="cls-2" x="67.61" y="291.39" width="9.73" height="9.73"/>
  <rect class="cls-2" x="67.61" y="262.2" width="9.73" height="9.73"/>
  <rect class="cls-2" x="67.61" y="252.47" width="9.73" height="9.73"/>
  <rect class="cls-2" x="67.61" y="242.74" width="9.73" height="9.73"/>
  <rect class="cls-2" x="67.61" y="233.01" width="9.73" height="9.73"/>
  <rect class="cls-2" x="67.61" y="223.28" width="9.73" height="9.73"/>
  <rect class="cls-2" x="67.61" y="213.55" width="9.73" height="9.73"/>
  <rect class="cls-2" x="67.61" y="203.82" width="9.73" height="9.73"/>
  <rect class="cls-2" x="67.61" y="194.09" width="9.73" height="9.73"/>
  <rect class="cls-2" x="67.61" y="184.36" width="9.73" height="9.73"/>
  <rect class="cls-2" x="67.61" y="135.72" width="9.73" height="9.73"/>
  <rect class="cls-2" x="67.61" y="125.99" width="9.73" height="9.73"/>
  <rect class="cls-2" x="67.61" y="116.26" width="9.73" height="9.73"/>
  <rect class="cls-2" x="67.61" y="106.53" width="9.73" height="9.73"/>
  <rect class="cls-2" x="67.61" y="96.8" width="9.73" height="9.73"/>
  <rect class="cls-2" x="67.61" y="87.07" width="9.73" height="9.73"/>
  <rect class="cls-2" x="67.61" y="77.34" width="9.73" height="9.73"/>
  <rect class="cls-2" x="67.61" y="67.61" width="9.73" height="9.73"/>
  <rect class="cls-2" x="67.61" y="57.88" width="9.73" height="9.73"/>
  <rect class="cls-2" x="67.61" y="48.15" width="9.73" height="9.73"/>
  <rect class="cls-2" x="57.88" y="301.12" width="9.73" height="9.73"/>
  <rect class="cls-2" x="57.88" y="291.39" width="9.73" height="9.73"/>
  <rect class="cls-2" x="57.88" y="281.66" width="9.73" height="9.73"/>
  <rect class="cls-2" x="57.88" y="271.93" width="9.73" height="9.73"/>
  <rect class="cls-2" x="57.88" y="262.2" width="9.73" height="9.73"/>
  <rect class="cls-2" x="57.88" y="252.47" width="9.73" height="9.73"/>
  <rect class="cls-2" x="57.88" y="242.74" width="9.73" height="9.73"/>
  <rect class="cls-2" x="57.88" y="233.01" width="9.73" height="9.73"/>
  <rect class="cls-2" x="57.88" y="223.28" width="9.73" height="9.73"/>
  <rect class="cls-2" x="57.88" y="213.55" width="9.73" height="9.73"/>
  <rect class="cls-2" x="57.88" y="203.82" width="9.73" height="9.73"/>
  <rect class="cls-2" x="57.88" y="125.99" width="9.73" height="9.73"/>
  <rect class="cls-2" x="57.88" y="116.26" width="9.73" height="9.73"/>
  <rect class="cls-2" x="57.88" y="106.53" width="9.73" height="9.73"/>
  <rect class="cls-2" x="57.88" y="96.8" width="9.73" height="9.73"/>
  <rect class="cls-2" x="57.88" y="87.07" width="9.73" height="9.73"/>
  <rect class="cls-2" x="57.88" y="77.34" width="9.73" height="9.73"/>
  <rect class="cls-2" x="57.88" y="57.88" width="9.73" height="9.73"/>
  <rect class="cls-2" x="48.15" y="125.99" width="9.73" height="9.73"/>
  <rect class="cls-2" x="48.15" y="116.26" width="9.73" height="9.73"/>
  <rect class="cls-2" x="48.15" y="106.53" width="9.73" height="9.73"/>
  <rect class="cls-2" x="48.15" y="87.07" width="9.73" height="9.73"/>
  <rect class="cls-2" x="38.42" y="116.26" width="9.73" height="9.73"/>
</svg>