<?xml version="1.0" encoding="UTF-8" ?>
<svg version="1.1" width="400" height="400" xmlns="http://www.w3.org/2000/svg" shape-rendering="crispEdges">
<rect x="10" y="60" width="20" height="250" fill="#405146" />
<rect x="370" y="60" width="20" height="250" fill="#405146" />
<rect x="30" y="70" width="340" height="10" fill="#405146" />
<rect x="30" y="80" width="40" height="10" fill="#706458" />
<rect x="70" y="80" width="300" height="10" fill="#5D7471" />
<rect x="30" y="90" width="20" height="10" fill="#706458" />
<rect x="50" y="90" width="300" height="10" fill="#6E8386" />
<rect x="350" y="90" width="10" height="30" fill="#5D7471" />
<rect x="360" y="90" width="10" height="10" fill="#706458" />
<rect x="30" y="100" width="30" height="10" fill="#5D7471" />
<rect x="60" y="100" width="280" height="10" fill="#6E8386" />
<rect x="340" y="100" width="10" height="20" fill="#5D7471" />
<rect x="360" y="100" width="10" height="20" fill="#5D7471" />
<rect x="30" y="110" width="10" height="10" fill="#5D7471" />
<rect x="40" y="110" width="10" height="10" fill="#706458" />
<rect x="50" y="110" width="290" height="10" fill="#5D7471" />
<rect x="30" y="120" width="340" height="10" fill="#405146" />
<rect x="340" y="130" width="10" height="20" fill="#62746D" />
<rect x="350" y="130" width="10" height="20" fill="#2F4662" />
<rect x="360" y="130" width="10" height="20" fill="#27362B" />
<rect x="30" y="140" width="310" height="10" fill="#62746D" />
<rect x="30" y="150" width="320" height="10" fill="#405146" />
<rect x="350" y="150" width="10" height="20" fill="#376D70" />
<rect x="360" y="150" width="10" height="20" fill="#394C39" />
<rect x="30" y="160" width="320" height="20" fill="#5D7471" />
<rect x="350" y="170" width="20" height="10" fill="#819394" />
<rect x="30" y="180" width="40" height="10" fill="#5D7471" />
<rect x="70" y="180" width="260" height="20" fill="#6E8386" />
<rect x="330" y="180" width="20" height="10" fill="#5D7471" />
<rect x="350" y="180" width="10" height="10" fill="#376D70" />
<rect x="360" y="180" width="10" height="10" fill="#394C39" />
<rect x="30" y="190" width="10" height="10" fill="#5D7471" />
<rect x="40" y="190" width="10" height="10" fill="#706458" />
<rect x="50" y="190" width="20" height="10" fill="#6E8386" />
<rect x="330" y="190" width="20" height="10" fill="#6E8386" />
<rect x="350" y="190" width="20" height="10" fill="#5D7471" />
<rect x="30" y="200" width="340" height="10" fill="#405146" />
<rect x="30" y="210" width="20" height="10" fill="#3D313F" />
<rect x="50" y="210" width="10" height="10" fill="#62746D" />
<rect x="70" y="210" width="10" height="20" fill="#62746D" />
<rect x="100" y="210" width="70" height="10" fill="#2F4662" />
<rect x="270" y="210" width="20" height="20" fill="#62746D" />
<rect x="330" y="210" width="10" height="20" fill="#62746D" />
<rect x="30" y="220" width="10" height="20" fill="#53495E" />
<rect x="40" y="220" width="20" height="10" fill="#3D313F" />
<rect x="60" y="220" width="10" height="10" fill="#62746D" />
<rect x="80" y="220" width="20" height="10" fill="#27362B" />
<rect x="100" y="220" width="50" height="10" fill="#376D70" />
<rect x="150" y="220" width="10" height="10" fill="#2F4662" />
<rect x="160" y="220" width="10" height="30" fill="#376D70" />
<rect x="170" y="220" width="100" height="10" fill="#62746D" />
<rect x="290" y="220" width="40" height="10" fill="#62746D" />
<rect x="340" y="220" width="30" height="10" fill="#62746D" />
<rect x="40" y="230" width="10" height="20" fill="#53495E" />
<rect x="50" y="230" width="20" height="10" fill="#3D313F" />
<rect x="70" y="230" width="10" height="10" fill="#405146" />
<rect x="80" y="230" width="20" height="30" fill="#394C39" />
<rect x="100" y="230" width="40" height="20" fill="#376D70" />
<rect x="140" y="230" width="10" height="10" fill="#2F4662" />
<rect x="150" y="230" width="10" height="20" fill="#376D70" />
<rect x="170" y="230" width="200" height="10" fill="#405146" />
<rect x="30" y="240" width="10" height="20" fill="#5D7471" />
<rect x="50" y="240" width="10" height="10" fill="#53495E" />
<rect x="60" y="240" width="20" height="10" fill="#3D313F" />
<rect x="140" y="240" width="10" height="10" fill="#376D70" />
<rect x="170" y="240" width="100" height="30" fill="#5D7471" />
<rect x="270" y="240" width="10" height="10" fill="#706458" />
<rect x="280" y="240" width="10" height="30" fill="#5D7471" />
<rect x="290" y="240" width="10" height="10" fill="#706458" />
<rect x="300" y="240" width="50" height="30" fill="#5D7471" />
<rect x="350" y="240" width="20" height="10" fill="#706458" />
<rect x="40" y="250" width="10" height="20" fill="#5D7471" />
<rect x="50" y="250" width="20" height="10" fill="#819394" />
<rect x="70" y="250" width="10" height="10" fill="#3D313F" />
<rect x="100" y="250" width="70" height="10" fill="#A1B3AC" />
<rect x="270" y="250" width="10" height="20" fill="#5D7471" />
<rect x="290" y="250" width="10" height="20" fill="#5D7471" />
<rect x="350" y="250" width="10" height="30" fill="#5D7471" />
<rect x="360" y="250" width="10" height="10" fill="#706458" />
<rect x="30" y="260" width="10" height="20" fill="#706458" />
<rect x="50" y="260" width="10" height="10" fill="#5D7471" />
<rect x="60" y="260" width="20" height="10" fill="#53495E" />
<rect x="80" y="260" width="70" height="10" fill="#A1B3AC" />
<rect x="150" y="260" width="20" height="10" fill="#5D7471" />
<rect x="360" y="260" width="10" height="20" fill="#5D7471" />
<rect x="40" y="270" width="20" height="10" fill="#706458" />
<rect x="60" y="270" width="30" height="10" fill="#5D7471" />
<rect x="90" y="270" width="220" height="10" fill="#6E8386" />
<rect x="310" y="270" width="40" height="10" fill="#5D7471" />
<rect x="30" y="280" width="340" height="10" fill="#405146" />
<rect x="30" y="290" width="340" height="10" fill="#62746D" />
<rect x="30" y="300" width="20" height="10" fill="#62746D" />
<rect x="350" y="300" width="20" height="10" fill="#62746D" />
<rect x="10" y="310" width="30" height="10" fill="#62746D" />
<rect x="360" y="310" width="30" height="10" fill="#62746D" />
</svg>