<?xml version="1.0" encoding="UTF-8" ?>
<svg version="1.1" width="400" height="400" xmlns="http://www.w3.org/2000/svg" shape-rendering="crispEdges">
<rect x="140" y="100" width="10" height="10" fill="#A1B3AC" />
<rect x="130" y="110" width="10" height="10" fill="#A1B3AC" />
<rect x="140" y="110" width="10" height="10" fill="#BEC9C5" />
<rect x="150" y="110" width="10" height="10" fill="#A1B3AC" />
<rect x="120" y="120" width="10" height="10" fill="#A1B3AC" />
<rect x="130" y="120" width="10" height="10" fill="#BEC9C5" />
<rect x="140" y="120" width="10" height="10" fill="#374448" />
<rect x="150" y="120" width="10" height="20" fill="#BEC9C5" />
<rect x="160" y="120" width="10" height="10" fill="#A1B3AC" />
<rect x="110" y="130" width="10" height="10" fill="#A1B3AC" />
<rect x="120" y="130" width="10" height="10" fill="#BEC9C5" />
<rect x="130" y="130" width="10" height="10" fill="#374448" />
<rect x="140" y="130" width="10" height="10" fill="#623219" />
<rect x="160" y="130" width="10" height="30" fill="#BEC9C5" />
<rect x="170" y="130" width="10" height="10" fill="#A1B3AC" />
<rect x="100" y="140" width="10" height="10" fill="#A1B3AC" />
<rect x="110" y="140" width="10" height="10" fill="#BEC9C5" />
<rect x="120" y="140" width="10" height="10" fill="#374448" />
<rect x="130" y="140" width="10" height="10" fill="#623219" />
<rect x="140" y="140" width="10" height="10" fill="#BEC9C5" />
<rect x="150" y="140" width="10" height="10" fill="#374448" />
<rect x="170" y="140" width="10" height="10" fill="#BEC9C5" />
<rect x="180" y="140" width="10" height="10" fill="#A1B3AC" />
<rect x="90" y="150" width="10" height="10" fill="#A1B3AC" />
<rect x="100" y="150" width="10" height="10" fill="#BEC9C5" />
<rect x="110" y="150" width="10" height="10" fill="#374448" />
<rect x="120" y="150" width="10" height="10" fill="#623219" />
<rect x="130" y="150" width="10" height="40" fill="#BEC9C5" />
<rect x="140" y="150" width="10" height="10" fill="#374448" />
<rect x="150" y="150" width="10" height="10" fill="#623219" />
<rect x="170" y="150" width="10" height="10" fill="#A1B3AC" />
<rect x="80" y="160" width="10" height="10" fill="#A1B3AC" />
<rect x="90" y="160" width="10" height="10" fill="#BEC9C5" />
<rect x="100" y="160" width="10" height="10" fill="#374448" />
<rect x="110" y="160" width="10" height="10" fill="#623219" />
<rect x="120" y="160" width="10" height="10" fill="#BEC9C5" />
<rect x="140" y="160" width="10" height="10" fill="#623219" />
<rect x="150" y="160" width="10" height="10" fill="#BEC9C5" />
<rect x="160" y="160" width="10" height="10" fill="#A1B3AC" />
<rect x="170" y="160" width="10" height="10" fill="#62746D" />
<rect x="90" y="170" width="10" height="10" fill="#A1B3AC" />
<rect x="100" y="170" width="20" height="10" fill="#BEC9C5" />
<rect x="120" y="170" width="10" height="10" fill="#374448" />
<rect x="140" y="170" width="10" height="10" fill="#BEC9C5" />
<rect x="150" y="170" width="10" height="10" fill="#A1B3AC" />
<rect x="160" y="170" width="10" height="10" fill="#62746D" />
<rect x="90" y="180" width="10" height="10" fill="#62746D" />
<rect x="100" y="180" width="10" height="10" fill="#A1B3AC" />
<rect x="110" y="180" width="10" height="10" fill="#BEC9C5" />
<rect x="120" y="180" width="10" height="10" fill="#623219" />
<rect x="140" y="180" width="10" height="10" fill="#A1B3AC" />
<rect x="150" y="180" width="10" height="10" fill="#62746D" />
<rect x="100" y="190" width="10" height="10" fill="#62746D" />
<rect x="110" y="190" width="10" height="10" fill="#A1B3AC" />
<rect x="120" y="190" width="10" height="10" fill="#BEC9C5" />
<rect x="130" y="190" width="10" height="10" fill="#A1B3AC" />
<rect x="140" y="190" width="10" height="10" fill="#62746D" />
<rect x="110" y="200" width="10" height="10" fill="#62746D" />
<rect x="120" y="200" width="10" height="10" fill="#A1B3AC" />
<rect x="130" y="200" width="10" height="10" fill="#62746D" />
<rect x="120" y="210" width="10" height="10" fill="#62746D" />
</svg>