<?xml version="1.0" encoding="UTF-8" ?>
<svg version="1.1" width="400" height="400" xmlns="http://www.w3.org/2000/svg" shape-rendering="crispEdges">
<rect x="100" y="0" width="10" height="10" fill="#A1B3AC" />
<rect x="90" y="10" width="10" height="10" fill="#A1B3AC" />
<rect x="100" y="10" width="10" height="20" fill="#BEC9C5" />
<rect x="110" y="10" width="10" height="10" fill="#A1B3AC" />
<rect x="80" y="20" width="10" height="10" fill="#A1B3AC" />
<rect x="90" y="20" width="10" height="30" fill="#BEC9C5" />
<rect x="110" y="20" width="10" height="10" fill="#BEC9C5" />
<rect x="120" y="20" width="10" height="10" fill="#A1B3AC" />
<rect x="70" y="30" width="10" height="10" fill="#A1B3AC" />
<rect x="80" y="30" width="10" height="20" fill="#BEC9C5" />
<rect x="100" y="30" width="10" height="10" fill="#374448" />
<rect x="110" y="30" width="10" height="10" fill="#623219" />
<rect x="120" y="30" width="10" height="20" fill="#BEC9C5" />
<rect x="130" y="30" width="10" height="10" fill="#A1B3AC" />
<rect x="60" y="40" width="10" height="10" fill="#A1B3AC" />
<rect x="70" y="40" width="10" height="20" fill="#BEC9C5" />
<rect x="100" y="40" width="10" height="10" fill="#623219" />
<rect x="110" y="40" width="10" height="10" fill="#374448" />
<rect x="130" y="40" width="10" height="10" fill="#BEC9C5" />
<rect x="140" y="40" width="10" height="20" fill="#A1B3AC" />
<rect x="150" y="40" width="10" height="10" fill="#62746D" />
<rect x="50" y="50" width="10" height="10" fill="#A1B3AC" />
<rect x="60" y="50" width="10" height="30" fill="#BEC9C5" />
<rect x="80" y="50" width="10" height="10" fill="#374448" />
<rect x="90" y="50" width="10" height="10" fill="#623219" />
<rect x="100" y="50" width="10" height="10" fill="#374448" />
<rect x="110" y="50" width="10" height="10" fill="#BEC9C5" />
<rect x="120" y="50" width="20" height="10" fill="#A1B3AC" />
<rect x="150" y="50" width="70" height="10" fill="#A1B3AC" />
<rect x="40" y="60" width="10" height="10" fill="#A1B3AC" />
<rect x="50" y="60" width="10" height="10" fill="#BEC9C5" />
<rect x="70" y="60" width="10" height="10" fill="#374448" />
<rect x="80" y="60" width="10" height="10" fill="#623219" />
<rect x="90" y="60" width="10" height="10" fill="#374448" />
<rect x="100" y="60" width="10" height="10" fill="#BEC9C5" />
<rect x="110" y="60" width="10" height="60" fill="#8BA4A3" />
<rect x="120" y="60" width="10" height="60" fill="#A1B3AC" />
<rect x="130" y="60" width="80" height="10" fill="#BEC9C5" />
<rect x="210" y="60" width="10" height="60" fill="#A1B3AC" />
<rect x="220" y="60" width="10" height="60" fill="#62746D" />
<rect x="40" y="70" width="10" height="20" fill="#62746D" />
<rect x="50" y="70" width="10" height="10" fill="#A1B3AC" />
<rect x="70" y="70" width="10" height="10" fill="#623219" />
<rect x="80" y="70" width="10" height="10" fill="#374448" />
<rect x="90" y="70" width="10" height="10" fill="#BEC9C5" />
<rect x="100" y="70" width="10" height="10" fill="#623219" />
<rect x="130" y="70" width="10" height="10" fill="#BEC9C5" />
<rect x="140" y="70" width="40" height="10" fill="#374448" />
<rect x="180" y="70" width="10" height="10" fill="#BEC9C5" />
<rect x="190" y="70" width="10" height="10" fill="#374448" />
<rect x="200" y="70" width="10" height="40" fill="#BEC9C5" />
<rect x="30" y="80" width="10" height="10" fill="#62746D" />
<rect x="50" y="80" width="10" height="10" fill="#62746D" />
<rect x="60" y="80" width="10" height="20" fill="#A1B3AC" />
<rect x="70" y="80" width="20" height="10" fill="#BEC9C5" />
<rect x="90" y="80" width="10" height="10" fill="#623219" />
<rect x="100" y="80" width="10" height="20" fill="#A1B3AC" />
<rect x="130" y="80" width="70" height="10" fill="#623219" />
<rect x="20" y="90" width="10" height="60" fill="#62746D" />
<rect x="30" y="90" width="30" height="10" fill="#A1B3AC" />
<rect x="70" y="90" width="30" height="10" fill="#A1B3AC" />
<rect x="130" y="90" width="10" height="10" fill="#BEC9C5" />
<rect x="140" y="90" width="20" height="10" fill="#374448" />
<rect x="160" y="90" width="10" height="10" fill="#BEC9C5" />
<rect x="170" y="90" width="30" height="10" fill="#374448" />
<rect x="30" y="100" width="10" height="40" fill="#A1B3AC" />
<rect x="40" y="100" width="70" height="10" fill="#BEC9C5" />
<rect x="130" y="100" width="70" height="10" fill="#623219" />
<rect x="40" y="110" width="10" height="20" fill="#BEC9C5" />
<rect x="50" y="110" width="40" height="10" fill="#374448" />
<rect x="90" y="110" width="10" height="10" fill="#BEC9C5" />
<rect x="100" y="110" width="10" height="10" fill="#374448" />
<rect x="130" y="110" width="80" height="10" fill="#A1B3AC" />
<rect x="50" y="120" width="10" height="10" fill="#BEC9C5" />
<rect x="60" y="120" width="50" height="10" fill="#623219" />
<rect x="110" y="120" width="10" height="10" fill="#A1B3AC" />
<rect x="120" y="120" width="90" height="10" fill="#8BA4A3" />
<rect x="210" y="120" width="10" height="20" fill="#62746D" />
<rect x="40" y="130" width="10" height="10" fill="#8BA4A3" />
<rect x="50" y="130" width="20" height="10" fill="#374448" />
<rect x="70" y="130" width="10" height="10" fill="#BEC9C5" />
<rect x="80" y="130" width="30" height="10" fill="#374448" />
<rect x="110" y="130" width="10" height="10" fill="#BEC9C5" />
<rect x="120" y="130" width="10" height="30" fill="#A1B3AC" />
<rect x="130" y="130" width="10" height="10" fill="#768D93" />
<rect x="140" y="130" width="20" height="10" fill="#8BA4A3" />
<rect x="160" y="130" width="10" height="10" fill="#A1B3AC" />
<rect x="170" y="130" width="10" height="10" fill="#BEC9C5" />
<rect x="180" y="130" width="10" height="10" fill="#374448" />
<rect x="190" y="130" width="10" height="10" fill="#BEC9C5" />
<rect x="200" y="130" width="10" height="20" fill="#A1B3AC" />
<rect x="30" y="140" width="10" height="10" fill="#8BA4A3" />
<rect x="40" y="140" width="10" height="20" fill="#BEC9C5" />
<rect x="50" y="140" width="10" height="10" fill="#8BA4A3" />
<rect x="60" y="140" width="10" height="10" fill="#BEC9C5" />
<rect x="70" y="140" width="50" height="10" fill="#623219" />
<rect x="130" y="140" width="20" height="10" fill="#8BA4A3" />
<rect x="150" y="140" width="10" height="10" fill="#A1B3AC" />
<rect x="160" y="140" width="10" height="10" fill="#BEC9C5" />
<rect x="170" y="140" width="10" height="10" fill="#374448" />
<rect x="180" y="140" width="10" height="10" fill="#623219" />
<rect x="190" y="140" width="10" height="10" fill="#A1B3AC" />
<rect x="210" y="140" width="10" height="10" fill="#8BA4A3" />
<rect x="220" y="140" width="10" height="10" fill="#62746D" />
<rect x="230" y="140" width="10" height="10" fill="#A1B3AC" />
<rect x="20" y="150" width="10" height="10" fill="#A1B3AC" />
<rect x="30" y="150" width="10" height="10" fill="#BEC9C5" />
<rect x="50" y="150" width="10" height="20" fill="#BEC9C5" />
<rect x="60" y="150" width="10" height="10" fill="#8BA4A3" />
<rect x="70" y="150" width="50" height="10" fill="#A1B3AC" />
<rect x="130" y="150" width="10" height="30" fill="#8BA4A3" />
<rect x="140" y="150" width="10" height="30" fill="#A1B3AC" />
<rect x="150" y="150" width="10" height="10" fill="#BEC9C5" />
<rect x="160" y="150" width="10" height="10" fill="#374448" />
<rect x="170" y="150" width="10" height="10" fill="#623219" />
<rect x="180" y="150" width="10" height="10" fill="#A1B3AC" />
<rect x="190" y="150" width="10" height="10" fill="#374448" />
<rect x="200" y="150" width="10" height="10" fill="#8BA4A3" />
<rect x="210" y="150" width="20" height="10" fill="#A1B3AC" />
<rect x="230" y="150" width="10" height="20" fill="#BEC9C5" />
<rect x="240" y="150" width="10" height="10" fill="#A1B3AC" />
<rect x="10" y="160" width="10" height="10" fill="#A1B3AC" />
<rect x="20" y="160" width="10" height="30" fill="#BEC9C5" />
<rect x="30" y="160" width="10" height="10" fill="#623219" />
<rect x="40" y="160" width="10" height="10" fill="#374448" />
<rect x="60" y="160" width="10" height="20" fill="#BEC9C5" />
<rect x="70" y="160" width="60" height="10" fill="#8BA4A3" />
<rect x="150" y="160" width="10" height="10" fill="#374448" />
<rect x="160" y="160" width="10" height="10" fill="#623219" />
<rect x="170" y="160" width="10" height="10" fill="#A1B3AC" />
<rect x="180" y="160" width="20" height="10" fill="#8BA4A3" />
<rect x="200" y="160" width="20" height="10" fill="#A1B3AC" />
<rect x="220" y="160" width="10" height="20" fill="#BEC9C5" />
<rect x="240" y="160" width="10" height="10" fill="#BEC9C5" />
<rect x="250" y="160" width="10" height="10" fill="#A1B3AC" />
<rect x="0" y="170" width="10" height="10" fill="#A1B3AC" />
<rect x="10" y="170" width="10" height="10" fill="#BEC9C5" />
<rect x="30" y="170" width="10" height="10" fill="#BEC9C5" />
<rect x="40" y="170" width="10" height="10" fill="#623219" />
<rect x="50" y="170" width="10" height="10" fill="#374448" />
<rect x="70" y="170" width="10" height="20" fill="#BEC9C5" />
<rect x="80" y="170" width="10" height="10" fill="#8BA4A3" />
<rect x="90" y="170" width="40" height="10" fill="#A1B3AC" />
<rect x="150" y="170" width="10" height="10" fill="#623219" />
<rect x="160" y="170" width="10" height="10" fill="#A1B3AC" />
<rect x="170" y="170" width="10" height="10" fill="#8BA4A3" />
<rect x="180" y="170" width="10" height="20" fill="#BEC9C5" />
<rect x="190" y="170" width="10" height="10" fill="#8BA4A3" />
<rect x="200" y="170" width="10" height="10" fill="#A1B3AC" />
<rect x="210" y="170" width="10" height="30" fill="#BEC9C5" />
<rect x="230" y="170" width="10" height="10" fill="#374448" />
<rect x="240" y="170" width="10" height="10" fill="#623219" />
<rect x="250" y="170" width="10" height="10" fill="#BEC9C5" />
<rect x="260" y="170" width="10" height="10" fill="#A1B3AC" />
<rect x="10" y="180" width="10" height="10" fill="#A1B3AC" />
<rect x="30" y="180" width="10" height="10" fill="#374448" />
<rect x="40" y="180" width="10" height="10" fill="#BEC9C5" />
<rect x="50" y="180" width="10" height="10" fill="#623219" />
<rect x="60" y="180" width="10" height="10" fill="#374448" />
<rect x="80" y="180" width="10" height="30" fill="#BEC9C5" />
<rect x="90" y="180" width="10" height="10" fill="#8BA4A3" />
<rect x="100" y="180" width="10" height="10" fill="#A1B3AC" />
<rect x="110" y="180" width="10" height="10" fill="#374448" />
<rect x="120" y="180" width="10" height="10" fill="#BEC9C5" />
<rect x="130" y="180" width="10" height="10" fill="#A1B3AC" />
<rect x="140" y="180" width="10" height="10" fill="#768D93" />
<rect x="150" y="180" width="10" height="10" fill="#A1B3AC" />
<rect x="160" y="180" width="10" height="10" fill="#8BA4A3" />
<rect x="170" y="180" width="10" height="20" fill="#BEC9C5" />
<rect x="190" y="180" width="10" height="10" fill="#A1B3AC" />
<rect x="200" y="180" width="10" height="20" fill="#BEC9C5" />
<rect x="220" y="180" width="10" height="10" fill="#374448" />
<rect x="230" y="180" width="10" height="10" fill="#623219" />
<rect x="240" y="180" width="10" height="10" fill="#374448" />
<rect x="250" y="180" width="10" height="10" fill="#623219" />
<rect x="260" y="180" width="10" height="10" fill="#BEC9C5" />
<rect x="270" y="180" width="10" height="10" fill="#A1B3AC" />
<rect x="10" y="190" width="10" height="10" fill="#62746D" />
<rect x="20" y="190" width="10" height="10" fill="#A1B3AC" />
<rect x="30" y="190" width="10" height="10" fill="#BEC9C5" />
<rect x="40" y="190" width="10" height="10" fill="#374448" />
<rect x="50" y="190" width="10" height="10" fill="#BEC9C5" />
<rect x="60" y="190" width="10" height="10" fill="#623219" />
<rect x="70" y="190" width="10" height="10" fill="#374448" />
<rect x="90" y="190" width="10" height="10" fill="#BEC9C5" />
<rect x="100" y="190" width="10" height="10" fill="#8BA4A3" />
<rect x="110" y="190" width="10" height="30" fill="#A1B3AC" />
<rect x="120" y="190" width="10" height="10" fill="#374448" />
<rect x="130" y="190" width="10" height="10" fill="#BEC9C5" />
<rect x="140" y="190" width="10" height="10" fill="#A1B3AC" />
<rect x="150" y="190" width="10" height="10" fill="#8BA4A3" />
<rect x="160" y="190" width="10" height="20" fill="#BEC9C5" />
<rect x="180" y="190" width="10" height="10" fill="#A1B3AC" />
<rect x="190" y="190" width="10" height="30" fill="#BEC9C5" />
<rect x="220" y="190" width="10" height="10" fill="#623219" />
<rect x="230" y="190" width="10" height="10" fill="#374448" />
<rect x="240" y="190" width="10" height="10" fill="#623219" />
<rect x="250" y="190" width="10" height="10" fill="#BEC9C5" />
<rect x="260" y="190" width="10" height="10" fill="#A1B3AC" />
<rect x="270" y="190" width="10" height="10" fill="#62746D" />
<rect x="20" y="200" width="10" height="10" fill="#62746D" />
<rect x="30" y="200" width="10" height="10" fill="#A1B3AC" />
<rect x="40" y="200" width="10" height="10" fill="#BEC9C5" />
<rect x="50" y="200" width="10" height="10" fill="#374448" />
<rect x="60" y="200" width="10" height="30" fill="#BEC9C5" />
<rect x="70" y="200" width="10" height="10" fill="#623219" />
<rect x="90" y="200" width="10" height="10" fill="#8BA4A3" />
<rect x="100" y="200" width="10" height="10" fill="#A1B3AC" />
<rect x="120" y="200" width="10" height="10" fill="#BEC9C5" />
<rect x="130" y="200" width="10" height="10" fill="#A1B3AC" />
<rect x="140" y="200" width="10" height="10" fill="#8BA4A3" />
<rect x="150" y="200" width="10" height="20" fill="#BEC9C5" />
<rect x="170" y="200" width="10" height="10" fill="#A1B3AC" />
<rect x="180" y="200" width="10" height="10" fill="#BEC9C5" />
<rect x="200" y="200" width="10" height="10" fill="#374448" />
<rect x="210" y="200" width="10" height="10" fill="#623219" />
<rect x="220" y="200" width="10" height="10" fill="#374448" />
<rect x="230" y="200" width="10" height="10" fill="#623219" />
<rect x="240" y="200" width="10" height="10" fill="#BEC9C5" />
<rect x="250" y="200" width="10" height="10" fill="#A1B3AC" />
<rect x="260" y="200" width="10" height="10" fill="#62746D" />
<rect x="30" y="210" width="10" height="10" fill="#62746D" />
<rect x="40" y="210" width="10" height="10" fill="#A1B3AC" />
<rect x="50" y="210" width="10" height="10" fill="#BEC9C5" />
<rect x="70" y="210" width="10" height="10" fill="#BEC9C5" />
<rect x="80" y="210" width="10" height="10" fill="#8BA4A3" />
<rect x="90" y="210" width="10" height="10" fill="#BEC9C5" />
<rect x="100" y="210" width="10" height="10" fill="#8BA4A3" />
<rect x="120" y="210" width="10" height="10" fill="#A1B3AC" />
<rect x="130" y="210" width="10" height="10" fill="#8BA4A3" />
<rect x="140" y="210" width="10" height="30" fill="#BEC9C5" />
<rect x="160" y="210" width="10" height="10" fill="#374448" />
<rect x="170" y="210" width="10" height="10" fill="#623219" />
<rect x="180" y="210" width="10" height="20" fill="#A1B3AC" />
<rect x="200" y="210" width="10" height="10" fill="#623219" />
<rect x="210" y="210" width="10" height="10" fill="#374448" />
<rect x="220" y="210" width="10" height="10" fill="#623219" />
<rect x="230" y="210" width="10" height="10" fill="#BEC9C5" />
<rect x="240" y="210" width="10" height="10" fill="#A1B3AC" />
<rect x="250" y="210" width="10" height="10" fill="#62746D" />
<rect x="40" y="220" width="10" height="10" fill="#62746D" />
<rect x="50" y="220" width="10" height="10" fill="#A1B3AC" />
<rect x="70" y="220" width="10" height="10" fill="#8BA4A3" />
<rect x="80" y="220" width="10" height="10" fill="#623219" />
<rect x="90" y="220" width="10" height="10" fill="#374448" />
<rect x="100" y="220" width="10" height="10" fill="#BEC9C5" />
<rect x="110" y="220" width="20" height="10" fill="#8BA4A3" />
<rect x="130" y="220" width="10" height="10" fill="#BEC9C5" />
<rect x="150" y="220" width="10" height="10" fill="#374448" />
<rect x="160" y="220" width="10" height="10" fill="#623219" />
<rect x="170" y="220" width="10" height="10" fill="#BEC9C5" />
<rect x="190" y="220" width="10" height="20" fill="#A1B3AC" />
<rect x="200" y="220" width="10" height="10" fill="#BEC9C5" />
<rect x="210" y="220" width="10" height="10" fill="#623219" />
<rect x="220" y="220" width="10" height="10" fill="#BEC9C5" />
<rect x="230" y="220" width="10" height="10" fill="#A1B3AC" />
<rect x="240" y="220" width="10" height="10" fill="#62746D" />
<rect x="50" y="230" width="10" height="10" fill="#62746D" />
<rect x="60" y="230" width="10" height="10" fill="#A1B3AC" />
<rect x="70" y="230" width="10" height="20" fill="#62746D" />
<rect x="80" y="230" width="10" height="10" fill="#A1B3AC" />
<rect x="90" y="230" width="10" height="10" fill="#BEC9C5" />
<rect x="100" y="230" width="10" height="10" fill="#374448" />
<rect x="110" y="230" width="10" height="10" fill="#BEC9C5" />
<rect x="120" y="230" width="10" height="10" fill="#A1B3AC" />
<rect x="130" y="230" width="10" height="10" fill="#8BA4A3" />
<rect x="150" y="230" width="10" height="10" fill="#623219" />
<rect x="160" y="230" width="10" height="10" fill="#BEC9C5" />
<rect x="170" y="230" width="10" height="10" fill="#374448" />
<rect x="180" y="230" width="10" height="10" fill="#BEC9C5" />
<rect x="200" y="230" width="10" height="10" fill="#A1B3AC" />
<rect x="210" y="230" width="10" height="10" fill="#BEC9C5" />
<rect x="220" y="230" width="10" height="10" fill="#A1B3AC" />
<rect x="230" y="230" width="10" height="10" fill="#62746D" />
<rect x="60" y="240" width="10" height="10" fill="#62746D" />
<rect x="80" y="240" width="10" height="10" fill="#62746D" />
<rect x="90" y="240" width="10" height="10" fill="#A1B3AC" />
<rect x="100" y="240" width="10" height="10" fill="#BEC9C5" />
<rect x="110" y="240" width="10" height="10" fill="#A1B3AC" />
<rect x="120" y="240" width="20" height="10" fill="#62746D" />
<rect x="140" y="240" width="10" height="10" fill="#A1B3AC" />
<rect x="150" y="240" width="10" height="10" fill="#BEC9C5" />
<rect x="160" y="240" width="10" height="10" fill="#374448" />
<rect x="170" y="240" width="10" height="10" fill="#BEC9C5" />
<rect x="180" y="240" width="10" height="10" fill="#A1B3AC" />
<rect x="190" y="240" width="20" height="10" fill="#62746D" />
<rect x="210" y="240" width="10" height="10" fill="#A1B3AC" />
<rect x="220" y="240" width="10" height="10" fill="#62746D" />
<rect x="90" y="250" width="10" height="10" fill="#62746D" />
<rect x="100" y="250" width="10" height="10" fill="#A1B3AC" />
<rect x="110" y="250" width="10" height="10" fill="#62746D" />
<rect x="140" y="250" width="10" height="10" fill="#62746D" />
<rect x="150" y="250" width="10" height="10" fill="#A1B3AC" />
<rect x="160" y="250" width="10" height="10" fill="#BEC9C5" />
<rect x="170" y="250" width="10" height="10" fill="#A1B3AC" />
<rect x="180" y="250" width="10" height="10" fill="#62746D" />
<rect x="210" y="250" width="10" height="10" fill="#62746D" />
<rect x="100" y="260" width="10" height="10" fill="#62746D" />
<rect x="150" y="260" width="10" height="10" fill="#62746D" />
<rect x="160" y="260" width="10" height="10" fill="#A1B3AC" />
<rect x="170" y="260" width="10" height="10" fill="#62746D" />
<rect x="330" y="260" width="10" height="10" fill="#A1B3AC" />
<rect x="160" y="270" width="10" height="10" fill="#62746D" />
<rect x="320" y="270" width="10" height="10" fill="#A1B3AC" />
<rect x="330" y="270" width="10" height="10" fill="#BEC9C5" />
<rect x="340" y="270" width="10" height="10" fill="#A1B3AC" />
<rect x="310" y="280" width="10" height="10" fill="#A1B3AC" />
<rect x="320" y="280" width="10" height="20" fill="#BEC9C5" />
<rect x="330" y="280" width="10" height="10" fill="#374448" />
<rect x="340" y="280" width="10" height="10" fill="#BEC9C5" />
<rect x="350" y="280" width="10" height="10" fill="#A1B3AC" />
<rect x="260" y="290" width="40" height="10" fill="#A1B3AC" />
<rect x="300" y="290" width="10" height="10" fill="#8BA4A3" />
<rect x="310" y="290" width="10" height="30" fill="#BEC9C5" />
<rect x="330" y="290" width="10" height="10" fill="#623219" />
<rect x="340" y="290" width="10" height="10" fill="#374448" />
<rect x="350" y="290" width="10" height="10" fill="#BEC9C5" />
<rect x="360" y="290" width="10" height="10" fill="#A1B3AC" />
<rect x="250" y="300" width="10" height="60" fill="#62746D" />
<rect x="260" y="300" width="30" height="10" fill="#A1B3AC" />
<rect x="290" y="300" width="10" height="10" fill="#8BA4A3" />
<rect x="300" y="300" width="10" height="10" fill="#BEC9C5" />
<rect x="320" y="300" width="10" height="10" fill="#374448" />
<rect x="330" y="300" width="10" height="10" fill="#BEC9C5" />
<rect x="340" y="300" width="10" height="10" fill="#623219" />
<rect x="350" y="300" width="10" height="10" fill="#374448" />
<rect x="360" y="300" width="10" height="10" fill="#BEC9C5" />
<rect x="370" y="300" width="10" height="10" fill="#A1B3AC" />
<rect x="260" y="310" width="10" height="50" fill="#A1B3AC" />
<rect x="270" y="310" width="30" height="10" fill="#374448" />
<rect x="300" y="310" width="10" height="10" fill="#8BA4A3" />
<rect x="320" y="310" width="10" height="10" fill="#623219" />
<rect x="330" y="310" width="10" height="10" fill="#374448" />
<rect x="340" y="310" width="10" height="10" fill="#BEC9C5" />
<rect x="350" y="310" width="10" height="10" fill="#623219" />
<rect x="360" y="310" width="10" height="10" fill="#374448" />
<rect x="370" y="310" width="10" height="10" fill="#BEC9C5" />
<rect x="380" y="310" width="10" height="10" fill="#A1B3AC" />
<rect x="270" y="320" width="40" height="10" fill="#623219" />
<rect x="310" y="320" width="10" height="10" fill="#8BA4A3" />
<rect x="320" y="320" width="10" height="10" fill="#BEC9C5" />
<rect x="330" y="320" width="10" height="10" fill="#623219" />
<rect x="340" y="320" width="10" height="10" fill="#374448" />
<rect x="350" y="320" width="10" height="10" fill="#BEC9C5" />
<rect x="360" y="320" width="10" height="10" fill="#623219" />
<rect x="370" y="320" width="10" height="10" fill="#374448" />
<rect x="380" y="320" width="10" height="10" fill="#BEC9C5" />
<rect x="390" y="320" width="10" height="10" fill="#A1B3AC" />
<rect x="270" y="330" width="20" height="10" fill="#374448" />
<rect x="290" y="330" width="10" height="10" fill="#A1B3AC" />
<rect x="300" y="330" width="20" height="10" fill="#374448" />
<rect x="320" y="330" width="10" height="10" fill="#8BA4A3" />
<rect x="330" y="330" width="10" height="10" fill="#BEC9C5" />
<rect x="340" y="330" width="10" height="10" fill="#623219" />
<rect x="350" y="330" width="10" height="10" fill="#374448" />
<rect x="360" y="330" width="20" height="10" fill="#BEC9C5" />
<rect x="380" y="330" width="10" height="10" fill="#A1B3AC" />
<rect x="270" y="340" width="10" height="20" fill="#A1B3AC" />
<rect x="280" y="340" width="50" height="10" fill="#623219" />
<rect x="330" y="340" width="10" height="20" fill="#8BA4A3" />
<rect x="340" y="340" width="10" height="10" fill="#BEC9C5" />
<rect x="350" y="340" width="10" height="10" fill="#623219" />
<rect x="360" y="340" width="10" height="10" fill="#BEC9C5" />
<rect x="370" y="340" width="10" height="10" fill="#A1B3AC" />
<rect x="380" y="340" width="10" height="10" fill="#62746D" />
<rect x="280" y="350" width="50" height="10" fill="#A1B3AC" />
<rect x="340" y="350" width="10" height="10" fill="#8BA4A3" />
<rect x="350" y="350" width="10" height="10" fill="#BEC9C5" />
<rect x="360" y="350" width="10" height="10" fill="#A1B3AC" />
<rect x="370" y="350" width="10" height="10" fill="#62746D" />
<rect x="260" y="360" width="90" height="10" fill="#62746D" />
<rect x="350" y="360" width="10" height="10" fill="#A1B3AC" />
<rect x="360" y="360" width="10" height="10" fill="#62746D" />
<rect x="350" y="370" width="10" height="10" fill="#62746D" />
</svg>