<?xml version="1.0" encoding="UTF-8" ?>
<svg version="1.1" width="800" height="400" xmlns="http://www.w3.org/2000/svg" shape-rendering="crispEdges">
<rect x="750" y="0" width="10" height="10" fill="#18273A" />
<rect x="740" y="10" width="10" height="10" fill="#18273A" />
<rect x="750" y="10" width="10" height="20" fill="#4A7D8B" />
<rect x="760" y="10" width="10" height="10" fill="#18273A" />
<rect x="730" y="20" width="10" height="10" fill="#18273A" />
<rect x="740" y="20" width="10" height="20" fill="#4A7D8B" />
<rect x="760" y="20" width="10" height="30" fill="#4A7D8B" />
<rect x="770" y="20" width="10" height="10" fill="#18273A" />
<rect x="720" y="30" width="10" height="10" fill="#18273A" />
<rect x="730" y="30" width="10" height="10" fill="#A1B3AC" />
<rect x="750" y="30" width="10" height="10" fill="#A1B3AC" />
<rect x="770" y="30" width="10" height="30" fill="#4A7D8B" />
<rect x="780" y="30" width="10" height="10" fill="#18273A" />
<rect x="710" y="40" width="10" height="10" fill="#18273A" />
<rect x="720" y="40" width="10" height="50" fill="#4A7D8B" />
<rect x="730" y="40" width="10" height="10" fill="#18273A" />
<rect x="740" y="40" width="10" height="10" fill="#A1B3AC" />
<rect x="750" y="40" width="10" height="10" fill="#4A7D8B" />
<rect x="780" y="40" width="10" height="10" fill="#4A7D8B" />
<rect x="790" y="40" width="10" height="10" fill="#18273A" />
<rect x="500" y="50" width="10" height="10" fill="#18273A" />
<rect x="700" y="50" width="10" height="10" fill="#18273A" />
<rect x="710" y="50" width="10" height="30" fill="#4A7D8B" />
<rect x="730" y="50" width="10" height="20" fill="#A1B3AC" />
<rect x="740" y="50" width="10" height="10" fill="#18273A" />
<rect x="750" y="50" width="20" height="10" fill="#A1B3AC" />
<rect x="780" y="50" width="10" height="10" fill="#18273A" />
<rect x="790" y="50" width="10" height="10" fill="#62746D" />
<rect x="490" y="60" width="10" height="10" fill="#18273A" />
<rect x="500" y="60" width="10" height="50" fill="#53495E" />
<rect x="510" y="60" width="10" height="10" fill="#18273A" />
<rect x="690" y="60" width="10" height="10" fill="#18273A" />
<rect x="700" y="60" width="10" height="10" fill="#4A7D8B" />
<rect x="740" y="60" width="10" height="20" fill="#A1B3AC" />
<rect x="750" y="60" width="10" height="10" fill="#18273A" />
<rect x="760" y="60" width="10" height="10" fill="#A1B3AC" />
<rect x="770" y="60" width="10" height="10" fill="#18273A" />
<rect x="780" y="60" width="10" height="10" fill="#62746D" />
<rect x="480" y="70" width="10" height="10" fill="#18273A" />
<rect x="490" y="70" width="10" height="30" fill="#53495E" />
<rect x="510" y="70" width="10" height="50" fill="#53495E" />
<rect x="520" y="70" width="10" height="10" fill="#18273A" />
<rect x="690" y="70" width="10" height="10" fill="#62746D" />
<rect x="700" y="70" width="10" height="10" fill="#18273A" />
<rect x="730" y="70" width="10" height="30" fill="#4A7D8B" />
<rect x="750" y="70" width="10" height="10" fill="#A1B3AC" />
<rect x="760" y="70" width="10" height="10" fill="#18273A" />
<rect x="770" y="70" width="10" height="10" fill="#62746D" />
<rect x="470" y="80" width="10" height="10" fill="#18273A" />
<rect x="480" y="80" width="10" height="10" fill="#53495E" />
<rect x="520" y="80" width="10" height="20" fill="#53495E" />
<rect x="530" y="80" width="10" height="20" fill="#18273A" />
<rect x="560" y="80" width="10" height="10" fill="#18273A" />
<rect x="600" y="80" width="40" height="10" fill="#18273A" />
<rect x="700" y="80" width="10" height="10" fill="#62746D" />
<rect x="710" y="80" width="10" height="10" fill="#18273A" />
<rect x="740" y="80" width="10" height="10" fill="#4A7D8B" />
<rect x="750" y="80" width="10" height="10" fill="#18273A" />
<rect x="760" y="80" width="10" height="10" fill="#62746D" />
<rect x="450" y="90" width="10" height="10" fill="#62746D" />
<rect x="460" y="90" width="10" height="10" fill="#18273A" />
<rect x="470" y="90" width="10" height="10" fill="#53495E" />
<rect x="480" y="90" width="10" height="10" fill="#18273A" />
<rect x="540" y="90" width="20" height="10" fill="#18273A" />
<rect x="560" y="90" width="10" height="10" fill="#A1B3AC" />
<rect x="570" y="90" width="10" height="10" fill="#18273A" />
<rect x="590" y="90" width="10" height="10" fill="#18273A" />
<rect x="600" y="90" width="30" height="10" fill="#A1B3AC" />
<rect x="630" y="90" width="20" height="10" fill="#18273A" />
<rect x="710" y="90" width="10" height="10" fill="#62746D" />
<rect x="720" y="90" width="10" height="10" fill="#18273A" />
<rect x="740" y="90" width="10" height="10" fill="#18273A" />
<rect x="750" y="90" width="10" height="10" fill="#62746D" />
<rect x="440" y="100" width="10" height="10" fill="#62746D" />
<rect x="450" y="100" width="10" height="10" fill="#18273A" />
<rect x="460" y="100" width="10" height="30" fill="#53495E" />
<rect x="470" y="100" width="10" height="20" fill="#18273A" />
<rect x="480" y="100" width="10" height="20" fill="#A1B3AC" />
<rect x="490" y="100" width="10" height="10" fill="#18273A" />
<rect x="520" y="100" width="10" height="60" fill="#18273A" />
<rect x="530" y="100" width="30" height="60" fill="#394C39" />
<rect x="560" y="100" width="10" height="10" fill="#18273A" />
<rect x="570" y="100" width="10" height="40" fill="#A1B3AC" />
<rect x="580" y="100" width="10" height="40" fill="#18273A" />
<rect x="590" y="100" width="10" height="40" fill="#A1B3AC" />
<rect x="600" y="100" width="20" height="10" fill="#0E2823" />
<rect x="620" y="100" width="10" height="40" fill="#A1B3AC" />
<rect x="630" y="100" width="10" height="50" fill="#18273A" />
<rect x="640" y="100" width="10" height="60" fill="#394C39" />
<rect x="650" y="100" width="10" height="60" fill="#18273A" />
<rect x="720" y="100" width="10" height="10" fill="#62746D" />
<rect x="730" y="100" width="10" height="10" fill="#18273A" />
<rect x="740" y="100" width="10" height="10" fill="#62746D" />
<rect x="430" y="110" width="10" height="10" fill="#62746D" />
<rect x="440" y="110" width="10" height="10" fill="#18273A" />
<rect x="450" y="110" width="10" height="10" fill="#53495E" />
<rect x="490" y="110" width="10" height="20" fill="#A1B3AC" />
<rect x="500" y="110" width="10" height="10" fill="#18273A" />
<rect x="560" y="110" width="10" height="10" fill="#394C39" />
<rect x="600" y="110" width="20" height="10" fill="#A1B3AC" />
<rect x="660" y="110" width="10" height="60" fill="#62746D" />
<rect x="730" y="110" width="10" height="10" fill="#62746D" />
<rect x="440" y="120" width="10" height="20" fill="#637D66" />
<rect x="450" y="120" width="10" height="10" fill="#18273A" />
<rect x="470" y="120" width="10" height="20" fill="#53495E" />
<rect x="480" y="120" width="10" height="10" fill="#18273A" />
<rect x="500" y="120" width="10" height="10" fill="#A1B3AC" />
<rect x="510" y="120" width="10" height="10" fill="#18273A" />
<rect x="560" y="120" width="10" height="10" fill="#18273A" />
<rect x="600" y="120" width="20" height="10" fill="#0E2823" />
<rect x="430" y="130" width="10" height="50" fill="#738B84" />
<rect x="450" y="130" width="10" height="10" fill="#637D66" />
<rect x="460" y="130" width="10" height="20" fill="#18273A" />
<rect x="480" y="130" width="20" height="10" fill="#53495E" />
<rect x="500" y="130" width="10" height="10" fill="#18273A" />
<rect x="510" y="130" width="10" height="10" fill="#232406" />
<rect x="560" y="130" width="10" height="30" fill="#394C39" />
<rect x="600" y="130" width="20" height="10" fill="#A1B3AC" />
<rect x="420" y="140" width="10" height="30" fill="#738B84" />
<rect x="440" y="140" width="20" height="10" fill="#18273A" />
<rect x="470" y="140" width="10" height="10" fill="#18273A" />
<rect x="480" y="140" width="10" height="10" fill="#53495E" />
<rect x="490" y="140" width="10" height="10" fill="#18273A" />
<rect x="500" y="140" width="10" height="10" fill="#232406" />
<rect x="510" y="140" width="10" height="10" fill="#18273A" />
<rect x="570" y="140" width="10" height="10" fill="#18273A" />
<rect x="580" y="140" width="10" height="10" fill="#223A37" />
<rect x="590" y="140" width="40" height="10" fill="#18273A" />
<rect x="410" y="150" width="10" height="10" fill="#738B84" />
<rect x="440" y="150" width="10" height="50" fill="#18273A" />
<rect x="450" y="150" width="30" height="10" fill="#3A4E70" />
<rect x="480" y="150" width="10" height="10" fill="#18273A" />
<rect x="490" y="150" width="10" height="40" fill="#3A4E70" />
<rect x="500" y="150" width="10" height="30" fill="#18273A" />
<rect x="510" y="150" width="10" height="40" fill="#3A4E70" />
<rect x="570" y="150" width="10" height="10" fill="#223A37" />
<rect x="580" y="150" width="10" height="10" fill="#394C39" />
<rect x="590" y="150" width="10" height="10" fill="#223A37" />
<rect x="600" y="150" width="40" height="10" fill="#394C39" />
<rect x="410" y="160" width="10" height="10" fill="#62746D" />
<rect x="450" y="160" width="10" height="10" fill="#3A4E70" />
<rect x="460" y="160" width="20" height="10" fill="#18273A" />
<rect x="480" y="160" width="10" height="40" fill="#3A4E70" />
<rect x="520" y="160" width="10" height="40" fill="#3A4E70" />
<rect x="530" y="160" width="120" height="10" fill="#18273A" />
<rect x="650" y="160" width="10" height="50" fill="#A1B3AC" />
<rect x="420" y="170" width="10" height="10" fill="#62746D" />
<rect x="450" y="170" width="10" height="10" fill="#18273A" />
<rect x="460" y="170" width="20" height="10" fill="#3A4E70" />
<rect x="530" y="170" width="30" height="30" fill="#3A4E70" />
<rect x="560" y="170" width="10" height="10" fill="#232406" />
<rect x="570" y="170" width="20" height="30" fill="#3D313F" />
<rect x="590" y="170" width="10" height="10" fill="#232406" />
<rect x="600" y="170" width="10" height="10" fill="#2F4662" />
<rect x="610" y="170" width="10" height="10" fill="#18273A" />
<rect x="620" y="170" width="10" height="10" fill="#2F4662" />
<rect x="630" y="170" width="10" height="10" fill="#18273A" />
<rect x="640" y="170" width="10" height="10" fill="#A1B3AC" />
<rect x="660" y="170" width="10" height="30" fill="#A1B3AC" />
<rect x="670" y="170" width="10" height="10" fill="#62746D" />
<rect x="430" y="180" width="10" height="30" fill="#62746D" />
<rect x="450" y="180" width="10" height="20" fill="#3A4E70" />
<rect x="460" y="180" width="20" height="10" fill="#18273A" />
<rect x="500" y="180" width="10" height="10" fill="#2A305E" />
<rect x="560" y="180" width="10" height="20" fill="#18273A" />
<rect x="590" y="180" width="10" height="10" fill="#3D313F" />
<rect x="600" y="180" width="10" height="10" fill="#18273A" />
<rect x="610" y="180" width="10" height="20" fill="#53495E" />
<rect x="620" y="180" width="10" height="10" fill="#18273A" />
<rect x="630" y="180" width="20" height="10" fill="#94A991" />
<rect x="670" y="180" width="10" height="10" fill="#A1B3AC" />
<rect x="680" y="180" width="10" height="10" fill="#62746D" />
<rect x="460" y="190" width="20" height="10" fill="#3A4E70" />
<rect x="490" y="190" width="10" height="10" fill="#2A305E" />
<rect x="500" y="190" width="10" height="10" fill="#18273A" />
<rect x="510" y="190" width="10" height="10" fill="#2A305E" />
<rect x="590" y="190" width="10" height="10" fill="#18273A" />
<rect x="600" y="190" width="10" height="30" fill="#53495E" />
<rect x="620" y="190" width="10" height="10" fill="#53495E" />
<rect x="630" y="190" width="10" height="10" fill="#18273A" />
<rect x="640" y="190" width="10" height="10" fill="#A1B3AC" />
<rect x="670" y="190" width="10" height="10" fill="#62746D" />
<rect x="440" y="200" width="10" height="20" fill="#62746D" />
<rect x="450" y="200" width="50" height="10" fill="#18273A" />
<rect x="500" y="200" width="10" height="10" fill="#738B84" />
<rect x="510" y="200" width="40" height="10" fill="#18273A" />
<rect x="550" y="200" width="10" height="10" fill="#232406" />
<rect x="560" y="200" width="20" height="10" fill="#3D313F" />
<rect x="580" y="200" width="10" height="10" fill="#18273A" />
<rect x="590" y="200" width="10" height="20" fill="#53495E" />
<rect x="610" y="200" width="20" height="10" fill="#18273A" />
<rect x="630" y="200" width="10" height="10" fill="#A1B3AC" />
<rect x="640" y="200" width="10" height="40" fill="#18273A" />
<rect x="660" y="200" width="10" height="20" fill="#62746D" />
<rect x="450" y="210" width="10" height="10" fill="#232406" />
<rect x="460" y="210" width="20" height="30" fill="#27362B" />
<rect x="480" y="210" width="20" height="10" fill="#738B84" />
<rect x="500" y="210" width="10" height="10" fill="#232406" />
<rect x="510" y="210" width="20" height="10" fill="#738B84" />
<rect x="530" y="210" width="20" height="10" fill="#27362B" />
<rect x="550" y="210" width="10" height="10" fill="#18273A" />
<rect x="560" y="210" width="10" height="10" fill="#3D313F" />
<rect x="570" y="210" width="10" height="10" fill="#18273A" />
<rect x="580" y="210" width="10" height="10" fill="#53495E" />
<rect x="610" y="210" width="10" height="20" fill="#18273A" />
<rect x="620" y="210" width="10" height="20" fill="#A1B3AC" />
<rect x="630" y="210" width="10" height="10" fill="#18273A" />
<rect x="650" y="210" width="10" height="10" fill="#18273A" />
<rect x="440" y="220" width="10" height="10" fill="#18273A" />
<rect x="450" y="220" width="10" height="10" fill="#27362B" />
<rect x="480" y="220" width="10" height="10" fill="#738B84" />
<rect x="490" y="220" width="40" height="10" fill="#18273A" />
<rect x="530" y="220" width="10" height="10" fill="#27362B" />
<rect x="540" y="220" width="10" height="10" fill="#18273A" />
<rect x="550" y="220" width="10" height="10" fill="#3D313F" />
<rect x="560" y="220" width="10" height="10" fill="#232406" />
<rect x="570" y="220" width="10" height="10" fill="#53495E" />
<rect x="580" y="220" width="30" height="10" fill="#18273A" />
<rect x="630" y="220" width="10" height="20" fill="#A1B3AC" />
<rect x="650" y="220" width="10" height="30" fill="#53495E" />
<rect x="660" y="220" width="10" height="10" fill="#18273A" />
<rect x="670" y="220" width="10" height="10" fill="#62746D" />
<rect x="440" y="230" width="10" height="10" fill="#62746D" />
<rect x="450" y="230" width="10" height="10" fill="#18273A" />
<rect x="480" y="230" width="10" height="60" fill="#18273A" />
<rect x="490" y="230" width="30" height="10" fill="#4A7D8B" />
<rect x="520" y="230" width="20" height="10" fill="#18273A" />
<rect x="540" y="230" width="10" height="40" fill="#A1B3AC" />
<rect x="550" y="230" width="10" height="40" fill="#18273A" />
<rect x="560" y="230" width="10" height="10" fill="#A1B3AC" />
<rect x="570" y="230" width="10" height="10" fill="#18273A" />
<rect x="580" y="230" width="40" height="40" fill="#4A7D8B" />
<rect x="620" y="230" width="10" height="60" fill="#18273A" />
<rect x="660" y="230" width="10" height="10" fill="#53495E" />
<rect x="670" y="230" width="10" height="10" fill="#18273A" />
<rect x="680" y="230" width="10" height="20" fill="#62746D" />
<rect x="450" y="240" width="10" height="20" fill="#62746D" />
<rect x="460" y="240" width="10" height="10" fill="#18273A" />
<rect x="470" y="240" width="10" height="10" fill="#27362B" />
<rect x="490" y="240" width="20" height="50" fill="#4A7D8B" />
<rect x="510" y="240" width="10" height="10" fill="#18273A" />
<rect x="520" y="240" width="10" height="10" fill="#A1B3AC" />
<rect x="530" y="240" width="10" height="10" fill="#18273A" />
<rect x="560" y="240" width="10" height="10" fill="#18273A" />
<rect x="570" y="240" width="10" height="10" fill="#A1B3AC" />
<rect x="630" y="240" width="10" height="10" fill="#18273A" />
<rect x="640" y="240" width="10" height="20" fill="#53495E" />
<rect x="660" y="240" width="10" height="10" fill="#18273A" />
<rect x="670" y="240" width="10" height="10" fill="#62746D" />
<rect x="690" y="240" width="10" height="10" fill="#62746D" />
<rect x="460" y="250" width="10" height="40" fill="#738B84" />
<rect x="470" y="250" width="10" height="10" fill="#232406" />
<rect x="510" y="250" width="10" height="40" fill="#4A7D8B" />
<rect x="520" y="250" width="10" height="30" fill="#18273A" />
<rect x="530" y="250" width="10" height="30" fill="#A1B3AC" />
<rect x="560" y="250" width="10" height="20" fill="#A1B3AC" />
<rect x="570" y="250" width="10" height="20" fill="#18273A" />
<rect x="630" y="250" width="10" height="20" fill="#53495E" />
<rect x="650" y="250" width="10" height="10" fill="#18273A" />
<rect x="660" y="250" width="40" height="20" fill="#A1B3AC" />
<rect x="700" y="250" width="10" height="50" fill="#62746D" />
<rect x="440" y="260" width="10" height="10" fill="#62746D" />
<rect x="450" y="260" width="10" height="20" fill="#738B84" />
<rect x="470" y="260" width="10" height="10" fill="#637D66" />
<rect x="640" y="260" width="10" height="10" fill="#18273A" />
<rect x="650" y="260" width="10" height="40" fill="#A1B3AC" />
<rect x="430" y="270" width="10" height="10" fill="#62746D" />
<rect x="440" y="270" width="10" height="10" fill="#738B84" />
<rect x="470" y="270" width="10" height="30" fill="#738B84" />
<rect x="540" y="270" width="10" height="10" fill="#18273A" />
<rect x="550" y="270" width="10" height="10" fill="#2A305E" />
<rect x="560" y="270" width="10" height="10" fill="#18273A" />
<rect x="570" y="270" width="10" height="10" fill="#A1B3AC" />
<rect x="580" y="270" width="10" height="10" fill="#18273A" />
<rect x="590" y="270" width="30" height="20" fill="#4A7D8B" />
<rect x="630" y="270" width="10" height="10" fill="#232406" />
<rect x="640" y="270" width="10" height="30" fill="#A1B3AC" />
<rect x="660" y="270" width="10" height="30" fill="#A1B3AC" />
<rect x="670" y="270" width="10" height="10" fill="#94A991" />
<rect x="680" y="270" width="20" height="10" fill="#A1B3AC" />
<rect x="440" y="280" width="10" height="10" fill="#62746D" />
<rect x="450" y="280" width="10" height="10" fill="#18273A" />
<rect x="520" y="280" width="10" height="10" fill="#4A7D8B" />
<rect x="530" y="280" width="10" height="20" fill="#18273A" />
<rect x="540" y="280" width="10" height="10" fill="#2A305E" />
<rect x="550" y="280" width="10" height="10" fill="#18273A" />
<rect x="560" y="280" width="10" height="10" fill="#2A305E" />
<rect x="570" y="280" width="10" height="20" fill="#18273A" />
<rect x="580" y="280" width="10" height="10" fill="#4A7D8B" />
<rect x="630" y="280" width="10" height="20" fill="#A1B3AC" />
<rect x="670" y="280" width="10" height="10" fill="#A1B3AC" />
<rect x="680" y="280" width="20" height="10" fill="#94A991" />
<rect x="440" y="290" width="10" height="10" fill="#18273A" />
<rect x="450" y="290" width="10" height="10" fill="#394C39" />
<rect x="460" y="290" width="10" height="10" fill="#18273A" />
<rect x="480" y="290" width="10" height="10" fill="#637D66" />
<rect x="490" y="290" width="40" height="10" fill="#18273A" />
<rect x="540" y="290" width="10" height="10" fill="#18273A" />
<rect x="550" y="290" width="10" height="20" fill="#3D313F" />
<rect x="560" y="290" width="10" height="10" fill="#18273A" />
<rect x="580" y="290" width="40" height="10" fill="#18273A" />
<rect x="620" y="290" width="10" height="20" fill="#738B84" />
<rect x="670" y="290" width="10" height="10" fill="#809779" />
<rect x="680" y="290" width="10" height="10" fill="#94A991" />
<rect x="690" y="290" width="10" height="10" fill="#809779" />
<rect x="430" y="300" width="10" height="10" fill="#18273A" />
<rect x="440" y="300" width="10" height="10" fill="#394C39" />
<rect x="450" y="300" width="10" height="10" fill="#0E2823" />
<rect x="460" y="300" width="10" height="20" fill="#394C39" />
<rect x="470" y="300" width="10" height="10" fill="#18273A" />
<rect x="480" y="300" width="20" height="10" fill="#62746D" />
<rect x="500" y="300" width="10" height="10" fill="#232406" />
<rect x="510" y="300" width="40" height="10" fill="#3D313F" />
<rect x="560" y="300" width="10" height="10" fill="#232406" />
<rect x="570" y="300" width="40" height="10" fill="#62746D" />
<rect x="610" y="300" width="10" height="30" fill="#738B84" />
<rect x="630" y="300" width="50" height="10" fill="#738B84" />
<rect x="680" y="300" width="20" height="10" fill="#62746D" />
<rect x="420" y="310" width="10" height="10" fill="#18273A" />
<rect x="430" y="310" width="10" height="10" fill="#394C39" />
<rect x="440" y="310" width="10" height="10" fill="#0E2823" />
<rect x="450" y="310" width="10" height="30" fill="#394C39" />
<rect x="470" y="310" width="10" height="30" fill="#394C39" />
<rect x="480" y="310" width="10" height="10" fill="#18273A" />
<rect x="490" y="310" width="20" height="10" fill="#62746D" />
<rect x="510" y="310" width="10" height="10" fill="#18273A" />
<rect x="520" y="310" width="30" height="10" fill="#3D313F" />
<rect x="550" y="310" width="10" height="10" fill="#18273A" />
<rect x="590" y="310" width="20" height="10" fill="#62746D" />
<rect x="620" y="310" width="40" height="10" fill="#18273A" />
<rect x="660" y="310" width="20" height="10" fill="#738B84" />
<rect x="680" y="310" width="10" height="10" fill="#62746D" />
<rect x="690" y="310" width="10" height="10" fill="#18273A" />
<rect x="420" y="320" width="10" height="10" fill="#27362B" />
<rect x="430" y="320" width="10" height="10" fill="#18273A" />
<rect x="440" y="320" width="10" height="10" fill="#394C39" />
<rect x="460" y="320" width="10" height="10" fill="#0E2823" />
<rect x="480" y="320" width="10" height="10" fill="#394C39" />
<rect x="490" y="320" width="10" height="10" fill="#18273A" />
<rect x="500" y="320" width="20" height="10" fill="#62746D" />
<rect x="520" y="320" width="10" height="10" fill="#18273A" />
<rect x="530" y="320" width="10" height="10" fill="#3D313F" />
<rect x="540" y="320" width="10" height="10" fill="#18273A" />
<rect x="600" y="320" width="10" height="20" fill="#62746D" />
<rect x="620" y="320" width="10" height="60" fill="#18273A" />
<rect x="630" y="320" width="30" height="10" fill="#A1B3AC" />
<rect x="660" y="320" width="10" height="10" fill="#18273A" />
<rect x="670" y="320" width="10" height="10" fill="#738B84" />
<rect x="680" y="320" width="10" height="10" fill="#18273A" />
<rect x="690" y="320" width="50" height="10" fill="#62746D" />
<rect x="410" y="330" width="10" height="10" fill="#62746D" />
<rect x="420" y="330" width="10" height="10" fill="#18273A" />
<rect x="430" y="330" width="10" height="10" fill="#27362B" />
<rect x="440" y="330" width="10" height="10" fill="#18273A" />
<rect x="460" y="330" width="10" height="20" fill="#394C39" />
<rect x="480" y="330" width="10" height="10" fill="#18273A" />
<rect x="490" y="330" width="10" height="10" fill="#27362B" />
<rect x="500" y="330" width="10" height="20" fill="#A1B3AC" />
<rect x="510" y="330" width="20" height="10" fill="#62746D" />
<rect x="530" y="330" width="10" height="10" fill="#18273A" />
<rect x="570" y="330" width="30" height="10" fill="#62746D" />
<rect x="610" y="330" width="10" height="60" fill="#3C2F43" />
<rect x="630" y="330" width="10" height="40" fill="#A1B3AC" />
<rect x="640" y="330" width="20" height="10" fill="#0E2823" />
<rect x="660" y="330" width="10" height="40" fill="#A1B3AC" />
<rect x="670" y="330" width="10" height="40" fill="#18273A" />
<rect x="680" y="330" width="10" height="40" fill="#A1B3AC" />
<rect x="690" y="330" width="10" height="20" fill="#18273A" />
<rect x="700" y="330" width="40" height="30" fill="#3C2F43" />
<rect x="740" y="330" width="10" height="60" fill="#62746D" />
<rect x="420" y="340" width="10" height="10" fill="#62746D" />
<rect x="430" y="340" width="10" height="10" fill="#18273A" />
<rect x="440" y="340" width="10" height="10" fill="#27362B" />
<rect x="450" y="340" width="10" height="10" fill="#18273A" />
<rect x="470" y="340" width="10" height="10" fill="#18273A" />
<rect x="480" y="340" width="10" height="10" fill="#27362B" />
<rect x="490" y="340" width="10" height="10" fill="#18273A" />
<rect x="510" y="340" width="10" height="10" fill="#94A991" />
<rect x="520" y="340" width="10" height="10" fill="#62746D" />
<rect x="560" y="340" width="10" height="40" fill="#62746D" />
<rect x="570" y="340" width="40" height="10" fill="#A1B3AC" />
<rect x="640" y="340" width="20" height="10" fill="#A1B3AC" />
<rect x="430" y="350" width="10" height="10" fill="#62746D" />
<rect x="440" y="350" width="10" height="10" fill="#18273A" />
<rect x="450" y="350" width="10" height="10" fill="#27362B" />
<rect x="460" y="350" width="10" height="10" fill="#18273A" />
<rect x="470" y="350" width="10" height="10" fill="#27362B" />
<rect x="480" y="350" width="10" height="10" fill="#18273A" />
<rect x="490" y="350" width="10" height="10" fill="#809779" />
<rect x="500" y="350" width="10" height="20" fill="#94A991" />
<rect x="510" y="350" width="20" height="10" fill="#A1B3AC" />
<rect x="530" y="350" width="10" height="10" fill="#62746D" />
<rect x="570" y="350" width="20" height="30" fill="#A1B3AC" />
<rect x="590" y="350" width="10" height="10" fill="#94A991" />
<rect x="600" y="350" width="10" height="10" fill="#A1B3AC" />
<rect x="640" y="350" width="20" height="10" fill="#0E2823" />
<rect x="690" y="350" width="10" height="10" fill="#3C2F43" />
<rect x="440" y="360" width="10" height="10" fill="#62746D" />
<rect x="450" y="360" width="10" height="10" fill="#18273A" />
<rect x="460" y="360" width="10" height="10" fill="#27362B" />
<rect x="470" y="360" width="10" height="10" fill="#18273A" />
<rect x="480" y="360" width="20" height="10" fill="#94A991" />
<rect x="510" y="360" width="10" height="10" fill="#A1B3AC" />
<rect x="520" y="360" width="10" height="10" fill="#62746D" />
<rect x="590" y="360" width="10" height="10" fill="#A1B3AC" />
<rect x="600" y="360" width="10" height="10" fill="#94A991" />
<rect x="640" y="360" width="20" height="10" fill="#A1B3AC" />
<rect x="690" y="360" width="10" height="10" fill="#A1B3AC" />
<rect x="700" y="360" width="10" height="10" fill="#18273A" />
<rect x="710" y="360" width="30" height="30" fill="#3C2F43" />
<rect x="450" y="370" width="10" height="10" fill="#62746D" />
<rect x="460" y="370" width="10" height="10" fill="#18273A" />
<rect x="470" y="370" width="10" height="10" fill="#62746D" />
<rect x="480" y="370" width="10" height="10" fill="#A1B3AC" />
<rect x="490" y="370" width="10" height="10" fill="#94A991" />
<rect x="500" y="370" width="10" height="10" fill="#A1B3AC" />
<rect x="510" y="370" width="10" height="10" fill="#62746D" />
<rect x="590" y="370" width="10" height="10" fill="#809779" />
<rect x="600" y="370" width="10" height="10" fill="#A1B3AC" />
<rect x="630" y="370" width="40" height="10" fill="#18273A" />
<rect x="670" y="370" width="10" height="10" fill="#53495E" />
<rect x="680" y="370" width="20" height="10" fill="#18273A" />
<rect x="700" y="370" width="10" height="20" fill="#3C2F43" />
<rect x="460" y="380" width="10" height="10" fill="#62746D" />
<rect x="480" y="380" width="10" height="10" fill="#62746D" />
<rect x="490" y="380" width="10" height="10" fill="#A1B3AC" />
<rect x="500" y="380" width="10" height="10" fill="#62746D" />
<rect x="570" y="380" width="40" height="10" fill="#62746D" />
<rect x="620" y="380" width="40" height="10" fill="#3C2F43" />
<rect x="660" y="380" width="10" height="10" fill="#53495E" />
<rect x="670" y="380" width="10" height="10" fill="#3C2F43" />
<rect x="680" y="380" width="10" height="10" fill="#53495E" />
<rect x="690" y="380" width="10" height="10" fill="#3C2F43" />
<rect x="490" y="390" width="10" height="10" fill="#62746D" />
<rect x="610" y="390" width="130" height="10" fill="#62746D" />
</svg>