<?xml version="1.0" encoding="UTF-8" ?>
<svg version="1.1" width="400" height="400" xmlns="http://www.w3.org/2000/svg" shape-rendering="crispEdges">
<rect x="260" y="0" width="140" height="10" fill="#9AA9A4" />
<rect x="240" y="10" width="10" height="40" fill="#9AA9A4" />
<rect x="250" y="10" width="10" height="60" fill="#798E8F" />
<rect x="260" y="10" width="140" height="10" fill="#667782" />
<rect x="260" y="20" width="10" height="30" fill="#798E8F" />
<rect x="270" y="20" width="120" height="10" fill="#667782" />
<rect x="390" y="20" width="10" height="30" fill="#798E8F" />
<rect x="220" y="30" width="10" height="40" fill="#9AA9A4" />
<rect x="230" y="30" width="10" height="60" fill="#798E8F" />
<rect x="270" y="30" width="10" height="20" fill="#798E8F" />
<rect x="280" y="30" width="100" height="10" fill="#667782" />
<rect x="380" y="30" width="10" height="20" fill="#798E8F" />
<rect x="280" y="40" width="10" height="10" fill="#798E8F" />
<rect x="290" y="40" width="80" height="10" fill="#667782" />
<rect x="370" y="40" width="10" height="10" fill="#798E8F" />
<rect x="200" y="50" width="10" height="40" fill="#9AA9A4" />
<rect x="210" y="50" width="10" height="60" fill="#798E8F" />
<rect x="240" y="50" width="10" height="20" fill="#798E8F" />
<rect x="180" y="70" width="10" height="40" fill="#9AA9A4" />
<rect x="190" y="70" width="10" height="60" fill="#798E8F" />
<rect x="220" y="70" width="10" height="20" fill="#798E8F" />
<rect x="160" y="90" width="10" height="40" fill="#5E4E1A" />
<rect x="170" y="90" width="10" height="60" fill="#3A370B" />
<rect x="200" y="90" width="10" height="30" fill="#798E8F" />
<rect x="140" y="110" width="10" height="40" fill="#5E4E1A" />
<rect x="150" y="110" width="10" height="60" fill="#3A370B" />
<rect x="180" y="110" width="10" height="20" fill="#798E8F" />
<rect x="120" y="130" width="10" height="40" fill="#5E4E1A" />
<rect x="130" y="130" width="10" height="60" fill="#3A370B" />
<rect x="160" y="130" width="10" height="30" fill="#3A370B" />
<rect x="100" y="150" width="10" height="40" fill="#5E4E1A" />
<rect x="110" y="150" width="10" height="60" fill="#3A370B" />
<rect x="140" y="150" width="10" height="20" fill="#3A370B" />
<rect x="90" y="170" width="10" height="60" fill="#62746D" />
<rect x="120" y="170" width="10" height="20" fill="#3A370B" />
<rect x="140" y="170" width="260" height="20" fill="#4E6361" />
<rect x="100" y="190" width="10" height="20" fill="#3A370B" />
<rect x="120" y="190" width="20" height="10" fill="#4E6361" />
<rect x="140" y="190" width="10" height="10" fill="#62746D" />
<rect x="150" y="190" width="10" height="10" fill="#4E6361" />
<rect x="160" y="190" width="10" height="10" fill="#62746D" />
<rect x="170" y="190" width="10" height="10" fill="#4E6361" />
<rect x="180" y="190" width="10" height="10" fill="#62746D" />
<rect x="190" y="190" width="10" height="10" fill="#4E6361" />
<rect x="200" y="190" width="10" height="10" fill="#62746D" />
<rect x="210" y="190" width="10" height="10" fill="#4E6361" />
<rect x="220" y="190" width="10" height="10" fill="#62746D" />
<rect x="230" y="190" width="10" height="10" fill="#4E6361" />
<rect x="240" y="190" width="10" height="10" fill="#62746D" />
<rect x="250" y="190" width="10" height="10" fill="#4E6361" />
<rect x="260" y="190" width="10" height="10" fill="#62746D" />
<rect x="270" y="190" width="130" height="10" fill="#4E6361" />
<rect x="120" y="200" width="10" height="10" fill="#4E6361" />
<rect x="130" y="200" width="10" height="30" fill="#62746D" />
<rect x="140" y="200" width="10" height="10" fill="#4E6361" />
<rect x="150" y="200" width="10" height="30" fill="#62746D" />
<rect x="160" y="200" width="10" height="10" fill="#4E6361" />
<rect x="170" y="200" width="10" height="30" fill="#62746D" />
<rect x="180" y="200" width="10" height="10" fill="#4E6361" />
<rect x="190" y="200" width="10" height="30" fill="#62746D" />
<rect x="200" y="200" width="10" height="10" fill="#4E6361" />
<rect x="210" y="200" width="10" height="30" fill="#62746D" />
<rect x="220" y="200" width="10" height="10" fill="#4E6361" />
<rect x="230" y="200" width="10" height="30" fill="#62746D" />
<rect x="240" y="200" width="10" height="10" fill="#4E6361" />
<rect x="250" y="200" width="10" height="30" fill="#62746D" />
<rect x="260" y="200" width="10" height="10" fill="#4E6361" />
<rect x="270" y="200" width="10" height="10" fill="#62746D" />
<rect x="280" y="200" width="120" height="10" fill="#4E6361" />
<rect x="100" y="210" width="30" height="10" fill="#62746D" />
<rect x="140" y="210" width="10" height="10" fill="#62746D" />
<rect x="160" y="210" width="10" height="10" fill="#62746D" />
<rect x="180" y="210" width="10" height="10" fill="#62746D" />
<rect x="200" y="210" width="10" height="10" fill="#62746D" />
<rect x="220" y="210" width="10" height="10" fill="#62746D" />
<rect x="240" y="210" width="10" height="10" fill="#62746D" />
<rect x="260" y="210" width="10" height="10" fill="#62746D" />
<rect x="270" y="210" width="10" height="10" fill="#4E6361" />
<rect x="280" y="210" width="10" height="10" fill="#62746D" />
<rect x="290" y="210" width="110" height="30" fill="#4E6361" />
<rect x="110" y="220" width="10" height="10" fill="#62746D" />
<rect x="270" y="220" width="10" height="10" fill="#62746D" />
<rect x="280" y="220" width="10" height="10" fill="#4E6361" />
<rect x="100" y="230" width="10" height="10" fill="#62746D" />
<rect x="120" y="230" width="10" height="10" fill="#62746D" />
<rect x="140" y="230" width="10" height="10" fill="#62746D" />
<rect x="160" y="230" width="10" height="10" fill="#62746D" />
<rect x="180" y="230" width="10" height="10" fill="#62746D" />
<rect x="200" y="230" width="10" height="10" fill="#62746D" />
<rect x="220" y="230" width="10" height="10" fill="#62746D" />
<rect x="240" y="230" width="10" height="10" fill="#62746D" />
<rect x="260" y="230" width="10" height="20" fill="#62746D" />
<rect x="270" y="230" width="10" height="10" fill="#4E6361" />
<rect x="280" y="230" width="10" height="10" fill="#62746D" />
<rect x="280" y="240" width="30" height="10" fill="#4E6361" />
<rect x="310" y="240" width="10" height="10" fill="#62746D" />
<rect x="320" y="240" width="10" height="10" fill="#4E6361" />
<rect x="330" y="240" width="10" height="10" fill="#62746D" />
<rect x="340" y="240" width="10" height="10" fill="#4E6361" />
<rect x="350" y="240" width="10" height="10" fill="#62746D" />
<rect x="360" y="240" width="10" height="10" fill="#4E6361" />
<rect x="370" y="240" width="10" height="10" fill="#62746D" />
<rect x="380" y="240" width="10" height="10" fill="#4E6361" />
<rect x="390" y="240" width="10" height="10" fill="#62746D" />
<rect x="270" y="250" width="20" height="10" fill="#62746D" />
<rect x="290" y="250" width="10" height="10" fill="#4E6361" />
<rect x="300" y="250" width="10" height="110" fill="#62746D" />
<rect x="310" y="250" width="10" height="10" fill="#4E6361" />
<rect x="320" y="250" width="10" height="110" fill="#62746D" />
<rect x="330" y="250" width="10" height="10" fill="#4E6361" />
<rect x="340" y="250" width="10" height="110" fill="#62746D" />
<rect x="350" y="250" width="10" height="10" fill="#4E6361" />
<rect x="360" y="250" width="10" height="110" fill="#62746D" />
<rect x="370" y="250" width="10" height="10" fill="#4E6361" />
<rect x="380" y="250" width="10" height="110" fill="#62746D" />
<rect x="390" y="250" width="10" height="10" fill="#4E6361" />
<rect x="260" y="260" width="10" height="10" fill="#62746D" />
<rect x="280" y="260" width="20" height="100" fill="#62746D" />
<rect x="310" y="260" width="10" height="110" fill="#62746D" />
<rect x="330" y="260" width="10" height="110" fill="#62746D" />
<rect x="350" y="260" width="10" height="110" fill="#62746D" />
<rect x="370" y="260" width="10" height="110" fill="#62746D" />
<rect x="390" y="260" width="10" height="110" fill="#62746D" />
<rect x="270" y="270" width="10" height="10" fill="#62746D" />
<rect x="260" y="280" width="10" height="10" fill="#62746D" />
<rect x="270" y="290" width="10" height="10" fill="#62746D" />
<rect x="260" y="300" width="10" height="10" fill="#62746D" />
<rect x="270" y="310" width="10" height="10" fill="#62746D" />
<rect x="260" y="320" width="10" height="10" fill="#62746D" />
<rect x="270" y="330" width="10" height="10" fill="#62746D" />
<rect x="260" y="340" width="10" height="10" fill="#62746D" />
<rect x="270" y="350" width="10" height="10" fill="#62746D" />
<rect x="290" y="360" width="10" height="10" fill="#62746D" />
<rect x="280" y="370" width="10" height="10" fill="#62746D" />
<rect x="300" y="370" width="10" height="10" fill="#62746D" />
<rect x="320" y="370" width="10" height="10" fill="#62746D" />
<rect x="340" y="370" width="10" height="10" fill="#62746D" />
<rect x="360" y="370" width="10" height="10" fill="#62746D" />
<rect x="380" y="370" width="10" height="10" fill="#62746D" />
</svg>